<?xml version="1.0" encoding="utf-8"?>
<!-- Generator: Adobe Illustrator 16.0.0, SVG Export Plug-In . SVG Version: 6.00 Build 0)  -->
<!DOCTYPE svg PUBLIC "-//W3C//DTD SVG 1.1//EN" "http://www.w3.org/Graphics/SVG/1.1/DTD/svg11.dtd">
<svg version="1.1" id="Layer_1" xmlns="http://www.w3.org/2000/svg" xmlns:xlink="http://www.w3.org/1999/xlink" x="0px" y="0px"
	 width="283px" height="283px" viewBox="0 0 283 283" enable-background="new 0 0 283 283" xml:space="preserve">
<path fill="#FFE000" d="M219,137v-6h-7v-6h-5v-6h-7v-6h-6v-6h-6v-7h-6v-6h-7v-5h-5v-7h-7v-7h-6v-6h-5v-5h-7v-7h-7v7h-7v5h-4v6h-7v7
	h-7v7h-5v5h-6v6h-7v7h-6v6h-6v6h-7v6h-5v6h-7v6h-6v7h6v6h7v6h5v6h7v7h6v6h6v5h7v7h6v6h5v7h7v5h7v6h4v7h7v7h7v-7h7v-7h5v-6h6v-5h7v-7
	h5v-6h7v-7h6v-5h6v-6h6v-7h7v-6h5v-6h7v-6h6v-7H219z M207,144v6h-7v6h-6v6h-6v7h-6v6h-7v5h-5v7h-7v6h-6v7h-5v5h-7v6h-7v-6h-7v-5h-4
	v-7h-7v-6h-7v-7h-5v-5h-6v-6h-7v-7h-6v-6h-6v-6h-7v-6h-5v-7h5v-6h7v-6h6v-6h6v-6h7v-6h6v-7h5v-6h7v-5h7v-7h4v-7h7v-6h7v6h7v7h5v7h6
	v5h7v6h5v7h7v6h6v6h6v6h6v6h7v6h5v7H207z"/>
<path fill="#00CC33" d="M256,137v-6h-7v-6h-6v-6h-5v-6h-7v-6h-6v-7h-6v-6h-7v-5h-5v-7h-7v-7h-6v-6h-6v-5h-6v-7h-7v-6h-5v-6h-7v-6h-6
	v-6h-5v-7h-7v-6h-7v6h-7v7h-4v6h-7v6h-7v6h-5v6h-6v7h-7v5h-6v6h-6v7h-7v7h-5v5h-7v6h-6v7h-6v6h-6v6h-6v6h-6v6h-7v6h-6v7h6v6h7v6h6v6
	h6v7h6v6h6v5h6v7h7v6h5v7h7v5h6v6h6v7h7v7h6v5h5v6h7v7h7v5h4v7h7v6h7v-6h7v-7h5v-5h6v-7h7v-6h5v-5h7v-7h6v-7h6v-6h6v-5h7v-7h5v-6h7
	v-7h6v-5h6v-6h7v-7h5v-6h6v-6h7v-6h7v-7H256z M243,144v6h-5v6h-7v6h-6v7h-6v6h-7v5h-5v7h-7v6h-6v7h-6v5h-6v6h-7v7h-5v7h-7v5h-6v6h-5
	v7h-7v5h-7v-5h-7v-7h-4v-6h-7v-5h-7v-7h-5v-7h-6v-6h-7v-5h-6v-7h-6v-6h-7v-7h-5v-5h-7v-6h-6v-7h-6v-6h-6v-6h-6v-6h-6v-7h6v-6h6v-6h6
	v-6h6v-6h6v-6h7v-7h5v-6h7v-5h6v-7h6v-7h7v-6h6v-5h5v-7h7v-6h7v-6h4v-6h7v-6h7v6h7v6h5v6h6v6h7v7h5v5h7v6h6v7h6v7h6v5h7v6h5v7h7v6h6
	v6h6v6h7v6h5v6h6v7H243z"/>
<g>
	<rect x="182" y="248" fill="#CC0000" width="6" height="7"/>
	<rect x="175" y="243" fill="#CC0000" width="7" height="5"/>
	<rect x="170" y="236" fill="#CC0000" width="5" height="7"/>
	<rect x="194" y="236" fill="#CC0000" width="6" height="7"/>
	<rect x="188" y="230" fill="#CC0000" width="6" height="6"/>
	<rect x="182" y="225" fill="#CC0000" width="6" height="5"/>
	<rect x="157" y="273" fill="#CC0000" width="6" height="7"/>
	<rect x="152" y="267" fill="#CC0000" width="5" height="6"/>
	<rect x="145" y="261" fill="#CC0000" width="7" height="6"/>
	<rect x="170" y="261" fill="#CC0000" width="5" height="6"/>
	<rect x="163" y="255" fill="#CC0000" width="7" height="6"/>
	<rect x="157" y="248" fill="#CC0000" width="6" height="7"/>
	<rect x="207" y="225" fill="#CC0000" width="5" height="5"/>
	<rect x="200" y="218" fill="#CC0000" width="7" height="7"/>
	<rect x="194" y="211" fill="#CC0000" width="6" height="7"/>
	<rect x="219" y="211" fill="#CC0000" width="6" height="7"/>
	<rect x="212" y="205" fill="#CC0000" width="7" height="6"/>
	<rect x="207" y="200" fill="#CC0000" width="5" height="5"/>
	<rect x="46" y="200" fill="#CC0000" width="6" height="5"/>
	<rect x="52" y="193" fill="#CC0000" width="6" height="7"/>
	<rect x="58" y="187" fill="#CC0000" width="6" height="6"/>
	<rect x="34" y="187" fill="#CC0000" width="6" height="6"/>
	<rect x="40" y="180" fill="#CC0000" width="6" height="7"/>
	<rect x="46" y="175" fill="#CC0000" width="6" height="5"/>
	<rect x="21" y="175" fill="#CC0000" width="6" height="5"/>
	<rect x="27" y="169" fill="#CC0000" width="7" height="6"/>
	<rect x="34" y="162" fill="#CC0000" width="6" height="7"/>
	<rect x="9" y="162" fill="#CC0000" width="7" height="7"/>
	<rect x="16" y="156" fill="#CC0000" width="5" height="6"/>
	<rect x="21" y="150" fill="#CC0000" width="6" height="6"/>
	<rect x="95" y="248" fill="#CC0000" width="7" height="7"/>
	<rect x="102" y="243" fill="#CC0000" width="6" height="5"/>
	<rect x="108" y="236" fill="#CC0000" width="5" height="7"/>
	<rect x="83" y="236" fill="#CC0000" width="6" height="7"/>
	<rect x="89" y="230" fill="#CC0000" width="6" height="6"/>
	<rect x="95" y="225" fill="#CC0000" width="7" height="5"/>
	<rect x="120" y="273" fill="#CC0000" width="7" height="7"/>
	<rect x="127" y="267" fill="#CC0000" width="4" height="6"/>
	<rect x="131" y="261" fill="#CC0000" width="7" height="6"/>
	<rect x="108" y="261" fill="#CC0000" width="5" height="6"/>
	<rect x="113" y="255" fill="#CC0000" width="7" height="6"/>
	<rect x="120" y="248" fill="#CC0000" width="7" height="7"/>
	<rect x="71" y="225" fill="#CC0000" width="5" height="5"/>
	<rect x="76" y="218" fill="#CC0000" width="7" height="7"/>
	<rect x="83" y="211" fill="#CC0000" width="6" height="7"/>
	<rect x="58" y="211" fill="#CC0000" width="6" height="7"/>
	<rect x="64" y="205" fill="#CC0000" width="7" height="6"/>
	<rect x="71" y="200" fill="#CC0000" width="5" height="5"/>
	<rect x="238" y="180" fill="#CC0000" width="5" height="7"/>
	<rect x="231" y="175" fill="#CC0000" width="7" height="5"/>
	<rect x="256" y="175" fill="#CC0000" width="7" height="5"/>
	<rect x="249" y="169" fill="#CC0000" width="7" height="6"/>
	<rect x="243" y="162" fill="#CC0000" width="6" height="7"/>
	<rect x="267" y="162" fill="#CC0000" width="7" height="7"/>
	<rect x="263" y="156" fill="#CC0000" width="4" height="6"/>
	<rect x="256" y="150" fill="#CC0000" width="7" height="6"/>
	<rect x="89" y="45" fill="#CC0000" width="6" height="6"/>
	<rect x="95" y="51" fill="#CC0000" width="7" height="6"/>
	<rect x="58" y="64" fill="#CC0000" width="6" height="5"/>
	<rect x="64" y="69" fill="#CC0000" width="7" height="6"/>
	<rect x="71" y="75" fill="#CC0000" width="5" height="7"/>
	<rect x="231" y="200" fill="#CC0000" width="7" height="5"/>
	<rect x="225" y="193" fill="#CC0000" width="6" height="7"/>
	<rect x="219" y="187" fill="#CC0000" width="6" height="6"/>
	<rect x="243" y="187" fill="#CC0000" width="6" height="6"/>
	<rect x="108" y="39" fill="#CC0000" width="5" height="6"/>
	<rect x="108" y="15" fill="#CC0000" width="5" height="5"/>
	<rect x="113" y="20" fill="#CC0000" width="7" height="6"/>
	<rect x="120" y="26" fill="#CC0000" width="7" height="7"/>
	<rect x="120" y="2" fill="#CC0000" width="7" height="6"/>
	<rect x="127" y="8" fill="#CC0000" width="4" height="7"/>
	<rect x="131" y="15" fill="#CC0000" width="7" height="5"/>
	<rect x="83" y="39" fill="#CC0000" width="6" height="6"/>
	<rect x="182" y="51" fill="#CC0000" width="6" height="6"/>
	<rect x="188" y="45" fill="#CC0000" width="6" height="6"/>
	<rect x="194" y="39" fill="#CC0000" width="6" height="6"/>
	<rect x="170" y="39" fill="#CC0000" width="5" height="6"/>
	<rect x="175" y="33" fill="#CC0000" width="7" height="6"/>
	<rect x="182" y="26" fill="#CC0000" width="6" height="7"/>
	<rect x="157" y="26" fill="#CC0000" width="6" height="7"/>
	<rect x="163" y="20" fill="#CC0000" width="7" height="6"/>
	<rect x="170" y="15" fill="#CC0000" width="5" height="5"/>
	<rect x="145" y="15" fill="#CC0000" width="7" height="5"/>
	<rect x="152" y="8" fill="#CC0000" width="5" height="7"/>
	<rect x="157" y="2" fill="#CC0000" width="6" height="6"/>
	<rect x="231" y="100" fill="#CC0000" width="7" height="7"/>
	<rect x="238" y="94" fill="#CC0000" width="5" height="6"/>
	<rect x="243" y="89" fill="#CC0000" width="6" height="5"/>
	<rect x="219" y="89" fill="#CC0000" width="6" height="5"/>
	<rect x="225" y="82" fill="#CC0000" width="6" height="7"/>
	<rect x="231" y="75" fill="#CC0000" width="7" height="7"/>
	<rect x="207" y="75" fill="#CC0000" width="5" height="7"/>
	<rect x="212" y="69" fill="#CC0000" width="7" height="6"/>
	<rect x="219" y="64" fill="#CC0000" width="6" height="5"/>
	<rect x="256" y="125" fill="#CC0000" width="7" height="6"/>
	<rect x="263" y="119" fill="#CC0000" width="4" height="6"/>
	<rect x="267" y="113" fill="#CC0000" width="7" height="6"/>
	<rect x="243" y="113" fill="#CC0000" width="6" height="6"/>
	<rect x="249" y="107" fill="#CC0000" width="7" height="6"/>
	<rect x="256" y="100" fill="#CC0000" width="7" height="7"/>
	<rect x="194" y="64" fill="#CC0000" width="6" height="5"/>
	<rect x="200" y="57" fill="#CC0000" width="7" height="7"/>
	<rect x="207" y="51" fill="#CC0000" width="5" height="6"/>
	<rect x="71" y="51" fill="#CC0000" width="5" height="6"/>
	<rect x="76" y="57" fill="#CC0000" width="7" height="7"/>
	<rect x="83" y="64" fill="#CC0000" width="6" height="5"/>
	<rect x="46" y="75" fill="#CC0000" width="6" height="7"/>
	<rect x="52" y="82" fill="#CC0000" width="6" height="7"/>
	<rect x="58" y="89" fill="#CC0000" width="6" height="5"/>
	<rect x="34" y="89" fill="#CC0000" width="6" height="5"/>
	<rect x="40" y="94" fill="#CC0000" width="6" height="6"/>
	<rect x="46" y="100" fill="#CC0000" width="6" height="7"/>
	<rect x="9" y="113" fill="#CC0000" width="7" height="6"/>
	<rect x="16" y="119" fill="#CC0000" width="5" height="6"/>
	<rect x="21" y="125" fill="#CC0000" width="6" height="6"/>
	<rect x="21" y="101" fill="#CC0000" width="6" height="7"/>
	<rect x="27" y="108" fill="#CC0000" width="7" height="6"/>
	<rect x="34" y="114" fill="#CC0000" width="6" height="6"/>
	<rect x="95" y="26" fill="#CC0000" width="7" height="7"/>
	<rect x="102" y="33" fill="#CC0000" width="6" height="6"/>
</g>
</svg>
