<?xml version="1.0" encoding="utf-8"?>
<!-- Generator: Adobe Illustrator 16.0.0, SVG Export Plug-In . SVG Version: 6.00 Build 0)  -->
<!DOCTYPE svg PUBLIC "-//W3C//DTD SVG 1.1//EN" "http://www.w3.org/Graphics/SVG/1.1/DTD/svg11.dtd">
<svg version="1.1" id="Layer_1" xmlns="http://www.w3.org/2000/svg" xmlns:xlink="http://www.w3.org/1999/xlink" x="0px" y="0px"
	 width="60.95px" height="51.074px" viewBox="0 0 60.95 51.074" enable-background="new 0 0 60.95 51.074" xml:space="preserve">
<path fill-rule="evenodd" clip-rule="evenodd" d="M60.231,39.37c-0.789,3.23-4.045,8.91-6.635,10.279
	c-1.342,0.709-4.619,2.744-6.896,0.129c-2.279-2.613,5.465-18.086,6.115-19.518c0.424-0.932,2.16,0.01,3.328,0.781
	C55.991,29.438,53.302,4.779,32.2,4.779c-0.595,0-1.146-0.004-1.68-0.011v0.001c-0.015,0-0.03,0-0.045-0.001
	c-0.015,0-0.029,0-0.045,0.001V4.768c-0.534,0.006-1.085,0.011-1.681,0.011c-21.101,0-23.79,24.66-23.943,26.263
	c1.168-0.771,2.905-1.713,3.329-0.781c0.65,1.432,8.394,16.904,6.116,19.518c-2.279,2.615-5.555,0.58-6.896-0.129
	c-2.59-1.369-5.847-7.049-6.636-10.279c-1.001-4.104-2.082-14.054,5.205-25.765C12.987,2.251,22.005,0.443,29.783,0.343
	c0-0.004,0-0.005,0-0.01c0.121,0,0.244,0.004,0.365,0.005c0.096,0,0.191-0.002,0.287-0.004c0,0,0,0,0-0.001c0.014,0,0.027,0,0.04,0
	s0.026,0,0.04,0c0,0,0,0.001,0,0.001c0.096,0.001,0.191,0.003,0.287,0.004c0.121,0,0.245-0.005,0.366-0.005c0,0.004,0,0.006,0,0.01
	c7.776,0.1,16.793,1.908,23.86,13.262C62.313,25.316,61.233,35.267,60.231,39.37z M18.923,32.177
	c2.63-0.584,7.002-0.967,11.958-0.967c8.042,0,14.561,1.006,14.561,2.246c0,0.029-0.021,0.059-0.027,0.088
	c1.809,3.576,0.133,11.121-2.197,12.496c-1.689,0.998-5.604,1.061-7.75-0.666s-4.326-4.57-4.851-5.791
	c-0.02,0.027-0.045,0.062-0.066,0.092c-0.022-0.029-0.048-0.064-0.067-0.092c-0.526,1.221-2.706,4.064-4.852,5.791
	c-2.146,1.727-6.061,1.664-7.751,0.666c-2.368-1.396-4.069-9.184-2.11-12.684C16.109,32.839,17.24,32.411,18.923,32.177z"/>
</svg>
