<?xml version="1.0" encoding="utf-8"?>
<!-- Generator: Adobe Illustrator 16.0.0, SVG Export Plug-In . SVG Version: 6.00 Build 0)  -->
<!DOCTYPE svg PUBLIC "-//W3C//DTD SVG 1.1//EN" "http://www.w3.org/Graphics/SVG/1.1/DTD/svg11.dtd">
<svg version="1.1" id="Layer_1" xmlns="http://www.w3.org/2000/svg" xmlns:xlink="http://www.w3.org/1999/xlink" x="0px" y="0px"
	 width="40px" height="165px" viewBox="0 0 40 165" enable-background="new 0 0 40 165" xml:space="preserve">
<g>
	<path fill="#660202" d="M40.811,6.058v0.429h0.43V6.058H40.811 M39.86,5.107h2.333V7.44H39.86V5.107L39.86,5.107z"/>
	<path fill="#660202" d="M36.147,6.058v0.429h0.429V6.058H36.147 M35.193,5.107h2.334V7.44h-2.334V5.107L35.193,5.107z"/>
	<path fill="#660202" d="M31.482,6.058v0.429h0.428V6.058H31.482 M30.53,5.107h2.333V7.44H30.53V5.107L30.53,5.107z"/>
	<path fill="#660202" d="M26.819,6.058v0.429h0.427V6.058H26.819 M25.866,5.107h2.333V7.44h-2.333V5.107L25.866,5.107z"/>
	<path fill="#660202" d="M22.15,6.058v0.429h0.43V6.058H22.15 M21.2,5.107h2.333V7.44H21.2V5.107L21.2,5.107z"/>
	<path fill="#660202" d="M17.487,6.058v0.429h0.429V6.058H17.487 M16.536,5.107h2.332V7.44h-2.332V5.107L16.536,5.107z"/>
	<path fill="#660202" d="M12.82,6.058v0.429h0.43V6.058H12.82 M11.868,5.107h2.333V7.44h-2.333V5.107L11.868,5.107z"/>
	<path fill="#660202" d="M8.154,6.058v0.429h0.433V6.058H8.154 M7.203,5.107h2.333V7.44H7.203V5.107L7.203,5.107z"/>
	<path fill="#660202" d="M3.489,6.058v0.429h0.431V6.058H3.489 M2.538,5.107h2.333V7.44H2.538V5.107L2.538,5.107z"/>
	<path fill="#660202" d="M-1.176,6.058v0.429h0.431V6.058H-1.176 M-2.127,5.107h2.333V7.44h-2.333V5.107L-2.127,5.107z"/>
	<path fill="#660202" d="M43.145,3.725v0.429h0.429V3.725H43.145 M42.193,2.774h2.332v2.333h-2.332V2.774L42.193,2.774z"/>
	<path fill="#660202" d="M38.48,3.725v0.429h0.426V3.725H38.48 M37.527,2.774h2.333v2.333h-2.333V2.774L37.527,2.774z"/>
	<path fill="#660202" d="M33.814,3.725v0.429h0.429V3.725H33.814 M32.863,2.774h2.33v2.333h-2.33V2.774L32.863,2.774z"/>
	<path fill="#660202" d="M29.15,3.725v0.429h0.429V3.725H29.15 M28.197,2.774h2.333v2.333h-2.333V2.774L28.197,2.774z"/>
	<path fill="#660202" d="M24.484,3.725v0.429h0.433V3.725H24.484 M23.533,2.774h2.333v2.333h-2.333V2.774L23.533,2.774z"/>
	<path fill="#660202" d="M19.819,3.725v0.429h0.43V3.725H19.819 M18.867,2.774H21.2v2.333h-2.333V2.774L18.867,2.774z"/>
	<path fill="#660202" d="M15.153,3.725v0.429h0.43V3.725H15.153 M14.202,2.774h2.334v2.333h-2.334V2.774L14.202,2.774z"/>
	<path fill="#660202" d="M10.488,3.725v0.429h0.428V3.725H10.488 M9.537,2.774h2.332v2.333H9.537V2.774L9.537,2.774z"/>
	<path fill="#660202" d="M5.822,3.725v0.429h0.429V3.725H5.822 M4.872,2.774h2.332v2.333H4.872V2.774L4.872,2.774z"/>
	<path fill="#660202" d="M1.157,3.725v0.429h0.429V3.725H1.157 M0.205,2.774h2.333v2.333H0.205V2.774L0.205,2.774z"/>
	<path fill="#660202" d="M-8.202,1.393v0.428h60.29V1.393H-8.202 M-8.445,0.44h60.777v2.333H-8.445V0.44L-8.445,0.44z"/>
</g>
<g>
	<g>
		<defs>
			<polygon id="SVGID_1_" points="28,24 11.018,24.124 9.018,9.124 31,9 			"/>
		</defs>
		<clipPath id="SVGID_2_">
			<use xlink:href="#SVGID_1_"  overflow="visible"/>
		</clipPath>
		<g clip-path="url(#SVGID_2_)">
			
				<line fill="none" stroke="#660202" stroke-width="1.5" stroke-linejoin="round" x1="-21.916" y1="40.583" x2="44.084" y2="-25.417"/>
			
				<line fill="none" stroke="#660202" stroke-width="1.5" stroke-linejoin="round" x1="-23.336" y1="46.336" x2="48.664" y2="-25.664"/>
			<line fill="none" stroke="#660202" stroke-width="1.5" stroke-linejoin="round" x1="-26" y1="53" x2="52" y2="-25"/>
			<line fill="none" stroke="#660202" stroke-width="1.5" stroke-linejoin="round" x1="-30" y1="61" x2="54" y2="-23"/>
			<line fill="none" stroke="#660202" stroke-width="1.5" stroke-linejoin="round" x1="-20" y1="55" x2="58" y2="-23"/>
			<line fill="none" stroke="#660202" stroke-width="1.5" stroke-linejoin="round" x1="-15" y1="54" x2="57" y2="-18"/>
			<line fill="none" stroke="#660202" stroke-width="1.5" stroke-linejoin="round" x1="-10" y1="53" x2="56" y2="-13"/>
			<line fill="none" stroke="#660202" stroke-width="1.5" stroke-linejoin="round" x1="-6" y1="53" x2="54" y2="-7"/>
			<line fill="none" stroke="#660202" stroke-width="1.5" stroke-linejoin="round" x1="-16" y1="67" x2="44" y2="7"/>
		</g>
	</g>
</g>
<g>
	<path fill="#660202" d="M10.391,150.5H9l5.249-125.003l0.751,0L10.391,150.5z"/>
	<path fill="#660202" d="M16.563,150.5h-1.391l2.33-125.002l0.75,0L16.563,150.5z"/>
	<path fill="#660202" d="M22.908,150.5h-1.391l-0.51-125l0.75,0L22.908,150.5z"/>
	<path fill="#660202" d="M29.252,150.5h-1.391l-3.35-124.997l0.751,0L29.252,150.5z"/>
</g>
</svg>
