<?xml version="1.0" encoding="utf-8"?>
<!-- Generator: Adobe Illustrator 16.0.0, SVG Export Plug-In . SVG Version: 6.00 Build 0)  -->
<!DOCTYPE svg PUBLIC "-//W3C//DTD SVG 1.1//EN" "http://www.w3.org/Graphics/SVG/1.1/DTD/svg11.dtd">
<svg version="1.1" id="Layer_1" xmlns="http://www.w3.org/2000/svg" xmlns:xlink="http://www.w3.org/1999/xlink" x="0px" y="0px"
	 width="56px" height="47px" viewBox="0 0 56 47" enable-background="new 0 0 56 47" xml:space="preserve">
<path fill="#FF0A11" d="M27.973,9.936c0,0,9.654-0.436,14.771,9.268c-2.705,0-15.593,0-15.593,0s-2.944-0.097-5.455,3.475
	c-0.723,1.497-1.497,3.042-0.627,6.082c-1.255-2.122-6.663-11.535-6.663-11.535S18.221,10.321,27.973,9.936z"/>
<path fill="#FF0A11" d="M42.24,34.57c0,0-4.451,8.576-15.413,8.156c1.353-2.342,7.799-13.504,7.799-13.504s1.556-2.502-0.28-6.462
	c-0.937-1.376-1.888-2.816-4.955-3.585c2.467-0.024,13.319,0.001,13.319,0.001S46.783,25.932,42.24,34.57z"/>
<path fill="#FF0A11" d="M13.773,34.635c0,0-5.202-8.146,0.644-17.427c1.352,2.342,7.794,13.507,7.794,13.507
	s1.386,2.598,5.737,2.986c1.655-0.121,3.38-0.223,5.581-2.496c-1.213,2.146-6.661,11.536-6.661,11.536S18.98,42.889,13.773,34.635z"
	/>
<path fill="#FFFFFF" d="M26.828,42.805l2.195-9.15c0,0,2.408-0.188,4.431-2.406C32.199,33.454,26.828,42.805,26.828,42.805z"/>
<circle fill="#FFFFFF" cx="27.933" cy="26.472" r="7.305"/>
<circle fill="#FF0A11" cx="27.932" cy="26.472" r="6.082"/>
<path fill="#FFFFFF" d="M42.711,19.177l-9.029,2.648c0,0-1.361-1.998-4.291-2.649C31.928,19.167,42.711,19.177,42.711,19.177z"/>
<path fill="#FFFFFF" d="M20.894,28.434c-1.27-2.199-6.487-11.209-6.487-11.209l6.69,6.618c0,0-0.688,1.415-0.427,3.436
	L20.894,28.434z"/>
<path fill="#FF0A11" d="M55.195,35.68c-0.721,2.95-3.697,8.143-6.064,9.393c-1.227,0.648-4.221,2.51-6.305,0.117
	c-2.082-2.387,4.996-16.528,5.592-17.836c0.385-0.853,1.973,0.008,3.039,0.713C51.318,26.6,48.861,4.063,29.574,4.063
	c-0.541,0-1.045-0.003-1.534-0.01v0.001c-0.014,0-0.027,0-0.041-0.001c-0.014,0-0.027,0-0.041,0.001V4.053
	c-0.488,0.005-0.992,0.01-1.536,0.01c-19.286,0-21.743,22.539-21.883,24.003c1.067-0.705,2.655-1.565,3.043-0.715
	c0.594,1.312,7.671,15.45,5.589,17.84c-2.083,2.391-5.078,0.531-6.303-0.118c-2.367-1.251-5.344-6.441-6.065-9.394
	C-0.111,31.93-1.1,22.834,5.561,12.131C12.016,1.753,20.258,0.101,27.368,0.009c0-0.004,0-0.005,0-0.009
	c0.11,0,0.222,0.003,0.333,0.004c0.087,0,0.175-0.002,0.262-0.004l0,0C27.976,0,27.988,0,28,0s0.024,0,0.037,0l0,0
	c0.086,0.001,0.174,0.003,0.261,0.004c0.11,0,0.226-0.004,0.335-0.004c0,0.003,0,0.005,0,0.009
	C35.738,0.101,43.98,1.753,50.439,12.13C57.098,22.833,56.111,31.93,55.195,35.68z"/>
</svg>
