<?xml version="1.0" encoding="utf-8"?>
<!-- Generator: Adobe Illustrator 16.0.0, SVG Export Plug-In . SVG Version: 6.00 Build 0)  -->
<!DOCTYPE svg PUBLIC "-//W3C//DTD SVG 1.1//EN" "http://www.w3.org/Graphics/SVG/1.1/DTD/svg11.dtd">
<svg version="1.1" id="Layer_1" xmlns="http://www.w3.org/2000/svg" xmlns:xlink="http://www.w3.org/1999/xlink" x="0px" y="0px"
	 width="27px" height="27px" viewBox="0 0 27 27" enable-background="new 0 0 27 27" xml:space="preserve">
<path fill="#EA0A0A" d="M17.5,18.37c-1.761,1.247-3.546,2.335-3.728,3.046c-0.004-0.016-0.014-0.032-0.02-0.048
	c-0.006,0.016-0.016,0.032-0.021,0.048c-0.181-0.711-1.967-1.799-3.727-3.046c-1.926-1.363-4.631-3.149-4.608-6.364
	c0.04-5.808,6.163-6.77,8.284-2.089V9.886c0.024,0.052,0.049,0.101,0.072,0.153c0.023-0.052,0.048-0.102,0.072-0.153v0.031
	c2.121-4.681,8.244-3.719,8.283,2.089C22.131,15.221,19.425,17.007,17.5,18.37z"/>
</svg>
