<?xml version="1.0" encoding="utf-8"?>
<!-- Generator: Adobe Illustrator 16.0.0, SVG Export Plug-In . SVG Version: 6.00 Build 0)  -->
<!DOCTYPE svg PUBLIC "-//W3C//DTD SVG 1.1//EN" "http://www.w3.org/Graphics/SVG/1.1/DTD/svg11.dtd">
<svg version="1.1" id="Layer_1" xmlns="http://www.w3.org/2000/svg" xmlns:xlink="http://www.w3.org/1999/xlink" x="0px" y="0px"
	 width="44.021px" height="44.042px" viewBox="31.867 3.771 44.021 44.042" enable-background="new 31.867 3.771 44.021 44.042"
	 xml:space="preserve">
<path fill="none" stroke="#FF0000" stroke-miterlimit="10" d="M73.365,32.247l1.816-1.816l-4.744-4.74l4.662-4.663l-1.812-1.815
	l-4.662,4.662l-1.832-1.828l4.662-4.663l-1.812-1.815l-4.662,4.662l-1.781-1.777l4.662-4.663l-1.812-1.816l-4.664,4.663
	l-2.086-2.086l4.662-4.662l-1.816-1.814l-4.662,4.662l-1.777-1.779l4.662-4.662l-1.816-1.815l-4.663,4.663l-4.662-4.663
	l-1.814,1.815l4.664,4.662l-1.832,1.83l-4.662-4.663l-1.814,1.815l4.664,4.663l-1.934,1.933l-4.662-4.662l-1.816,1.814l4.662,4.662
	l-1.881,1.881l-4.713-4.713l-1.816,1.814l4.717,4.715l-1.938,1.935l-4.664-4.663l-1.812,1.816l4.662,4.662l-4.455,4.454l1.816,1.814
	l4.453-4.454l1.777,1.778l-4.607,4.608l1.816,1.816l4.607-4.609l2.086,2.086l-4.711,4.711l1.816,1.816l4.711-4.713l1.777,1.779
	l-4.711,4.711l1.816,1.814l4.709-4.71l1.83,1.829l-4.762,4.764l1.814,1.814l4.764-4.762l4.559,4.559l1.816-1.814l-4.562-4.561
	l1.938-1.935l4.66,4.663l1.816-1.816l-4.662-4.662l1.881-1.881l4.65,4.65l1.816-1.814l-4.65-4.65l1.934-1.933l4.662,4.663
	l1.812-1.816l-4.662-4.662l1.832-1.83L73.365,32.247z M53.859,38.868L40.746,25.755l13.088-13.088l13.114,13.114L53.859,38.868z
	 M53.888,37.467l11.665-11.663L53.865,14.118L42.203,25.781L53.888,37.467z M53.869,18.185l7.616,7.615l-7.6,7.602l-7.617-7.616
	L53.869,18.185z M53.885,32.184l6.385-6.385l-6.399-6.397l-6.385,6.385L53.885,32.184z M53.873,23.033l2.764,2.762l-2.758,2.757
	l-2.762-2.762L53.873,23.033z"/>
</svg>
