<?xml version="1.0" encoding="utf-8"?>
<!-- Generator: Adobe Illustrator 16.0.0, SVG Export Plug-In . SVG Version: 6.00 Build 0)  -->
<!DOCTYPE svg PUBLIC "-//W3C//DTD SVG 1.1//EN" "http://www.w3.org/Graphics/SVG/1.1/DTD/svg11.dtd">
<svg version="1.1" id="Layer_1" xmlns="http://www.w3.org/2000/svg" xmlns:xlink="http://www.w3.org/1999/xlink" x="0px" y="0px"
	 width="283px" height="283px" viewBox="0 0 283 283" enable-background="new 0 0 283 283" xml:space="preserve">
<path fill="#5D887C" d="M232.42,189.189l48.243-48.237L232.42,92.715l-45.786,45.797l-20.592-20.582l46.304-46.293l-2.406-2.4
	l-46.303,46.288l-20.525-20.536l45.966-45.969l-48.24-48.233L92.6,49.02l45.964,45.969l-20.582,20.582L71.648,69.236l-2.405,2.4
	l46.333,46.339L95.04,138.511L49.249,92.715L1.001,140.952l48.248,48.237l45.792-45.797l20.369,20.367l-46.166,46.174l2.405,2.398
	l46.166-46.172l20.571,20.587L92.6,232.541l48.237,48.236l48.238-48.236l-45.798-45.792l20.537-20.541l46.891,46.886l2.395-2.4
	l-46.879-46.885l20.413-20.414L232.42,189.189z M232.42,97.521l43.432,43.432L232.42,184.38l-43.391-43.386l0.046-0.041l-0.046-0.04
	L232.42,97.521z M140.837,5.588l43.427,43.432l-43.427,43.432L97.411,49.02L140.837,5.588z M140.837,97.521l20.404,20.409
	l-20.45,20.45l-20.404-20.404L140.837,97.521z M49.249,184.379L5.812,140.952L49.249,97.52l43.386,43.392l-0.035,0.04l0.035,0.041
	L49.249,184.379z M97.446,140.993l0.035-0.041l-0.035-0.04l20.536-20.536l20.404,20.404l-20.571,20.575L97.446,140.993z
	 M184.264,232.541l-43.427,43.432l-43.426-43.432l43.381-43.393l0.045,0.041l0.036-0.041L184.264,232.541z M140.873,184.344
	l-0.036-0.035l-0.045,0.035l-20.582-20.582l20.582-20.576l20.617,20.623L140.873,184.344z M163.814,161.402l-20.617-20.622
	l20.438-20.455l20.594,20.587l-0.047,0.04l0.047,0.041L163.814,161.402z"/>
<rect x="131.951" y="37.297" transform="matrix(-0.7071 -0.7071 0.7071 -0.7071 208.0546 179.1258)" fill="#FFA513" width="18.35" height="18.353"/>
<polygon fill="#FFA513" points="128.151,232.541 141.126,219.566 154.105,232.541 141.126,245.516 "/>
<polygon fill="#FFA513" points="232.547,154.094 219.577,141.119 232.547,128.144 245.521,141.119 "/>
<rect x="40.021" y="131.945" transform="matrix(0.7071 0.7071 -0.7071 0.7071 114.1959 6.5465)" fill="#FFA513" width="18.349" height="18.35"/>
</svg>
