<?xml version="1.0" encoding="utf-8"?>
<!-- Generator: Adobe Illustrator 16.0.0, SVG Export Plug-In . SVG Version: 6.00 Build 0)  -->
<!DOCTYPE svg PUBLIC "-//W3C//DTD SVG 1.1//EN" "http://www.w3.org/Graphics/SVG/1.1/DTD/svg11.dtd">
<svg version="1.1" id="Layer_1" xmlns="http://www.w3.org/2000/svg" xmlns:xlink="http://www.w3.org/1999/xlink" x="0px" y="0px"
	 width="52.656px" height="52.656px" viewBox="54.945 0 52.656 52.656" enable-background="new 54.945 0 52.656 52.656"
	 xml:space="preserve">
<path fill="#FF0000" d="M97.151,15.88l0.019-0.017l-1.165-1.165l-0.018,0.016l-3.242-3.243l0.018-0.017l-1.164-1.164l-0.018,0.016
	L81.272,0l-6.889,6.889l0,0L61.869,19.405l-6.904,6.904l0,0l-0.021,0.019l26.327,26.328l26.329-26.328L97.151,15.88z
	 M101.437,22.495l3.815,3.814l-4.54,4.539l-4.539-4.539l4.539-4.541L101.437,22.495z M85.833,6.889l-4.562,4.56l-4.559-4.56
	l4.559-4.558l3.832,3.832L85.833,6.889z M66.591,17.013l4.591,4.591l1.15,0.003l0.001-1.146l-4.58-4.609l3.245-3.245l4.591,4.591
	l1.147,0.003l0.004-1.146l-4.581-4.609l3.391-3.39l5.723,5.724l5.726-5.724l3.422,3.422l-4.549,4.577l0.003,1.146l1.147-0.003
	l4.56-4.559l3.246,3.246l-4.549,4.577l0.001,1.146l1.15-0.003l4.558-4.56l3.562,3.561l-5.704,5.704l5.723,5.725L96.03,35.57
	l-4.601-4.603l-1.149-0.002l-0.002,1.146l4.59,4.619l-3.245,3.246l-4.602-4.603l-1.147-0.002L85.87,36.52l4.591,4.617l-3.464,3.465
	l-5.726-5.725l-5.724,5.725l-3.432-3.432l4.623-4.65l-0.004-1.146l-1.148,0.002l-4.632,4.635l-3.245-3.245l4.622-4.652l-0.001-1.146
	l-1.15,0.003l-4.632,4.633l-3.534-3.535l5.759-5.757l-5.739-5.74L66.591,17.013z M76.733,45.748l4.539-4.541l4.54,4.541l-4.54,4.539
	L76.733,45.748z M61.869,21.734l4.573,4.575l-4.573,4.574l-4.574-4.574L61.869,21.734z"/>
</svg>
