<?xml version="1.0" encoding="utf-8"?>
<!-- Generator: Adobe Illustrator 16.0.0, SVG Export Plug-In . SVG Version: 6.00 Build 0)  -->
<!DOCTYPE svg PUBLIC "-//W3C//DTD SVG 1.1//EN" "http://www.w3.org/Graphics/SVG/1.1/DTD/svg11.dtd">
<svg version="1.1" id="Layer_1" xmlns="http://www.w3.org/2000/svg" xmlns:xlink="http://www.w3.org/1999/xlink" x="0px" y="0px"
	 width="283px" height="283px" viewBox="0 0 283 283" enable-background="new 0 0 283 283" xml:space="preserve">
<path display="none" fill="#FF0000" d="M276.881,113.276l-25.646-25.647l-30.041,30.042l-12.197-12.2l30.041-30.042l-25.646-25.646
	L183.35,79.824l-12.199-12.2l30.041-30.041l-25.646-25.646L145.5,41.978l-30.041-30.041L89.812,37.583l30.042,30.041l-12.2,12.201
	L77.613,49.783L51.967,75.429l30.041,30.042l-12.2,12.2L39.767,87.629l-25.646,25.647l30.041,30.041l-30.041,30.043l25.646,25.646
	l30.04-30.04l12.201,12.199l-32.407,32.403l25.646,25.646l32.407-32.404l12.2,12.197L89.812,249.05l25.647,25.646l30.041-30.041
	l30.042,30.041l25.646-25.646l-30.039-30.042l12.199-12.197l30.041,30.041l25.646-25.646l-30.041-30.041l12.199-12.199l30.041,30.04
	l25.646-25.646l-30.041-30.043L276.881,113.276z M256.811,173.357l-5.576,5.576l-30.041-30.043l-32.271,32.271l30.043,30.041
	l-5.577,5.573l-30.041-30.041l-32.271,32.271l30.041,30.042l-5.575,5.576l-30.043-30.04l-30.041,30.041l-5.575-5.576l30.041-30.042
	l-32.271-32.271l-32.407,32.406l-5.575-5.576l32.406-32.404l-32.271-32.271l-30.04,30.041l-5.575-5.574l30.041-30.043
	l-30.041-30.042l5.575-5.576l30.041,30.042l32.271-32.271L72.038,75.429l5.576-5.575l30.041,30.041l32.271-32.271l-30.041-30.041
	l5.575-5.575l30.041,30.04l30.042-30.04l5.575,5.575l-30.041,30.041l32.271,32.271l30.041-30.041l5.577,5.575l-30.043,30.042
	l32.271,32.271l30.041-30.042l5.576,5.576l-30.041,30.041L256.811,173.357z"/>
<g>
	<path fill="#B4BF40" d="M183.348,111.045l-32.271,32.271l32.271,32.271l32.271-32.271L183.348,111.045z M171.146,143.316
		l12.199-12.2l12.198,12.2l-12.198,12.199L171.146,143.316z"/>
	<path fill="#B4BF40" d="M107.654,111.045l-32.271,32.271l32.271,32.271l32.271-32.271L107.654,111.045z M95.454,143.316l12.2-12.2
		l12.2,12.2l-12.2,12.199L95.454,143.316z"/>
	<path fill="#B4BF40" d="M145.5,73.199l-32.271,32.272l32.271,32.271l32.271-32.271L145.5,73.199z M133.301,105.471l12.199-12.2
		l12.2,12.2l-12.2,12.2L133.301,105.471z"/>
	<path fill="#B4BF40" d="M145.5,148.893l-32.271,32.271l32.271,32.271l32.271-32.271L145.5,148.893z M133.301,181.163l12.199-12.199
		l12.2,12.199l-12.2,12.198L133.301,181.163z"/>
</g>
</svg>
