<?xml version="1.0" encoding="utf-8"?>
<!-- Generator: Adobe Illustrator 16.0.0, SVG Export Plug-In . SVG Version: 6.00 Build 0)  -->
<!DOCTYPE svg PUBLIC "-//W3C//DTD SVG 1.1//EN" "http://www.w3.org/Graphics/SVG/1.1/DTD/svg11.dtd">
<svg version="1.1" id="Layer_1" xmlns="http://www.w3.org/2000/svg" xmlns:xlink="http://www.w3.org/1999/xlink" x="0px" y="0px"
	 width="283px" height="283px" viewBox="0 0 283 283" enable-background="new 0 0 283 283" xml:space="preserve">
<path fill="#FD9134" d="M111.819,20.579l-1.306,1.306l-3.413,3.417l-5.506,5.512l-3.413,3.417l-1.306,1.302l1.306,1.305l3.413,3.41
	L126.56,65.21l-22.454,22.454L79.138,62.695l-3.41-3.41l-1.303-1.305l-1.305,1.305l-3.413,3.41l-5.513,5.512l-3.41,3.41
	l-1.302,1.305l1.302,1.305l3.41,3.41l24.969,24.969L66.71,125.061l-24.963-24.965l-3.413-3.411l-1.306-1.305l-1.305,1.305
	l-3.407,3.411l-5.519,5.502l-3.406,3.417l-1.306,1.305l1.306,1.302l3.406,3.414L51.772,140l-24.975,24.969l-3.406,3.407
	l-1.306,1.308l1.306,1.303l3.406,3.416l5.519,5.509l3.407,3.405l1.305,1.31l1.306-1.31l3.413-3.405l24.963-24.972l22.453,22.455
	l-24.969,24.965l-3.41,3.414l-1.302,1.311l1.302,1.307l3.41,3.408l5.513,5.518l3.413,3.412l1.305,1.303l1.303-1.303l3.41-3.412
	l24.969-24.974l22.454,22.45l-24.966,24.966l-3.413,3.41l-1.306,1.31l1.306,1.307l3.413,3.412l5.506,5.51l3.413,3.416l1.306,1.312
	l1.305-1.312l3.414-3.42l24.972-24.959l24.959,24.963l3.401,3.414l1.31,1.305l1.303-1.305l3.416-3.414l5.516-5.51l3.407-3.41
	l1.306-1.305l-1.306-1.312l-3.407-3.41l-24.975-24.966l22.457-22.45l27.305,27.309l3.406,3.408l1.306,1.312l1.306-1.312l3.413-3.408
	l5.505-5.521l3.414-3.403l1.305-1.309l-1.305-1.311l-3.414-3.406l-27.297-27.307l22.454-22.455l24.959,24.971l3.413,3.406
	l1.307,1.309l1.308-1.309l3.411-3.406l5.517-5.508l3.401-3.405l1.312-1.31l-1.312-1.307l-3.401-3.413L231.23,140l24.972-24.965
	l3.407-3.417l1.309-1.305l-1.309-1.305l-3.407-3.41l-5.513-5.502l-3.414-3.411l-1.305-1.305l-1.311,1.305l-3.413,3.411
	l-24.959,24.965l-22.454-22.454l24.971-24.969l3.401-3.41l1.312-1.305l-1.312-1.305l-3.401-3.41l-5.518-5.512l-3.404-3.41
	l-1.312-1.305l-1.305,1.305l-3.41,3.41l-24.965,24.969l-22.457-22.454l24.978-24.962l3.403-3.41l1.31-1.309l-1.31-1.305
	l-3.403-3.411l-5.519-5.512l-3.416-3.41l-1.303-1.305l-1.307,1.305l-3.407,3.41L141.51,50.27l-24.972-24.968l-3.414-3.417
	L111.819,20.579L111.819,20.579z M104.106,90.274L129.17,65.21L102.9,38.942l-3.413-3.41l3.413-3.414l5.505-5.509l3.414-3.417
	l3.406,3.417l26.284,26.268l26.261-26.268l3.41-3.413l3.413,3.413l5.513,5.509l3.408,3.41l-3.408,3.414L153.829,65.21l25.067,25.064
	l26.271-26.271l3.406-3.41l3.409,3.41l5.517,5.509l3.41,3.41l-3.41,3.414l-26.269,26.271l25.062,25.064l26.267-26.271l3.412-3.41
	l3.412,3.41l5.514,5.502l3.405,3.411l-3.405,3.417L228.623,140l26.273,26.271l3.401,3.416l-3.401,3.41l-5.518,5.5l-3.412,3.407
	l-3.408-3.407l-26.271-26.271l-25.062,25.062L219.831,206l3.413,3.41l-3.413,3.41l-5.513,5.512l-3.406,3.414l-3.407-3.414
	l-28.608-28.607l-25.062,25.062l26.271,26.271l3.408,3.408l-3.408,3.407l-5.512,5.519l-3.414,3.406l-3.41-3.406l-26.261-26.271
	l-26.284,26.271l-3.406,3.418l-3.414-3.418l-5.505-5.519l-3.413-3.41l3.413-3.405l26.271-26.271l-25.064-25.062l-26.273,26.271
	l-3.408,3.413l-3.41-3.413l-5.515-5.51l-3.41-3.409l3.41-3.41l26.28-26.272l-25.07-25.062L40.443,178.6l-3.414,3.412l-3.406-3.412
	l-5.513-5.5l-3.41-3.414l3.41-3.414L54.384,140L28.11,113.729l-3.41-3.41l3.41-3.417l5.513-5.502l3.406-3.41l3.414,3.41
	l26.268,26.271l25.07-25.064L65.5,76.336l-3.41-3.414l3.41-3.41l5.515-5.509l3.41-3.41l3.408,3.41L104.106,90.274L104.106,90.274z"
	/>
<g>
	<path fill="#B4BF40" d="M141.51,68.107l-1.312,1.306l-31.889,31.891l-1.312,1.302l1.312,1.305l31.889,31.885l1.312,1.312
		l1.303-1.312l31.879-31.885l1.312-1.305l-1.312-1.302l-31.879-31.891L141.51,68.107L141.51,68.107z M141.51,134.491l-31.897-31.885
		l31.897-31.885l31.879,31.885L141.51,134.491L141.51,134.491z"/>
	<path fill="#8EE6D8" d="M141.51,77.539l-25.074,25.068l25.074,25.064l25.055-25.064L141.51,77.539L141.51,77.539z M141.51,125.061
		l-22.467-22.454l22.467-22.454l22.447,22.454L141.51,125.061L141.51,125.061z"/>
	<path fill="#8EE6D8" d="M178.896,114.932L153.829,140l25.067,25.066L203.961,140L178.896,114.932L178.896,114.932z
		 M178.896,162.457L156.439,140l22.457-22.457L201.348,140L178.896,162.457L178.896,162.457z"/>
	<path fill="#B4BF40" d="M178.896,105.501l-1.308,1.305l-31.89,31.888L144.398,140l1.305,1.306l31.893,31.887l1.301,1.307
		l1.312-1.307l31.885-31.887L213.4,140l-1.312-1.305l-31.885-31.888L178.896,105.501L178.896,105.501z M178.896,171.889L147.009,140
		l31.888-31.888L210.782,140L178.896,171.889L178.896,171.889z"/>
	<path fill="#B4BF40" d="M104.106,105.501l-1.309,1.305l-31.885,31.888L69.607,140l1.306,1.306l31.885,31.887l1.309,1.307
		l1.305-1.307l31.889-31.887l1.305-1.306l-1.305-1.305l-31.889-31.888L104.106,105.501L104.106,105.501z M104.106,171.889
		L72.218,140l31.889-31.888L135.997,140L104.106,171.889L104.106,171.889z"/>
	<path fill="#8EE6D8" d="M104.106,114.932L79.038,140l25.068,25.066L129.171,140L104.106,114.932L104.106,114.932z M104.106,162.457
		L81.652,140l22.454-22.457L126.561,140L104.106,162.457L104.106,162.457z"/>
	<path fill="#B4BF40" d="M141.51,142.896l-1.312,1.308l-31.889,31.886l-1.312,1.305l1.312,1.308l31.889,31.889l1.312,1.312
		l1.303-1.312l31.879-31.889l1.312-1.308l-1.312-1.305l-31.879-31.886L141.51,142.896L141.51,142.896z M141.51,209.277
		l-31.897-31.885L141.51,145.5l31.879,31.893L141.51,209.277L141.51,209.277z"/>
	<path fill="#8EE6D8" d="M141.51,152.329l-25.074,25.063l25.074,25.063l25.055-25.063L141.51,152.329L141.51,152.329z
		 M141.51,199.848l-22.467-22.453l22.467-22.455l22.447,22.455L141.51,199.848L141.51,199.848z"/>
</g>
<path fill="#FFA513" d="M171.182,7.572l-1.306,1.305L141.51,37.256L113.124,8.877l-1.305-1.305l-1.306,1.305L85.171,34.224
	l-1.305,1.305l1.305,1.309l28.376,28.373l-9.44,9.44L75.728,46.274l-1.303-1.306l-1.305,1.306L47.774,71.617l-1.306,1.305
	l1.306,1.305l28.385,28.379l-9.449,9.44L38.334,83.671l-1.306-1.302l-1.305,1.302l-25.34,25.34l-1.309,1.309l1.309,1.302L38.763,140
	l-28.379,28.376l-1.309,1.308l1.309,1.312l25.34,25.334l1.305,1.309l1.306-1.309l28.376-28.373l9.449,9.438l-28.385,28.379
	l-1.306,1.311l1.306,1.307l25.346,25.346l1.305,1.307l1.303-1.307l28.379-28.383l9.44,9.439l-28.376,28.376l-1.305,1.312
	l1.305,1.306l25.343,25.348l1.306,1.306l1.305-1.306l28.386-28.379l28.366,28.379l1.306,1.306l1.301-1.306l25.353-25.348
	l1.312-1.306l-1.312-1.312l-28.379-28.376l9.44-9.439l30.711,30.719l1.312,1.306l1.312-1.306l25.346-25.344l1.302-1.31l-1.302-1.312
	l-30.711-30.713l9.438-9.438l28.372,28.373l1.308,1.309l1.308-1.309l25.349-25.334l1.305-1.312l-1.305-1.308L244.244,140
	l28.379-28.379l1.302-1.302l-1.302-1.309l-25.348-25.34l-1.305-1.302l-1.311,1.302l-28.372,28.376l-9.438-9.44l28.371-28.379
	l1.309-1.305l-1.309-1.305l-25.339-25.343l-1.312-1.306l-1.305,1.306L178.896,74.65l-9.446-9.44l28.379-28.373l1.312-1.309
	l-1.312-1.305L172.482,8.877L171.182,7.572L171.182,7.572z M141.51,39.87l29.672-29.687l25.346,25.346L166.838,65.21L178.9,77.261
	l29.678-29.681l25.347,25.343l-29.685,29.684l12.058,12.051l29.679-29.678l25.351,25.34L241.634,140l29.685,29.684l-25.346,25.338
	l-29.679-29.679l-12.058,12.052l32.021,32.021l-25.347,25.34l-32.02-32.021l-12.062,12.061l29.689,29.688l-25.351,25.343
	l-29.671-29.687l-29.69,29.687l-25.34-25.343l29.684-29.688l-12.057-12.061l-29.68,29.687l-25.34-25.339l29.688-29.688
	L66.71,165.343l-29.682,29.679l-25.34-25.338L41.37,140l-29.682-29.681l25.34-25.34l29.682,29.678l12.057-12.051L49.079,72.922
	l25.346-25.343l29.682,29.681l12.057-12.051L86.479,35.528l25.34-25.346L141.51,39.87L141.51,39.87z"/>
<g>
	<path fill="#FFA513" d="M141.503,93.291l-9.315,9.316l9.315,9.312l9.31-9.312L141.503,93.291L141.503,93.291z"/>
	<path fill="#FFA513" d="M104.362,130.691l-9.322,9.315l9.322,9.309l9.309-9.309L104.362,130.691L104.362,130.691z"/>
	<path fill="#FFA513" d="M178.646,130.691l-9.321,9.315l9.321,9.309l9.312-9.309L178.646,130.691L178.646,130.691z"/>
	<path fill="#FFA513" d="M141.507,168.081l-9.322,9.315l9.322,9.31l9.312-9.31L141.507,168.081L141.507,168.081z"/>
</g>
</svg>
