<?xml version="1.0" encoding="utf-8"?>
<!-- Generator: Adobe Illustrator 16.0.0, SVG Export Plug-In . SVG Version: 6.00 Build 0)  -->
<!DOCTYPE svg PUBLIC "-//W3C//DTD SVG 1.1//EN" "http://www.w3.org/Graphics/SVG/1.1/DTD/svg11.dtd">
<svg version="1.1" id="Layer_1" xmlns="http://www.w3.org/2000/svg" xmlns:xlink="http://www.w3.org/1999/xlink" x="0px" y="0px"
	 width="283px" height="283px" viewBox="0 0 283 283" enable-background="new 0 0 283 283" xml:space="preserve">
<g>
	<polygon fill="#FF0000" points="166.057,250 243.031,170 215.695,170 138.722,250 	"/>
</g>
<g>
	<polygon fill="#FF0000" points="166.057,199 227.882,134 200.545,134 138.722,199 	"/>
</g>
<g>
	<polygon fill="#FF0000" points="166.057,149 214.896,99 187.56,99 138.722,149 	"/>
</g>
<g>
	<polygon fill="#FF0000" points="166.057,99 204.074,60 176.738,60 138.722,99 	"/>
</g>
<g>
	<polygon fill="#FF0000" points="166.057,51 191.089,28 163.753,28 138.722,51 	"/>
</g>
<g>
	<polygon fill="#FF0000" points="143.474,250 66.5,170 39.164,170 116.139,250 	"/>
</g>
<g>
	<polygon fill="#FF0000" points="143.474,199 81.65,134 54.314,134 116.139,199 	"/>
</g>
<g>
	<polygon fill="#FF0000" points="143.474,149 94.636,99 67.299,99 116.139,149 	"/>
</g>
<g>
	<polygon fill="#FF0000" points="143.474,99 105.457,60 78.121,60 116.139,99 	"/>
</g>
<g>
	<polygon fill="#FF0000" points="143.474,51 118.442,28 91.106,28 116.139,51 	"/>
</g>
<g>
	<rect x="126.457" y="11.666" fill="#FF0000" width="30.3" height="260.248"/>
</g>
</svg>
