<?xml version="1.0" encoding="utf-8"?>
<!-- Generator: Adobe Illustrator 16.0.0, SVG Export Plug-In . SVG Version: 6.00 Build 0)  -->
<!DOCTYPE svg PUBLIC "-//W3C//DTD SVG 1.1//EN" "http://www.w3.org/Graphics/SVG/1.1/DTD/svg11.dtd">
<svg version="1.1" id="Layer_1" xmlns="http://www.w3.org/2000/svg" xmlns:xlink="http://www.w3.org/1999/xlink" x="0px" y="0px"
	 width="283px" height="283px" viewBox="0 0 283 283" enable-background="new 0 0 283 283" xml:space="preserve">
<g>
	<polygon fill="#FF0000" points="140.151,23.102 123.939,6.89 99.342,31.489 140.151,72.299 180.962,31.489 156.365,6.89 	"/>
</g>
<g>
	<rect x="113.823" y="72.299" fill="#FF0000" width="51.09" height="96.688"/>
</g>
<g>
	<polygon fill="#FF0000" points="166.737,136.945 198.341,105.344 165.29,72.299 150.378,72.299 183.715,105.635 138.971,150.38 
		94.229,105.638 127.57,72.299 114.205,72.299 81.153,105.347 113.16,137.35 5.68,244.829 109.188,244.829 89.22,268.168 
		99.642,277.085 127.237,244.829 146.087,244.829 126.118,268.168 136.54,277.085 164.137,244.829 274.621,244.829 	"/>
</g>
<polygon fill="#FF0000" points="138.974,60.896 127.57,72.299 150.378,72.299 "/>
</svg>
