<?xml version="1.0" encoding="utf-8"?>
<!-- Generator: Adobe Illustrator 16.0.0, SVG Export Plug-In . SVG Version: 6.00 Build 0)  -->
<!DOCTYPE svg PUBLIC "-//W3C//DTD SVG 1.1//EN" "http://www.w3.org/Graphics/SVG/1.1/DTD/svg11.dtd">
<svg version="1.1" id="Layer_1" xmlns="http://www.w3.org/2000/svg" xmlns:xlink="http://www.w3.org/1999/xlink" x="0px" y="0px"
	 width="283px" height="283px" viewBox="0 0 283 283" enable-background="new 0 0 283 283" xml:space="preserve">
<path fill="#FF0000" d="M154.58,14.564v19.421v10.041v1.01v1.469v4.402v30.261v9.953v0.888v1.469v4.404v33.333v11.098v2.545v1.469
	v4.404v32.289v11.53v3.153v1.469v4.404v33.586v10.992v2.396v1.467v4.404v14.635h-22.09v-14.635v-1.467v-4.404v-7.099v-1.818v-3.39
	v-34.669v-1.47v-4.403v-7.993v-1.741v-3.793v-33.446v-1.469v-4.402v-7.083v-1.835v-3.629V97.883v-1.469V92.01v-4.815v-2.104v-2.983
	v-31.2v-1.469v-4.402V40.57v-2.225V34.94V14.564H154.58 M158.982,10.16h-30.896v24.779l-8.165-7.519H92.052l25.518,23.488h10.516
	v31.2l-21.4-19.457H78.817l38.752,35.232h10.516v34.429L95.653,97.883H67.785l49.785,52.848h10.516v33.446l-45.667-51.062H54.55
	l63.02,70.463h10.516v34.669L66.971,174.22H39.102l78.468,82.205h10.516v19.038h30.896v-19.038h9.473l78.48-82.205h-27.869
	l-60.084,62.944v-33.586h9.473l63.031-70.463h-27.868l-44.636,49.904V150.73h9.473l49.797-52.848h-27.869l-31.398,33.333V97.883
	h9.472l38.767-35.232h-27.869l-20.369,18.518V50.908h9.473l25.52-23.488h-27.857l-7.133,6.566V10.16H158.982z M158.982,45.037
	v-5.226l8.854-6.519h14.852l-15.951,11.744L158.982,45.037L158.982,45.037z M119.29,45.037l-15.953-11.744h14.864l9.885,7.277v4.467
	H119.29L119.29,45.037z M158.982,92.01v-5.653l22.07-17.835h14.771L166.753,92.01H158.982L158.982,92.01z M119.272,92.01
	L90.205,68.522h12.852h1.927l23.103,18.672v4.815L119.272,92.01L119.272,92.01z M158.982,144.859v-8.108l33.306-32.995h15.763
	l-41.499,41.104H158.982L158.982,144.859z M119.473,144.859l-41.487-41.104h13.327h2.437l34.336,34.021v7.083H119.473
	L119.473,144.859z M158.982,197.705v-9.096l46.604-49.624h14.908h1.146l-55.152,58.719H158.982L158.982,197.705z M119.536,197.705
	l-55.14-58.719h15.172h0.883l47.634,50.726v7.993H119.536L119.536,197.705z M158.982,250.555v-8.137l61.971-62.327h15.689
	l-70.074,70.464H158.982L158.982,250.555z M119.457,250.555l-70.062-70.464h15.689l63.002,63.364v7.1H119.457L119.457,250.555z"/>
</svg>
