<?xml version="1.0" encoding="utf-8"?>
<!-- Generator: Adobe Illustrator 16.0.0, SVG Export Plug-In . SVG Version: 6.00 Build 0)  -->
<!DOCTYPE svg PUBLIC "-//W3C//DTD SVG 1.1//EN" "http://www.w3.org/Graphics/SVG/1.1/DTD/svg11.dtd">
<svg version="1.1" id="Layer_1" xmlns="http://www.w3.org/2000/svg" xmlns:xlink="http://www.w3.org/1999/xlink" x="0px" y="0px"
	 width="111px" height="194px" viewBox="0 0 111 194" enable-background="new 0 0 111 194" xml:space="preserve">
<g>
	<rect y="-0.333" fill="#FFFFFF" width="111" height="94.375"/>
	<g>
		<defs>
			<rect id="SVGID_1_" y="-0.333" width="111" height="94.375"/>
		</defs>
		<clipPath id="SVGID_2_">
			<use xlink:href="#SVGID_1_"  overflow="visible"/>
		</clipPath>
		<g clip-path="url(#SVGID_2_)">
			<path fill="#CCCCCC" d="M94.198,23.284l-1.058,1.062L60.705,56.919l7.646,7.787l3.02,3.058l0.436,0.44l-0.436,0.438l-3.037,3.052
				l-7.619,7.517l32.246,32.059l1.07,1.062h-1.508h-4.951h-0.256l-0.185-0.182L54.438,79.64l-0.444-0.443l0.448-0.441l10.521-10.35
				l0.208-0.218l-0.196-0.213L54.438,57.366L54,56.926l0.438-0.438l32.869-33.02l0.182-0.185h0.263h4.95L94.198,23.284
				L94.198,23.284z M87.572,111.71h4.951L59.83,79.209l8.064-7.958l3.032-3.049l-3.02-3.058l-8.079-8.227l32.869-33.011h-4.951
				l-32.87,33.021l10.535,10.608l0.61,0.655l-0.61,0.644L54.878,79.198L87.572,111.71L87.572,111.71z"/>
			<path fill="#CCCCCC" d="M121.164,23.284h1.496h4.954h0.258l0.185,0.185l32.869,33.021l0.436,0.438l-0.436,0.44l-10.537,10.607
				l-0.197,0.213l0.209,0.218l10.521,10.35l0.448,0.442l-0.447,0.443l-32.694,32.507l-0.182,0.184h-0.257h-4.95h-1.51l1.068-1.062
				l32.248-32.059l-7.617-7.517l-3.037-3.052l-0.436-0.437l0.435-0.44l3.021-3.059l7.646-7.787L122.22,24.345L121.164,23.284
				L121.164,23.284z M127.789,111.71l32.693-32.511l-10.537-10.365l-0.61-0.644l0.61-0.655l10.537-10.607l-32.869-33.023h-4.953
				l32.872,33.011l-8.079,8.227l-3.02,3.058l3.03,3.049l8.063,7.958l-32.689,32.502H127.789L127.789,111.71z"/>
			<path fill="#CCCCCC" d="M94.198-58.14l-1.058,1.062L60.705-24.505l7.646,7.787l3.02,3.059l0.436,0.44l-0.436,0.438L68.334-9.73
				l-7.619,7.517l32.246,32.058l1.07,1.063h-1.508h-4.951h-0.256l-0.185-0.182L54.438-1.784l-0.444-0.443l0.448-0.442l10.521-10.35
				l0.208-0.218l-0.196-0.213L54.438-24.057L54-24.497l0.438-0.438l32.869-33.02l0.182-0.185h0.263h4.95H94.198L94.198-58.14z
				 M87.572,30.286h4.951L59.83-2.215l8.064-7.958l3.032-3.048l-3.02-3.059l-8.079-8.227l32.869-33.011h-4.951l-32.87,33.022
				l10.535,10.608l0.61,0.655l-0.61,0.643L54.878-2.226L87.572,30.286L87.572,30.286z"/>
			<path fill="#CCCCCC" d="M107.039-32.032l0.338,0.34l8.305,8.308l0.342,0.339l-0.342,0.34l-8.305,8.306l-0.338,0.342l-0.342-0.342
				l-8.309-8.306l-0.343-0.34l0.343-0.339l8.309-8.308L107.039-32.032L107.039-32.032z M107.039-14.739l8.304-8.306l-8.304-8.306
				l-8.311,8.306L107.039-14.739L107.039-14.739z"/>
			<path fill="#CCCCCC" d="M107.039-29.575l6.525,6.53l-6.525,6.53l-6.532-6.53L107.039-29.575L107.039-29.575z M107.039-17.195
				l5.848-5.85l-5.848-5.849l-5.854,5.849L107.039-17.195L107.039-17.195z"/>
			<path fill="#CCCCCC" d="M107.037-25.472l2.425,2.427l-2.425,2.426l-2.428-2.426L107.037-25.472L107.037-25.472z"/>
			<path fill="#CCCCCC" d="M116.777-19.834l6.529,6.53l-6.529,6.53l-6.529-6.53L116.777-19.834L116.777-19.834z M116.777-7.454
				l5.85-5.85l-5.85-5.85l-5.853,5.85L116.777-7.454L116.777-7.454z"/>
			<path fill="#CCCCCC" d="M116.777-22.291l0.341,0.34l8.306,8.307l0.34,0.34l-0.34,0.34l-8.306,8.307l-0.341,0.34l-0.338-0.34
				l-8.312-8.307l-0.34-0.34l0.34-0.34l8.312-8.307L116.777-22.291L116.777-22.291z M116.777-4.997l8.307-8.307l-8.307-8.307
				l-8.307,8.307L116.777-4.997L116.777-4.997z"/>
			<path fill="#CCCCCC" d="M97.295-22.291l0.34,0.34l8.307,8.307l0.343,0.34l-0.343,0.34l-8.307,8.307l-0.34,0.34l-0.341-0.34
				l-8.306-8.307l-0.342-0.34l0.342-0.34l8.306-8.307L97.295-22.291L97.295-22.291z M97.295-4.997l8.309-8.307l-8.309-8.307
				l-8.307,8.307L97.295-4.997L97.295-4.997z"/>
			<path fill="#CCCCCC" d="M97.295-19.834l6.529,6.53l-6.529,6.53l-6.529-6.53L97.295-19.834L97.295-19.834z M97.295-7.454
				l5.85-5.85l-5.85-5.85l-5.85,5.85L97.295-7.454L97.295-7.454z"/>
			<path fill="#CCCCCC" d="M99.305-44.413l0.34,0.34l0.892,0.89l6.506,6.504l6.502-6.504l0.89-0.888l0.34-0.34l0.34,0.34l0.89,0.888
				l1.437,1.436l0.891,0.888l0.341,0.34l-0.341,0.341l-0.891,0.888l-6.506,6.503l5.852,5.849l6.505-6.504l0.89-0.888l0.342-0.34
				l0.34,0.34l0.889,0.888l1.436,1.436l0.89,0.888l0.341,0.34l-0.341,0.34l-0.89,0.888l-6.502,6.504l5.849,5.85l6.502-6.503
				l0.892-0.889l0.34-0.34l0.342,0.34l0.891,0.889l1.436,1.433l0.89,0.888l0.34,0.34l-0.34,0.34l-0.89,0.89l-6.504,6.503
				l6.504,6.504l0.89,0.889l0.34,0.34l-0.34,0.34l-0.89,0.888l-1.436,1.434l-0.891,0.888l-0.342,0.34l-0.34-0.34l-0.892-0.888
				l-6.502-6.503l-5.849,5.849l7.11,7.113l0.89,0.889l0.34,0.34l-0.34,0.34l-0.89,0.888l-1.435,1.437l-0.892,0.889l-0.341,0.341
				l-0.34-0.341l-0.891-0.889l-7.117-7.113l-5.852,5.849l6.508,6.503l0.888,0.889l0.342,0.341l-0.342,0.34l-0.888,0.889
				l-1.438,1.435l-0.893,0.889l-0.34,0.34l-0.34-0.34l-0.887-0.889l-6.502-6.503l-6.506,6.502l-0.889,0.891L99.3,17.809
				l-0.342-0.343l-0.892-0.89l-1.435-1.435l-0.889-0.889l-0.341-0.34l0.341-0.34l0.889-0.889l6.505-6.503l-5.851-5.849l-6.504,6.504
				l-0.89,0.889l-0.34,0.339l-0.342-0.339l-0.889-0.889l-1.438-1.436L86.01,4.51l-0.34-0.34l0.34-0.34l0.889-0.889l6.504-6.504
				l-5.85-5.849L81.05-2.908L80.16-2.02l-0.34,0.34l-0.34-0.34l-0.89-0.888l-1.438-1.434l-0.889-0.89l-0.34-0.339l0.34-0.341
				L77.154-6.8l6.506-6.504l-6.506-6.503l-0.889-0.889l-0.341-0.339l0.341-0.34l0.889-0.89l1.438-1.433l0.889-0.889l0.34-0.34
				l0.341,0.34l0.89,0.889l6.502,6.503l5.852-5.85L86.9-29.549l-0.891-0.888l-0.34-0.34l0.34-0.34l0.891-0.888l1.437-1.436
				l0.89-0.888l0.34-0.34l0.341,0.34l0.89,0.888l6.504,6.504l5.852-5.849l-6.504-6.503l-0.891-0.888l-0.34-0.34l0.34-0.339
				l0.891-0.89l1.435-1.436l0.89-0.89L99.305-44.413L99.305-44.413z M97.295-26.257l-6.845-6.844l-0.888-0.888l-0.892,0.888
				l-1.438,1.435l-0.889,0.889l0.889,0.889l6.849,6.843l-6.531,6.53l-6.843-6.844l-0.891-0.889l-0.887,0.889l-1.437,1.434
				l-0.89,0.89l0.89,0.889l6.844,6.843L77.498-6.46l-0.889,0.889l0.889,0.889l1.436,1.433l0.89,0.889l0.889-0.889l6.845-6.843
				l6.529,6.529l-6.848,6.845L86.35,4.17l0.889,0.888l1.438,1.435l0.892,0.889l0.888-0.889l6.845-6.843l6.529,6.528l-6.844,6.844
				l-0.891,0.888l0.891,0.889l1.435,1.437l0.89,0.89l0.888-0.89l6.85-6.844l6.841,6.844l0.891,0.888l0.89-0.888l1.437-1.437
				l0.888-0.888l-0.888-0.889l-6.846-6.844l6.529-6.528l7.453,7.453l0.888,0.889l0.888-0.889l1.438-1.436l0.891-0.888l-0.891-0.888
				l-7.448-7.453l6.525-6.529l6.845,6.843l0.889,0.889l0.893-0.889l1.436-1.433l0.889-0.888l-0.889-0.89l-6.846-6.844l6.846-6.843
				l0.889-0.89l-0.889-0.888l-1.436-1.434l-0.893-0.889l-0.889,0.889l-6.845,6.844l-6.525-6.53l6.843-6.843l0.891-0.889
				l-0.891-0.889l-1.441-1.435l-0.889-0.888l-0.89,0.888l-6.844,6.844l-6.529-6.529l6.847-6.843l0.887-0.889l-0.887-0.889
				l-1.438-1.435l-0.891-0.889l-0.891,0.889L107.039-36l-6.848-6.843l-0.887-0.89l-0.893,0.89l-1.438,1.435l-0.889,0.889
				l0.889,0.889l6.846,6.843L97.295-26.257L97.295-26.257z"/>
			<path fill="#CCCCCC" d="M107.039-12.549l0.338,0.341l8.305,8.306l0.342,0.34l-0.342,0.339l-8.305,8.307l-0.338,0.341
				l-0.342-0.341l-8.307-8.307l-0.344-0.339l0.344-0.34l8.308-8.306L107.039-12.549L107.039-12.549z M107.039,4.744l8.304-8.306
				l-8.304-8.307l-8.311,8.307L107.039,4.744L107.039,4.744z"/>
			<path fill="#CCCCCC" d="M107.039-10.092l6.525,6.529l-6.525,6.53l-6.532-6.53L107.039-10.092L107.039-10.092z M107.039,2.287
				l5.848-5.85l-5.848-5.849l-5.854,5.849L107.039,2.287L107.039,2.287z"/>
			<path fill="#CCCCCC" d="M114.768-47.801l0.34,0.34l6.604,6.603l0.341,0.34l-0.341,0.341l-7.396,7.391l2.461,2.459l7.395-7.392
				l0.34-0.34l0.342,0.34l6.604,6.602l0.34,0.34l-0.34,0.34l-7.393,7.393l2.459,2.459l7.393-7.392l0.34-0.339l0.34,0.339
				l6.604,6.601l0.339,0.341l-0.339,0.339l-7.396,7.393l7.396,7.392l0.339,0.341L141.2-5.229l-6.604,6.6l-0.34,0.341l-0.34-0.341
				l-7.393-7.391l-2.459,2.459l8,8.001l0.34,0.34l-0.34,0.34l-6.604,6.602l-0.341,0.34l-0.341-0.34l-8.002-8.002l-2.461,2.46
				l7.395,7.392l0.341,0.341l-0.341,0.34l-6.604,6.603l-0.34,0.34l-0.342-0.34l-7.389-7.393l-7.396,7.393l-0.34,0.34l-0.342-0.34
				l-6.602-6.603l-0.342-0.34l0.342-0.341l7.392-7.392L97.29,3.72l-7.39,7.394l-0.34,0.34l-0.34-0.34L82.62,4.51l-0.341-0.34
				l0.341-0.34l7.396-7.393l-2.463-2.459L80.161,1.37L79.82,1.711L79.48,1.37l-6.602-6.6l-0.341-0.341l0.341-0.341l7.395-7.392
				l-7.395-7.393l-0.341-0.339l0.341-0.341l6.602-6.601l0.34-0.339l0.341,0.339l7.392,7.392l2.463-2.459l-7.396-7.393l-0.341-0.34
				l0.341-0.34l6.603-6.602l0.34-0.34l0.34,0.34l7.396,7.392l2.459-2.459l-7.394-7.391l-0.342-0.341l0.342-0.34l6.604-6.603
				l0.344-0.34l0.34,0.34l7.395,7.393l7.389-7.393L114.768-47.801L114.768-47.801z M107.039-39.388l-7.734-7.734l-6.602,6.603
				l7.732,7.732l-3.144,3.139l-7.729-7.732l-6.604,6.602l7.731,7.732l-3.142,3.14l-7.731-7.731l-6.602,6.601l7.732,7.732
				l-7.73,7.733l6.602,6.6l7.731-7.731l3.142,3.139L82.96,4.17l6.603,6.6l7.732-7.732l3.141,3.141l-7.729,7.733l6.604,6.602
				l7.731-7.733l7.729,7.733l6.604-6.602l-7.732-7.733l3.141-3.141l8.342,8.342l6.604-6.601l-8.342-8.341l3.141-3.139l7.73,7.731
				l6.604-6.6l-7.73-7.733l7.73-7.732l-6.604-6.601l-7.73,7.731l-3.142-3.14l7.733-7.732l-6.604-6.602l-7.732,7.732l-3.141-3.139
				l7.732-7.732l-6.604-6.603L107.039-39.388L107.039-39.388z"/>
			<path fill="#CCCCCC" d="M97.361-15.729l2.426,2.427l-2.426,2.425l-2.428-2.425L97.361-15.729L97.361-15.729z"/>
			<path fill="#CCCCCC" d="M116.713-15.729l2.426,2.427l-2.426,2.425l-2.428-2.425L116.713-15.729L116.713-15.729z"/>
			<path fill="#CCCCCC" d="M107.037-5.988l2.426,2.427l-2.426,2.425l-2.428-2.425L107.037-5.988L107.037-5.988z"/>
			<path fill="#CCCCCC" d="M121.164-58.14h1.496h4.954h0.258l0.185,0.185l32.869,33.02l0.436,0.438l-0.436,0.44L150.389-13.45
				l-0.197,0.213l0.209,0.218l10.521,10.351l0.448,0.441l-0.447,0.443l-32.694,32.51l-0.182,0.182h-0.257h-4.95h-1.51l1.068-1.063
				l32.248-32.058l-7.617-7.517l-3.037-3.052l-0.436-0.437l0.435-0.44l3.021-3.058l7.646-7.787L122.22-57.079L121.164-58.14
				L121.164-58.14z M127.789,30.286l32.693-32.511L149.945-12.59l-0.61-0.643l0.61-0.655l10.537-10.607l-32.869-33.023h-4.953
				l32.872,33.011l-8.079,8.227l-3.02,3.059l3.03,3.048l8.063,7.958l-32.689,32.501H127.789L127.789,30.286z"/>
			<path fill="#CCCCCC" d="M10.572,23.284h1.497h4.954h0.258l0.183,0.185l32.87,33.021l0.435,0.438l-0.435,0.44L39.796,67.974
				L39.6,68.187l0.208,0.218l10.521,10.351l0.448,0.441L50.33,79.64l-32.694,32.51l-0.182,0.182h-0.257h-4.95h-1.51l1.07-1.062
				l32.248-32.059l-7.619-7.517l-3.037-3.052l-0.435-0.437l0.433-0.44l3.022-3.058l7.645-7.787L11.628,24.345L10.572,23.284
				L10.572,23.284z M17.197,111.71l32.695-32.511L39.354,68.833l-0.612-0.643l0.612-0.655l10.537-10.607l-32.87-33.023h-4.954
				l32.871,33.011l-8.079,8.227l-3.02,3.059l3.034,3.048l8.065,7.958l-32.693,32.501L17.197,111.71L17.197,111.71z"/>
			<path fill="#CCCCCC" d="M94.198,23.284l-1.058,1.062L60.705,56.919l7.646,7.787l3.02,3.059l0.436,0.44l-0.436,0.438l-3.037,3.052
				l-7.619,7.517l32.246,32.058l1.07,1.063h-1.508h-4.951h-0.256l-0.185-0.183L54.438,79.64l-0.444-0.443l0.448-0.442l10.521-10.35
				l0.208-0.218l-0.196-0.213L54.438,57.367L54,56.927l0.438-0.438l32.869-33.021l0.182-0.185h0.263h4.95L94.198,23.284
				L94.198,23.284z M87.572,111.71h4.951L59.83,79.209l8.064-7.958l3.032-3.048l-3.02-3.059l-8.079-8.227l32.869-33.011h-4.951
				l-32.87,33.022l10.535,10.608l0.61,0.655l-0.61,0.643L54.878,79.198L87.572,111.71L87.572,111.71z"/>
			<path fill="#CCCCCC" d="M107.039,49.392l0.338,0.34l8.305,8.308l0.342,0.339l-0.342,0.34l-8.305,8.306l-0.338,0.342l-0.342-0.342
				l-8.309-8.306l-0.343-0.34l0.343-0.339l8.309-8.308L107.039,49.392L107.039,49.392z M107.039,66.685l8.304-8.306l-8.304-8.306
				l-8.311,8.306L107.039,66.685L107.039,66.685z"/>
			<path fill="#CCCCCC" d="M107.039,51.849l6.525,6.53l-6.525,6.53l-6.532-6.53L107.039,51.849L107.039,51.849z M107.039,64.229
				l5.848-5.85l-5.848-5.849l-5.854,5.849L107.039,64.229L107.039,64.229z"/>
			<path fill="#CCCCCC" d="M107.037,55.952l2.425,2.427l-2.425,2.426l-2.428-2.426L107.037,55.952L107.037,55.952z"/>
			<path fill="#CCCCCC" d="M116.777,61.59l6.529,6.53l-6.529,6.53l-6.529-6.53L116.777,61.59L116.777,61.59z M116.777,73.97
				l5.85-5.85l-5.85-5.85l-5.853,5.85L116.777,73.97L116.777,73.97z"/>
			<path fill="#CCCCCC" d="M116.777,59.133l0.341,0.34l8.306,8.307l0.34,0.34l-0.34,0.34l-8.306,8.307l-0.341,0.34l-0.338-0.34
				l-8.312-8.307l-0.34-0.34l0.34-0.34l8.312-8.307L116.777,59.133L116.777,59.133z M116.777,76.427l8.307-8.307l-8.307-8.307
				l-8.307,8.307L116.777,76.427L116.777,76.427z"/>
			<path fill="#CCCCCC" d="M97.295,59.133l0.34,0.34l8.307,8.307l0.343,0.34l-0.343,0.34l-8.307,8.307l-0.34,0.34l-0.341-0.34
				l-8.306-8.307l-0.342-0.34l0.342-0.34l8.306-8.307L97.295,59.133L97.295,59.133z M97.295,76.427l8.309-8.307l-8.309-8.307
				l-8.307,8.307L97.295,76.427L97.295,76.427z"/>
			<path fill="#CCCCCC" d="M97.295,61.59l6.529,6.53l-6.529,6.53l-6.529-6.53L97.295,61.59L97.295,61.59z M97.295,73.97l5.85-5.85
				l-5.85-5.85l-5.85,5.85L97.295,73.97L97.295,73.97z"/>
			<path fill="#CCCCCC" d="M99.305,37.011l0.34,0.34l0.892,0.89l6.506,6.504l6.502-6.504l0.89-0.888l0.34-0.34l0.34,0.34l0.89,0.888
				l1.437,1.436l0.891,0.888l0.341,0.34l-0.341,0.341l-0.891,0.888l-6.506,6.503l5.852,5.849l6.505-6.504l0.89-0.888l0.342-0.34
				l0.34,0.34l0.889,0.888l1.436,1.436l0.89,0.888l0.341,0.34l-0.341,0.34l-0.89,0.888l-6.502,6.504l5.849,5.85l6.502-6.503
				l0.892-0.889l0.34-0.34l0.342,0.34l0.891,0.889l1.436,1.433l0.89,0.888l0.34,0.34l-0.34,0.34l-0.89,0.89l-6.504,6.503
				l6.504,6.504l0.89,0.889l0.34,0.34l-0.34,0.34l-0.89,0.888l-1.436,1.434l-0.891,0.888l-0.342,0.34l-0.34-0.34l-0.892-0.888
				l-6.502-6.503l-5.849,5.849l7.11,7.113l0.89,0.889l0.34,0.34l-0.34,0.34l-0.89,0.888l-1.435,1.437l-0.892,0.889l-0.341,0.341
				l-0.34-0.341l-0.891-0.889l-7.111-7.113l-5.852,5.849l6.506,6.503l0.891,0.889l0.341,0.341l-0.341,0.34l-0.891,0.889L115.999,98
				l-0.89,0.889l-0.34,0.34l-0.34-0.34L113.542,98l-6.502-6.503l-6.506,6.502l-0.89,0.892l-0.34,0.342l-0.343-0.342L98.074,98
				l-1.434-1.435l-0.892-0.889l-0.34-0.34l0.34-0.34l0.892-0.889l6.504-6.503l-5.853-5.849l-6.504,6.504l-0.892,0.889l-0.34,0.339
				l-0.34-0.339l-0.889-0.889l-1.436-1.436l-0.892-0.889l-0.34-0.34l0.34-0.34l0.892-0.889l6.504-6.504l-5.853-5.849l-6.502,6.503
				l-0.892,0.888l-0.34,0.34l-0.34-0.34l-0.888-0.888l-1.438-1.434l-0.887-0.89l-0.341-0.339l0.341-0.341l0.887-0.888l6.506-6.504
				l-6.506-6.503l-0.887-0.889l-0.341-0.339l0.341-0.34l0.887-0.89l1.438-1.433l0.888-0.889l0.34-0.34l0.34,0.34l0.892,0.889
				l6.502,6.503l5.853-5.85l-6.504-6.504l-0.892-0.888l-0.34-0.34l0.34-0.34l0.892-0.888l1.436-1.436l0.889-0.888l0.34-0.34
				l0.34,0.34l0.892,0.888l6.504,6.504l5.853-5.849l-6.504-6.503l-0.892-0.888l-0.34-0.34l0.34-0.339l0.892-0.89l1.434-1.436
				l0.89-0.89L99.305,37.011L99.305,37.011z M97.295,55.167l-6.845-6.844l-0.888-0.888l-0.892,0.888l-1.438,1.435l-0.889,0.889
				l0.889,0.889l6.849,6.843l-6.531,6.53l-6.843-6.844l-0.891-0.889l-0.887,0.889l-1.437,1.434l-0.89,0.89l0.89,0.889l6.844,6.843
				l-6.844,6.844l-0.89,0.889l0.89,0.889l1.437,1.433l0.887,0.889l0.891-0.889l6.843-6.843l6.531,6.529l-6.849,6.845l-0.889,0.888
				l0.889,0.888l1.438,1.435l0.892,0.889l0.888-0.889l6.845-6.843l6.529,6.528l-6.844,6.844l-0.892,0.888l0.892,0.889l1.435,1.437
				l0.89,0.89l0.887-0.89l6.851-6.844l6.84,6.844l0.892,0.888l0.89-0.888l1.437-1.437l0.887-0.888l-0.887-0.889l-6.846-6.844
				l6.529-6.528l7.453,7.453l0.888,0.889l0.888-0.889l1.436-1.436l0.893-0.888l-0.893-0.888l-7.446-7.453l6.524-6.529l6.846,6.843
				l0.889,0.889l0.893-0.889l1.436-1.433l0.889-0.888l-0.889-0.89l-6.846-6.844l6.846-6.843l0.889-0.89l-0.889-0.888l-1.436-1.434
				l-0.893-0.889l-0.889,0.889l-6.846,6.844l-6.524-6.53l6.842-6.843l0.892-0.889l-0.892-0.889l-1.438-1.435l-0.889-0.888
				l-0.891,0.888l-6.846,6.844l-6.526-6.529l6.847-6.843l0.887-0.889l-0.887-0.889l-1.438-1.435l-0.891-0.889l-0.891,0.889
				l-6.84,6.843l-6.85-6.843l-0.887-0.89l-0.891,0.89l-1.436,1.435l-0.891,0.889l0.891,0.889l6.845,6.843L97.295,55.167
				L97.295,55.167z"/>
			<path fill="#CCCCCC" d="M107.039,68.875l0.338,0.341l8.305,8.306l0.342,0.34l-0.342,0.339l-8.305,8.307l-0.338,0.341
				l-0.342-0.341l-8.309-8.307l-0.343-0.339l0.343-0.34l8.309-8.306L107.039,68.875L107.039,68.875z M107.039,86.167l8.304-8.306
				l-8.304-8.307l-8.311,8.307L107.039,86.167L107.039,86.167z"/>
			<path fill="#CCCCCC" d="M107.039,71.332l6.525,6.529l-6.525,6.53l-6.532-6.53L107.039,71.332L107.039,71.332z M107.039,83.711
				l5.848-5.85l-5.848-5.849l-5.854,5.849L107.039,83.711L107.039,83.711z"/>
			<path fill="#CCCCCC" d="M114.768,33.623l0.34,0.34l6.604,6.603l0.341,0.34l-0.341,0.341l-7.396,7.391l2.461,2.459l7.395-7.392
				l0.34-0.34l0.342,0.34l6.604,6.602l0.34,0.34l-0.34,0.34l-7.393,7.393l2.459,2.459l7.393-7.392l0.34-0.339l0.34,0.339
				l6.604,6.601l0.339,0.341l-0.339,0.339l-7.396,7.393l7.396,7.392l0.339,0.341l-0.339,0.341l-6.604,6.6l-0.34,0.341l-0.34-0.341
				l-7.393-7.391l-2.459,2.459l8,8.001l0.34,0.34l-0.34,0.34l-6.604,6.602l-0.341,0.34l-0.341-0.34l-8.002-8.002l-2.461,2.46
				l7.396,7.392l0.341,0.341l-0.341,0.34l-6.604,6.603l-0.34,0.343l-0.34-0.343l-7.389-7.39l-7.395,7.39l-0.34,0.343l-0.344-0.343
				l-6.604-6.603l-0.342-0.34l0.342-0.341l7.394-7.392l-2.459-2.46L89.9,92.538l-0.34,0.34l-0.34-0.34l-6.604-6.602l-0.343-0.34
				l0.343-0.34l7.396-7.393l-2.464-2.459l-7.392,7.391l-0.34,0.341l-0.34-0.341l-6.603-6.6l-0.341-0.341l0.341-0.341l7.394-7.392
				l-7.394-7.393l-0.341-0.339l0.341-0.341l6.603-6.601l0.34-0.339l0.34,0.339l7.392,7.392l2.464-2.459l-7.396-7.393l-0.343-0.34
				l0.343-0.34l6.604-6.602l0.34-0.34l0.34,0.34l7.394,7.392l2.459-2.459l-7.392-7.391l-0.342-0.341l0.342-0.34l6.602-6.603
				l0.342-0.34l0.34,0.34l7.396,7.393l7.391-7.393L114.768,33.623L114.768,33.623z M107.039,42.036l-7.734-7.734l-6.602,6.603
				l7.732,7.732l-3.144,3.139l-7.729-7.732l-6.604,6.602l7.731,7.732l-3.142,3.14l-7.731-7.731l-6.602,6.601l7.732,7.732
				l-7.732,7.733l6.602,6.6l7.731-7.731l3.142,3.139l-7.731,7.733l6.604,6.6l7.729-7.732l3.144,3.141l-7.732,7.733l6.602,6.602
				l7.734-7.73l7.729,7.73l6.604-6.602l-7.733-7.733l3.141-3.141l8.343,8.342l6.604-6.601l-8.344-8.341l3.143-3.139l7.729,7.731
				l6.604-6.6l-7.731-7.733l7.731-7.732l-6.604-6.601l-7.729,7.731l-3.143-3.14l7.733-7.732l-6.604-6.602l-7.732,7.732l-3.141-3.139
				l7.733-7.732l-6.604-6.603L107.039,42.036L107.039,42.036z"/>
			<path fill="#CCCCCC" d="M59.881,27.911l-3.359,3.359l7.715,7.715l-0.395,0.395l-7.716-7.715l-3.379,3.38l7.536,7.535
				l-7.938,7.938l-7.938-7.938l7.534-7.535l-3.385-3.388l-7.597,7.598l-0.396-0.395l7.597-7.598l-3.352-3.352l-7.535,7.536
				l-7.939-7.936l7.939-7.938l7.535,7.536l3.379-3.379l-7.625-7.625l0.396-0.395l7.625,7.625l3.387-3.387l-7.563-7.564l7.938-7.937
				l7.938,7.937l-7.564,7.564l3.379,3.379l7.619-7.617l0.396,0.395l-7.619,7.618l3.388,3.387l7.535-7.536l7.938,7.938l-7.938,7.938
				L59.881,27.911z M60.275,27.503l0.008,0.007l-0.008,0.006l7.141,7.14l7.146-7.146l-7.146-7.147L60.275,27.503z M45.199,12.382
				l7.146,7.146l7.146-7.146l-7.146-7.147L45.199,12.382z M48.979,23.729l3.358,3.358l3.365-3.365l-3.358-3.358L48.979,23.729z
				 M44.413,27.516l-0.006-0.006l0.006-0.007l-7.14-7.14l-7.147,7.147l7.147,7.146L44.413,27.516z M48.556,30.867l3.385-3.386
				l-3.357-3.358l-3.379,3.379l0.006,0.007l-0.006,0.006L48.556,30.867z M52.351,35.441l-0.006,0.006l-0.007-0.006l-7.139,7.14
				l7.146,7.147l7.146-7.147L52.351,35.441z M55.73,31.271l-3.394-3.394l-3.387,3.386l3.387,3.387l0.007-0.006l0.006,0.006
				L55.73,31.271z M59.484,27.516l-0.008-0.006l0.008-0.007l-3.389-3.388l-3.364,3.366l3.393,3.394L59.484,27.516z M54.527,11.963
				l-2.135-2.136l-2.135,2.136l2.135,2.135L54.527,11.963z M52.392,44.716l2.135-2.135l-2.135-2.135l-2.135,2.135L52.392,44.716z
				 M69.57,27.537l-2.135-2.135l-2.135,2.135l2.135,2.135L69.57,27.537z M35.129,27.537l2.136,2.135l2.135-2.135l-2.135-2.135
				L35.129,27.537z"/>
			<path fill="#CCCCCC" d="M97.361,65.695l2.426,2.427l-2.426,2.425l-2.428-2.425L97.361,65.695L97.361,65.695z"/>
			<path fill="#CCCCCC" d="M116.713,65.695l2.426,2.427l-2.426,2.425l-2.428-2.425L116.713,65.695L116.713,65.695z"/>
			<path fill="#CCCCCC" d="M107.037,75.436l2.426,2.427l-2.426,2.425l-2.428-2.425L107.037,75.436L107.037,75.436z"/>
			<path fill="#CCCCCC" d="M59.881,109.335l-3.359,3.358l7.715,7.716l-0.395,0.396l-7.716-7.716l-3.379,3.38l7.536,7.535
				l-7.938,7.938l-7.938-7.938l7.534-7.535l-3.385-3.388l-7.597,7.599l-0.396-0.396l7.597-7.599l-3.352-3.354l-7.535,7.536
				l-7.939-7.938l7.939-7.938l7.535,7.533l3.379-3.379l-7.625-7.625l0.396-0.395l7.625,7.624l3.387-3.388L44.407,93.8l7.938-7.937
				l7.938,7.937l-7.563,7.563l3.377,3.38l7.618-7.617l0.396,0.396l-7.618,7.617l3.388,3.387l7.535-7.533l7.938,7.938l-7.938,7.938
				L59.881,109.335z M60.275,108.927l0.008,0.007l-0.008,0.006l7.141,7.143l7.146-7.146l-7.146-7.146L60.275,108.927z
				 M45.199,93.805l7.146,7.147l7.146-7.147l-7.146-7.147L45.199,93.805z M48.98,105.152l3.357,3.355l3.365-3.363l-3.358-3.357
				L48.98,105.152z M44.413,108.939l-0.006-0.006l0.006-0.009l-7.14-7.14l-7.147,7.146l7.147,7.146L44.413,108.939z M48.556,112.291
				l3.385-3.387l-3.357-3.357l-3.379,3.379l0.006,0.008l-0.006,0.006L48.556,112.291z M52.351,116.865l-0.006,0.006l-0.007-0.006
				l-7.139,7.14l7.146,7.147l7.146-7.147L52.351,116.865z M55.73,112.693l-3.394-3.396l-3.387,3.388l3.387,3.388l0.007-0.007
				l0.006,0.007L55.73,112.693z M59.484,108.939l-0.008-0.006l0.008-0.009l-3.389-3.388l-3.364,3.363l3.393,3.396L59.484,108.939z
				 M54.527,93.387l-2.135-2.136l-2.135,2.136l2.135,2.135L54.527,93.387z M52.393,126.141l2.136-2.136l-2.136-2.135l-2.135,2.135
				L52.393,126.141z M69.57,108.961l-2.135-2.135l-2.135,2.135l2.135,2.135L69.57,108.961z M35.129,108.961l2.136,2.135l2.135-2.135
				l-2.135-2.135L35.129,108.961z"/>
			<g>
				<path fill="#CCCCCC" d="M-3.554,49.392l0.339,0.34L5.09,58.04l0.342,0.339l-0.342,0.34l-8.305,8.306l-0.339,0.342l-0.342-0.342
					l-8.307-8.306l-0.341-0.34l0.341-0.339l8.307-8.308L-3.554,49.392L-3.554,49.392z M-3.554,66.685l8.304-8.306l-8.304-8.306
					l-8.31,8.306L-3.554,66.685L-3.554,66.685z"/>
				<path fill="#CCCCCC" d="M-3.554,51.849l6.527,6.53l-6.527,6.53l-6.532-6.53L-3.554,51.849L-3.554,51.849z M-3.554,64.229
					l5.848-5.85l-5.848-5.849l-5.853,5.849L-3.554,64.229L-3.554,64.229z"/>
				<path fill="#CCCCCC" d="M-3.556,55.952l2.425,2.427l-2.425,2.426l-2.427-2.426L-3.556,55.952L-3.556,55.952z"/>
				<path fill="#CCCCCC" d="M6.186,61.59l6.53,6.53l-6.53,6.53l-6.53-6.53L6.186,61.59L6.186,61.59z M6.186,73.97l5.849-5.85
					l-5.849-5.85l-5.85,5.85L6.186,73.97L6.186,73.97z"/>
				<path fill="#CCCCCC" d="M6.186,59.133l0.34,0.34l8.306,8.307l0.34,0.34l-0.34,0.34l-8.306,8.307l-0.34,0.34l-0.339-0.34
					l-8.308-8.307l-0.34-0.34l0.34-0.34l8.308-8.307L6.186,59.133L6.186,59.133z M6.186,76.427l8.306-8.307l-8.306-8.307
					l-8.307,8.307L6.186,76.427L6.186,76.427z"/>
				<path fill="#CCCCCC" d="M-13.297,59.133l0.34,0.34l8.307,8.307l0.34,0.34l-0.34,0.34l-8.307,8.307l-0.34,0.34l-0.341-0.34
					l-8.306-8.307l-0.34-0.34l0.34-0.34l8.306-8.307L-13.297,59.133L-13.297,59.133z M-13.297,76.427l8.308-8.307l-8.308-8.307
					l-8.307,8.307L-13.297,76.427L-13.297,76.427z"/>
				<path fill="#CCCCCC" d="M-13.297,61.59l6.529,6.53l-6.529,6.53l-6.53-6.53L-13.297,61.59L-13.297,61.59z M-13.297,73.97
					l5.849-5.85l-5.849-5.85l-5.85,5.85L-13.297,73.97L-13.297,73.97z"/>
				<path fill="#CCCCCC" d="M-11.288,37.011l0.34,0.34l0.889,0.89l6.505,6.504l6.502-6.504l0.887-0.888l0.34-0.34l0.339,0.34
					l0.89,0.888l1.437,1.436l0.887,0.888l0.34,0.34l-0.34,0.341l-0.887,0.888l-6.506,6.503l5.85,5.849l6.504-6.504l0.888-0.888
					l0.339-0.34l0.341,0.34l0.888,0.888l1.436,1.436l0.887,0.888l0.34,0.34l-0.34,0.34l-0.887,0.888l-6.504,6.504l5.85,5.85
					l6.502-6.503l0.889-0.889l0.34-0.34l0.34,0.34l0.889,0.889l1.436,1.433l0.888,0.888l0.341,0.34l-0.341,0.34l-0.888,0.89
					l-6.505,6.503l6.505,6.504l0.888,0.889l0.341,0.34l-0.341,0.34l-0.888,0.888l-1.436,1.434l-0.889,0.888l-0.34,0.34l-0.34-0.34
					l-0.889-0.888l-6.502-6.503l-5.85,5.849l7.111,7.113l0.889,0.889l0.34,0.34l-0.34,0.34l-0.889,0.888l-1.434,1.437l-0.889,0.889
					l-0.34,0.341l-0.34-0.341l-0.888-0.889l-7.113-7.113l-5.85,5.849l6.506,6.503l0.887,0.889l0.34,0.341l-0.34,0.34L6.84,96.565
					L5.403,98l-0.89,0.889l-0.339,0.34l-0.34-0.34L2.947,98l-6.502-6.503l-6.505,6.502l-0.889,0.892l-0.34,0.342l-0.34-0.342
					L-12.518,98l-1.434-1.435l-0.889-0.889l-0.34-0.34l0.34-0.34l0.889-0.889l6.503-6.503l-5.849-5.849l-6.504,6.504l-0.889,0.889
					l-0.339,0.339l-0.34-0.339l-0.889-0.889l-1.436-1.436l-0.889-0.889l-0.339-0.34l0.339-0.34l0.889-0.889l6.504-6.504l-5.85-5.849
					l-6.502,6.503l-0.89,0.888l-0.34,0.34l-0.34-0.34l-0.888-0.888l-1.438-1.434l-0.888-0.89l-0.34-0.339l0.34-0.341l0.888-0.888
					l6.506-6.504l-6.506-6.503l-0.888-0.889l-0.34-0.339l0.34-0.34l0.888-0.89l1.438-1.433l0.888-0.889l0.34-0.34l0.34,0.34
					l0.89,0.889l6.502,6.503l5.85-5.85l-6.504-6.504l-0.889-0.888l-0.339-0.34l0.339-0.34l0.889-0.888l1.436-1.436l0.889-0.888
					l0.34-0.34l0.339,0.34l0.889,0.888l6.504,6.504l5.849-5.849l-6.503-6.503l-0.889-0.888l-0.34-0.34l0.34-0.339l0.889-0.89
					l1.434-1.436l0.889-0.89L-11.288,37.011L-11.288,37.011z M-13.297,55.167l-6.845-6.844l-0.887-0.888l-0.889,0.888l-1.437,1.435
					l-0.888,0.889l0.888,0.889l6.846,6.843l-6.531,6.53l-6.843-6.844l-0.889-0.889l-0.888,0.889l-1.436,1.434l-0.889,0.89
					l0.889,0.889l6.844,6.843l-6.844,6.844l-0.889,0.889l0.889,0.889l1.436,1.433l0.888,0.889l0.889-0.889l6.843-6.843l6.531,6.529
					l-6.846,6.845l-0.888,0.888l0.888,0.888l1.437,1.435l0.889,0.889l0.887-0.889l6.845-6.843l6.529,6.528l-6.844,6.844
					l-0.889,0.888l0.889,0.889l1.435,1.437l0.889,0.89l0.887-0.89l6.847-6.844l6.841,6.844l0.889,0.888l0.889-0.888l1.436-1.437
					l0.887-0.888l-0.887-0.889l-6.846-6.844l6.53-6.528l7.453,7.453l0.887,0.889l0.888-0.889l1.436-1.436l0.889-0.888l-0.889-0.888
					l-7.45-7.453l6.528-6.529l6.842,6.843l0.889,0.889l0.889-0.889l1.436-1.433l0.888-0.888l-0.888-0.89L19.14,68.12l6.844-6.843
					l0.888-0.89l-0.888-0.888l-1.436-1.434l-0.889-0.889l-0.889,0.889l-6.842,6.844L9.4,58.379l6.842-6.843l0.889-0.889
					l-0.889-0.889l-1.437-1.435l-0.888-0.888l-0.888,0.888l-6.844,6.844l-6.53-6.529l6.846-6.843l0.887-0.889l-0.887-0.889
					l-1.436-1.435l-0.889-0.889l-0.889,0.889l-6.841,6.843l-6.847-6.843l-0.887-0.89l-0.889,0.89l-1.435,1.435l-0.889,0.889
					l0.889,0.889l6.844,6.843L-13.297,55.167L-13.297,55.167z"/>
				<path fill="#CCCCCC" d="M-3.554,68.875l0.339,0.341l8.305,8.306l0.342,0.34L5.09,78.201l-8.305,8.307l-0.339,0.341l-0.342-0.341
					l-8.307-8.307l-0.341-0.339l0.341-0.34l8.307-8.306L-3.554,68.875L-3.554,68.875z M-3.554,86.167l8.304-8.306l-8.304-8.307
					l-8.31,8.307L-3.554,86.167L-3.554,86.167z"/>
				<path fill="#CCCCCC" d="M-3.554,71.332l6.527,6.529l-6.527,6.53l-6.532-6.53L-3.554,71.332L-3.554,71.332z M-3.554,83.711
					l5.848-5.85l-5.848-5.849l-5.853,5.849L-3.554,83.711L-3.554,83.711z"/>
				<path fill="#CCCCCC" d="M4.176,33.623l0.339,0.34l6.603,6.603l0.341,0.34l-0.341,0.341l-7.393,7.391l2.461,2.459l7.392-7.392
					l0.339-0.34l0.341,0.34l6.601,6.602l0.34,0.34l-0.34,0.34l-7.391,7.393l2.459,2.459l7.391-7.392l0.34-0.339l0.34,0.339
					l6.603,6.601l0.339,0.341l-0.339,0.339l-7.393,7.393l7.393,7.392l0.339,0.341l-0.339,0.341l-6.603,6.6l-0.34,0.341l-0.34-0.341
					l-7.391-7.391l-2.459,2.459l8,8.001l0.339,0.34l-0.339,0.34l-6.603,6.602l-0.34,0.34l-0.34-0.34l-8-8.002l-2.461,2.46
					l7.393,7.392l0.341,0.341l-0.341,0.34l-6.603,6.603l-0.339,0.343l-0.34-0.343l-7.389-7.39l-7.395,7.39l-0.34,0.343l-0.34-0.343
					l-6.602-6.603l-0.34-0.34l0.34-0.341l7.392-7.392l-2.459-2.46l-7.393,7.394l-0.339,0.34l-0.34-0.34l-6.603-6.602l-0.34-0.34
					l0.34-0.34l7.395-7.393l-2.462-2.459l-7.392,7.391l-0.34,0.341l-0.34-0.341l-6.601-6.6l-0.341-0.341l0.341-0.341l7.393-7.392
					l-7.393-7.393l-0.341-0.339l0.341-0.341l6.601-6.601l0.34-0.339l0.34,0.339l7.392,7.392l2.462-2.459l-7.395-7.393l-0.34-0.34
					l0.34-0.34l6.603-6.602l0.34-0.34l0.339,0.34l7.393,7.392l2.459-2.459l-7.392-7.391l-0.34-0.341l0.34-0.34l6.602-6.603
					l0.34-0.34l0.34,0.34l7.395,7.393l7.389-7.393L4.176,33.623L4.176,33.623z M-3.554,42.036l-7.734-7.734l-6.601,6.603
					l7.732,7.732l-3.141,3.139l-7.732-7.732l-6.603,6.602l7.734,7.732l-3.141,3.14l-7.732-7.731l-6.601,6.601l7.732,7.732
					l-7.732,7.733l6.601,6.6l7.732-7.731l3.141,3.139l-7.734,7.733l6.603,6.6l7.732-7.732l3.141,3.141l-7.732,7.733l6.601,6.602
					l7.734-7.73l7.729,7.73l6.603-6.602l-7.734-7.733l3.142-3.141l8.34,8.342l6.603-6.601l-8.342-8.341l3.141-3.139l7.731,7.731
					l6.603-6.6l-7.733-7.733l7.733-7.732l-6.603-6.601l-7.731,7.731l-3.141-3.14l7.733-7.732l-6.603-6.602l-7.731,7.732
					l-3.142-3.139l7.734-7.732l-6.603-6.603L-3.554,42.036L-3.554,42.036z"/>
				<path fill="#CCCCCC" d="M-13.231,65.695l2.425,2.427l-2.425,2.425l-2.428-2.425L-13.231,65.695L-13.231,65.695z"/>
				<path fill="#CCCCCC" d="M6.121,65.695l2.426,2.427l-2.426,2.425l-2.428-2.425L6.121,65.695L6.121,65.695z"/>
				<path fill="#CCCCCC" d="M-3.555,75.436l2.426,2.427l-2.426,2.425l-2.428-2.425L-3.555,75.436L-3.555,75.436z"/>
			</g>
			<path fill="#CCCCCC" d="M10.572-58.14h1.497h4.954h0.258l0.184,0.185l32.869,33.02l0.435,0.438l-0.435,0.44L39.796-13.45
				L39.6-13.237l0.208,0.218l10.52,10.351l0.448,0.441L50.33-1.783l-32.694,32.51l-0.182,0.182h-0.257h-4.95h-1.51l1.07-1.063
				L44.055-2.213L36.436-9.73l-3.037-3.052l-0.435-0.437l0.433-0.44l3.022-3.058l7.645-7.787L11.628-57.078L10.572-58.14
				L10.572-58.14z M17.197,30.287L49.892-2.225L39.354-12.59l-0.612-0.643l0.612-0.655l10.537-10.607l-32.87-33.023h-4.954
				l32.871,33.011l-8.079,8.227l-3.02,3.059l3.034,3.048l8.065,7.958L12.245,30.286L17.197,30.287L17.197,30.287z"/>
		</g>
	</g>
	<g>
		<defs>
			<rect id="SVGID_3_" y="-0.333" width="111" height="94.375"/>
		</defs>
		<clipPath id="SVGID_4_">
			<use xlink:href="#SVGID_3_"  overflow="visible"/>
		</clipPath>
		<g clip-path="url(#SVGID_4_)">
			<rect x="-87.971" y="0.324" fill="#FCFCFC" width="374.263" height="3.25"/>
			<path fill="#CCCCCC" d="M285.917,0.699v2.5H175.986H22.333h-109.93v-2.5h109.93h153.653H285.917 M286.667-0.051H175.986H22.333
				h-110.68v4h110.68h153.653h110.681V-0.051L286.667-0.051z"/>
		</g>
	</g>
	<g>
		<defs>
			<rect id="SVGID_5_" y="-0.333" width="111" height="94.375"/>
		</defs>
		<clipPath id="SVGID_6_">
			<use xlink:href="#SVGID_5_"  overflow="visible"/>
		</clipPath>
		<g clip-path="url(#SVGID_6_)">
			<rect x="-88.096" y="90.293" fill="#FCFCFC" width="374.513" height="3.5"/>
			<path fill="#CCCCCC" d="M286.167,90.543v3H175.986H22.333h-110.18v-3h110.18h153.653H286.167 M286.667,90.043H175.986H22.333
				h-110.68v4h110.68h153.653h110.681V90.043L286.667,90.043z"/>
		</g>
	</g>
	<g>
		<defs>
			<rect id="SVGID_7_" y="-0.333" width="111" height="94.375"/>
		</defs>
		<clipPath id="SVGID_8_">
			<use xlink:href="#SVGID_7_"  overflow="visible"/>
		</clipPath>
		<path clip-path="url(#SVGID_8_)" fill="#CCCCCC" d="M-11.375-44.413l0.34,0.34l0.891,0.89l6.506,6.504l6.502-6.504l0.889-0.888
			l0.34-0.34l0.34,0.34l0.89,0.888l1.437,1.436l0.89,0.888l0.341,0.34L7.65-40.178L6.76-39.29l-6.506,6.503l5.851,5.849l6.505-6.504
			l0.889-0.888l0.342-0.34l0.34,0.34l0.889,0.888l1.436,1.436l0.889,0.888l0.341,0.34l-0.341,0.34l-0.889,0.888L10-23.046
			l5.848,5.85l6.502-6.503l0.892-0.889l0.34-0.34l0.341,0.34l0.891,0.889l1.436,1.433l0.889,0.888l0.34,0.34l-0.34,0.34l-0.889,0.89
			l-6.505,6.503l6.505,6.504l0.889,0.889l0.34,0.34l-0.34,0.34L26.25-4.344L24.812-2.91l-0.891,0.888l-0.341,0.34l-0.34-0.34
			L22.35-2.91l-6.502-6.503L10-3.564l7.11,7.113L18,4.438l0.34,0.34L18,5.118l-0.89,0.888l-1.435,1.437l-0.891,0.889l-0.341,0.341
			l-0.34-0.341l-0.89-0.889L6.098,0.33L0.246,6.179l6.508,6.503l0.887,0.889l0.342,0.341l-0.342,0.34l-0.887,0.889l-1.438,1.435
			l-0.892,0.889l-0.34,0.34l-0.34-0.34l-0.887-0.889l-6.502-6.503l-6.506,6.502l-0.889,0.891l-0.341,0.343l-0.342-0.343l-0.892-0.89
			l-1.434-1.435l-0.889-0.889l-0.34-0.34l0.34-0.34l0.889-0.889l6.504-6.503l-5.85-5.849l-6.504,6.504l-0.889,0.889l-0.34,0.339
			l-0.342-0.339l-0.889-0.889l-1.438-1.436L-24.67,4.51l-0.34-0.34l0.34-0.34l0.889-0.889l6.504-6.504l-5.85-5.849l-6.503,6.504
			l-0.89,0.888l-0.34,0.34l-0.34-0.34l-0.889-0.888l-1.438-1.434l-0.889-0.89l-0.34-0.339l0.34-0.341l0.889-0.888l6.506-6.504
			l-6.506-6.503l-0.889-0.889l-0.34-0.339l0.34-0.34l0.889-0.89l1.438-1.433l0.889-0.889l0.34-0.34l0.34,0.34l0.89,0.889
			l6.502,6.503l5.851-5.85l-6.504-6.504l-0.89-0.888l-0.34-0.34l0.34-0.34l0.89-0.888l1.438-1.436l0.89-0.888l0.34-0.34l0.34,0.34
			l0.89,0.888l6.504,6.504l5.851-5.849l-6.504-6.503l-0.89-0.888l-0.34-0.34l0.34-0.339l0.89-0.89l1.435-1.436l0.89-0.89
			L-11.375-44.413L-11.375-44.413z M-13.385-26.257l-6.845-6.844l-0.888-0.888l-0.891,0.888l-1.438,1.435l-0.889,0.889l0.889,0.889
			l6.848,6.843l-6.531,6.53l-6.843-6.844l-0.89-0.889l-0.887,0.889l-1.437,1.434l-0.89,0.89l0.89,0.889l6.844,6.843l-6.841,6.843
			l-0.889,0.889l0.889,0.889l1.436,1.433l0.889,0.889l0.889-0.889l6.844-6.843l6.53,6.529l-6.847,6.845L-24.33,4.17l0.889,0.888
			l1.438,1.435l0.891,0.889l0.888-0.889l6.845-6.843l6.529,6.528l-6.844,6.844l-0.891,0.888l0.891,0.889l1.435,1.437l0.89,0.89
			l0.887-0.89l6.85-6.844l6.84,6.844l0.891,0.888l0.89-0.888l1.437-1.437l0.887-0.888l-0.887-0.889L-0.42,6.178L6.105-0.35
			l7.453,7.453l0.888,0.889l0.888-0.889l1.437-1.436l0.891-0.888l-0.891-0.888L9.322-3.562l6.525-6.529l6.845,6.843l0.889,0.889
			l0.892-0.889l1.436-1.433l0.889-0.888l-0.889-0.89l-6.846-6.844l6.846-6.843l0.889-0.89l-0.889-0.888l-1.436-1.434l-0.892-0.889
			l-0.889,0.889l-6.845,6.844l-6.525-6.53l6.842-6.843l0.891-0.889l-0.891-0.889L14.723-33.1l-0.889-0.888L12.945-33.1l-6.844,6.844
			l-6.529-6.529l6.846-6.843l0.887-0.889l-0.887-0.889l-1.437-1.435l-0.89-0.889L3.2-42.841L-3.641-36l-6.848-6.843l-0.887-0.89
			l-0.892,0.89l-1.437,1.435l-0.889,0.889l0.889,0.889l6.846,6.843L-13.385-26.257L-13.385-26.257z"/>
	</g>
	<g>
		<defs>
			<rect id="SVGID_9_" y="-0.333" width="111" height="94.375"/>
		</defs>
		<clipPath id="SVGID_10_">
			<use xlink:href="#SVGID_9_"  overflow="visible"/>
		</clipPath>
		<path clip-path="url(#SVGID_10_)" fill="#CCCCCC" d="M4.088-47.801l0.34,0.34l6.604,6.603l0.341,0.34l-0.341,0.341l-7.396,7.391
			l2.461,2.459l7.395-7.392l0.34-0.34l0.342,0.34l6.603,6.602l0.34,0.34l-0.34,0.34l-7.392,7.393l2.459,2.459l7.392-7.392
			l0.34-0.339l0.34,0.339l6.604,6.601l0.339,0.341l-0.339,0.339l-7.395,7.393l7.395,7.392l0.339,0.341L30.52-5.229l-6.604,6.6
			l-0.34,0.341l-0.34-0.341L15.844-6.02l-2.459,2.459l8,8.001l0.34,0.34l-0.34,0.34l-6.604,6.602l-0.341,0.34l-0.341-0.34
			L6.098,3.72L3.637,6.18l7.395,7.392l0.341,0.341l-0.341,0.34l-6.604,6.603l-0.34,0.34l-0.341-0.34l-7.389-7.393l-7.396,7.393
			l-0.34,0.34l-0.342-0.34l-6.602-6.603l-0.342-0.34l0.342-0.341l7.392-7.392l-2.459-2.46l-7.392,7.394l-0.34,0.34l-0.34-0.34
			L-28.06,4.51l-0.34-0.34l0.341-0.34l7.396-7.393l-2.463-2.459l-7.392,7.392l-0.341,0.341l-0.34-0.341l-6.601-6.6l-0.341-0.341
			l0.341-0.341l7.394-7.392l-7.394-7.393l-0.341-0.339l0.341-0.341l6.601-6.601l0.34-0.339l0.341,0.339l7.392,7.392l2.463-2.459
			l-7.396-7.393l-0.341-0.34l0.341-0.34l6.603-6.602l0.34-0.34l0.34,0.34l7.395,7.392l2.459-2.459l-7.393-7.391l-0.342-0.341
			l0.342-0.34l6.603-6.603l0.343-0.34l0.34,0.34l7.395,7.393l7.389-7.393L4.088-47.801L4.088-47.801z M-3.641-39.388l-7.734-7.734
			l-6.602,6.603l7.732,7.732l-3.143,3.139l-7.73-7.732l-6.604,6.602l7.731,7.732l-3.141,3.14l-7.732-7.731l-6.601,6.601l7.732,7.732
			l-7.73,7.733l6.601,6.6l7.732-7.731l3.141,3.139L-27.72,4.17l6.603,6.6l7.732-7.732l3.141,3.141l-7.73,7.733l6.604,6.602
			l7.732-7.733l7.729,7.733l6.604-6.602L2.961,6.179l3.141-3.141l8.342,8.342l6.604-6.601l-8.343-8.341l3.142-3.139l7.73,7.731
			l6.604-6.6l-7.731-7.733l7.731-7.732l-6.604-6.601l-7.73,7.731l-3.142-3.14l7.733-7.732l-6.604-6.602l-7.732,7.732l-3.141-3.139
			l7.733-7.732L4.09-47.121L-3.641-39.388L-3.641-39.388z"/>
	</g>
</g>
<g>
	<g>
		<defs>
			<rect id="SVGID_11_" y="99.625" width="111" height="94.375"/>
		</defs>
		<clipPath id="SVGID_12_">
			<use xlink:href="#SVGID_11_"  overflow="visible"/>
		</clipPath>
		<g clip-path="url(#SVGID_12_)">
			<path fill="#5D887C" d="M97.035,159.98l-8.307,8.308l8.307,8.308l8.309-8.308L97.035,159.98z M90.504,168.288l6.531-6.53
				l6.529,6.53l-6.529,6.53L90.504,168.288z"/>
			<polygon fill="#5D887C" points="114.057,187.771 115.619,189.333 120.336,189.333 120.539,189.333 116.518,185.311 			"/>
			<path fill="#5D887C" d="M115.082,158.547l-8.305-8.307l-8.312,8.307l8.312,8.307L115.082,158.547z M106.777,152.018l6.524,6.529
				l-6.524,6.529l-6.531-6.529L106.777,152.018z"/>
			<path fill="#5D887C" d="M116.518,176.596l8.308-8.308l-8.308-8.308l-8.307,8.308L116.518,176.596z M123.047,168.288l-6.529,6.53
				l-6.529-6.53l6.529-6.53L123.047,168.288z"/>
			<path fill="#5D887C" d="M106.779,169.723l-8.312,8.307l8.312,8.308l8.305-8.308L106.779,169.723z M106.777,184.561l-6.531-6.531
				l6.531-6.526l6.524,6.526L106.777,184.561z"/>
			<path fill="#5D887C" d="M-13.443,159.98l-8.307,8.308l8.307,8.308l8.309-8.308L-13.443,159.98z M-19.975,168.288l6.531-6.53
				l6.529,6.53l-6.529,6.53L-19.975,168.288z"/>
			<path fill="#5D887C" d="M4.604,158.547l-8.305-8.307l-8.311,8.307l8.311,8.307L4.604,158.547z M-3.701,152.018l6.525,6.529
				l-6.525,6.529l-6.531-6.529L-3.701,152.018z"/>
			<path fill="#5D887C" d="M-2.268,168.288l8.307,8.308l8.307-8.308l-8.307-8.308L-2.268,168.288z M6.039,174.818l-6.529-6.53
				l6.529-6.53l6.529,6.53L6.039,174.818z"/>
			<path fill="#5D887C" d="M-12.01,178.029l8.311,8.307l8.305-8.307l-8.305-8.307L-12.01,178.029z M-3.701,184.561l-6.531-6.531
				l6.531-6.526l6.525,6.526L-3.701,184.561z"/>
		</g>
	</g>
	<g>
		<defs>
			<rect id="SVGID_13_" y="99.625" width="111" height="94.375"/>
		</defs>
		<clipPath id="SVGID_14_">
			<use xlink:href="#SVGID_13_"  overflow="visible"/>
		</clipPath>
		<g clip-path="url(#SVGID_14_)">
			<path fill="#67634D" d="M97.035,162.438l-5.85,5.852l5.85,5.852l5.852-5.852L97.035,162.438z M94.672,168.29l2.43-2.427
				l2.426,2.427l-2.426,2.425L94.672,168.29z"/>
			<path fill="#67634D" d="M112.626,158.547l-5.849-5.85l-5.854,5.85l5.854,5.85L112.626,158.547z M106.777,156.12l2.424,2.427
				l-2.424,2.426l-2.428-2.426L106.777,156.12z"/>
			<path fill="#67634D" d="M116.518,162.438l-5.85,5.852l5.85,5.852l5.851-5.852L116.518,162.438z M116.453,170.715l-2.43-2.425
				l2.43-2.427l2.426,2.427L116.453,170.715z"/>
			<path fill="#67634D" d="M100.926,178.029l5.854,5.85l5.85-5.85l-5.85-5.85L100.926,178.029z M106.777,180.455l-2.43-2.426
				l2.43-2.426l2.426,2.426L106.777,180.455z"/>
			<path fill="#67634D" d="M-13.443,162.438l-5.85,5.852l5.85,5.852l5.851-5.852L-13.443,162.438z M-15.807,168.29l2.43-2.427
				l2.426,2.427l-2.426,2.425L-15.807,168.29z"/>
			<path fill="#67634D" d="M2.147,158.547l-5.849-5.85l-5.854,5.85l5.854,5.85L2.147,158.547z M-3.701,156.12l2.424,2.427
				l-2.424,2.426l-2.428-2.426L-3.701,156.12z"/>
			<path fill="#67634D" d="M0.189,168.288l5.85,5.851l5.85-5.851l-5.85-5.851L0.189,168.288z M5.975,170.715l-2.43-2.425l2.43-2.427
				L8.4,168.29L5.975,170.715z"/>
			<path fill="#67634D" d="M-9.553,178.029l5.854,5.85l5.849-5.85l-5.849-5.85L-9.553,178.029z M-3.701,180.455l-2.43-2.426
				l2.43-2.426l2.426,2.426L-3.701,180.455z"/>
		</g>
	</g>
	<g>
		<defs>
			<rect id="SVGID_15_" y="99.625" width="111" height="94.375"/>
		</defs>
		<clipPath id="SVGID_16_">
			<use xlink:href="#SVGID_15_"  overflow="visible"/>
		</clipPath>
		<g clip-path="url(#SVGID_16_)">
			<path fill="#FD9134" d="M74.096,127.473l-6.941-6.939l-6.939,6.939l-0.199,0.198l0.01,0.007l-0.01,0.006l7.143,7.143l7.146-7.146
				L74.096,127.473z M67.176,129.84l-2.134-2.135l0.233-0.232l1.898-1.902l1.901,1.902l0.233,0.232L67.176,129.84z"/>
			<polygon fill="#FD9134" points="116.518,181.922 110.668,187.771 112.23,189.333 114.662,189.333 114.939,189.333 
				113.376,187.771 116.518,184.63 121.221,189.333 123.768,189.333 123.928,189.333 123.631,189.035 			"/>
			<path fill="#FD9134" d="M50.298,107.189l-5.359,5.357l5.359,5.36l1.787,1.784l7.146-7.146l-7.146-7.146L50.298,107.189z
				 M54.268,112.131l-2.136,2.135l-1.834-1.834l-0.301-0.301l0.301-0.301l1.834-1.835L54.268,112.131z"/>
			<polygon fill="#FD9134" points="134.33,179.572 133.99,179.912 133.65,179.572 132.762,178.684 126.26,172.18 120.41,178.029 
				127.521,185.143 128.41,186.031 128.75,186.371 128.41,186.711 127.521,187.598 126.088,189.035 125.789,189.333 
				128.395,189.333 128.498,189.333 131.461,186.371 123.119,178.029 126.26,174.891 133.99,182.621 136.449,180.164 
				136.449,177.457 135.221,178.684 			"/>
			<polygon fill="#FD9134" points="95.883,104.357 93.175,104.357 90.529,107.002 89.643,107.893 89.303,108.23 88.963,107.893 
				88.072,107.002 86.639,105.566 85.749,104.678 85.43,104.357 82.719,104.357 89.303,110.938 			"/>
			<polygon fill="#FD9134" points="92.443,114.08 99.044,120.682 106.777,112.949 114.508,120.682 121.109,114.08 113.376,106.348 
				115.365,104.357 112.656,104.357 110.668,106.348 117.174,112.85 118.061,113.739 118.402,114.08 118.061,114.419 
				117.174,115.309 115.736,116.743 114.848,117.632 114.508,117.973 114.168,117.632 113.279,116.743 106.777,110.24 
				100.273,116.742 99.384,117.633 99.044,117.977 98.703,117.633 97.814,116.743 96.381,115.309 95.49,114.419 95.152,114.079 
				95.49,113.739 96.381,112.85 102.884,106.348 100.895,104.357 98.188,104.357 100.176,106.348 			"/>
			<polygon fill="#FD9134" points="50.298,188.613 50.298,189.333 53.539,189.333 54.34,189.333 54.591,189.333 52.085,186.826 			
				"/>
			<polygon fill="#FD9134" points="131.461,104.947 130.871,104.357 128.162,104.357 128.41,104.607 128.75,104.947 128.41,105.287 
				127.521,106.174 126.088,107.611 125.197,108.5 124.857,108.84 124.518,108.5 123.631,107.611 120.377,104.357 117.67,104.357 
				124.857,111.548 			"/>
			<polygon fill="#FD9134" points="90.529,188.426 89.643,189.314 89.624,189.333 91.766,189.333 92.332,189.333 97.035,184.63 
				100.176,187.771 98.613,189.333 100.869,189.333 101.32,189.333 102.884,187.771 97.035,181.922 			"/>
			<polygon fill="#FD9134" points="136.449,174.586 136.449,171.876 132.861,168.288 136.449,164.7 136.449,161.992 130.15,168.288 
							"/>
			<path fill="#FD9134" d="M52.084,135.615l-0.007-0.006l-1.779,1.779l-5.359,5.358l5.359,5.358l1.787,1.787l7.146-7.146
				l-7.141-7.14L52.084,135.615z M54.268,142.749l-2.136,2.135l-1.834-1.834l-0.301-0.301l0.301-0.301l1.834-1.834L54.268,142.749z"
				/>
			<polygon fill="#FD9134" points="133.99,153.955 126.26,161.688 123.119,158.547 130.852,150.814 124.249,144.212 
				116.518,151.943 113.376,148.805 121.109,141.073 114.508,134.471 106.777,142.204 99.044,134.471 92.443,141.073 
				100.176,148.805 97.035,151.943 89.303,144.212 82.699,150.814 90.434,158.547 87.293,161.688 79.561,153.955 72.96,160.557 
				80.691,168.288 72.96,176.021 79.561,182.621 87.293,174.891 90.434,178.029 82.699,185.762 86.271,189.333 88.369,189.333 
				88.98,189.333 88.963,189.314 88.072,188.426 86.639,186.99 85.749,186.102 85.41,185.762 85.749,185.422 86.639,184.533 
				93.143,178.029 87.293,172.18 80.79,178.684 79.9,179.572 79.561,179.912 79.221,179.572 78.333,178.684 76.896,177.25 
				76.008,176.359 75.668,176.021 76.008,175.68 76.896,174.793 83.402,168.288 76.896,161.785 76.008,160.896 75.668,160.557 
				76.008,160.217 76.896,159.326 78.333,157.893 79.221,157.004 79.561,156.664 79.9,157.004 80.79,157.893 87.293,164.396 
				93.143,158.547 86.639,152.043 85.749,151.154 85.41,150.814 85.749,150.475 86.639,149.586 88.072,148.15 88.963,147.262 
				89.303,146.922 89.643,147.262 90.529,148.15 97.035,154.654 102.884,148.805 96.381,142.302 95.49,141.414 95.152,141.074 
				95.49,140.734 96.381,139.846 97.814,138.409 98.703,137.52 99.044,137.18 99.384,137.52 100.273,138.409 106.777,144.913 
				113.279,138.409 114.168,137.521 114.508,137.182 114.848,137.521 115.736,138.409 117.174,139.846 118.061,140.732 
				118.402,141.073 118.061,141.414 117.174,142.302 110.668,148.805 116.518,154.654 123.021,148.15 123.91,147.262 
				124.249,146.922 124.59,147.262 125.479,148.15 126.914,149.586 127.801,150.475 128.141,150.814 127.801,151.154 
				126.914,152.043 120.41,158.547 126.26,164.396 132.762,157.893 133.65,157.004 133.99,156.664 134.33,157.004 135.221,157.893 
				136.449,159.119 136.449,156.412 			"/>
			<path fill="#FD9134" d="M44.153,127.671l-0.199-0.198l-6.94-6.939l-6.941,6.939l-0.206,0.205l7.147,7.146l7.14-7.141
				l-0.006-0.008L44.153,127.671z M37.005,129.84l-2.136-2.135l0.233-0.232l1.902-1.902l1.902,1.902l0.233,0.232L37.005,129.84z"/>
			<polygon fill="#FD9134" points="6.039,181.922 0.189,187.771 1.752,189.333 4.184,189.333 4.461,189.333 2.897,187.771 
				6.039,184.63 10.741,189.333 13.289,189.333 13.449,189.333 13.152,189.035 			"/>
			<polygon fill="#FD9134" points="-14.596,104.357 -17.304,104.357 -19.949,107.002 -20.836,107.893 -21.176,108.23 
				-21.516,107.893 -22.406,107.002 -23.841,105.566 -24.729,104.678 -25.049,104.357 -27.76,104.357 -21.176,110.938 			"/>
			<polygon fill="#FD9134" points="-18.035,114.08 -11.435,120.682 -3.701,112.949 4.029,120.682 10.631,114.08 2.897,106.348 
				4.887,104.357 2.178,104.357 0.189,106.348 6.695,112.85 7.582,113.739 7.924,114.08 7.582,114.419 6.695,115.309 5.258,116.743 
				4.368,117.632 4.029,117.973 3.689,117.632 2.801,116.743 -3.701,110.24 -10.205,116.742 -11.095,117.633 -11.435,117.977 
				-11.775,117.633 -12.664,116.743 -14.098,115.309 -14.988,114.419 -15.326,114.079 -14.988,113.739 -14.098,112.85 
				-7.595,106.348 -9.584,104.357 -12.291,104.357 -10.303,106.348 			"/>
			<polygon fill="#FD9134" points="20.982,104.947 20.393,104.357 17.684,104.357 17.932,104.607 18.271,104.947 17.932,105.287 
				17.043,106.174 15.609,107.611 14.719,108.5 14.379,108.84 14.039,108.5 13.152,107.611 9.898,104.357 7.191,104.357 
				14.379,111.548 			"/>
			<polygon fill="#FD9134" points="-19.949,188.426 -20.836,189.314 -20.854,189.333 -18.713,189.333 -18.146,189.333 
				-13.443,184.63 -10.303,187.771 -11.865,189.333 -9.609,189.333 -9.158,189.333 -7.595,187.771 -13.443,181.922 			"/>
			<polygon fill="#FD9134" points="25.971,171.896 25.971,171.876 22.383,168.288 25.971,164.7 30.002,160.557 25.971,156.412 
				23.512,153.955 15.781,161.688 12.641,158.547 20.373,150.814 13.771,144.212 6.039,151.943 2.897,148.805 10.631,141.073 
				4.029,134.471 -3.701,142.204 -11.435,134.471 -18.035,141.073 -10.303,148.805 -13.443,151.943 -21.176,144.212 
				-27.779,150.814 -20.045,158.547 -23.186,161.688 -30.918,153.955 -37.519,160.557 -29.787,168.288 -37.519,176.021 
				-30.918,182.621 -23.186,174.891 -20.045,178.029 -27.779,185.762 -24.207,189.333 -22.109,189.333 -21.498,189.333 
				-21.516,189.314 -22.406,188.426 -23.841,186.99 -24.729,186.102 -25.068,185.762 -24.729,185.422 -23.841,184.533 
				-17.336,178.029 -23.186,172.18 -29.688,178.684 -30.578,179.572 -30.918,179.912 -31.258,179.572 -32.146,178.684 
				-33.582,177.25 -34.471,176.359 -34.811,176.021 -34.471,175.68 -33.582,174.793 -27.076,168.288 -33.582,161.785 
				-34.471,160.896 -34.811,160.557 -34.471,160.217 -33.582,159.326 -32.146,157.893 -31.258,157.004 -30.918,156.664 
				-30.578,157.004 -29.688,157.893 -23.186,164.396 -17.336,158.547 -23.841,152.043 -24.729,151.154 -25.068,150.814 
				-24.729,150.475 -23.841,149.586 -22.406,148.15 -21.516,147.262 -21.176,146.922 -20.836,147.262 -19.949,148.15 
				-13.443,154.654 -7.595,148.805 -14.098,142.302 -14.988,141.414 -15.326,141.074 -14.988,140.734 -14.098,139.846 
				-12.664,138.409 -11.775,137.52 -11.435,137.18 -11.095,137.52 -10.205,138.409 -3.701,144.913 2.801,138.409 3.689,137.521 
				4.029,137.182 4.368,137.521 5.258,138.409 6.695,139.846 7.582,140.732 7.924,141.073 7.582,141.414 6.695,142.302 
				0.189,148.805 6.039,154.654 12.543,148.15 13.432,147.262 13.771,146.922 14.111,147.262 15,148.15 16.436,149.586 
				17.322,150.475 17.662,150.814 17.322,151.154 16.436,152.043 9.932,158.547 15.781,164.396 22.283,157.893 23.172,157.004 
				23.512,156.664 23.852,157.004 24.742,157.893 25.736,158.885 25.744,159.007 25.777,159.039 26.064,159.326 26.19,159.452 
				26.951,160.215 27.292,160.555 26.951,160.895 26.064,161.785 25.628,162.221 25.632,162.33 19.672,168.288 25.656,174.271 
				25.656,174.291 26.158,174.793 26.284,174.918 27.044,175.682 27.386,176.021 27.044,176.361 26.284,177.124 26.158,177.25 
				25.799,177.607 25.656,177.751 25.656,177.771 24.742,178.684 23.852,179.572 23.512,179.912 23.172,179.572 22.283,178.684 
				15.781,172.18 9.932,178.029 17.043,185.143 17.932,186.031 18.271,186.371 17.932,186.711 17.043,187.598 15.609,189.035 
				15.311,189.333 17.916,189.333 18.02,189.333 20.982,186.371 12.641,178.029 15.781,174.891 23.512,182.621 25.971,180.164 
				25.971,180.145 26.284,179.831 30.096,176.021 26.284,172.209 			"/>
		</g>
	</g>
	<g>
		<defs>
			<rect id="SVGID_17_" y="99.625" width="111" height="94.375"/>
		</defs>
		<clipPath id="SVGID_18_">
			<use xlink:href="#SVGID_17_"  overflow="visible"/>
		</clipPath>
		<g clip-path="url(#SVGID_18_)">
			<path fill="#868129" d="M51.711,120.114l-1.413,1.411l-1.974,1.975l-7.625-7.624l-0.396,0.396l7.625,7.625l-3.38,3.379
				l-7.535-7.534l-7.733,7.731l-0.206,0.205l7.939,7.938l7.535-7.536l3.353,3.354l-7.598,7.598l0.396,0.395l7.597-7.598l2.002,2.004
				l1.383,1.384l-1.383,1.384l-6.151,6.151l6.151,6.151l1.787,1.787l7.938-7.938l-7.539-7.535l3.379-3.381l7.717,7.716l0.396-0.395
				l-7.717-7.717l3.36-3.358l7.532,7.536l7.939-7.938l-0.205-0.205l-7.734-7.732l-7.532,7.535l-3.39-3.387l7.619-7.617l-0.396-0.396
				l-7.619,7.617l-3.378-3.379l7.564-7.565l-7.938-7.938l-1.787,1.787l-6.151,6.15l6.151,6.152L51.711,120.114z M44.153,127.684
				l-7.14,7.142l-7.147-7.146l0.206-0.205l6.941-6.941l6.941,6.941l0.199,0.197l-0.006,0.008L44.153,127.684z M44.944,127.684
				l0.006-0.006l-0.006-0.007l0.2-0.198l3.18-3.181l1.974,1.974l1.206,1.207l0.177,0.176l-1.383,1.386l-2.002,2.002L44.944,127.684z
				 M59.23,142.749l-7.146,7.147l-1.787-1.787l-5.359-5.36l5.359-5.36l1.779-1.779l0.008,0.007l0.005-0.007L59.23,142.749z
				 M52.09,134.818l-0.005-0.006l-0.008,0.006l-1.779-1.779l-1.607-1.607l1.607-1.606l1.779-1.779l3.393,3.394L52.09,134.818z
				 M67.154,120.531l6.941,6.941l0.205,0.204l-7.146,7.146l-7.141-7.142l0.01-0.006l-0.01-0.007l0.199-0.198L67.154,120.531z
				 M59.025,127.473l0.199,0.198l-0.009,0.007l0.009,0.006l-3.359,3.359l-3.393-3.395l0.178-0.176l3.186-3.189L59.025,127.473z
				 M55.443,123.889l-3.367,3.365l-1.779-1.779l-1.578-1.578l1.578-1.578v-0.002l1.787-1.784L55.443,123.889z M44.939,112.549
				l5.359-5.359l1.787-1.787l7.146,7.146l-7.146,7.146l-1.787-1.786L44.939,112.549z"/>
			<polygon fill="#868129" points="124.518,108.5 124.857,108.84 125.197,108.5 126.088,107.611 127.521,106.174 128.41,105.287 
				128.75,104.947 128.41,104.607 128.162,104.357 127.48,104.357 128.07,104.947 127.182,105.835 125.746,107.271 124.857,108.16 
				123.971,107.271 121.059,104.357 120.377,104.357 123.631,107.611 			"/>
			<polygon fill="#868129" points="86.639,105.566 88.072,107.002 88.963,107.893 89.303,108.23 89.643,107.893 90.529,107.002 
				93.175,104.357 92.494,104.357 90.189,106.662 89.303,107.551 88.414,106.662 86.979,105.227 86.109,104.357 85.43,104.357 
				85.749,104.678 			"/>
			<polygon fill="#868129" points="96.381,112.85 95.49,113.739 95.152,114.079 95.49,114.419 96.381,115.309 97.814,116.743 
				98.703,117.633 99.044,117.977 99.384,117.633 100.273,116.742 106.777,110.24 113.279,116.743 114.168,117.632 114.508,117.973 
				114.848,117.632 115.736,116.743 117.174,115.309 118.061,114.419 118.402,114.08 118.061,113.739 117.174,112.85 
				110.668,106.348 112.656,104.357 111.977,104.357 109.986,106.348 116.832,113.189 117.721,114.08 116.832,114.967 
				115.396,116.404 114.508,117.292 113.619,116.404 106.777,109.561 99.932,116.404 99.044,117.294 98.154,116.404 96.721,114.967 
				95.831,114.079 96.721,113.189 103.564,106.348 101.574,104.357 100.895,104.357 102.884,106.348 			"/>
			<polygon fill="#868129" points="106.777,105.593 107.117,105.251 108.012,104.357 107.332,104.357 106.777,104.912 
				106.225,104.357 105.543,104.357 106.438,105.251 			"/>
			<polygon fill="#868129" points="88.963,111.279 89.303,111.62 89.643,111.279 96.564,104.357 95.883,104.357 89.303,110.938 
				82.719,104.357 82.039,104.357 82.359,104.678 			"/>
			<polygon fill="#868129" points="92.102,113.739 91.762,114.08 92.102,114.419 98.703,121.021 99.044,121.361 99.384,121.021 
				106.777,113.629 114.168,121.021 114.508,121.361 114.848,121.021 121.449,114.419 121.791,114.08 121.449,113.739 
				114.057,106.348 116.047,104.357 115.365,104.357 113.376,106.348 121.109,114.08 114.508,120.682 106.777,112.949 
				99.044,120.682 92.443,114.08 100.176,106.348 98.188,104.357 97.506,104.357 99.494,106.348 			"/>
			<polygon fill="#868129" points="124.857,112.229 125.197,111.889 131.801,105.287 132.141,104.947 131.801,104.607 
				131.551,104.357 130.871,104.357 131.461,104.947 124.857,111.548 117.67,104.357 116.988,104.357 124.518,111.889 			"/>
			<polygon fill="#868129" points="50.298,187.822 48.788,189.333 49.191,189.333 49.578,189.333 50.298,188.613 52.085,186.826 
				54.591,189.333 55.382,189.333 52.085,186.036 			"/>
			<path fill="#868129" d="M68.09,164.874l-7.645-7.787l26.254-26.366l0.175,0.174l0.183,0.183h0.256h4.951h1.508l-1.069-1.062
				l-2.558-2.541l-0.104-0.105l2.842-2.854l1.058-1.062h-1.498h-4.953H87.23l-0.184,0.186l-0.377,0.379l-13.593-13.514l-6.181-6.146
				h-0.885l9.318,9.264l10.9,10.837l-2.463,2.474l-15.816-15.729l-6.881-6.845h-0.883L83.33,127.37l-0.102,0.103l-29.054,29.185
				l-0.436,0.438l0.436,0.439l10.536,10.607l0.198,0.213l-0.209,0.217l-10.521,10.351l-0.448,0.442l0.445,0.443l9.58,9.523h0.883
				l-10.022-9.967l10.534-10.364l0.613-0.646l-0.613-0.653l-10.534-10.606l29.151-29.287l2.488,2.474L59.57,157.084l8.078,8.229
				l3.021,3.059l-3.034,3.048l-8.064,7.959l10.016,9.956h0.034h0.849l-10.013-9.954l7.619-7.519l3.034-3.051l0.438-0.438
				l-0.438-0.439L68.09,164.874z M92.264,130.455h-4.951l-0.174-0.174l0.285-0.287l2.176-2.186L92.264,130.455z M87.486,124.073
				h4.953l-2.842,2.854l-1.798-1.786l-0.69-0.688L87.486,124.073z M84.312,127.473h0.002l-0.105-0.104l1.248-1.254l1.213-1.22
				l1.77,1.758l0.72,0.717l-0.103,0.104l-0.42,0.42l-1.941,1.948L84.312,127.473z"/>
			<path fill="#868129" d="M107.117,149.896l-0.338-0.34l-0.342,0.34l-8.31,8.31l-0.341,0.339l0.341,0.34l8.31,8.309l0.342,0.343
				l0.338-0.343l8.307-8.309l0.342-0.34l-0.342-0.339L107.117,149.896z M106.777,166.854l-8.312-8.307l8.312-8.307l8.305,8.307
				L106.777,166.854z"/>
			<path fill="#868129" d="M106.779,165.076l6.525-6.529l-6.525-6.529l-6.531,6.529L106.779,165.076z M112.626,158.547l-5.849,5.85
				l-5.854-5.85l5.854-5.85L112.626,158.547z"/>
			
				<rect x="105.064" y="156.82" transform="matrix(0.7071 -0.7071 0.7071 0.7071 -80.826 121.9389)" fill="#868129" width="3.433" height="3.431"/>
			<path fill="#868129" d="M123.045,168.288l-6.527-6.53l-6.531,6.53l6.531,6.53L123.045,168.288z M116.518,162.438l5.851,5.852
				l-5.851,5.852l-5.85-5.852L116.518,162.438z"/>
			<path fill="#868129" d="M107.531,168.29l0.34,0.341l8.309,8.309l0.338,0.34l0.34-0.34l8.31-8.309l0.34-0.341l-0.34-0.34
				l-8.31-8.31l-0.34-0.341l-0.338,0.341l-8.309,8.31L107.531,168.29z M116.518,159.98l8.308,8.308l-8.308,8.308l-8.307-8.308
				L116.518,159.98z"/>
			<path fill="#868129" d="M97.035,159.299l-0.342,0.342l-8.309,8.309l-0.341,0.34l0.341,0.341l8.309,8.308l0.342,0.34l0.34-0.34
				l8.307-8.308l0.34-0.341l-0.34-0.34l-8.307-8.309L97.035,159.299z M97.035,176.596l-8.309-8.308l8.309-8.308l8.307,8.308
				L97.035,176.596z"/>
			<path fill="#868129" d="M90.504,168.288l6.531,6.53l6.529-6.53l-6.529-6.53L90.504,168.288z M97.035,174.139l-5.85-5.851
				l5.85-5.851l5.849,5.851L97.035,174.139z"/>
			<polygon fill="#868129" points="116.518,181.242 109.986,187.771 111.551,189.333 111.92,189.333 112.23,189.333 
				110.668,187.771 116.518,181.922 123.631,189.035 123.928,189.333 124.455,189.333 124.607,189.333 123.971,188.695 			"/>
			<polygon fill="#868129" points="134.33,157.004 133.99,156.664 133.65,157.004 132.762,157.893 126.26,164.396 120.41,158.547 
				126.914,152.043 127.801,151.154 128.141,150.814 127.801,150.475 126.914,149.586 125.479,148.15 124.59,147.262 
				124.249,146.922 123.91,147.262 123.021,148.15 116.518,154.654 110.668,148.805 117.174,142.302 118.061,141.414 
				118.402,141.073 118.061,140.732 117.174,139.846 115.736,138.409 114.848,137.521 114.508,137.182 114.168,137.521 
				113.279,138.409 106.777,144.913 100.273,138.409 99.384,137.52 99.044,137.18 98.703,137.52 97.814,138.409 96.381,139.846 
				95.49,140.734 95.152,141.074 95.49,141.414 96.381,142.302 102.884,148.805 97.035,154.654 90.529,148.15 89.643,147.262 
				89.303,146.922 88.963,147.262 88.072,148.15 86.639,149.586 85.749,150.475 85.41,150.814 85.749,151.154 86.639,152.043 
				93.143,158.547 87.293,164.396 80.79,157.893 79.9,157.004 79.561,156.664 79.221,157.004 78.333,157.893 76.896,159.326 
				76.008,160.217 75.668,160.557 76.008,160.896 76.896,161.785 83.402,168.288 76.896,174.793 76.008,175.68 75.668,176.021 
				76.008,176.359 76.896,177.25 78.333,178.684 79.221,179.572 79.561,179.912 79.9,179.572 80.79,178.684 87.293,172.18 
				93.143,178.029 86.639,184.533 85.749,185.422 85.41,185.762 85.749,186.102 86.639,186.99 88.072,188.426 88.963,189.314 
				88.98,189.333 89.023,189.333 89.624,189.333 89.643,189.314 90.529,188.426 97.035,181.922 102.884,187.771 101.32,189.333 
				101.559,189.333 102.002,189.333 103.564,187.771 97.035,181.242 90.189,188.086 89.303,188.975 88.414,188.086 86.979,186.65 
				86.09,185.762 86.979,184.874 93.824,178.029 87.293,171.5 80.449,178.343 79.561,179.232 78.673,178.343 77.236,176.91 
				76.35,176.021 77.236,175.132 84.082,168.288 77.236,161.445 76.35,160.557 77.236,159.666 78.673,158.232 79.561,157.344 
				80.449,158.232 87.293,165.076 93.824,158.547 86.979,151.703 86.09,150.814 86.979,149.926 88.414,148.49 89.303,147.604 
				90.189,148.49 97.035,155.334 103.564,148.805 96.721,141.962 95.831,141.074 96.721,140.186 98.154,138.75 99.044,137.859 
				99.932,138.75 106.777,145.592 113.619,138.75 114.508,137.859 115.396,138.75 116.832,140.186 117.721,141.073 116.832,141.962 
				109.986,148.805 116.518,155.334 123.361,148.49 124.249,147.604 125.137,148.49 126.574,149.926 127.463,150.814 
				126.574,151.703 119.732,158.547 126.26,165.076 133.102,158.232 133.99,157.344 134.881,158.232 136.316,159.666 
				136.449,159.799 136.449,159.119 135.221,157.893 			"/>
			<polygon fill="#868129" points="134.881,178.343 133.99,179.232 133.102,178.343 126.26,171.5 119.732,178.029 127.182,185.482 
				128.07,186.371 127.182,187.259 125.746,188.695 125.109,189.333 125.652,189.333 125.789,189.333 126.088,189.035 
				127.521,187.598 128.41,186.711 128.75,186.371 128.41,186.031 127.521,185.143 120.41,178.029 126.26,172.18 132.762,178.684 
				133.65,179.572 133.99,179.912 134.33,179.572 135.221,178.684 136.449,177.457 136.449,176.777 136.316,176.91 			"/>
			<polygon fill="#868129" points="129.471,168.288 136.316,175.132 136.449,175.266 136.449,174.586 130.15,168.288 
				136.449,161.992 136.449,161.312 136.316,161.445 			"/>
			<path fill="#868129" d="M115.764,178.029l-0.342-0.34l-8.305-8.308l-0.34-0.34l-0.342,0.34l-8.31,8.308l-0.342,0.34l0.342,0.342
				l8.31,8.307l0.342,0.342l0.34-0.342l8.305-8.307L115.764,178.029z M106.777,186.336l-8.312-8.307l8.312-8.307l8.305,8.307
				L106.777,186.336z"/>
			<path fill="#868129" d="M100.246,178.029l6.531,6.529l6.524-6.529l-6.524-6.529L100.246,178.029z M106.777,183.879l-5.854-5.85
				l5.854-5.85l5.849,5.85L106.777,183.879z"/>
			<polygon fill="#868129" points="136.449,171.876 136.449,171.195 133.541,168.288 136.449,165.381 136.449,164.7 
				132.861,168.288 			"/>
			<polygon fill="#868129" points="92.332,189.333 92.454,189.333 93.012,189.333 97.035,185.311 99.494,187.771 97.932,189.333 
				98.127,189.333 98.613,189.333 100.176,187.771 97.035,184.63 			"/>
			<polygon fill="#868129" points="126.26,174.891 123.119,178.029 131.461,186.371 128.498,189.333 129.084,189.333 
				129.178,189.333 131.801,186.711 132.141,186.371 131.801,186.031 123.801,178.029 126.26,175.57 133.65,182.961 133.99,183.303 
				134.33,182.961 136.449,180.846 136.449,180.164 133.99,182.621 			"/>
			<polygon fill="#868129" points="133.99,153.275 133.65,153.613 126.26,161.006 123.801,158.547 131.191,151.154 131.531,150.814 
				131.191,150.475 124.59,143.873 124.249,143.532 123.91,143.873 116.518,151.264 114.057,148.805 121.449,141.414 
				121.791,141.073 121.449,140.732 114.848,134.13 114.508,133.791 114.168,134.13 106.777,141.523 99.384,134.13 99.044,133.791 
				98.703,134.13 92.102,140.732 91.762,141.073 92.102,141.414 99.494,148.805 97.035,151.264 89.643,143.873 89.303,143.532 
				88.963,143.873 82.359,150.475 82.02,150.814 82.359,151.154 89.754,158.547 87.293,161.006 79.9,153.613 79.561,153.275 
				79.221,153.613 72.619,160.215 72.279,160.557 72.619,160.896 80.012,168.288 72.619,175.68 72.279,176.021 72.619,176.361 
				79.221,182.961 79.561,183.303 79.9,182.961 87.293,175.57 89.754,178.029 82.359,185.422 82.02,185.762 82.359,186.102 
				85.592,189.333 85.627,189.333 86.271,189.333 82.699,185.762 90.434,178.029 87.293,174.891 79.561,182.621 72.96,176.021 
				80.691,168.288 72.96,160.557 79.561,153.955 87.293,161.688 90.434,158.547 82.699,150.814 89.303,144.212 97.035,151.943 
				100.176,148.805 92.443,141.073 99.044,134.471 106.777,142.204 114.508,134.471 121.109,141.073 113.376,148.805 
				116.518,151.943 124.249,144.212 130.852,150.814 123.119,158.547 126.26,161.688 133.99,153.955 136.449,156.412 
				136.449,155.73 134.33,153.613 			"/>
			<polygon fill="#868129" points="113.376,187.771 114.939,189.333 115.352,189.333 115.619,189.333 114.057,187.771 
				116.518,185.311 120.539,189.333 121.023,189.333 121.221,189.333 116.518,184.63 			"/>
			<polygon fill="#868129" points="69.311,127.705 69.078,127.473 67.176,125.57 65.275,127.473 65.042,127.705 67.176,129.84 			
				"/>
			
				<rect x="95.384" y="166.585" transform="matrix(0.7071 -0.7071 0.7071 0.7071 -90.5665 117.9538)" fill="#868129" width="3.431" height="3.431"/>
			
				<rect x="114.736" y="166.566" transform="matrix(-0.7064 0.7078 -0.7078 -0.7064 317.8242 204.7281)" fill="#868129" width="3.431" height="3.431"/>
			
				<rect x="105.069" y="176.32" transform="matrix(0.7071 0.7071 -0.7071 0.7071 157.1659 -23.3627)" fill="#868129" width="3.431" height="3.429"/>
			<polygon fill="#868129" points="52.132,114.266 54.268,112.131 52.132,109.995 50.298,111.831 49.997,112.131 50.298,112.432 			
				"/>
			<polygon fill="#868129" points="37.005,125.57 35.103,127.473 34.869,127.705 37.005,129.84 39.14,127.705 38.907,127.473 			"/>
			<polygon fill="#868129" points="49.997,142.749 50.298,143.05 52.132,144.884 54.268,142.749 52.132,140.614 50.298,142.448 			
				"/>
			<polygon fill="#868129" points="14.039,108.5 14.379,108.84 14.719,108.5 15.609,107.611 17.043,106.174 17.932,105.287 
				18.271,104.947 17.932,104.607 17.684,104.357 17.002,104.357 17.592,104.947 16.703,105.835 15.268,107.271 14.379,108.16 
				13.492,107.271 10.579,104.357 9.898,104.357 13.152,107.611 			"/>
			<polygon fill="#868129" points="-23.841,105.566 -22.406,107.002 -21.516,107.893 -21.176,108.23 -20.836,107.893 
				-19.949,107.002 -17.304,104.357 -17.984,104.357 -20.289,106.662 -21.176,107.551 -22.064,106.662 -23.5,105.227 
				-24.369,104.357 -25.049,104.357 -24.729,104.678 			"/>
			<polygon fill="#868129" points="-14.098,112.85 -14.988,113.739 -15.326,114.079 -14.988,114.419 -14.098,115.309 
				-12.664,116.743 -11.775,117.633 -11.435,117.977 -11.095,117.633 -10.205,116.742 -3.701,110.24 2.801,116.743 3.689,117.632 
				4.029,117.973 4.368,117.632 5.258,116.743 6.695,115.309 7.582,114.419 7.924,114.08 7.582,113.739 6.695,112.85 0.189,106.348 
				2.178,104.357 1.498,104.357 -0.492,106.348 6.354,113.189 7.242,114.08 6.354,114.967 4.918,116.404 4.029,117.292 
				3.141,116.404 -3.701,109.561 -10.547,116.404 -11.435,117.294 -12.324,116.404 -13.758,114.967 -14.647,114.079 
				-13.758,113.189 -6.914,106.348 -8.904,104.357 -9.584,104.357 -7.595,106.348 			"/>
			<polygon fill="#868129" points="-3.701,105.593 -3.361,105.251 -2.468,104.357 -3.146,104.357 -3.701,104.912 -4.254,104.357 
				-4.936,104.357 -4.041,105.251 			"/>
			<polygon fill="#868129" points="-21.516,111.279 -21.176,111.62 -20.836,111.279 -13.914,104.357 -14.596,104.357 
				-21.176,110.938 -27.76,104.357 -28.439,104.357 -28.119,104.678 			"/>
			<polygon fill="#868129" points="-18.377,113.739 -18.717,114.08 -18.377,114.419 -11.775,121.021 -11.435,121.361 
				-11.095,121.021 -3.701,113.629 3.689,121.021 4.029,121.361 4.368,121.021 10.971,114.419 11.312,114.08 10.971,113.739 
				3.578,106.348 5.568,104.357 4.887,104.357 2.897,106.348 10.631,114.08 4.029,120.682 -3.701,112.949 -11.435,120.682 
				-18.035,114.08 -10.303,106.348 -12.291,104.357 -12.973,104.357 -10.984,106.348 			"/>
			<polygon fill="#868129" points="14.379,112.229 14.719,111.889 21.322,105.287 21.662,104.947 21.322,104.607 21.072,104.357 
				20.393,104.357 20.982,104.947 14.379,111.548 7.191,104.357 6.51,104.357 14.039,111.889 			"/>
			<path fill="#868129" d="M-3.361,149.896l-0.338-0.34l-0.342,0.34l-8.309,8.31l-0.341,0.339l0.341,0.34l8.309,8.309l0.342,0.343
				l0.338-0.343l8.307-8.309l0.342-0.34l-0.342-0.339L-3.361,149.896z M-3.701,166.854l-8.311-8.307l8.311-8.307l8.305,8.307
				L-3.701,166.854z"/>
			<path fill="#868129" d="M-3.699,165.076l6.525-6.529l-6.525-6.529l-6.531,6.529L-3.699,165.076z M2.147,158.547l-5.849,5.85
				l-5.854-5.85l5.854-5.85L2.147,158.547z"/>
			
				<rect x="-5.411" y="156.825" transform="matrix(0.707 -0.7072 0.7072 0.707 -113.1983 43.834)" fill="#868129" width="3.433" height="3.431"/>
			<path fill="#868129" d="M12.566,168.288l-6.527-6.53l-6.531,6.53l6.531,6.53L12.566,168.288z M6.039,162.438l5.85,5.852
				l-5.85,5.852l-5.85-5.852L6.039,162.438z"/>
			<path fill="#868129" d="M-2.947,168.29l0.34,0.341l8.308,8.309l0.339,0.34l0.34-0.34l8.309-8.309l0.34-0.341l-0.34-0.34
				l-8.309-8.31L6.04,159.3l-0.339,0.341l-8.308,8.31L-2.947,168.29z M6.039,159.98l8.307,8.308l-8.307,8.308l-8.307-8.308
				L6.039,159.98z"/>
			<path fill="#868129" d="M-13.443,159.299l-0.342,0.342l-8.308,8.309l-0.341,0.34l0.341,0.341l8.308,8.308l0.342,0.34l0.34-0.34
				l8.307-8.308l0.34-0.341l-0.34-0.34l-8.307-8.309L-13.443,159.299z M-13.443,176.596l-8.309-8.308l8.309-8.308l8.307,8.308
				L-13.443,176.596z"/>
			<path fill="#868129" d="M-19.975,168.288l6.531,6.53l6.529-6.53l-6.529-6.53L-19.975,168.288z M-13.443,174.139l-5.85-5.851
				l5.85-5.851l5.849,5.851L-13.443,174.139z"/>
			<polygon fill="#868129" points="6.039,181.242 -0.492,187.771 1.072,189.333 1.441,189.333 1.752,189.333 0.189,187.771 
				6.039,181.922 13.152,189.035 13.449,189.333 13.977,189.333 14.129,189.333 13.492,188.695 			"/>
			<polygon fill="#868129" points="17.932,186.031 17.043,185.143 9.932,178.029 15.781,172.18 22.283,178.684 23.172,179.572 
				23.512,179.912 23.852,179.572 24.742,178.684 25.971,177.457 25.971,177.452 26.173,177.25 26.299,177.124 27.06,176.361 
				27.401,176.021 27.06,175.682 26.299,174.918 26.173,174.793 25.971,174.59 25.971,174.586 19.672,168.288 25.971,161.992 
				25.971,161.973 26.158,161.785 27.044,160.895 27.386,160.555 27.044,160.215 26.284,159.452 26.158,159.326 25.971,159.139 
				25.971,159.119 24.742,157.893 23.852,157.004 23.512,156.664 23.172,157.004 22.283,157.893 15.781,164.396 9.932,158.547 
				16.436,152.043 17.322,151.154 17.662,150.814 17.322,150.475 16.436,149.586 15,148.15 14.111,147.262 13.771,146.922 
				13.432,147.262 12.543,148.15 6.039,154.654 0.189,148.805 6.695,142.302 7.582,141.414 7.924,141.073 7.582,140.732 
				6.695,139.846 5.258,138.409 4.368,137.521 4.029,137.182 3.689,137.521 2.801,138.409 -3.701,144.913 -10.205,138.409 
				-11.095,137.52 -11.435,137.18 -11.775,137.52 -12.664,138.409 -14.098,139.846 -14.988,140.734 -15.326,141.074 
				-14.988,141.414 -14.098,142.302 -7.595,148.805 -13.443,154.654 -19.949,148.15 -20.836,147.262 -21.176,146.922 
				-21.516,147.262 -22.406,148.15 -23.841,149.586 -24.729,150.475 -25.068,150.814 -24.729,151.154 -23.841,152.043 
				-17.336,158.547 -23.186,164.396 -29.688,157.893 -30.578,157.004 -30.918,156.664 -31.258,157.004 -32.146,157.893 
				-33.582,159.326 -34.471,160.217 -34.811,160.557 -34.471,160.896 -33.582,161.785 -27.076,168.288 -33.582,174.793 
				-34.471,175.68 -34.811,176.021 -34.471,176.359 -33.582,177.25 -32.146,178.684 -31.258,179.572 -30.918,179.912 
				-30.578,179.572 -29.688,178.684 -23.186,172.18 -17.336,178.029 -23.841,184.533 -24.729,185.422 -25.068,185.762 
				-24.729,186.102 -23.841,186.99 -22.406,188.426 -21.516,189.314 -21.498,189.333 -21.455,189.333 -20.854,189.333 
				-20.836,189.314 -19.949,188.426 -13.443,181.922 -7.595,187.771 -9.158,189.333 -8.92,189.333 -8.477,189.333 -6.914,187.771 
				-13.443,181.242 -20.289,188.086 -21.176,188.975 -22.064,188.086 -23.5,186.65 -24.389,185.762 -23.5,184.874 -16.654,178.029 
				-23.186,171.5 -30.029,178.343 -30.918,179.232 -31.806,178.343 -33.242,176.91 -34.13,176.021 -33.242,175.132 -26.396,168.288 
				-33.242,161.445 -34.13,160.557 -33.242,159.666 -31.806,158.232 -30.918,157.344 -30.029,158.232 -23.186,165.076 
				-16.654,158.547 -23.5,151.703 -24.389,150.814 -23.5,149.926 -22.064,148.49 -21.176,147.604 -20.289,148.49 -13.443,155.334 
				-6.914,148.805 -13.758,141.962 -14.647,141.074 -13.758,140.186 -12.324,138.75 -11.435,137.859 -10.547,138.75 -3.701,145.592 
				3.141,138.75 4.029,137.859 4.918,138.75 6.354,140.186 7.242,141.073 6.354,141.962 -0.492,148.805 6.039,155.334 
				12.883,148.49 13.771,147.604 14.658,148.49 16.096,149.926 16.984,150.814 16.096,151.703 9.254,158.547 15.781,165.076 
				22.623,158.232 23.512,157.344 24.402,158.232 25.656,159.484 25.656,159.506 25.817,159.666 25.925,159.773 26.284,160.133 
				26.705,160.555 26.284,160.979 26.064,161.195 25.817,161.445 25.726,161.536 25.722,161.541 25.656,161.605 25.656,161.627 
				18.992,168.288 25.671,174.966 25.671,174.971 25.702,175.001 25.706,175.005 25.833,175.132 26.08,175.381 26.299,175.6 
				26.72,176.021 26.299,176.443 26.104,176.639 25.833,176.91 25.671,177.07 25.671,177.076 24.402,178.343 23.512,179.232 
				22.623,178.343 15.781,171.5 9.254,178.029 16.703,185.482 17.592,186.371 16.703,187.259 15.268,188.695 14.631,189.333 
				15.174,189.333 15.311,189.333 15.609,189.035 17.043,187.598 17.932,186.711 18.271,186.371 			"/>
			<path fill="#868129" d="M5.285,178.029l-0.342-0.34l-8.305-8.308l-0.34-0.34l-0.342,0.34l-8.309,8.308l-0.342,0.34l0.342,0.342
				l8.309,8.307l0.342,0.342l0.34-0.342l8.305-8.307L5.285,178.029z M-3.701,186.336l-8.311-8.307l8.311-8.307l8.305,8.307
				L-3.701,186.336z"/>
			<path fill="#868129" d="M-10.232,178.029l6.531,6.529l6.525-6.529l-6.525-6.529L-10.232,178.029z M-3.701,183.879l-5.854-5.85
				l5.854-5.85l5.849,5.85L-3.701,183.879z"/>
			<polygon fill="#868129" points="-18.146,189.333 -18.024,189.333 -17.467,189.333 -13.443,185.311 -10.984,187.771 
				-12.547,189.333 -12.352,189.333 -11.865,189.333 -10.303,187.771 -13.443,184.63 			"/>
			<polygon fill="#868129" points="26.268,171.529 25.971,171.232 25.971,171.195 23.062,168.288 26.951,164.342 30.681,160.557 
				30.341,160.215 23.852,153.613 23.512,153.275 23.172,153.613 15.781,161.006 13.322,158.547 20.713,151.154 21.053,150.814 
				20.713,150.475 14.111,143.873 13.771,143.532 13.432,143.873 6.039,151.264 3.578,148.805 10.971,141.414 11.312,141.073 
				10.971,140.732 4.368,134.13 4.029,133.791 3.689,134.13 -3.701,141.523 -11.095,134.13 -11.435,133.791 -11.775,134.13 
				-18.377,140.732 -18.717,141.073 -18.377,141.414 -10.984,148.805 -13.443,151.264 -20.836,143.873 -21.176,143.532 
				-21.516,143.873 -28.119,150.475 -28.459,150.814 -28.119,151.154 -20.725,158.547 -23.186,161.006 -30.578,153.613 
				-30.918,153.275 -31.258,153.613 -37.859,160.215 -38.199,160.557 -37.859,160.896 -30.467,168.288 -37.859,175.68 
				-38.199,176.021 -37.859,176.361 -31.258,182.961 -30.918,183.303 -30.578,182.961 -23.186,175.57 -20.725,178.029 
				-28.119,185.422 -28.459,185.762 -28.119,186.102 -24.887,189.333 -24.852,189.333 -24.207,189.333 -27.779,185.762 
				-20.045,178.029 -23.186,174.891 -30.918,182.621 -37.519,176.021 -29.787,168.288 -37.519,160.557 -30.918,153.955 
				-23.186,161.688 -20.045,158.547 -27.779,150.814 -21.176,144.212 -13.443,151.943 -10.303,148.805 -18.035,141.073 
				-11.435,134.471 -3.701,142.204 4.029,134.471 10.631,141.073 2.897,148.805 6.039,151.943 13.771,144.212 20.373,150.814 
				12.641,158.547 15.781,161.688 23.512,153.955 30.002,160.557 22.383,168.288 25.64,171.545 25.64,171.584 25.86,171.803 
				26.268,172.211 30.08,176.023 26.268,179.833 25.86,180.24 25.64,180.461 25.64,180.494 23.512,182.621 15.781,174.891 
				12.641,178.029 20.982,186.371 18.02,189.333 18.605,189.333 18.699,189.333 21.322,186.711 21.662,186.371 21.322,186.031 
				13.322,178.029 15.781,175.57 23.172,182.961 23.512,183.303 23.852,182.961 25.971,180.846 25.971,180.811 30.419,176.363 
				30.759,176.023 30.419,175.682 			"/>
			<polygon fill="#868129" points="2.897,187.771 4.461,189.333 4.873,189.333 5.141,189.333 3.578,187.771 6.039,185.311 
				10.061,189.333 10.545,189.333 10.741,189.333 6.039,184.63 			"/>
			
				<rect x="-15.099" y="166.58" transform="matrix(0.707 -0.7072 0.7072 0.707 -122.9361 39.8402)" fill="#868129" width="3.43" height="3.432"/>
			
				<rect x="4.262" y="166.568" transform="matrix(-0.7065 0.7077 -0.7077 -0.7065 129.2896 282.9519)" fill="#868129" width="3.431" height="3.431"/>
			
				<rect x="-5.416" y="176.324" transform="matrix(0.7072 0.707 -0.707 0.7072 124.7958 54.7496)" fill="#868129" width="3.431" height="3.428"/>
			<path fill="#868129" d="M50.298,179.582l0.218-0.217l-0.218-0.215l-0.23-0.228l-10.52-10.351l-0.209-0.219l0.197-0.213
				l10.537-10.606l0.225-0.229l0.21-0.211l-0.21-0.213l-0.225-0.227l-28.938-29.184l-0.045-0.046l-0.057-0.058l4.664-4.639
				l18.365-18.375h-0.881L20.596,126.93l-2.463-2.473l5.129-5.1l2.709-2.691l12.4-12.498h-0.883l-11.926,12.025l-7.869,7.822
				l-0.377-0.38l-0.184-0.185h-0.258h-4.953h-1.496l1.057,1.062l2.84,2.853l-0.105,0.106l-2.557,2.541l-1.07,1.062h1.51h4.951h0.256
				l0.182-0.183l0.176-0.174l26.14,26.367l-7.645,7.787l-3.022,3.059l-0.433,0.439l0.435,0.438l3.037,3.051l7.619,7.519
				l-10.014,9.954h0.884l10.014-9.956l-8.065-7.959l-3.033-3.048l3.02-3.059l8.078-8.229l-26.573-26.803l2.488-2.473l29.037,29.286
				L39.095,167.7l-0.611,0.653l0.611,0.646l10.537,10.365L39.61,189.33h0.882l9.578-9.523L50.298,179.582z M11.922,124.073h4.953
				l0.379,0.38l-1.363,1.354l-1.127,1.12L11.922,124.073z M17.051,130.455H12.1l2.662-2.646l2.463,2.474L17.051,130.455z
				 M17.912,129.598l-0.246,0.244l-2.359-2.369l-0.051-0.053l-0.053-0.051l2.49-2.475l0.258,0.258l2.203,2.215l-0.039,0.04
				l-0.066,0.065h0.002L17.912,129.598z"/>
		</g>
	</g>
	<g>
		<defs>
			<rect id="SVGID_19_" y="99.625" width="111" height="94.375"/>
		</defs>
		<clipPath id="SVGID_20_">
			<use xlink:href="#SVGID_19_"  overflow="visible"/>
		</clipPath>
		<g clip-path="url(#SVGID_20_)">
			<path fill="#B4BF40" d="M134.881,158.232l-0.891-0.892l-0.889,0.892l-6.845,6.844l-6.526-6.529l6.844-6.844l0.889-0.889
				l-0.889-0.892l-1.438-1.438l-0.888-0.887l-0.889,0.887l-6.846,6.847l-6.527-6.529l6.845-6.842l0.889-0.892l-0.889-0.889
				l-1.437-1.435l-0.89-0.888l-0.889,0.89l-6.843,6.843l-6.848-6.843l-0.888-0.89l-0.892,0.89l-1.435,1.435l-0.892,0.891l0.892,0.89
				l6.845,6.842l-6.529,6.529l-6.846-6.845l-0.888-0.889l-0.89,0.889l-1.438,1.437l-0.888,0.892l0.888,0.889l6.85,6.844
				l-6.531,6.529l-6.844-6.844l-0.89-0.892l-0.888,0.892l-1.438,1.434l-0.889,0.891l0.889,0.891l6.846,6.844l-6.846,6.846
				l-0.889,0.891l0.889,0.889l1.438,1.434l0.888,0.891l0.89-0.891l6.844-6.844l6.531,6.529l-6.85,6.845l-0.888,0.888l0.888,0.891
				l1.438,1.438l0.89,0.891l0.888-0.891l6.846-6.845l6.529,6.526l-1.562,1.562h9.229h0.318l-1.562-1.562l6.529-6.526l7.453,7.453
				l0.639,0.638h0.354h0.147l0.64-0.638l1.437-1.438l0.891-0.889l-0.891-0.889l-7.447-7.453l6.525-6.529l6.844,6.844l0.889,0.891
				l0.892-0.891l1.437-1.434l0.134-0.133v-1.512l-0.134-0.135l-6.846-6.846l6.846-6.843l0.134-0.136v-1.514l-0.134-0.133
				L134.881,158.232z M98.129,158.208l8.309-8.308l0.342-0.34l0.339,0.34l8.307,8.308l0.343,0.339l-0.343,0.34l-8.307,8.307
				l-0.339,0.345l-0.342-0.345l-8.309-8.307l-0.341-0.34L98.129,158.208z M97.035,177.275l-0.342-0.34l-8.309-8.31l-0.341-0.341
				l0.341-0.342l8.309-8.309l0.342-0.34l0.34,0.34l8.307,8.309l0.34,0.342l-0.34,0.341l-8.307,8.31L97.035,177.275z
				 M115.422,178.369l-8.305,8.307l-0.34,0.342l-0.342-0.342l-8.31-8.307l-0.342-0.34l0.342-0.34l8.31-8.31l0.342-0.34l0.34,0.34
				l8.305,8.31l0.342,0.34L115.422,178.369z M125.164,168.629l-8.307,8.307l-0.34,0.34l-0.342-0.34l-8.308-8.307l-0.343-0.341
				l0.343-0.34l8.308-8.308l0.342-0.343l0.34,0.343l8.307,8.308l0.34,0.34L125.164,168.629z"/>
			<polygon fill="#B4BF40" points="98.154,116.404 99.044,117.294 99.932,116.404 106.777,109.561 113.619,116.404 114.508,117.292 
				115.396,116.404 116.832,114.967 117.721,114.08 116.832,113.189 109.986,106.348 111.977,104.357 108.012,104.357 
				107.117,105.251 106.777,105.593 106.438,105.251 105.543,104.357 101.574,104.357 103.564,106.348 96.721,113.189 
				95.831,114.079 96.721,114.967 			"/>
			<polygon fill="#B4BF40" points="88.414,106.662 89.303,107.551 90.189,106.662 92.494,104.357 86.109,104.357 86.979,105.227 			
				"/>
			<path fill="#B4BF40" d="M26.813,160.658l-0.84-0.844V159.8l-0.133-0.133l-1.438-1.437l-0.891-0.891l-0.889,0.891l-6.844,6.845
				l-6.527-6.529l6.844-6.844l0.889-0.89l-0.889-0.891l-1.438-1.438L13.77,147.6l-0.889,0.887l-6.845,6.847l-6.528-6.528
				l6.845-6.843l0.889-0.892l-0.889-0.889l-1.437-1.435l-0.889-0.888l-0.889,0.89l-6.842,6.843l-6.848-6.843l-0.888-0.89
				l-0.892,0.89l-1.434,1.435l-0.891,0.891l0.891,0.89l6.844,6.843l-6.529,6.528l-6.846-6.845l-0.887-0.889l-0.889,0.889
				l-1.438,1.437l-0.888,0.892l0.888,0.889l6.849,6.844l-6.531,6.529l-6.844-6.844l-0.889-0.891l-0.888,0.891l-1.437,1.434
				l-0.889,0.891l0.889,0.891l6.846,6.844l-6.846,6.846l-0.889,0.891l0.889,0.889l1.437,1.434l0.888,0.891l0.889-0.891l6.844-6.844
				l6.531,6.529l-6.849,6.845l-0.888,0.888l0.888,0.891l1.438,1.438l0.889,0.891l0.887-0.891l6.846-6.845l6.529,6.527l-1.562,1.562
				h9.229h0.318l-1.562-1.562l6.529-6.527l7.453,7.453l0.639,0.638h0.354h0.148l0.639-0.638l1.437-1.438l0.89-0.889l-0.89-0.889
				l-7.448-7.453l6.526-6.529l6.843,6.844l0.889,0.891l0.892-0.891l1.437-1.434l0.133-0.133v-0.004l0.757-0.758l-0.784-0.785v0.008
				l-0.106-0.107l-6.847-6.845l6.847-6.843l0.075-0.076v0.189L26.813,160.658z M-12.35,158.208l8.309-8.308l0.342-0.34l0.338,0.34
				l8.307,8.308l0.342,0.339l-0.342,0.34l-8.307,8.307l-0.338,0.345l-0.342-0.345l-8.309-8.307l-0.341-0.34L-12.35,158.208z
				 M-13.443,177.275l-0.342-0.34l-8.308-8.31l-0.341-0.341l0.341-0.342l8.308-8.309l0.342-0.34l0.34,0.34l8.307,8.309l0.34,0.342
				l-0.34,0.341l-8.307,8.31L-13.443,177.275z M4.943,178.369l-8.305,8.307l-0.34,0.342l-0.342-0.342l-8.309-8.307l-0.342-0.34
				l0.342-0.34l8.309-8.31l0.342-0.34l0.34,0.34l8.305,8.31l0.342,0.34L4.943,178.369z M14.686,168.629l-8.307,8.307l-0.34,0.34
				l-0.341-0.34l-8.308-8.307l-0.342-0.341l0.342-0.34l8.308-8.308l0.341-0.343l0.34,0.343l8.307,8.308l0.34,0.34L14.686,168.629z"
				/>
			<polygon fill="#B4BF40" points="52.473,127.648 55.865,131.043 59.225,127.684 59.217,127.678 59.225,127.671 59.025,127.473 
				55.837,124.283 52.651,127.473 			"/>
			<polygon fill="#B4BF40" points="52.077,128.045 50.298,129.824 48.691,131.432 50.298,133.039 52.077,134.818 52.085,134.812 
				52.09,134.818 55.47,131.438 			"/>
			<polygon fill="#B4BF40" points="52.077,127.254 55.443,123.889 52.085,120.531 50.298,122.316 50.298,122.318 48.72,123.896 
				50.298,125.475 			"/>
			<polygon fill="#B4BF40" points="51.681,127.648 51.504,127.473 50.298,126.266 48.324,124.292 45.144,127.473 44.944,127.671 
				44.95,127.678 44.944,127.684 48.296,131.035 50.298,129.033 			"/>
			<path fill="#B4BF40" d="M54.176,157.534l-0.437-0.44l0.437-0.438l29.053-29.184l0.104-0.197L60.188,104.17h-9.889h-6.236
				l-15.33,15.336l-2.455,2.577l-0.016,0.021v-0.164l-0.327,0.303l-5.169,5.127l0.057,0.062l0.072,0.049l5.367,5.369v-0.156
				l23.833,23.965l0.214,0.227l0.204,0.213l-0.212,0.213l-0.227,0.229l-10.538,10.604l-0.196,0.213l0.208,0.221l10.521,10.352
				l0.23,0.229l0.218,0.215l-0.218,0.217l-0.229,0.145l-9.579,9.441h7.171h0.8h0.326l1.51-1.428l1.787-1.828l3.297,3.256h7.442
				h0.895h0.039l-9.58-9.443l-0.445-0.397l0.448-0.423l10.521-10.342l0.209-0.211l-0.198-0.213L54.176,157.534z M52.085,150.688
				l-1.787-1.787l-6.151-6.148l6.151-6.15l1.383-1.385l-1.383-1.384l-2.002-2.003l-7.597,7.598l-0.396-0.395l7.597-7.6l-3.352-3.353
				l-7.535,7.536l-7.939-7.938l0.206-0.207l7.733-7.731l7.535,7.536l3.379-3.379l-7.625-7.625l0.396-0.396l7.625,7.624l1.974-1.976
				l1.413-1.412l-1.413-1.412l-6.151-6.152l6.151-6.148l1.787-1.787l7.938,7.938l-7.562,7.562l3.378,3.381l7.62-7.617l0.396,0.396
				l-7.619,7.617l3.389,3.387l7.535-7.534l7.73,7.731l0.207,0.205l-7.938,7.938l-7.535-7.536l-3.358,3.358l7.715,7.715l-0.396,0.396
				l-7.717-7.715l-3.378,3.38l7.538,7.535L52.085,150.688z"/>
			<polygon fill="#B4BF40" points="-12.324,116.404 -11.435,117.294 -10.547,116.404 -3.701,109.561 3.141,116.404 4.029,117.292 
				4.918,116.404 6.354,114.967 7.242,114.08 6.354,113.189 -0.492,106.348 1.498,104.357 -2.468,104.357 -3.361,105.251 
				-3.701,105.593 -4.041,105.251 -4.936,104.357 -8.904,104.357 -6.914,106.348 -13.758,113.189 -14.647,114.079 -13.758,114.967 
							"/>
			<polygon fill="#B4BF40" points="-22.064,106.662 -21.176,107.551 -20.289,106.662 -17.984,104.357 -24.369,104.357 
				-23.5,105.227 			"/>
			<polygon fill="#B4BF40" points="14.379,108.16 15.268,107.271 16.703,105.835 17.592,104.947 17.002,104.357 10.579,104.357 
				13.492,107.271 			"/>
		</g>
	</g>
	<g>
		<defs>
			<rect id="SVGID_21_" y="99.625" width="111" height="94.375"/>
		</defs>
		<clipPath id="SVGID_22_">
			<use xlink:href="#SVGID_21_"  overflow="visible"/>
		</clipPath>
		<g clip-path="url(#SVGID_22_)">
			<polygon fill="#574338" points="128.268,124.105 136.74,115.787 136.74,104.168 131.551,104.168 131.801,104.512 
				132.141,104.898 131.801,105.264 125.197,111.877 124.857,112.223 124.518,111.791 116.988,104.168 116.047,104.168 
				114.057,106.252 121.449,113.691 121.791,114.057 121.449,114.408 114.848,121.018 114.508,121.359 114.168,121.021 
				106.777,113.628 99.384,121.021 99.044,121.361 98.703,121.021 92.102,114.419 91.762,114.08 92.102,113.739 99.494,106.251 
				97.506,104.168 96.564,104.168 89.643,111.186 89.303,111.573 88.963,111.256 82.359,104.57 82.039,104.168 66.896,104.357 
				73.076,111.408 86.669,123.968 87.279,123.396 93.968,123.452 92.881,124.371 90.039,127.296 90.145,127.436 92.701,130.041 
				93.771,131.168 92.264,131.168 87.312,131.168 87.057,131.168 86.874,130.939 86.699,130.744 60.445,157.1 68.09,164.88 
				71.109,167.936 71.546,168.374 71.109,168.812 68.074,171.861 60.455,179.297 70.468,189.168 84.938,189.168 85.592,189.168 
				82.359,186.02 82.02,185.721 82.359,185.4 89.754,178.02 87.293,175.564 79.9,182.958 79.561,183.302 79.221,182.96 
				72.619,176.361 72.279,176.021 72.619,175.68 80.012,168.288 72.619,160.896 72.279,160.557 72.619,160.215 79.221,153.613 
				79.561,153.275 79.9,153.613 87.293,161.006 89.754,158.547 82.359,151.154 82.02,150.814 82.359,150.475 88.963,143.873 
				89.303,143.532 89.643,143.873 97.035,151.264 99.494,148.805 92.102,141.414 91.762,141.073 92.102,140.732 98.703,134.13 
				99.044,133.791 99.384,134.13 106.777,141.523 114.168,134.13 114.508,133.791 114.848,134.13 121.449,140.732 121.791,141.073 
				121.449,141.414 114.057,148.805 116.518,151.264 123.91,143.873 124.249,143.532 124.59,143.873 131.191,150.475 
				131.531,150.814 131.191,151.154 123.801,158.547 126.26,161.006 133.65,153.613 133.99,153.275 134.477,153.613 136.74,155.73 
				136.74,139.062 128.288,130.721 128.039,130.939 127.785,131.168 127.529,131.168 122.578,131.168 121.068,131.168 
				122.139,130.059 124.695,127.495 124.801,127.378 121.961,124.377 120.904,123.501 127.611,123.452 			"/>
			<polygon fill="#574338" points="93.012,189.333 97.438,189.333 97.932,189.333 99.494,187.771 97.035,185.311 			"/>
			<polygon fill="#574338" points="3.578,187.771 5.141,189.333 9.857,189.333 10.061,189.333 6.039,185.311 			"/>
			<polygon fill="#574338" points="36.097,164.867 43.742,157.08 26.2,139.055 17.631,130.633 17.38,130.934 17.245,131.068 
				16.332,131.008 11.381,131.008 10.568,131.027 11.598,130.051 14.155,127.486 14.26,127.37 11.42,124.369 10.364,123.493 
				17.071,123.443 17.727,124.098 26.2,115.779 37.689,104.16 26.2,104.16 21.01,104.16 21.26,104.504 21.6,104.891 21.26,105.256 
				14.657,111.869 14.317,112.215 13.977,111.783 6.448,104.16 5.506,104.16 3.516,106.244 10.909,113.684 11.25,114.049 
				10.909,114.4 4.306,121.01 3.967,121.352 3.627,121.014 -3.763,113.62 -11.157,121.014 -11.497,121.354 -11.837,121.014 
				-18.439,114.411 -18.779,114.072 -18.439,113.73 -11.046,106.243 -13.035,104.16 -13.976,104.16 -20.898,111.178 
				-21.238,111.564 -21.578,111.248 -28.181,104.562 -28.501,104.16 -43.644,104.35 -37.464,111.4 -23.872,123.96 -23.261,123.389 
				-16.573,123.443 -17.66,124.363 -20.501,127.288 -20.396,127.428 -17.839,130.033 -16.769,131.16 -18.278,131.16 -23.228,131.16 
				-23.485,131.16 -23.667,130.932 -23.841,130.736 -50.096,157.092 -42.451,164.872 -39.431,167.928 -38.995,168.366 
				-39.431,168.805 -42.466,171.854 -50.085,179.289 -40.073,189.16 -25.603,189.16 -24.949,189.16 -28.181,186.012 
				-28.521,185.713 -28.181,185.393 -20.787,178.012 -23.248,175.557 -30.64,182.95 -30.98,183.294 -31.32,182.952 -37.921,176.354 
				-38.261,176.014 -37.921,175.672 -30.529,168.279 -37.921,160.889 -38.261,160.549 -37.921,160.207 -31.32,153.605 
				-30.98,153.268 -30.64,153.605 -23.248,160.998 -20.787,158.539 -28.181,151.146 -28.521,150.807 -28.181,150.467 
				-21.578,143.865 -21.238,143.523 -20.898,143.865 -13.505,151.256 -11.046,148.797 -18.439,141.406 -18.779,141.064 
				-18.439,140.725 -11.837,134.122 -11.497,133.783 -11.157,134.122 -3.763,141.516 3.627,134.122 3.967,133.783 4.306,134.122 
				10.909,140.725 11.25,141.064 10.909,141.406 3.516,148.797 5.977,151.256 13.37,143.865 13.708,143.523 14.049,143.865 
				20.651,150.467 20.991,150.807 20.651,151.146 13.26,158.539 15.719,160.998 23.11,153.605 23.45,153.268 25.5,155.43 
				30.279,160.207 30.619,160.549 30.279,160.889 25.5,165.781 23,168.279 25.5,170.779 25.5,170.893 25.72,171.111 26.128,171.52 
				30.279,175.672 30.619,176.014 30.279,176.354 25.5,181.131 25.5,181.314 23.852,182.961 23.512,183.303 23.172,182.961 
				15.781,175.57 13.322,178.029 21.322,186.031 21.662,186.371 21.322,186.711 18.699,189.333 25.971,189.333 25.971,189.325 
				26.128,189.325 32.401,189.325 33.295,189.325 33.719,189.325 43.733,179.371 36.114,171.854 33.077,168.803 32.642,168.365 
				33.075,167.926 			"/>
		</g>
	</g>
	<g>
		<defs>
			<rect id="SVGID_23_" y="99.625" width="111" height="94.375"/>
		</defs>
		<clipPath id="SVGID_24_">
			<use xlink:href="#SVGID_23_"  overflow="visible"/>
		</clipPath>
		<g clip-path="url(#SVGID_24_)">
			<polygon fill="#8EE6D8" points="87.139,130.139 87.312,130.168 92.264,130.168 89.6,127.664 87.424,129.994 			"/>
			<polygon fill="#8EE6D8" points="87.486,124.168 87.109,124.464 87.801,125.127 89.598,127.045 92.439,124.168 			"/>
			<polygon fill="#8EE6D8" points="85.457,126.113 84.209,127.367 84.314,127.473 84.312,127.473 86.695,129.841 88.637,127.893 
				89.057,127.473 89.158,127.368 88.439,126.652 86.67,124.895 			"/>
			<polygon fill="#8EE6D8" points="129.084,189.333 128.498,189.333 128.395,189.333 125.789,189.333 125.652,189.333 
				125.109,189.333 124.963,189.333 124.607,189.333 124.455,189.333 123.928,189.333 123.768,189.333 121.221,189.333 
				121.023,189.333 120.539,189.333 120.336,189.333 115.619,189.333 115.352,189.333 114.939,189.333 114.662,189.333 
				112.23,189.333 111.92,189.333 111.551,189.333 111.23,189.333 102.002,189.333 101.559,189.333 101.32,189.333 100.869,189.333 
				98.613,189.333 98.127,189.333 97.932,189.333 97.438,189.333 93.012,189.333 92.454,189.333 92.332,189.333 91.766,189.333 
				89.624,189.333 89.023,189.333 88.98,189.333 88.369,189.333 86.271,189.333 85.627,189.333 85.592,189.333 84.938,189.333 
				70.468,189.333 69.619,189.333 69.585,189.333 59.57,179.377 67.635,171.418 70.669,168.37 67.648,165.312 59.57,157.084 
				86.258,130.282 83.77,127.809 54.617,157.096 65.152,167.703 65.766,168.357 65.152,169.002 54.617,179.366 64.641,189.333 
				63.758,189.333 63.719,189.333 62.824,189.333 55.382,189.333 54.591,189.333 54.34,189.333 53.539,189.333 50.298,189.333 
				49.578,189.333 49.191,189.333 48.788,189.333 48.462,189.333 47.662,189.333 40.491,189.333 39.609,189.333 49.616,179.383 
				39.079,169.018 38.467,168.374 39.079,167.719 49.616,157.111 26.262,133.21 20.594,127.75 18.016,130.25 25.562,137.886 
				44.679,157.084 36.601,165.312 33.581,168.37 36.614,171.418 44.679,179.377 44.664,179.393 34.665,189.333 33.781,189.333 
				33.357,189.333 32.463,189.333 26.19,189.333 25.971,189.333 25.782,189.333 25.562,189.333 18.699,189.333 18.605,189.333 
				18.02,189.333 17.916,189.333 15.311,189.333 15.174,189.333 14.631,189.333 14.484,189.333 14.129,189.333 13.977,189.333 
				13.449,189.333 13.289,189.333 10.741,189.333 10.545,189.333 10.061,189.333 9.857,189.333 5.141,189.333 4.873,189.333 
				4.461,189.333 4.184,189.333 1.752,189.333 1.441,189.333 1.072,189.333 0.752,189.333 -8.477,189.333 -8.92,189.333 
				-9.158,189.333 -9.609,189.333 -11.865,189.333 -12.352,189.333 -12.547,189.333 -13.041,189.333 -17.467,189.333 
				-18.024,189.333 -18.146,189.333 -18.713,189.333 -20.854,189.333 -21.455,189.333 -21.498,189.333 -22.109,189.333 
				-24.207,189.333 -24.852,189.333 -24.887,189.333 -25.541,189.333 -40.011,189.333 -40.859,189.333 -40.894,189.333 
				-50.909,179.377 -42.844,171.418 -39.81,168.37 -42.83,165.312 -50.909,157.084 -24.221,130.282 -26.709,127.809 
				-55.861,157.096 -45.326,167.703 -44.714,168.357 -45.326,169.002 -55.861,179.366 -45.838,189.333 -46.721,189.333 
				-46.76,189.333 -47.654,189.333 -55.097,189.333 -55.888,189.333 -56.139,189.333 -56.939,189.333 -60.181,189.333 
				-60.901,189.333 -61.288,189.333 -61.69,189.333 -62.017,189.333 -62.816,189.333 -69.988,189.333 -70.87,189.333 
				-60.863,179.383 -71.399,169.018 -72.012,168.374 -71.399,167.719 -60.863,157.111 -84.289,133.546 -84.697,133.136 
				-84.917,132.915 -84.917,137.886 -65.8,157.084 -73.877,165.312 -76.897,168.37 -73.865,171.418 -65.8,179.377 -65.814,179.393 
				-75.813,189.333 -76.698,189.333 -77.122,189.333 -78.016,189.333 -84.289,189.333 -84.697,189.333 -84.917,189.333 
				-84.917,194.168 -84.697,194.168 -84.289,194.168 25.562,194.168 25.782,194.168 25.971,194.168 26.19,194.168 136.449,194.168 
				136.449,189.333 129.178,189.333 			"/>
			<polygon fill="#8EE6D8" points="26.262,100.168 24.74,100.168 -85.739,100.168 -85.614,104.168 -72.549,104.168 -84.289,116.051 
				-84.607,116.598 -84.739,116.958 -84.739,120.873 -84.785,121.645 -67.298,104.357 -49.409,104.168 -42.527,111.105 
				-26.711,126.882 -24.248,124.434 -35.148,113.514 -44.467,104.168 24.865,104.168 26.262,104.168 37.93,104.168 26.19,116.051 
				25.4,117.232 18.205,124.457 20.631,126.93 24.406,123.302 26.262,121.584 43.181,104.357 61.07,104.168 67.951,111.105 
				83.768,126.882 86.23,124.434 75.33,113.514 66.012,104.168 136.74,104.168 136.74,100.168 			"/>
			<polygon fill="#8EE6D8" points="11.855,123.965 14.764,127.021 15.891,125.807 17.344,124.361 16.875,124.073 			"/>
			<polygon fill="#8EE6D8" points="17.951,125.115 17.693,124.875 15.203,127.359 15.256,127.416 15.307,127.469 17.666,129.841 
				20.137,127.473 20.246,127.445 20.115,127.255 20.154,127.291 			"/>
			<polygon fill="#8EE6D8" points="12.1,130.496 17.09,130.455 17.225,130.139 14.762,127.593 			"/>
			<polygon fill="#8EE6D8" points="-23.341,130.139 -23.166,130.168 -18.216,130.168 -20.879,127.664 -23.055,129.994 			"/>
			<polygon fill="#8EE6D8" points="-22.992,124.168 -23.369,124.464 -22.678,125.127 -20.881,127.045 -18.039,124.168 			"/>
			<polygon fill="#8EE6D8" points="-25.021,126.113 -26.27,127.367 -26.164,127.473 -26.166,127.473 -23.783,129.841 
				-21.842,127.893 -21.423,127.473 -21.32,127.368 -22.039,126.652 -23.809,124.895 			"/>
		</g>
	</g>
</g>
</svg>
