<?xml version="1.0" encoding="utf-8"?>
<!-- Generator: Adobe Illustrator 16.0.0, SVG Export Plug-In . SVG Version: 6.00 Build 0)  -->
<!DOCTYPE svg PUBLIC "-//W3C//DTD SVG 1.1//EN" "http://www.w3.org/Graphics/SVG/1.1/DTD/svg11.dtd">
<svg version="1.1" id="Layer_1" xmlns="http://www.w3.org/2000/svg" xmlns:xlink="http://www.w3.org/1999/xlink" x="0px" y="0px"
	 width="79.417px" height="194px" viewBox="0 0 79.417 194" enable-background="new 0 0 79.417 194" xml:space="preserve">
<g id="Layer_2">
	<rect x="-1.958" fill="#FFFFFF" width="81.833" height="94.128"/>
	<g>
		<path fill="#CCCCCC" d="M0.676,3.157V2.8H0.319v0.357H0.676 M1.466,3.947H-0.47V2.01h1.937L1.466,3.947L1.466,3.947z"/>
		<path fill="#CCCCCC" d="M4.548,3.157V2.8H4.192v0.357H4.548 M5.338,3.947H3.402V2.01h1.936V3.947L5.338,3.947z"/>
		<path fill="#CCCCCC" d="M8.421,3.157V2.8H8.066v0.357H8.421 M9.212,3.947H7.275V2.01h1.937V3.947L9.212,3.947z"/>
		<path fill="#CCCCCC" d="M12.295,3.157V2.8h-0.357v0.357H12.295 M13.086,3.947h-1.938V2.01h1.938V3.947L13.086,3.947z"/>
		<path fill="#CCCCCC" d="M16.168,3.157V2.8h-0.357v0.357H16.168 M16.958,3.947h-1.937V2.01h1.937V3.947L16.958,3.947z"/>
		<path fill="#CCCCCC" d="M20.042,3.157V2.8h-0.357v0.357H20.042 M20.832,3.947h-1.938V2.01h1.938V3.947L20.832,3.947z"/>
		<path fill="#CCCCCC" d="M23.915,3.157V2.8h-0.356v0.357H23.915 M24.705,3.947h-1.937V2.01h1.937V3.947L24.705,3.947z"/>
		<path fill="#CCCCCC" d="M27.788,3.157V2.8h-0.355v0.357H27.788 M28.578,3.947h-1.936V2.01h1.936V3.947L28.578,3.947z"/>
		<path fill="#CCCCCC" d="M31.661,3.157V2.8h-0.356v0.357H31.661 M32.451,3.947h-1.937V2.01h1.937V3.947L32.451,3.947z"/>
		<path fill="#CCCCCC" d="M35.534,3.157V2.8h-0.357v0.357H35.534 M36.324,3.947h-1.937V2.01h1.937V3.947L36.324,3.947z"/>
		<path fill="#CCCCCC" d="M39.407,3.157V2.8h-0.356v0.357H39.407 M40.198,3.947h-1.937V2.01h1.937V3.947L40.198,3.947z"/>
		<path fill="#CCCCCC" d="M43.28,3.157V2.8h-0.356v0.357H43.28 M44.07,3.947h-1.938V2.01h1.938V3.947L44.07,3.947z"/>
		<path fill="#CCCCCC" d="M47.152,3.157V2.8h-0.355v0.357H47.152 M47.943,3.947h-1.938V2.01h1.938V3.947L47.943,3.947z"/>
		<path fill="#CCCCCC" d="M51.026,3.157V2.8h-0.356v0.357H51.026 M51.816,3.947H49.88V2.01h1.936V3.947L51.816,3.947z"/>
		<path fill="#CCCCCC" d="M54.9,3.157V2.8h-0.357v0.357H54.9 M55.689,3.947h-1.938V2.01h1.938V3.947L55.689,3.947z"/>
		<path fill="#CCCCCC" d="M58.772,3.157V2.8h-0.354v0.357H58.772 M59.562,3.947h-1.936V2.01h1.936V3.947L59.562,3.947z"/>
		<path fill="#CCCCCC" d="M62.646,3.157V2.8h-0.355v0.357H62.646 M63.436,3.947H61.5V2.01h1.938L63.436,3.947L63.436,3.947z"/>
		<path fill="#CCCCCC" d="M66.52,3.157V2.8h-0.356v0.357H66.52 M67.309,3.947h-1.937V2.01h1.937V3.947L67.309,3.947z"/>
		<path fill="#CCCCCC" d="M70.392,3.157V2.8h-0.357v0.357H70.392 M71.182,3.947h-1.937V2.01h1.937V3.947L71.182,3.947z"/>
		<path fill="#CCCCCC" d="M74.265,3.157V2.8H73.91v0.357H74.265 M75.056,3.947h-1.938V2.01h1.938V3.947L75.056,3.947z"/>
		<path fill="#CCCCCC" d="M78.138,3.157V2.8h-0.355v0.357H78.138 M78.928,3.947h-1.937V2.01h1.937V3.947L78.928,3.947z"/>
		<path fill="#CCCCCC" d="M82.012,3.157V2.8h-0.354v0.357H82.012"/>
		<path fill="#CCCCCC" d="M-1.261,5.094V4.737h-0.356v0.356L-1.261,5.094"/>
		<path fill="#CCCCCC" d="M2.612,5.094V4.737H2.256v0.356L2.612,5.094 M3.402,5.884H1.466V3.947h1.936V5.884L3.402,5.884z"/>
		<path fill="#CCCCCC" d="M6.486,5.094V4.737H6.128v0.356L6.486,5.094 M7.275,5.884H5.338V3.947h1.937V5.884L7.275,5.884z"/>
		<path fill="#CCCCCC" d="M10.358,5.094V4.737h-0.357v0.356L10.358,5.094 M11.148,5.884H9.212V3.947h1.936V5.884L11.148,5.884z"/>
		<path fill="#CCCCCC" d="M14.231,5.094V4.737h-0.355v0.356L14.231,5.094 M15.022,5.884h-1.936V3.947h1.936V5.884L15.022,5.884z"/>
		<path fill="#CCCCCC" d="M18.104,5.094V4.737h-0.355v0.356L18.104,5.094 M18.895,5.884h-1.936V3.947h1.936V5.884L18.895,5.884z"/>
		<path fill="#CCCCCC" d="M21.978,5.094V4.737h-0.355v0.356L21.978,5.094 M22.768,5.884h-1.936V3.947h1.936V5.884L22.768,5.884z"/>
		<path fill="#CCCCCC" d="M25.852,5.094V4.737h-0.357v0.356L25.852,5.094 M26.642,5.884h-1.938V3.947h1.938V5.884L26.642,5.884z"/>
		<path fill="#CCCCCC" d="M29.724,5.094V4.737h-0.355v0.356L29.724,5.094 M30.514,5.884h-1.936V3.947h1.936V5.884L30.514,5.884z"/>
		<path fill="#CCCCCC" d="M33.597,5.094V4.737h-0.356v0.356L33.597,5.094 M34.387,5.884H32.45V3.947h1.937V5.884L34.387,5.884z"/>
		<path fill="#CCCCCC" d="M37.471,5.094V4.737h-0.356v0.356L37.471,5.094 M38.261,5.884h-1.937V3.947h1.937V5.884L38.261,5.884z"/>
		<path fill="#CCCCCC" d="M41.343,5.094V4.737h-0.355v0.356L41.343,5.094 M42.132,5.884h-1.937V3.947h1.937V5.884L42.132,5.884z"/>
		<path fill="#CCCCCC" d="M45.216,5.094V4.737H44.86v0.356L45.216,5.094 M46.005,5.884H44.07V3.947h1.936V5.884L46.005,5.884z"/>
		<path fill="#CCCCCC" d="M49.089,5.094V4.737h-0.356v0.356L49.089,5.094 M49.88,5.884h-1.938V3.947h1.938V5.884L49.88,5.884z"/>
		<path fill="#CCCCCC" d="M52.962,5.094V4.737h-0.355v0.356L52.962,5.094 M53.753,5.884h-1.938V3.947h1.938V5.884L53.753,5.884z"/>
		<path fill="#CCCCCC" d="M56.835,5.094V4.737H56.48v0.356L56.835,5.094 M57.626,5.884h-1.938V3.947h1.938V5.884L57.626,5.884z"/>
		<path fill="#CCCCCC" d="M60.708,5.094V4.737h-0.355v0.356L60.708,5.094 M61.5,5.884h-1.938V3.947H61.5V5.884L61.5,5.884z"/>
		<path fill="#CCCCCC" d="M64.582,5.094V4.737h-0.354v0.356L64.582,5.094 M65.373,5.884h-1.937V3.947h1.937V5.884L65.373,5.884z"/>
		<path fill="#CCCCCC" d="M68.455,5.094V4.737H68.1v0.356L68.455,5.094 M69.246,5.884h-1.937V3.947h1.937V5.884L69.246,5.884z"/>
		<path fill="#CCCCCC" d="M72.33,5.094V4.737h-0.356v0.356L72.33,5.094 M73.119,5.884h-1.937V3.947h1.937V5.884L73.119,5.884z"/>
		<path fill="#CCCCCC" d="M76.203,5.094V4.737h-0.356v0.356L76.203,5.094 M76.992,5.884h-1.937V3.947h1.937V5.884L76.992,5.884z"/>
		<path fill="#CCCCCC" d="M80.076,5.094V4.737h-0.357v0.356L80.076,5.094 M80.867,5.884h-1.938V3.947h1.938V5.884L80.867,5.884z"/>
		<path fill="#CCCCCC" d="M83.666,7.03V6.674H-2.285V7.03H83.666 M84.455,7.82h-87.53V5.884h87.53V7.82L84.455,7.82z"/>
	</g>
	<g>
		<path fill="none" stroke="#CCCCCC" stroke-width="0.7901" stroke-miterlimit="10" d="M43.712,20.368l-3.96,3.958l-3.96-3.958
			l3.96-3.96L43.712,20.368z M39.752,21.484l1.117-1.116l-1.117-1.117l-1.117,1.117L39.752,21.484z"/>
		<path fill="none" stroke="#CCCCCC" stroke-width="0.7901" stroke-miterlimit="10" d="M48.111,20.368l-8.359,8.359l-8.36-8.359
			l8.36-8.359L48.111,20.368z M39.752,25.9l5.535-5.532l-5.535-5.534l-5.533,5.534L39.752,25.9z"/>
		<polygon fill="none" stroke="#CCCCCC" stroke-width="0.7901" stroke-miterlimit="10" points="83.403,19.532 79.876,19.533 
			79.876,16.005 79.876,16.005 		"/>
		<polygon fill="none" stroke="#CCCCCC" stroke-width="0.7901" stroke-miterlimit="10" points="75.388,19.532 78.914,19.533 
			78.914,16.005 78.914,16.005 		"/>
		
			<rect x="38.854" y="45.872" transform="matrix(0.7072 0.707 -0.707 0.7072 44.7133 -14.4154)" fill="#CCCCCC" width="1.816" height="1.816"/>
		<path fill="none" stroke="#CCCCCC" stroke-width="0.7901" stroke-miterlimit="10" d="M43.712,73.305l-3.96,3.958l-3.96-3.958
			l3.96-3.96L43.712,73.305z M39.752,74.42l1.117-1.116l-1.117-1.117l-1.117,1.117L39.752,74.42z"/>
		<path fill="none" stroke="#CCCCCC" stroke-width="0.7901" stroke-miterlimit="10" d="M48.111,73.305l-8.359,8.359l-8.36-8.359
			l8.36-8.359L48.111,73.305z M39.752,78.837l5.535-5.532l-5.535-5.534l-5.533,5.534L39.752,78.837z"/>
		<polygon fill="none" stroke="#CCCCCC" stroke-width="0.7901" stroke-miterlimit="10" points="43.703,46.97 40.178,46.968 
			40.178,50.495 40.179,50.495 		"/>
		<polygon fill="none" stroke="#CCCCCC" stroke-width="0.7901" stroke-miterlimit="10" points="35.684,46.97 39.21,46.968 
			39.21,50.495 39.209,50.495 		"/>
		<polygon fill="none" stroke="#CCCCCC" stroke-width="0.7901" stroke-miterlimit="10" points="43.699,46 40.174,46.001 
			40.174,42.475 40.174,42.475 		"/>
		<polygon fill="none" stroke="#CCCCCC" stroke-width="0.7901" stroke-miterlimit="10" points="35.684,46 39.21,46.001 
			39.21,42.475 39.209,42.475 		"/>
		<polygon fill="none" stroke="#CCCCCC" stroke-width="0.7901" stroke-miterlimit="10" points="83.403,72.468 79.876,72.47 
			79.876,68.942 79.876,68.942 		"/>
		<polygon fill="none" stroke="#CCCCCC" stroke-width="0.7901" stroke-miterlimit="10" points="75.388,72.468 78.914,72.47 
			78.914,68.942 78.914,68.942 		"/>
		
			<rect x="65.178" y="19.457" transform="matrix(0.7072 0.707 -0.707 0.7072 33.7447 -40.7589)" fill="#CCCCCC" width="1.816" height="1.815"/>
		<path fill="none" stroke="#CCCCCC" stroke-width="0.7901" stroke-miterlimit="10" d="M43.712,20.368l-3.96,3.959l-3.96-3.959
			l3.96-3.959L43.712,20.368z M39.752,21.485l1.117-1.117l-1.117-1.116l-1.117,1.116L39.752,21.485z"/>
		<path fill="none" stroke="#CCCCCC" stroke-width="0.7901" stroke-miterlimit="10" d="M48.111,20.368l-8.359,8.36l-8.36-8.36
			l8.36-8.359L48.111,20.368z M39.752,25.901l5.535-5.533l-5.535-5.533l-5.533,5.533L39.752,25.901z"/>
		
			<rect x="78.558" y="19.405" transform="matrix(0.7066 0.7076 -0.7076 0.7066 37.6916 -50.2733)" fill="#CCCCCC" width="1.815" height="1.814"/>
		
			<rect x="52.041" y="45.928" transform="matrix(-0.7071 -0.7071 0.7071 -0.7071 57.2706 117.3956)" fill="#CCCCCC" width="1.815" height="1.817"/>
		<path fill="none" stroke="#CCCCCC" stroke-width="0.7901" stroke-miterlimit="10" d="M83.416,46.836l-3.959,3.959l-3.961-3.959
			l3.961-3.959L83.416,46.836z M79.457,47.953l1.115-1.117l-1.115-1.116l-1.117,1.116L79.457,47.953z"/>
		<path fill="none" stroke="#CCCCCC" stroke-width="0.7901" stroke-miterlimit="10" d="M87.814,46.836l-8.359,8.359l-8.358-8.359
			l8.358-8.359L87.814,46.836z M79.457,52.369l5.533-5.532l-5.533-5.533l-5.533,5.533L79.457,52.369z"/>
		<polygon fill="none" stroke="#CCCCCC" stroke-width="0.7901" stroke-miterlimit="10" points="83.408,20.502 79.88,20.5 
			79.88,24.026 79.882,24.026 		"/>
		<polygon fill="none" stroke="#CCCCCC" stroke-width="0.7901" stroke-miterlimit="10" points="75.388,20.502 78.914,20.5 
			78.914,24.026 78.914,24.026 		"/>
		<polygon fill="none" stroke="#CCCCCC" stroke-width="0.7901" stroke-miterlimit="10" points="83.403,19.532 79.876,19.533 
			79.876,16.006 79.876,16.006 		"/>
		<polygon fill="none" stroke="#CCCCCC" stroke-width="0.7901" stroke-miterlimit="10" points="75.388,19.532 78.914,19.533 
			78.914,16.006 78.914,16.006 		"/>
		
			<rect x="65.182" y="72.398" transform="matrix(0.7068 0.7074 -0.7074 0.7068 71.2295 -25.2596)" fill="#CCCCCC" width="1.815" height="1.815"/>
		<path fill="none" stroke="#CCCCCC" stroke-width="0.7901" stroke-miterlimit="10" d="M43.712,73.305l-3.96,3.959l-3.96-3.959
			l3.96-3.959L43.712,73.305z M39.752,74.421l1.117-1.117l-1.117-1.116l-1.117,1.116L39.752,74.421z"/>
		<path fill="none" stroke="#CCCCCC" stroke-width="0.7901" stroke-miterlimit="10" d="M48.111,73.305l-8.359,8.36l-8.36-8.36
			l8.36-8.359L48.111,73.305z M39.752,78.837l5.535-5.533l-5.535-5.533l-5.533,5.533L39.752,78.837z"/>
		
			<rect x="78.553" y="72.342" transform="matrix(0.7068 0.7074 -0.7074 0.7068 75.1097 -34.7344)" fill="#CCCCCC" width="1.815" height="1.815"/>
		<polygon fill="none" stroke="#CCCCCC" stroke-width="0.7901" stroke-miterlimit="10" points="83.408,73.438 79.88,73.437 
			79.88,76.963 79.882,76.963 		"/>
		<polygon fill="none" stroke="#CCCCCC" stroke-width="0.7901" stroke-miterlimit="10" points="75.388,73.438 78.914,73.437 
			78.914,76.963 78.914,76.963 		"/>
		<polygon fill="none" stroke="#CCCCCC" stroke-width="0.7901" stroke-miterlimit="10" points="83.403,72.468 79.876,72.47 
			79.876,68.943 79.876,68.943 		"/>
		<polygon fill="none" stroke="#CCCCCC" stroke-width="0.7901" stroke-miterlimit="10" points="75.388,72.468 78.914,72.47 
			78.914,68.943 78.914,68.943 		"/>
		<polygon fill="none" stroke="#CCCCCC" stroke-width="0.7901" stroke-miterlimit="10" points="3.996,72.468 0.47,72.47 
			0.47,68.942 0.47,68.942 		"/>
		<polygon fill="none" stroke="#CCCCCC" stroke-width="0.7901" stroke-miterlimit="10" points="-4.02,72.468 -0.494,72.47 
			-0.494,68.942 -0.494,68.942 		"/>
		<path fill="none" stroke="#CCCCCC" stroke-width="0.7901" stroke-miterlimit="10" d="M43.71,73.305l-3.959,3.958l-3.959-3.958
			l3.959-3.96L43.71,73.305z M39.751,74.42l1.116-1.116l-1.116-1.117l-1.116,1.117L39.751,74.42z"/>
		<path fill="none" stroke="#CCCCCC" stroke-width="0.7901" stroke-miterlimit="10" d="M48.111,73.305l-8.36,8.359l-8.36-8.359
			l8.36-8.359L48.111,73.305z M39.751,78.837l5.534-5.532l-5.534-5.534l-5.533,5.534L39.751,78.837z"/>
		<polygon fill="none" stroke="#CCCCCC" stroke-width="0.7901" stroke-miterlimit="10" points="35.684,46.97 39.21,46.968 
			39.21,50.495 39.209,50.495 		"/>
		<polygon fill="none" stroke="#CCCCCC" stroke-width="0.7901" stroke-miterlimit="10" points="35.684,46 39.21,46.001 
			39.21,42.475 39.209,42.475 		"/>
		
			<rect x="-0.85" y="19.403" transform="matrix(0.7072 0.707 -0.707 0.7072 14.3765 5.9054)" fill="#CCCCCC" width="1.816" height="1.816"/>
		
			<rect x="25.469" y="45.929" transform="matrix(0.7074 0.7068 -0.7068 0.7074 40.8246 -4.9386)" fill="#CCCCCC" width="1.816" height="1.816"/>
		<path fill="none" stroke="#CCCCCC" stroke-width="0.7901" stroke-miterlimit="10" d="M4.008,46.836l-3.959,3.959l-3.96-3.959
			l3.96-3.959L4.008,46.836z M0.048,47.953l1.116-1.117L0.048,45.72l-1.117,1.116L0.048,47.953z"/>
		<path fill="none" stroke="#CCCCCC" stroke-width="0.7901" stroke-miterlimit="10" d="M8.408,46.836l-8.359,8.359l-8.36-8.359
			l8.36-8.359L8.408,46.836z M0.048,52.369l5.534-5.532l-5.534-5.533l-5.533,5.533L0.048,52.369z"/>
		<polygon fill="none" stroke="#CCCCCC" stroke-width="0.7901" stroke-miterlimit="10" points="4,20.502 0.474,20.5 0.474,24.026 
			0.475,24.026 		"/>
		<polygon fill="none" stroke="#CCCCCC" stroke-width="0.7901" stroke-miterlimit="10" points="-4.02,20.502 -0.494,20.5 
			-0.494,24.026 -0.494,24.026 		"/>
		<polygon fill="none" stroke="#CCCCCC" stroke-width="0.7901" stroke-miterlimit="10" points="3.996,19.532 0.47,19.533 
			0.47,16.006 0.47,16.006 		"/>
		<polygon fill="none" stroke="#CCCCCC" stroke-width="0.7901" stroke-miterlimit="10" points="-4.02,19.532 -0.494,19.533 
			-0.494,16.006 -0.494,16.006 		"/>
		
			<rect x="12.33" y="19.46" transform="matrix(-0.7071 -0.7071 0.7071 -0.7071 8.1959 44.1312)" fill="#CCCCCC" width="1.816" height="1.816"/>
		<path fill="none" stroke="#CCCCCC" stroke-width="0.7901" stroke-miterlimit="10" d="M43.71,20.368l-3.959,3.959l-3.959-3.959
			l3.959-3.959L43.71,20.368z M39.751,21.485l1.116-1.117l-1.116-1.116l-1.116,1.116L39.751,21.485z"/>
		<path fill="none" stroke="#CCCCCC" stroke-width="0.7901" stroke-miterlimit="10" d="M48.111,20.368l-8.36,8.36l-8.36-8.36
			l8.36-8.359L48.111,20.368z M39.751,25.901l5.534-5.533l-5.534-5.533l-5.533,5.533L39.751,25.901z"/>
		
			<rect x="-0.85" y="72.34" transform="matrix(0.7071 0.7071 -0.7071 0.7071 51.8114 21.4133)" fill="#CCCCCC" width="1.816" height="1.816"/>
		<polygon fill="none" stroke="#CCCCCC" stroke-width="0.7901" stroke-miterlimit="10" points="4,73.438 0.474,73.437 0.474,76.963 
			0.475,76.963 		"/>
		<polygon fill="none" stroke="#CCCCCC" stroke-width="0.7901" stroke-miterlimit="10" points="-4.02,73.438 -0.494,73.437 
			-0.494,76.963 -0.494,76.963 		"/>
		<polygon fill="none" stroke="#CCCCCC" stroke-width="0.7901" stroke-miterlimit="10" points="3.996,72.468 0.47,72.47 
			0.47,68.943 0.47,68.943 		"/>
		<polygon fill="none" stroke="#CCCCCC" stroke-width="0.7901" stroke-miterlimit="10" points="-4.02,72.468 -0.494,72.47 
			-0.494,68.943 -0.494,68.943 		"/>
		
			<rect x="12.332" y="72.4" transform="matrix(-0.707 -0.7072 0.7072 -0.707 -29.2455 134.4981)" fill="#CCCCCC" width="1.816" height="1.816"/>
		<path fill="none" stroke="#CCCCCC" stroke-width="0.7901" stroke-miterlimit="10" d="M43.71,73.305l-3.959,3.959l-3.959-3.959
			l3.959-3.959L43.71,73.305z M39.751,74.421l1.116-1.117l-1.116-1.116l-1.116,1.116L39.751,74.421z"/>
		<path fill="none" stroke="#CCCCCC" stroke-width="0.7901" stroke-miterlimit="10" d="M48.111,73.305l-8.36,8.36l-8.36-8.36
			l8.36-8.359L48.111,73.305z M39.751,78.837l5.534-5.533l-5.534-5.533l-5.533,5.533L39.751,78.837z"/>
	</g>
	<g>
		<path fill="#CCCCCC" d="M0.676,89.673H0.319v0.357h0.357V89.673 M1.466,88.883v1.937H-0.47v-1.937H1.466L1.466,88.883z"/>
		<path fill="#CCCCCC" d="M4.548,89.673H4.192v0.357h0.355L4.548,89.673 M5.338,88.883v1.937H3.402v-1.937H5.338L5.338,88.883z"/>
		<path fill="#CCCCCC" d="M8.421,89.673H8.066v0.357h0.355V89.673 M9.212,88.883v1.937H7.275v-1.937H9.212L9.212,88.883z"/>
		<path fill="#CCCCCC" d="M12.295,89.673h-0.357v0.357h0.357V89.673 M13.086,88.883v1.937h-1.938v-1.937H13.086L13.086,88.883z"/>
		<path fill="#CCCCCC" d="M16.168,89.673h-0.357v0.357h0.357V89.673 M16.958,88.883v1.937h-1.937v-1.937H16.958L16.958,88.883z"/>
		<path fill="#CCCCCC" d="M20.042,89.673h-0.357v0.357h0.357V89.673 M20.832,88.883v1.937h-1.938v-1.937H20.832L20.832,88.883z"/>
		<path fill="#CCCCCC" d="M23.915,89.673h-0.356v0.357h0.356V89.673 M24.705,88.883v1.937h-1.937v-1.937H24.705L24.705,88.883z"/>
		<path fill="#CCCCCC" d="M27.788,89.673h-0.355v0.357h0.355V89.673 M28.578,88.883v1.937h-1.936v-1.937H28.578L28.578,88.883z"/>
		<path fill="#CCCCCC" d="M31.661,89.673h-0.356v0.357h0.356V89.673 M32.451,88.883v1.937h-1.937v-1.937H32.451L32.451,88.883z"/>
		<path fill="#CCCCCC" d="M35.534,89.673h-0.357v0.357h0.357V89.673 M36.324,88.883v1.937h-1.937v-1.937H36.324L36.324,88.883z"/>
		<path fill="#CCCCCC" d="M39.407,89.673h-0.356v0.357h0.356V89.673 M40.198,88.883v1.937h-1.937v-1.937H40.198L40.198,88.883z"/>
		<path fill="#CCCCCC" d="M43.28,89.673h-0.356v0.357h0.356V89.673 M44.07,88.883v1.937h-1.938v-1.937H44.07L44.07,88.883z"/>
		<path fill="#CCCCCC" d="M47.152,89.673h-0.355v0.357h0.355V89.673 M47.943,88.883v1.937h-1.938v-1.937H47.943L47.943,88.883z"/>
		<path fill="#CCCCCC" d="M51.026,89.673h-0.356v0.357h0.356V89.673 M51.816,88.883v1.937H49.88v-1.937H51.816L51.816,88.883z"/>
		<path fill="#CCCCCC" d="M54.9,89.673h-0.357v0.357H54.9V89.673 M55.689,88.883v1.937h-1.938v-1.937H55.689L55.689,88.883z"/>
		<path fill="#CCCCCC" d="M58.772,89.673h-0.354v0.357h0.354V89.673 M59.562,88.883v1.937h-1.936v-1.937H59.562L59.562,88.883z"/>
		<path fill="#CCCCCC" d="M62.646,89.673h-0.355v0.357h0.355V89.673 M63.436,88.883v1.937H61.5v-1.937H63.436L63.436,88.883z"/>
		<path fill="#CCCCCC" d="M66.52,89.673h-0.356v0.357h0.356V89.673 M67.309,88.883v1.937h-1.937v-1.937H67.309L67.309,88.883z"/>
		<path fill="#CCCCCC" d="M70.392,89.673h-0.357v0.357h0.357V89.673 M71.182,88.883v1.937h-1.937v-1.937H71.182L71.182,88.883z"/>
		<path fill="#CCCCCC" d="M74.265,89.673H73.91v0.357h0.355V89.673 M75.056,88.883v1.937h-1.938v-1.937H75.056L75.056,88.883z"/>
		<path fill="#CCCCCC" d="M78.138,89.673h-0.355v0.357h0.355V89.673 M78.928,88.883v1.937h-1.937v-1.937H78.928L78.928,88.883z"/>
		<path fill="#CCCCCC" d="M82.012,89.673h-0.354v0.357h0.354V89.673"/>
		<path fill="#CCCCCC" d="M-1.261,87.736h-0.356v0.356h0.356V87.736"/>
		<path fill="#CCCCCC" d="M2.612,87.736H2.256v0.356h0.355L2.612,87.736 M3.402,86.946v1.937H1.466v-1.937H3.402L3.402,86.946z"/>
		<path fill="#CCCCCC" d="M6.486,87.736H6.128v0.356h0.358V87.736 M7.275,86.946v1.937H5.338v-1.937H7.275L7.275,86.946z"/>
		<path fill="#CCCCCC" d="M10.358,87.736h-0.357v0.356h0.357V87.736 M11.148,86.946v1.937H9.212v-1.937H11.148L11.148,86.946z"/>
		<path fill="#CCCCCC" d="M14.231,87.736h-0.355v0.356h0.355V87.736 M15.022,86.946v1.937h-1.936v-1.937H15.022L15.022,86.946z"/>
		<path fill="#CCCCCC" d="M18.104,87.736h-0.355v0.356h0.355V87.736 M18.895,86.946v1.937h-1.936v-1.937H18.895L18.895,86.946z"/>
		<path fill="#CCCCCC" d="M21.978,87.736h-0.355v0.356h0.355V87.736 M22.768,86.946v1.937h-1.936v-1.937H22.768L22.768,86.946z"/>
		<path fill="#CCCCCC" d="M25.852,87.736h-0.357v0.356h0.357V87.736 M26.642,86.946v1.937h-1.938v-1.937H26.642L26.642,86.946z"/>
		<path fill="#CCCCCC" d="M29.724,87.736h-0.355v0.356h0.355V87.736 M30.514,86.946v1.937h-1.936v-1.937H30.514L30.514,86.946z"/>
		<path fill="#CCCCCC" d="M33.597,87.736h-0.356v0.356h0.356V87.736 M34.387,86.946v1.937H32.45v-1.937H34.387L34.387,86.946z"/>
		<path fill="#CCCCCC" d="M37.471,87.736h-0.356v0.356h0.356V87.736 M38.261,86.946v1.937h-1.937v-1.937H38.261L38.261,86.946z"/>
		<path fill="#CCCCCC" d="M41.343,87.736h-0.355v0.356h0.355V87.736 M42.132,86.946v1.937h-1.937v-1.937H42.132L42.132,86.946z"/>
		<path fill="#CCCCCC" d="M45.216,87.736H44.86v0.356h0.356V87.736 M46.005,86.946v1.937H44.07v-1.937H46.005L46.005,86.946z"/>
		<path fill="#CCCCCC" d="M49.089,87.736h-0.356v0.356h0.356V87.736 M49.88,86.946v1.937h-1.938v-1.937H49.88L49.88,86.946z"/>
		<path fill="#CCCCCC" d="M52.962,87.736h-0.355v0.356h0.355V87.736 M53.753,86.946v1.937h-1.938v-1.937H53.753L53.753,86.946z"/>
		<path fill="#CCCCCC" d="M56.835,87.736H56.48v0.356h0.355V87.736 M57.626,86.946v1.937h-1.938v-1.937H57.626L57.626,86.946z"/>
		<path fill="#CCCCCC" d="M60.708,87.736h-0.355v0.356h0.355V87.736 M61.5,86.946v1.937h-1.938v-1.937H61.5L61.5,86.946z"/>
		<path fill="#CCCCCC" d="M64.582,87.736h-0.354v0.356h0.354V87.736 M65.373,86.946v1.937h-1.937v-1.937H65.373L65.373,86.946z"/>
		<path fill="#CCCCCC" d="M68.455,87.736H68.1v0.356h0.354V87.736 M69.246,86.946v1.937h-1.937v-1.937H69.246L69.246,86.946z"/>
		<path fill="#CCCCCC" d="M72.33,87.736h-0.356v0.356h0.356V87.736 M73.119,86.946v1.937h-1.937v-1.937H73.119L73.119,86.946z"/>
		<path fill="#CCCCCC" d="M76.203,87.736h-0.356v0.356h0.356V87.736 M76.992,86.946v1.937h-1.937v-1.937H76.992L76.992,86.946z"/>
		<path fill="#CCCCCC" d="M80.076,87.736h-0.357v0.356h0.357V87.736 M80.867,86.946v1.937h-1.938v-1.937H80.867L80.867,86.946z"/>
		<path fill="#CCCCCC" d="M83.666,85.8H-2.285v0.356h85.951V85.8 M84.455,85.01v1.937h-87.53V85.01H84.455L84.455,85.01z"/>
	</g>
</g>
<g id="Layer_2_copy">
	<rect x="-1.958" y="99.872" fill="#97C6B1" width="81.833" height="94.128"/>
	<g>
		
			<rect x="73.545" y="140.413" transform="matrix(0.7071 -0.7071 0.7071 0.7071 -80.1951 99.0414)" fill="#837996" width="11.822" height="11.823"/>
		
			<rect x="-5.862" y="140.413" transform="matrix(0.7071 -0.7071 0.7071 0.7071 -103.4468 42.886)" fill="#837996" width="11.821" height="11.823"/>
		
			<rect x="33.843" y="113.941" transform="matrix(0.7071 -0.7071 0.7071 0.7071 -73.1034 63.2116)" fill="#837996" width="11.822" height="11.823"/>
		
			<rect x="33.844" y="166.875" transform="matrix(0.7071 -0.7071 0.7071 0.7071 -110.5347 78.719)" fill="#837996" width="11.822" height="11.823"/>
	</g>
	<g>
		<g>
			<g>
				<path fill="#ECF9E1" d="M-7.071,190.294h-0.356v0.356h0.356V190.294 M-6.281,189.504L-6.281,189.504v1.938"/>
			</g>
			<g>
				<path fill="#ECF9E1" d="M-3.197,190.294h-0.356v0.356h0.356V190.294 M-2.407,189.504v1.938h-1.937v-1.938H-2.407L-2.407,189.504
					z"/>
			</g>
			<g>
				<path fill="#ECF9E1" d="M0.676,190.294H0.32v0.356h0.356V190.294 M1.466,189.504v1.938H-0.47v-1.938H1.466L1.466,189.504z"/>
			</g>
			<g>
				<path fill="#ECF9E1" d="M4.548,190.294H4.192v0.356h0.355L4.548,190.294 M5.338,189.504v1.938H3.402v-1.938H5.338L5.338,189.504
					z"/>
			</g>
			<g>
				<path fill="#ECF9E1" d="M8.421,190.294H8.066v0.356h0.355V190.294 M9.211,189.504v1.938H7.276v-1.938H9.211L9.211,189.504z"/>
			</g>
			<g>
				<path fill="#ECF9E1" d="M12.296,190.294h-0.357v0.356h0.357V190.294 M13.086,189.504v1.938h-1.938v-1.938H13.086L13.086,189.504
					z"/>
			</g>
			<g>
				<path fill="#ECF9E1" d="M16.168,190.294h-0.356v0.356h0.356V190.294 M16.958,189.504v1.938h-1.937v-1.938H16.958L16.958,189.504
					z"/>
			</g>
			<g>
				<path fill="#ECF9E1" d="M20.042,190.294h-0.357v0.356h0.357V190.294 M20.832,189.504v1.938h-1.938v-1.938H20.832L20.832,189.504
					z"/>
			</g>
			<g>
				<path fill="#ECF9E1" d="M23.915,190.294h-0.356v0.356h0.356V190.294 M24.705,189.504v1.938h-1.937v-1.938H24.705L24.705,189.504
					z"/>
			</g>
			<g>
				<path fill="#ECF9E1" d="M27.788,190.294h-0.356v0.356h0.356V190.294 M28.578,189.504v1.938h-1.936v-1.938H28.578L28.578,189.504
					z"/>
			</g>
			<g>
				<path fill="#ECF9E1" d="M31.661,190.294h-0.356v0.356h0.356V190.294 M32.451,189.504v1.938h-1.937v-1.938H32.451L32.451,189.504
					z"/>
			</g>
			<g>
				<path fill="#ECF9E1" d="M35.534,190.294h-0.356v0.356h0.356V190.294 M36.324,189.504v1.938h-1.937v-1.938H36.324L36.324,189.504
					z"/>
			</g>
			<g>
				<path fill="#ECF9E1" d="M39.408,190.294h-0.357v0.356h0.357V190.294 M40.198,189.504v1.938h-1.937v-1.938H40.198L40.198,189.504
					z"/>
			</g>
			<g>
				<path fill="#ECF9E1" d="M43.28,190.294h-0.356v0.356h0.356V190.294 M44.07,189.504v1.938h-1.938v-1.938H44.07L44.07,189.504z"/>
			</g>
			<g>
				<path fill="#ECF9E1" d="M47.153,190.294h-0.356v0.356h0.356V190.294 M47.943,189.504v1.938h-1.938v-1.938H47.943L47.943,189.504
					z"/>
			</g>
			<g>
				<path fill="#ECF9E1" d="M51.026,190.294h-0.356v0.356h0.356V190.294 M51.816,189.504v1.938H49.88v-1.938H51.816L51.816,189.504z
					"/>
			</g>
			<g>
				<path fill="#ECF9E1" d="M54.9,190.294h-0.357v0.356H54.9V190.294 M55.69,189.504v1.938h-1.937v-1.938H55.69L55.69,189.504z"/>
			</g>
			<g>
				<path fill="#ECF9E1" d="M58.772,190.294h-0.356v0.356h0.356V190.294 M59.562,189.504v1.938h-1.936v-1.938H59.562L59.562,189.504
					z"/>
			</g>
			<g>
				<path fill="#ECF9E1" d="M62.646,190.294h-0.355v0.356h0.355V190.294 M63.436,189.504v1.938H61.5v-1.938H63.436L63.436,189.504z"
					/>
			</g>
			<g>
				<path fill="#ECF9E1" d="M66.52,190.294h-0.356v0.356h0.356V190.294 M67.31,189.504v1.938h-1.938v-1.938H67.31L67.31,189.504z"/>
			</g>
			<g>
				<path fill="#ECF9E1" d="M70.392,190.294h-0.355v0.356h0.355V190.294 M71.182,189.504v1.938h-1.937v-1.938H71.182L71.182,189.504
					z"/>
			</g>
			<g>
				<path fill="#ECF9E1" d="M74.266,190.294H73.91v0.356h0.356V190.294 M75.056,189.504v1.938h-1.938v-1.938H75.056L75.056,189.504z
					"/>
			</g>
			<g>
				<path fill="#ECF9E1" d="M78.138,190.294h-0.355v0.356h0.355V190.294 M78.928,189.504v1.938h-1.937v-1.938H78.928L78.928,189.504
					z"/>
			</g>
			<g>
				<path fill="#ECF9E1" d="M82.012,190.294h-0.356v0.356h0.356V190.294 M82.802,189.504v1.938h-1.936v-1.938H82.802L82.802,189.504
					z"/>
			</g>
			<g>
				<path fill="#896FB6" d="M-11.139,187.566h1.937l0,0"/>
			</g>
			<g>
				<path fill="#896FB6" d="M-7.265,187.566h1.936l0,0"/>
			</g>
			<g>
				<path fill="#896FB6" d="M-33.393,187.566h1.936l0,0"/>
			</g>
			<g>
				<path fill="#896FB6" d="M-29.519,187.566h1.936l0,0"/>
			</g>
			<g>
				<path fill="#896FB6" d="M-25.646,187.566h1.937l0,0"/>
			</g>
			<g>
				<path fill="#896FB6" d="M-21.773,187.566h1.936l0,0"/>
			</g>
			<g>
				<path fill="#896FB6" d="M-17.9,187.566h1.938l0,0"/>
			</g>
			<g>
				<path fill="#896FB6" d="M-14.027,187.566h1.938l0,0"/>
			</g>
			<g>
				<path fill="#896FB6" d="M-10.153,187.566h1.936l0,0"/>
			</g>
			<g>
				<path fill="#896FB6" d="M-5.134,188.357H-5.49v0.355h0.356V188.357 M-4.344,187.566v1.938h-1.938v-1.938H-4.344L-4.344,187.566z
					"/>
			</g>
			<g>
				<path fill="#896FB6" d="M-1.261,188.357h-0.356v0.355h0.356V188.357 M-0.47,187.566v1.938h-1.937v-1.938H-0.47L-0.47,187.566z"
					/>
			</g>
			<g>
				<path fill="#896FB6" d="M2.612,188.357H2.256v0.355h0.356V188.357 M3.402,187.566v1.938H1.466v-1.938H3.402L3.402,187.566z"/>
			</g>
			<g>
				<path fill="#896FB6" d="M6.485,188.357H6.128v0.355h0.357V188.357 M7.276,187.566v1.938H5.338v-1.938H7.276L7.276,187.566z"/>
			</g>
			<g>
				<path fill="#896FB6" d="M10.358,188.357h-0.356v0.355h0.356V188.357 M11.148,187.566v1.938H9.211v-1.938H11.148L11.148,187.566z
					"/>
			</g>
			<g>
				<path fill="#896FB6" d="M14.231,188.357h-0.355v0.355h0.355V188.357 M15.022,187.566v1.938h-1.936v-1.938H15.022L15.022,187.566
					z"/>
			</g>
			<g>
				<path fill="#896FB6" d="M18.104,188.357h-0.356v0.355h0.356V188.357 M18.895,187.566v1.938h-1.936v-1.938H18.895L18.895,187.566
					z"/>
			</g>
			<g>
				<path fill="#896FB6" d="M21.978,188.357h-0.355v0.355h0.355V188.357 M22.768,187.566v1.938h-1.936v-1.938H22.768L22.768,187.566
					z"/>
			</g>
			<g>
				<path fill="#896FB6" d="M25.852,188.357h-0.357v0.355h0.357V188.357 M26.642,187.566v1.938h-1.938v-1.938H26.642L26.642,187.566
					z"/>
			</g>
			<g>
				<path fill="#896FB6" d="M29.724,188.357h-0.355v0.355h0.355V188.357 M30.514,187.566v1.938h-1.936v-1.938H30.514L30.514,187.566
					z"/>
			</g>
			<g>
				<path fill="#896FB6" d="M33.597,188.357h-0.356v0.355h0.356V188.357 M34.388,187.566v1.938h-1.937v-1.938H34.388L34.388,187.566
					z"/>
			</g>
			<g>
				<path fill="#896FB6" d="M37.471,188.357h-0.356v0.355h0.356V188.357 M38.261,187.566v1.938h-1.937v-1.938H38.261L38.261,187.566
					z"/>
			</g>
			<g>
				<path fill="#896FB6" d="M41.343,188.357h-0.355v0.355h0.355V188.357 M42.134,187.566v1.938h-1.936v-1.938H42.134L42.134,187.566
					z"/>
			</g>
			<g>
				<path fill="#896FB6" d="M45.216,188.357H44.86v0.355h0.356V188.357 M46.005,187.566v1.938H44.07v-1.938H46.005L46.005,187.566z"
					/>
			</g>
			<g>
				<path fill="#896FB6" d="M49.089,188.357h-0.356v0.355h0.356V188.357 M49.88,187.566v1.938h-1.938v-1.938H49.88L49.88,187.566z"
					/>
			</g>
			<g>
				<path fill="#896FB6" d="M52.962,188.357h-0.355v0.355h0.355V188.357 M53.753,187.566v1.938h-1.938v-1.938H53.753L53.753,187.566
					z"/>
			</g>
			<g>
				<path fill="#896FB6" d="M56.835,188.357H56.48v0.355h0.355V188.357 M57.626,187.566v1.938H55.69v-1.938H57.626L57.626,187.566z"
					/>
			</g>
			<g>
				<path fill="#896FB6" d="M60.708,188.357h-0.355v0.355h0.355V188.357 M61.5,187.566v1.938h-1.938v-1.938H61.5L61.5,187.566z"/>
			</g>
			<g>
				<path fill="#896FB6" d="M64.582,188.357h-0.354v0.355h0.354V188.357 M65.373,187.566v1.938h-1.937v-1.938H65.373L65.373,187.566
					z"/>
			</g>
			<g>
				<path fill="#896FB6" d="M68.455,188.357H68.1v0.355h0.354V188.357 M69.246,187.566v1.938H67.31v-1.938H69.246L69.246,187.566z"
					/>
			</g>
			<g>
				<path fill="#896FB6" d="M72.33,188.357h-0.355v0.355h0.355V188.357 M73.119,187.566v1.938h-1.937v-1.938H73.119L73.119,187.566z
					"/>
			</g>
			<g>
				<path fill="#896FB6" d="M76.203,188.357h-0.355v0.355h0.355V188.357 M76.992,187.566v1.938h-1.937v-1.938H76.992L76.992,187.566
					z"/>
			</g>
			<g>
				<path fill="#896FB6" d="M80.076,188.357h-0.357v0.355h0.357V188.357 M80.867,187.566v1.938h-1.938v-1.938H80.867L80.867,187.566
					z"/>
			</g>
			<g>
				<path fill="#896FB6" d="M83.947,188.357h-0.355v0.355h0.355V188.357"/>
			</g>
			<g>
				<path fill="#896FB6" d="M86.675,187.566h1.937l0,0"/>
			</g>
			<g>
				<path fill="#896FB6" d="M90.548,187.566h1.937l0,0"/>
			</g>
			<g>
				<path fill="#896FB6" d="M94.421,187.566h1.937l0,0"/>
			</g>
			<g>
				<path fill="#896FB6" d="M98.294,187.566h1.937l0,0"/>
			</g>
			<g>
				<path fill="#896FB6" d="M102.167,187.566h1.937l0,0"/>
			</g>
			<g>
				<path fill="#896FB6" d="M106.041,187.566h1.938l0,0"/>
			</g>
			<g>
				<path fill="#896FB6" d="M109.914,187.566h1.938l0,0"/>
			</g>
			<g>
				<path fill="#896FB6" d="M113.787,187.566h1.938l0,0"/>
			</g>
			<g>
				<path fill="#896FB6" d="M117.66,187.566h1.938l0,0"/>
			</g>
			<g>
				<path fill="#896FB6" d="M80.898,187.566h1.938l0,0"/>
			</g>
			<g>
				<path fill="#896FB6" d="M84.771,187.566h1.938l0,0"/>
			</g>
			<g>
				<path fill="#896FB6" d="M88.645,187.566h1.937l0,0"/>
			</g>
			<g>
				<path fill="#896FB6" d="M92.518,187.566h1.938l0,0"/>
			</g>
			<g>
				<path fill="#ECF9E1" d="M93.666,186.421H-12.285v0.356H93.666V186.421 M94.455,185.631v1.938h-107.53v-1.938H94.455
					L94.455,185.631z"/>
			</g>
		</g>
	</g>
	<g>
		<path fill="none" stroke="#D4D4D4" stroke-width="0.7901" stroke-miterlimit="10" d="M43.712,120.355l-3.96,3.959l-3.96-3.959
			l3.96-3.959L43.712,120.355z M39.752,121.473l1.117-1.115l-1.117-1.116l-1.117,1.116L39.752,121.473z"/>
		<path fill="none" stroke="#D4D4D4" stroke-width="0.7901" stroke-miterlimit="10" d="M48.112,120.355l-8.359,8.358l-8.36-8.358
			l8.36-8.358L48.112,120.355z"/>
		<polygon fill="none" stroke="#ECF9E1" stroke-miterlimit="10" points="83.403,119.52 79.878,119.521 79.878,115.994 
			79.878,115.994 		"/>
		<polygon fill="none" stroke="#D4D4D4" stroke-width="0.7901" stroke-miterlimit="10" points="75.388,119.52 78.914,119.521 
			78.914,115.994 78.914,115.994 		"/>
		<path fill="none" stroke="#D4D4D4" stroke-width="0.7901" stroke-miterlimit="10" d="M43.712,173.292l-3.96,3.959l-3.96-3.959
			l3.96-3.959L43.712,173.292z M39.752,174.409l1.117-1.116l-1.117-1.117l-1.117,1.117L39.752,174.409z"/>
		<path fill="none" stroke="#D4D4D4" stroke-width="0.7901" stroke-miterlimit="10" d="M48.112,173.292l-8.359,8.358l-8.36-8.358
			l8.36-8.358L48.112,173.292z"/>
		<polygon fill="none" stroke="#ECF9E1" stroke-miterlimit="10" points="43.705,146.958 40.178,146.956 40.178,150.482 
			40.179,150.482 		"/>
		<polygon fill="none" stroke="#D4D4D4" stroke-width="0.7901" stroke-miterlimit="10" points="35.685,146.958 39.21,146.956 
			39.21,150.482 39.21,150.482 		"/>
		<polygon fill="none" stroke="#ECF9E1" stroke-miterlimit="10" points="43.701,145.988 40.174,145.989 40.174,142.462 
			40.174,142.462 		"/>
		<polygon fill="none" stroke="#D4D4D4" stroke-width="0.7901" stroke-miterlimit="10" points="35.685,145.988 39.21,145.989 
			39.21,142.462 39.21,142.462 		"/>
		<polygon fill="none" stroke="#ECF9E1" stroke-miterlimit="10" points="83.403,172.455 79.878,172.457 79.878,168.93 
			79.878,168.93 		"/>
		<polygon fill="none" stroke="#D4D4D4" stroke-width="0.7901" stroke-miterlimit="10" points="75.388,172.455 78.914,172.457 
			78.914,168.93 78.914,168.93 		"/>
		
			<rect x="65.167" y="119.446" transform="matrix(0.7074 0.7068 -0.7068 0.7074 104.406 -11.4859)" fill="#D6979E" width="1.817" height="1.815"/>
		<path fill="none" stroke="#D4D4D4" stroke-width="0.7901" stroke-miterlimit="10" d="M43.712,120.355l-3.96,3.959l-3.96-3.959
			l3.96-3.959L43.712,120.355z M39.752,121.473l1.117-1.117l-1.117-1.115l-1.117,1.115L39.752,121.473z"/>
		<path fill="none" stroke="#D4D4D4" stroke-width="0.7901" stroke-miterlimit="10" d="M48.112,120.355l-8.359,8.358l-8.36-8.358
			l8.36-8.359L48.112,120.355z"/>
		
			<rect x="52.027" y="145.915" transform="matrix(-0.7074 -0.7068 0.7068 -0.7074 -13.3995 288.0973)" fill="#D6979E" width="1.815" height="1.815"/>
		<path fill="none" stroke="#C8E7AB" stroke-width="0.7901" stroke-miterlimit="10" d="M79.457,147.939l1.115-1.115l-1.115-1.117
			l-1.117,1.117L79.457,147.939z"/>
		<path fill="none" stroke="#C8E7AB" stroke-width="0.7901" stroke-miterlimit="10" d="M87.815,146.824l-8.358,8.359l-8.359-8.359
			l8.359-8.36L87.815,146.824z"/>
		<polygon fill="none" stroke="#ECF9E1" stroke-miterlimit="10" points="83.408,120.489 79.882,120.488 79.882,124.014 
			79.882,124.014 		"/>
		<polygon fill="none" stroke="#ECF9E1" stroke-miterlimit="10" points="75.388,120.489 78.914,120.488 78.914,124.014 
			78.914,124.014 		"/>
		<polygon fill="none" stroke="#ECF9E1" stroke-miterlimit="10" points="83.403,119.52 79.878,119.521 79.878,115.994 
			79.878,115.994 		"/>
		<polygon fill="none" stroke="#ECF9E1" stroke-miterlimit="10" points="75.388,119.52 78.914,119.521 78.914,115.994 
			78.914,115.994 		"/>
		<rect x="78.914" y="119.521" fill="none" stroke="#896FB6" stroke-miterlimit="10" width="0.971" height="0.971"/>
		<line fill="#ECF9E1" x1="40.174" y1="195.398" x2="40.174" y2="195.398"/>
		<line fill="#ECF9E1" x1="39.21" y1="195.398" x2="39.21" y2="195.398"/>
		
			<rect x="65.158" y="172.376" transform="matrix(0.7074 0.7068 -0.7068 0.7074 141.8163 4.0093)" fill="#D6979E" width="1.815" height="1.817"/>
		<path fill="none" stroke="#D4D4D4" stroke-width="0.7901" stroke-miterlimit="10" d="M43.712,173.292l-3.96,3.959l-3.96-3.959
			l3.96-3.959L43.712,173.292z M39.752,174.408l1.117-1.116l-1.117-1.117l-1.117,1.117L39.752,174.408z"/>
		<path fill="none" stroke="#D4D4D4" stroke-width="0.7901" stroke-miterlimit="10" d="M48.112,173.292l-8.359,8.358l-8.36-8.358
			l8.36-8.36L48.112,173.292z"/>
		<polygon fill="none" stroke="#ECF9E1" stroke-miterlimit="10" points="83.408,173.425 79.882,173.423 79.882,176.95 
			79.882,176.95 		"/>
		<polygon fill="none" stroke="#ECF9E1" stroke-miterlimit="10" points="75.388,173.425 78.914,173.423 78.914,176.95 
			78.914,176.95 		"/>
		<polygon fill="none" stroke="#ECF9E1" stroke-miterlimit="10" points="83.403,172.455 79.878,172.457 79.878,168.93 
			79.878,168.93 		"/>
		<polygon fill="none" stroke="#ECF9E1" stroke-miterlimit="10" points="75.388,172.455 78.914,172.457 78.914,168.93 
			78.914,168.93 		"/>
		<rect x="78.914" y="172.457" fill="none" stroke="#896FB6" stroke-miterlimit="10" width="0.971" height="0.971"/>
		<polygon fill="none" stroke="#D4D4D4" stroke-width="0.7901" stroke-miterlimit="10" points="3.996,119.52 0.471,119.521 
			0.471,115.994 0.471,115.994 		"/>
		<polygon fill="none" stroke="#D4D4D4" stroke-width="0.7901" stroke-miterlimit="10" points="-4.019,119.52 -0.493,119.521 
			-0.493,115.994 -0.494,115.994 		"/>
		<path fill="none" stroke="#D4D4D4" stroke-width="0.7901" stroke-miterlimit="10" d="M43.712,120.355l-3.96,3.959l-3.959-3.959
			l3.959-3.959L43.712,120.355z M39.752,121.473l1.117-1.115l-1.117-1.116l-1.116,1.116L39.752,121.473z"/>
		<path fill="none" stroke="#D4D4D4" stroke-width="0.7901" stroke-miterlimit="10" d="M48.112,120.355l-8.36,8.358l-8.36-8.358
			l8.36-8.358L48.112,120.355z"/>
		<polygon fill="none" stroke="#D4D4D4" stroke-width="0.7901" stroke-miterlimit="10" points="3.996,172.455 0.471,172.457 
			0.471,168.93 0.471,168.93 		"/>
		<polygon fill="none" stroke="#ECF9E1" stroke-miterlimit="10" points="-4.019,172.455 -0.493,172.457 -0.493,168.93 
			-0.494,168.93 		"/>
		<path fill="none" stroke="#D4D4D4" stroke-width="0.7901" stroke-miterlimit="10" d="M43.712,173.292l-3.96,3.959l-3.959-3.959
			l3.959-3.959L43.712,173.292z M39.752,174.409l1.117-1.116l-1.117-1.117l-1.116,1.117L39.752,174.409z"/>
		<path fill="none" stroke="#D4D4D4" stroke-width="0.7901" stroke-miterlimit="10" d="M48.112,173.292l-8.36,8.358l-8.36-8.358
			l8.36-8.358L48.112,173.292z"/>
		<polygon fill="none" stroke="#ECF9E1" stroke-miterlimit="10" points="35.685,146.958 39.21,146.956 39.21,150.482 39.21,150.482 
					"/>
		<polygon fill="none" stroke="#ECF9E1" stroke-miterlimit="10" points="35.685,145.988 39.21,145.989 39.21,142.462 39.21,142.462 
					"/>
		
			<rect x="25.464" y="145.912" transform="matrix(0.7074 0.7068 -0.7068 0.7074 111.4948 24.3226)" fill="#D6979E" width="1.815" height="1.816"/>
		<path fill="none" stroke="#CADEBD" stroke-width="0.7901" stroke-miterlimit="10" d="M0.049,147.939l1.116-1.115l-1.116-1.117
			l-1.117,1.117L0.049,147.939z"/>
		<path fill="none" stroke="#C8E7AB" stroke-width="0.7901" stroke-miterlimit="10" d="M8.408,146.824l-8.359,8.359l-8.36-8.359
			l8.36-8.36L8.408,146.824z"/>
		<polygon fill="none" stroke="#ECF9E1" stroke-miterlimit="10" points="4,120.489 0.475,120.488 0.475,124.014 0.475,124.014 		"/>
		<polygon fill="none" stroke="#ECF9E1" stroke-miterlimit="10" points="-4.019,120.489 -0.493,120.488 -0.493,124.014 
			-0.494,124.014 		"/>
		<polygon fill="none" stroke="#ECF9E1" stroke-miterlimit="10" points="3.996,119.52 0.471,119.521 0.471,115.994 0.471,115.994 		
			"/>
		<polygon fill="none" stroke="#ECF9E1" stroke-miterlimit="10" points="-4.019,119.52 -0.493,119.521 -0.493,115.994 
			-0.494,115.994 		"/>
		<rect x="-0.493" y="119.521" fill="none" stroke="#896FB6" stroke-miterlimit="10" width="0.971" height="0.971"/>
		
			<rect x="12.321" y="119.441" transform="matrix(-0.7071 -0.7071 0.7071 -0.7071 -62.5152 214.8026)" fill="#D6979E" width="1.816" height="1.815"/>
		<path fill="none" stroke="#CADEBD" stroke-width="0.7901" stroke-miterlimit="10" d="M43.712,120.355l-3.96,3.959l-3.959-3.959
			l3.959-3.959L43.712,120.355z M39.752,121.473l1.117-1.117l-1.117-1.115l-1.116,1.115L39.752,121.473z"/>
		<path fill="none" stroke="#C8E7AB" stroke-width="0.7901" stroke-miterlimit="10" d="M48.112,120.355l-8.36,8.358l-8.36-8.358
			l8.36-8.359L48.112,120.355z"/>
		<line fill="#ECF9E1" x1="39.21" y1="195.398" x2="39.21" y2="195.398"/>
		<polygon fill="none" stroke="#ECF9E1" stroke-miterlimit="10" points="4,173.425 0.475,173.423 0.475,176.95 0.475,176.95 		"/>
		<polygon fill="none" stroke="#ECF9E1" stroke-miterlimit="10" points="-4.019,173.425 -0.493,173.423 -0.493,176.95 
			-0.494,176.95 		"/>
		<polygon fill="none" stroke="#ECF9E1" stroke-miterlimit="10" points="3.996,172.455 0.471,172.457 0.471,168.93 0.471,168.93 		
			"/>
		<polygon fill="none" stroke="#ECF9E1" stroke-miterlimit="10" points="-4.019,172.455 -0.493,172.457 -0.493,168.93 
			-0.494,168.93 		"/>
		<rect x="-0.493" y="172.457" fill="none" stroke="#896FB6" stroke-miterlimit="10" width="0.971" height="0.971"/>
		
			<rect x="12.324" y="172.378" transform="matrix(-0.7075 -0.7067 0.7067 -0.7075 -99.8686 305.2387)" fill="#D6979E" width="1.816" height="1.816"/>
		<path fill="none" stroke="#CADEBD" stroke-width="0.7901" stroke-miterlimit="10" d="M43.712,173.292l-3.96,3.959l-3.959-3.959
			l3.959-3.959L43.712,173.292z M39.752,174.408l1.117-1.116l-1.117-1.117l-1.116,1.117L39.752,174.408z"/>
		<path fill="none" stroke="#C8E7AB" stroke-width="0.7901" stroke-miterlimit="10" d="M48.112,173.292l-8.36,8.358l-8.36-8.358
			l8.36-8.36L48.112,173.292z"/>
	</g>
	<g>
		<g>
			<g>
				<path fill="#ECF9E1" d="M-3.197,103.381v-0.355h-0.356v0.355H-3.197 M-2.407,104.171h-1.937v-1.937h1.937V104.171
					L-2.407,104.171z"/>
			</g>
			<g>
				<path fill="#ECF9E1" d="M0.676,103.381v-0.355H0.32v0.355H0.676 M1.466,104.171H-0.47v-1.937h1.937L1.466,104.171L1.466,104.171
					z"/>
			</g>
			<g>
				<path fill="#ECF9E1" d="M4.548,103.381v-0.355H4.192v0.355H4.548 M5.338,104.171H3.402v-1.937h1.936V104.171L5.338,104.171z"/>
			</g>
			<g>
				<path fill="#ECF9E1" d="M8.421,103.381v-0.355H8.066v0.355H8.421 M9.211,104.171H7.276v-1.937h1.936L9.211,104.171
					L9.211,104.171z"/>
			</g>
			<g>
				<path fill="#ECF9E1" d="M12.296,103.381v-0.355h-0.357v0.355H12.296 M13.086,104.171h-1.938v-1.937h1.938V104.171
					L13.086,104.171z"/>
			</g>
			<g>
				<path fill="#ECF9E1" d="M16.168,103.381v-0.355h-0.356v0.355H16.168 M16.958,104.171h-1.937v-1.937h1.937V104.171
					L16.958,104.171z"/>
			</g>
			<g>
				<path fill="#ECF9E1" d="M20.042,103.381v-0.355h-0.357v0.355H20.042 M20.832,104.171h-1.938v-1.937h1.938V104.171
					L20.832,104.171z"/>
			</g>
			<g>
				<path fill="#ECF9E1" d="M23.915,103.381v-0.355h-0.356v0.355H23.915 M24.705,104.171h-1.937v-1.937h1.937V104.171
					L24.705,104.171z"/>
			</g>
			<g>
				<path fill="#ECF9E1" d="M27.788,103.381v-0.355h-0.356v0.355H27.788 M28.578,104.171h-1.936v-1.937h1.936V104.171
					L28.578,104.171z"/>
			</g>
			<g>
				<path fill="#ECF9E1" d="M31.661,103.381v-0.355h-0.356v0.355H31.661 M32.451,104.171h-1.937v-1.937h1.937V104.171
					L32.451,104.171z"/>
			</g>
			<g>
				<path fill="#ECF9E1" d="M35.534,103.381v-0.355h-0.356v0.355H35.534 M36.324,104.171h-1.937v-1.937h1.937V104.171
					L36.324,104.171z"/>
			</g>
			<g>
				<path fill="#ECF9E1" d="M39.408,103.381v-0.355h-0.357v0.355H39.408 M40.198,104.171h-1.937v-1.937h1.937V104.171
					L40.198,104.171z"/>
			</g>
			<g>
				<path fill="#ECF9E1" d="M43.28,103.381v-0.355h-0.356v0.355H43.28 M44.07,104.171h-1.938v-1.937h1.938V104.171L44.07,104.171z"
					/>
			</g>
			<g>
				<path fill="#ECF9E1" d="M47.153,103.381v-0.355h-0.356v0.355H47.153 M47.943,104.171h-1.938v-1.937h1.938V104.171
					L47.943,104.171z"/>
			</g>
			<g>
				<path fill="#ECF9E1" d="M51.026,103.381v-0.355h-0.356v0.355H51.026 M51.816,104.171H49.88v-1.937h1.936V104.171L51.816,104.171
					z"/>
			</g>
			<g>
				<path fill="#ECF9E1" d="M54.9,103.381v-0.355h-0.357v0.355H54.9 M55.69,104.171h-1.937v-1.937h1.937V104.171L55.69,104.171z"/>
			</g>
			<g>
				<path fill="#ECF9E1" d="M58.772,103.381v-0.355h-0.356v0.355H58.772 M59.562,104.171h-1.936v-1.937h1.936V104.171
					L59.562,104.171z"/>
			</g>
			<g>
				<path fill="#ECF9E1" d="M62.646,103.381v-0.355h-0.355v0.355H62.646 M63.436,104.171H61.5v-1.937h1.938L63.436,104.171
					L63.436,104.171z"/>
			</g>
			<g>
				<path fill="#ECF9E1" d="M66.52,103.381v-0.355h-0.356v0.355H66.52 M67.31,104.171h-1.938v-1.937h1.938V104.171L67.31,104.171z"
					/>
			</g>
			<g>
				<path fill="#ECF9E1" d="M70.392,103.381v-0.355h-0.355v0.355H70.392 M71.182,104.171h-1.937v-1.937h1.937V104.171
					L71.182,104.171z"/>
			</g>
			<g>
				<path fill="#ECF9E1" d="M74.266,103.381v-0.355H73.91v0.355H74.266 M75.056,104.171h-1.938v-1.937h1.938V104.171L75.056,104.171
					z"/>
			</g>
			<g>
				<path fill="#ECF9E1" d="M78.138,103.381v-0.355h-0.355v0.355H78.138 M78.928,104.171h-1.937v-1.937h1.937V104.171
					L78.928,104.171z"/>
			</g>
			<g>
				<path fill="#ECF9E1" d="M82.012,103.381v-0.355h-0.356v0.355H82.012 M82.802,104.171h-1.936v-1.937h1.936V104.171
					L82.802,104.171z"/>
			</g>
			<g>
				<path fill="#896FB6" d="M-5.134,105.318v-0.356H-5.49v0.356H-5.134 M-4.344,106.107h-1.938v-1.938h1.938V106.107L-4.344,106.107
					z"/>
			</g>
			<g>
				<path fill="#896FB6" d="M-1.261,105.318v-0.356h-0.356v0.356H-1.261 M-0.47,106.107h-1.937v-1.938h1.937V106.107L-0.47,106.107z
					"/>
			</g>
			<g>
				<path fill="#896FB6" d="M2.612,105.318v-0.356H2.256v0.356H2.612 M3.402,106.107H1.466v-1.938h1.936V106.107L3.402,106.107z"/>
			</g>
			<g>
				<path fill="#896FB6" d="M6.485,105.318v-0.356H6.128v0.356H6.485 M7.276,106.107H5.338v-1.938h1.938V106.107L7.276,106.107z"/>
			</g>
			<g>
				<path fill="#896FB6" d="M10.358,105.318v-0.356h-0.356v0.356H10.358 M11.148,106.107H9.211v-1.938h1.937V106.107L11.148,106.107
					z"/>
			</g>
			<g>
				<path fill="#896FB6" d="M14.231,105.318v-0.356h-0.355v0.356H14.231 M15.022,106.107h-1.936v-1.938h1.936V106.107
					L15.022,106.107z"/>
			</g>
			<g>
				<path fill="#896FB6" d="M18.104,105.318v-0.356h-0.356v0.356H18.104 M18.895,106.107h-1.936v-1.938h1.936V106.107
					L18.895,106.107z"/>
			</g>
			<g>
				<path fill="#896FB6" d="M21.978,105.318v-0.356h-0.355v0.356H21.978 M22.768,106.107h-1.936v-1.938h1.936V106.107
					L22.768,106.107z"/>
			</g>
			<g>
				<path fill="#896FB6" d="M25.852,105.318v-0.356h-0.357v0.356H25.852 M26.642,106.107h-1.938v-1.938h1.938V106.107
					L26.642,106.107z"/>
			</g>
			<g>
				<path fill="#896FB6" d="M29.724,105.318v-0.356h-0.355v0.356H29.724 M30.514,106.107h-1.936v-1.938h1.936V106.107
					L30.514,106.107z"/>
			</g>
			<g>
				<path fill="#896FB6" d="M33.597,105.318v-0.356h-0.356v0.356H33.597 M34.388,106.107h-1.937v-1.938h1.937V106.107
					L34.388,106.107z"/>
			</g>
			<g>
				<path fill="#896FB6" d="M37.471,105.318v-0.356h-0.356v0.356H37.471 M38.261,106.107h-1.937v-1.938h1.937V106.107
					L38.261,106.107z"/>
			</g>
			<g>
				<path fill="#896FB6" d="M41.343,105.318v-0.356h-0.355v0.356H41.343 M42.134,106.107h-1.936v-1.938h1.936V106.107
					L42.134,106.107z"/>
			</g>
			<g>
				<path fill="#896FB6" d="M45.216,105.318v-0.356H44.86v0.356H45.216 M46.005,106.107H44.07v-1.938h1.936V106.107L46.005,106.107z
					"/>
			</g>
			<g>
				<path fill="#896FB6" d="M49.089,105.318v-0.356h-0.356v0.356H49.089 M49.88,106.107h-1.938v-1.938h1.938V106.107L49.88,106.107z
					"/>
			</g>
			<g>
				<path fill="#896FB6" d="M52.962,105.318v-0.356h-0.355v0.356H52.962 M53.753,106.107h-1.938v-1.938h1.938V106.107
					L53.753,106.107z"/>
			</g>
			<g>
				<path fill="#896FB6" d="M56.835,105.318v-0.356H56.48v0.356H56.835 M57.626,106.107H55.69v-1.938h1.937V106.107L57.626,106.107z
					"/>
			</g>
			<g>
				<path fill="#896FB6" d="M60.708,105.318v-0.356h-0.355v0.356H60.708 M61.5,106.107h-1.938v-1.938H61.5V106.107L61.5,106.107z"/>
			</g>
			<g>
				<path fill="#896FB6" d="M64.582,105.318v-0.356h-0.354v0.356H64.582 M65.373,106.107h-1.937v-1.938h1.937V106.107
					L65.373,106.107z"/>
			</g>
			<g>
				<path fill="#896FB6" d="M68.455,105.318v-0.356H68.1v0.356H68.455 M69.246,106.107H67.31v-1.938h1.936V106.107L69.246,106.107z"
					/>
			</g>
			<g>
				<path fill="#896FB6" d="M72.33,105.318v-0.356h-0.355v0.356H72.33 M73.119,106.107h-1.937v-1.938h1.937V106.107L73.119,106.107z
					"/>
			</g>
			<g>
				<path fill="#896FB6" d="M76.203,105.318v-0.356h-0.355v0.356H76.203 M76.992,106.107h-1.937v-1.938h1.937V106.107
					L76.992,106.107z"/>
			</g>
			<g>
				<path fill="#896FB6" d="M80.076,105.318v-0.356h-0.357v0.356H80.076 M80.867,106.107h-1.938v-1.938h1.938V106.107
					L80.867,106.107z"/>
			</g>
			<g>
				<path fill="#ECF9E1" d="M83.666,107.255v-0.356H-2.285v0.356H83.666 M84.455,108.045h-87.53v-1.938h87.53V108.045
					L84.455,108.045z"/>
			</g>
		</g>
	</g>
	<g>
		
			<rect x="36.948" y="117.564" transform="matrix(0.7072 -0.707 0.707 0.7072 -73.4571 63.3389)" fill="none" stroke="#62C3B7" stroke-miterlimit="10" width="5.6" height="5.598"/>
		
			<rect x="36.947" y="170.502" transform="matrix(0.7072 -0.707 0.707 0.7072 -110.8891 78.845)" fill="none" stroke="#62C3B7" stroke-miterlimit="10" width="5.6" height="5.599"/>
	</g>
	<rect x="39.133" y="146.029" fill="none" stroke="#896FB6" stroke-miterlimit="10" width="0.971" height="0.971"/>
</g>
</svg>
