<?xml version="1.0" encoding="utf-8"?>
<!-- Generator: Adobe Illustrator 16.0.0, SVG Export Plug-In . SVG Version: 6.00 Build 0)  -->
<!DOCTYPE svg PUBLIC "-//W3C//DTD SVG 1.1//EN" "http://www.w3.org/Graphics/SVG/1.1/DTD/svg11.dtd">
<svg version="1.1" xmlns="http://www.w3.org/2000/svg" xmlns:xlink="http://www.w3.org/1999/xlink" x="0px" y="0px"
	 width="100.417px" height="194px" viewBox="0 0 100.417 194" enable-background="new 0 0 100.417 194" xml:space="preserve">
<g id="Layer_2">
	<rect x="-1" fill="#FFFFFF" width="101.75" height="93.891"/>
	<g>
		<path fill="#CCCCCC" d="M0.226,89.298V88.96h-0.337v0.338H0.226 M0.976,90.047H-0.86v-1.835h1.836V90.047L0.976,90.047z"/>
		<path fill="#CCCCCC" d="M3.898,89.298V88.96H3.56v0.338H3.898 M4.647,90.047H2.812v-1.835h1.835V90.047L4.647,90.047z"/>
		<path fill="#CCCCCC" d="M7.57,89.298V88.96H7.231v0.338H7.57 M8.319,90.047H6.483v-1.835h1.836V90.047L8.319,90.047z"/>
		<path fill="#CCCCCC" d="M11.241,89.298V88.96h-0.338v0.338H11.241 M11.99,90.047h-1.835v-1.835h1.835V90.047L11.99,90.047z"/>
		<path fill="#CCCCCC" d="M14.913,89.298V88.96h-0.339v0.338H14.913 M15.661,90.047h-1.836v-1.835h1.836V90.047L15.661,90.047z"/>
		<path fill="#CCCCCC" d="M18.583,89.298V88.96h-0.338v0.338H18.583 M19.332,90.047h-1.835v-1.835h1.835V90.047L19.332,90.047z"/>
		<path fill="#CCCCCC" d="M22.254,89.298V88.96h-0.337v0.338H22.254 M23.003,90.047h-1.835v-1.835h1.835V90.047L23.003,90.047z"/>
		<path fill="#CCCCCC" d="M25.925,89.298V88.96h-0.339v0.338H25.925 M26.674,90.047h-1.836v-1.835h1.836V90.047L26.674,90.047z"/>
		<path fill="#CCCCCC" d="M29.596,89.298V88.96h-0.337v0.338H29.596 M30.345,90.047h-1.836v-1.835h1.836V90.047L30.345,90.047z"/>
		<path fill="#CCCCCC" d="M33.268,89.298V88.96H32.93v0.338H33.268 M34.016,90.047h-1.835v-1.835h1.835V90.047L34.016,90.047z"/>
		<path fill="#CCCCCC" d="M36.938,89.298V88.96h-0.337v0.338H36.938 M37.688,90.047h-1.836v-1.835h1.836V90.047L37.688,90.047z"/>
		<path fill="#CCCCCC" d="M40.609,89.298V88.96h-0.337v0.338H40.609 M41.358,90.047h-1.836v-1.835h1.836V90.047L41.358,90.047z"/>
		<path fill="#CCCCCC" d="M44.28,89.298V88.96h-0.336v0.338H44.28 M45.03,90.047h-1.836v-1.835h1.836V90.047L45.03,90.047z"/>
		<path fill="#CCCCCC" d="M47.953,89.298V88.96h-0.338v0.338H47.953 M48.701,90.047h-1.836v-1.835h1.836V90.047L48.701,90.047z"/>
		<path fill="#CCCCCC" d="M51.623,89.298V88.96h-0.337v0.338H51.623 M52.372,90.047h-1.835v-1.835h1.835V90.047L52.372,90.047z"/>
		<path fill="#CCCCCC" d="M55.294,89.298V88.96h-0.338v0.338H55.294 M56.043,90.047h-1.836v-1.835h1.836V90.047L56.043,90.047z"/>
		<path fill="#CCCCCC" d="M58.966,89.298V88.96h-0.34v0.338H58.966 M59.714,90.047h-1.836v-1.835h1.836V90.047L59.714,90.047z"/>
		<path fill="#CCCCCC" d="M62.637,89.298V88.96h-0.339v0.338H62.637 M63.385,90.047h-1.836v-1.835h1.836V90.047L63.385,90.047z"/>
		<path fill="#CCCCCC" d="M66.308,89.298V88.96h-0.339v0.338H66.308 M67.057,90.047h-1.836v-1.835h1.836V90.047L67.057,90.047z"/>
		<path fill="#CCCCCC" d="M69.978,89.298V88.96h-0.337v0.338H69.978 M70.727,90.047h-1.835v-1.835h1.835V90.047L70.727,90.047z"/>
		<path fill="#CCCCCC" d="M73.65,89.298V88.96h-0.337v0.338H73.65 M74.399,90.047h-1.835v-1.835h1.835V90.047L74.399,90.047z"/>
		<path fill="#CCCCCC" d="M77.322,89.298V88.96h-0.339v0.338H77.322 M78.071,90.047h-1.837v-1.835h1.837V90.047L78.071,90.047z"/>
		<path fill="#CCCCCC" d="M80.992,89.298V88.96h-0.337v0.338H80.992 M81.742,90.047h-1.836v-1.835h1.836V90.047L81.742,90.047z"/>
		<path fill="#CCCCCC" d="M84.664,89.298V88.96h-0.338v0.338H84.664 M85.413,90.047h-1.836v-1.835h1.836V90.047L85.413,90.047z"/>
		<path fill="#CCCCCC" d="M88.333,89.298V88.96h-0.336v0.338H88.333 M89.083,90.047h-1.836v-1.835h1.836V90.047L89.083,90.047z"/>
		<path fill="#CCCCCC" d="M92.004,89.298V88.96h-0.337v0.338H92.004 M92.753,90.047h-1.835v-1.835h1.835V90.047L92.753,90.047z"/>
		<path fill="#CCCCCC" d="M95.677,89.298V88.96h-0.338v0.338H95.677 M96.426,90.047h-1.835v-1.835h1.835V90.047L96.426,90.047z"/>
		<path fill="#CCCCCC" d="M99.348,89.298V88.96H99.01v0.338H99.348 M100.096,90.047h-1.835v-1.835h1.835V90.047L100.096,90.047z"/>
		<path fill="#CCCCCC" d="M-1.608,91.135v-0.338h-0.339v0.338H-1.608 M-0.86,91.883h-1.835v-1.836h1.835V91.883L-0.86,91.883z"/>
		<path fill="#CCCCCC" d="M2.063,91.135v-0.338H1.724v0.338H2.063 M2.812,91.883H0.976v-1.836h1.836V91.883L2.812,91.883z"/>
		<path fill="#CCCCCC" d="M5.734,91.135v-0.338H5.395v0.338H5.734 M6.483,91.883H4.647v-1.836h1.836V91.883L6.483,91.883z"/>
		<path fill="#CCCCCC" d="M9.405,91.135v-0.338H9.068v0.338H9.405 M10.155,91.883H8.319v-1.836h1.836V91.883L10.155,91.883z"/>
		<path fill="#CCCCCC" d="M13.076,91.135v-0.338h-0.337v0.338H13.076 M13.825,91.883H11.99v-1.836h1.835V91.883L13.825,91.883z"/>
		<path fill="#CCCCCC" d="M16.747,91.135v-0.338h-0.336v0.338H16.747 M17.497,91.883h-1.836v-1.836h1.836V91.883L17.497,91.883z"/>
		<path fill="#CCCCCC" d="M20.419,91.135v-0.338h-0.339v0.338H20.419 M21.168,91.883h-1.837v-1.836h1.837V91.883L21.168,91.883z"/>
		<path fill="#CCCCCC" d="M24.088,91.135v-0.338h-0.336v0.338H24.088 M24.838,91.883h-1.835v-1.836h1.835V91.883L24.838,91.883z"/>
		<path fill="#CCCCCC" d="M27.761,91.135v-0.338h-0.338v0.338H27.761 M28.509,91.883h-1.835v-1.836h1.835V91.883L28.509,91.883z"/>
		<path fill="#CCCCCC" d="M31.432,91.135v-0.338h-0.338v0.338H31.432 M32.181,91.883h-1.836v-1.836h1.836V91.883L32.181,91.883z"/>
		<path fill="#CCCCCC" d="M35.103,91.135v-0.338h-0.337v0.338H35.103 M35.852,91.883h-1.836v-1.836h1.836V91.883L35.852,91.883z"/>
		<path fill="#CCCCCC" d="M38.774,91.135v-0.338h-0.338v0.338H38.774 M39.522,91.883h-1.834v-1.836h1.834V91.883L39.522,91.883z"/>
		<path fill="#CCCCCC" d="M42.446,91.135v-0.338h-0.339v0.338H42.446 M43.194,91.883h-1.836v-1.836h1.836V91.883L43.194,91.883z"/>
		<path fill="#CCCCCC" d="M46.117,91.135v-0.338h-0.339v0.338H46.117 M46.865,91.883H45.03v-1.836h1.835V91.883L46.865,91.883z"/>
		<path fill="#CCCCCC" d="M49.788,91.135v-0.338H49.45v0.338H49.788 M50.537,91.883h-1.836v-1.836h1.836V91.883L50.537,91.883z"/>
		<path fill="#CCCCCC" d="M53.458,91.135v-0.338h-0.337v0.338H53.458 M54.208,91.883h-1.836v-1.836h1.836V91.883L54.208,91.883z"/>
		<path fill="#CCCCCC" d="M57.129,91.135v-0.338h-0.337v0.338H57.129 M57.878,91.883h-1.835v-1.836h1.835V91.883L57.878,91.883z"/>
		<path fill="#CCCCCC" d="M60.801,91.135v-0.338h-0.338v0.338H60.801 M61.549,91.883h-1.835v-1.836h1.835V91.883L61.549,91.883z"/>
		<path fill="#CCCCCC" d="M64.472,91.135v-0.338h-0.338v0.338H64.472 M65.221,91.883h-1.836v-1.836h1.836V91.883L65.221,91.883z"/>
		<path fill="#CCCCCC" d="M68.144,91.135v-0.338h-0.339v0.338H68.144 M68.892,91.883h-1.835v-1.836h1.835V91.883L68.892,91.883z"/>
		<path fill="#CCCCCC" d="M71.815,91.135v-0.338h-0.339v0.338H71.815 M72.564,91.883h-1.837v-1.836h1.837V91.883L72.564,91.883z"/>
		<path fill="#CCCCCC" d="M75.485,91.135v-0.338h-0.338v0.338H75.485 M76.234,91.883h-1.835v-1.836h1.835V91.883L76.234,91.883z"/>
		<path fill="#CCCCCC" d="M79.157,91.135v-0.338h-0.338v0.338H79.157 M79.906,91.883h-1.835v-1.836h1.835V91.883L79.906,91.883z"/>
		<path fill="#CCCCCC" d="M82.828,91.135v-0.338H82.49v0.338H82.828 M83.577,91.883h-1.835v-1.836h1.835V91.883L83.577,91.883z"/>
		<path fill="#CCCCCC" d="M86.5,91.135v-0.338h-0.338v0.338H86.5 M87.248,91.883h-1.835v-1.836h1.835V91.883L87.248,91.883z"/>
		<path fill="#CCCCCC" d="M90.17,91.135v-0.338h-0.339v0.338H90.17 M90.918,91.883h-1.835v-1.836h1.835V91.883L90.918,91.883z"/>
		<path fill="#CCCCCC" d="M93.841,91.135v-0.338h-0.339v0.338H93.841 M94.591,91.883h-1.838v-1.836h1.838V91.883L94.591,91.883z"/>
		<path fill="#CCCCCC" d="M97.512,91.135v-0.338h-0.337v0.338H97.512 M98.261,91.883h-1.835v-1.836h1.835V91.883L98.261,91.883z"/>
		<path fill="#CCCCCC" d="M101.183,91.135v-0.338h-0.337v0.338H101.183 M101.932,91.883h-1.836v-1.836h1.836V91.883L101.932,91.883z
			"/>
		<path fill="#CCCCCC" d="M141.566,92.97v-0.337H-44.164v0.337H141.566 M142.316,93.719H-44.913v-1.836h187.229V93.719
			L142.316,93.719z"/>
	</g>
	<g>
		<g>
			<path fill="#CCCCCC" d="M67.195,85.62l2.894-2.895l2.894,2.895l-2.894,2.894L67.195,85.62z M67.908,85.62l2.181,2.181
				l2.182-2.181l-2.182-2.181L67.908,85.62z"/>
		</g>
		<g>
			
				<rect x="69.45" y="72.118" transform="matrix(-0.7075 0.7067 -0.7067 -0.7075 171.1606 74.7232)" fill="#CCCCCC" width="1.333" height="1.332"/>
		</g>
		<g>
			
				<rect x="69.45" y="58.749" transform="matrix(-0.7069 0.7073 -0.7073 -0.7069 161.7074 51.8251)" fill="#CCCCCC" width="1.332" height="1.333"/>
		</g>
		<g>
			
				<rect x="82.869" y="72.169" transform="matrix(-0.7075 0.7067 -0.7067 -0.7075 194.1087 65.3254)" fill="#CCCCCC" width="1.333" height="1.332"/>
		</g>
		<g>
			
				<rect x="69.424" y="85.018" transform="matrix(-0.7069 0.7073 -0.7073 -0.7069 180.2429 96.6823)" fill="#CCCCCC" width="1.334" height="1.333"/>
		</g>
		<g>
			
				<rect x="55.99" y="72.178" transform="matrix(-0.7071 0.7071 -0.7071 -0.7071 148.2267 84.2915)" fill="#CCCCCC" width="1.333" height="1.332"/>
		</g>
		<g>
			<polygon fill="#CCCCCC" points="69.588,73.896 69.589,73.897 69.589,73.896 			"/>
		</g>
		<polygon fill="none" stroke="#CCCCCC" stroke-width="0.75" stroke-miterlimit="10" points="70.774,78.824 70.774,74.586 
			75.527,79.08 75.527,83.319 		"/>
		<path fill="#CCCCCC" d="M80.618,72.856l2.895-2.894l2.894,2.894l-2.894,2.894L80.618,72.856z M81.332,72.857l2.181,2.181
			l2.18-2.181l-2.18-2.181L81.332,72.857z"/>
		<polygon fill="none" stroke="#CCCCCC" stroke-width="0.75" stroke-miterlimit="10" points="65.13,79.07 69.289,74.646 
			69.289,78.834 65.13,83.259 		"/>
		<path fill="none" stroke="#CCCCCC" stroke-width="0.75" stroke-miterlimit="10" d="M76.458,77.778l-4.287-4.159h4.049l4.425,4.159
			H76.458z M59.551,77.778l4.424-4.159h4.045l-4.283,4.159H59.551z M69.888,73.777l0-0.029l-0.861-0.893l1.081-1.124l1.083,1.126
			l-1.089,1.13L69.888,73.777z"/>
		<polygon fill="none" stroke="#CCCCCC" stroke-width="0.75" stroke-miterlimit="10" points="70.774,66.809 75.527,62.313 
			75.527,66.552 70.774,71.047 		"/>
		<path fill="#CCCCCC" d="M67.195,59.501l2.894-2.894l2.894,2.894l-2.894,2.894L67.195,59.501z M67.908,59.501l2.181,2.181
			l2.182-2.181l-2.182-2.182L67.908,59.501z"/>
		<polygon fill="none" stroke="#CCCCCC" stroke-width="0.75" stroke-miterlimit="10" points="65.13,66.562 65.13,62.373 
			69.289,66.798 69.289,70.986 		"/>
		<polygon fill="none" stroke="#CCCCCC" stroke-width="0.75" stroke-miterlimit="10" points="71.97,72.133 76.465,67.379 
			80.704,67.379 76.209,72.133 		"/>
		<polygon fill="none" stroke="#CCCCCC" stroke-width="0.75" stroke-miterlimit="10" points="63.985,72.133 59.491,67.379 
			63.73,67.379 68.224,72.133 		"/>
		<path fill="#CCCCCC" d="M53.773,72.857l2.894-2.894l2.894,2.894l-2.894,2.894L53.773,72.857z M54.485,72.857l2.183,2.181
			l2.181-2.181l-2.181-2.181L54.485,72.857z"/>
	</g>
	<g>
		<path fill="#CCCCCC" d="M20.089,81.383l2.894,2.894l-2.894,2.895l-2.894-2.895L20.089,81.383z M20.089,86.458l2.182-2.181
			l-2.182-2.181l-2.181,2.181L20.089,86.458z"/>
		
			<rect x="19.424" y="83.545" transform="matrix(-0.7069 -0.7073 0.7073 -0.7069 -25.2687 157.9533)" fill="#CCCCCC" width="1.333" height="1.333"/>
	</g>
	<g>
		
			<rect x="88.742" y="19.232" transform="matrix(0.7074 0.7068 -0.7068 0.7074 40.4206 -57.4538)" fill="#CCCCCC" width="1.722" height="1.721"/>
		
			<rect x="88.742" y="69.408" transform="matrix(0.7074 0.7068 -0.7068 0.7074 75.886 -42.7719)" fill="#CCCCCC" width="1.722" height="1.721"/>
		
			<rect x="63.731" y="44.243" transform="matrix(-0.7071 -0.7071 0.7071 -0.7071 78.3709 122.6703)" fill="#CCCCCC" width="1.722" height="1.722"/>
		
			<rect x="88.832" y="44.32" transform="matrix(-0.7072 -0.707 0.707 -0.7072 121.1869 140.5443)" fill="#CCCCCC" width="1.722" height="1.722"/>
		
			<rect x="38.655" y="19.232" transform="matrix(-0.7072 -0.707 0.707 -0.7072 53.2589 62.2399)" fill="#CCCCCC" width="1.722" height="1.722"/>
		
			<rect x="13.554" y="19.155" transform="matrix(-0.7071 -0.7071 0.7071 -0.7071 10.4536 44.3623)" fill="#CCCCCC" width="1.721" height="1.722"/>
		
			<rect x="38.655" y="69.408" transform="matrix(-0.7072 -0.707 0.707 -0.7072 17.7864 147.9024)" fill="#CCCCCC" width="1.722" height="1.722"/>
		
			<rect x="13.554" y="69.331" transform="matrix(-0.7071 -0.7071 0.7071 -0.7071 -25.026 130.0177)" fill="#CCCCCC" width="1.721" height="1.722"/>
		
			<rect x="38.565" y="44.32" transform="matrix(0.7074 0.7068 -0.7068 0.7074 43.4711 -14.6468)" fill="#CCCCCC" width="1.722" height="1.721"/>
	</g>
	<g>
		<path fill="#CCCCCC" d="M97.177,3.633v0.338h0.337V3.633H97.177 M96.427,2.885h1.836V4.72h-1.836V2.885L96.427,2.885z"/>
		<path fill="#CCCCCC" d="M93.505,3.633v0.338h0.338V3.633H93.505 M92.756,2.885h1.835V4.72h-1.835V2.885L92.756,2.885z"/>
		<path fill="#CCCCCC" d="M89.833,3.633v0.338h0.339V3.633H89.833 M89.084,2.885h1.836V4.72h-1.836V2.885L89.084,2.885z"/>
		<path fill="#CCCCCC" d="M86.163,3.633v0.338H86.5V3.633H86.163 M85.414,2.885h1.835V4.72h-1.835V2.885L85.414,2.885z"/>
		<path fill="#CCCCCC" d="M82.491,3.633v0.338h0.339V3.633H82.491 M81.743,2.885h1.836V4.72h-1.836V2.885L81.743,2.885z"/>
		<path fill="#CCCCCC" d="M78.821,3.633v0.338h0.338V3.633H78.821 M78.072,2.885h1.835V4.72h-1.835V2.885L78.072,2.885z"/>
		<path fill="#CCCCCC" d="M75.149,3.633v0.338h0.337V3.633H75.149 M74.4,2.885h1.835V4.72H74.4V2.885L74.4,2.885z"/>
		<path fill="#CCCCCC" d="M71.478,3.633v0.338h0.339V3.633H71.478 M70.729,2.885h1.836V4.72h-1.836V2.885L70.729,2.885z"/>
		<path fill="#CCCCCC" d="M67.807,3.633v0.338h0.337V3.633H67.807 M67.058,2.885h1.836V4.72h-1.836V2.885L67.058,2.885z"/>
		<path fill="#CCCCCC" d="M64.135,3.633v0.338h0.338V3.633H64.135 M63.387,2.885h1.835V4.72h-1.835V2.885L63.387,2.885z"/>
		<path fill="#CCCCCC" d="M60.465,3.633v0.338h0.337V3.633H60.465 M59.715,2.885h1.836V4.72h-1.836V2.885L59.715,2.885z"/>
		<path fill="#CCCCCC" d="M56.794,3.633v0.338h0.337V3.633H56.794 M56.045,2.885h1.836V4.72h-1.836V2.885L56.045,2.885z"/>
		<path fill="#CCCCCC" d="M53.124,3.633v0.338h0.336V3.633H53.124 M52.374,2.885h1.836V4.72h-1.836V2.885L52.374,2.885z"/>
		<path fill="#CCCCCC" d="M49.451,3.633v0.338h0.338V3.633H49.451 M48.703,2.885h1.836V4.72h-1.836V2.885L48.703,2.885z"/>
		<path fill="#CCCCCC" d="M45.781,3.633v0.338h0.337V3.633H45.781 M45.032,2.885h1.835V4.72h-1.835V2.885L45.032,2.885z"/>
		<path fill="#CCCCCC" d="M42.109,3.633v0.338h0.338V3.633H42.109 M41.36,2.885h1.836V4.72H41.36V2.885L41.36,2.885z"/>
		<path fill="#CCCCCC" d="M38.437,3.633v0.338h0.34V3.633H38.437 M37.689,2.885h1.836V4.72h-1.836V2.885L37.689,2.885z"/>
		<path fill="#CCCCCC" d="M34.766,3.633v0.338h0.339V3.633H34.766 M34.018,2.885h1.836V4.72h-1.836V2.885L34.018,2.885z"/>
		<path fill="#CCCCCC" d="M31.095,3.633v0.338h0.339V3.633H31.095 M30.346,2.885h1.836V4.72h-1.836V2.885L30.346,2.885z"/>
		<path fill="#CCCCCC" d="M27.425,3.633v0.338h0.337V3.633H27.425 M26.676,2.885h1.835V4.72h-1.835V2.885L26.676,2.885z"/>
		<path fill="#CCCCCC" d="M23.753,3.633v0.338h0.337V3.633H23.753 M23.004,2.885h1.835V4.72h-1.835V2.885L23.004,2.885z"/>
		<path fill="#CCCCCC" d="M20.082,3.633v0.338h0.339V3.633H20.082 M19.333,2.885h1.837V4.72h-1.837V2.885L19.333,2.885z"/>
		<path fill="#CCCCCC" d="M16.412,3.633v0.338h0.337V3.633H16.412 M15.662,2.885h1.836V4.72h-1.836V2.885L15.662,2.885z"/>
		<path fill="#CCCCCC" d="M12.74,3.633v0.338h0.338V3.633H12.74 M11.991,2.885h1.836V4.72h-1.836V2.885L11.991,2.885z"/>
		<path fill="#CCCCCC" d="M9.07,3.633v0.338h0.336V3.633H9.07 M8.32,2.885h1.836V4.72H8.32V2.885L8.32,2.885z"/>
		<path fill="#CCCCCC" d="M5.399,3.633v0.338h0.337V3.633H5.399 M4.65,2.885h1.835V4.72H4.65V2.885L4.65,2.885z"/>
		<path fill="#CCCCCC" d="M1.726,3.633v0.338h0.338V3.633H1.726 M0.977,2.885h1.835V4.72H0.977V2.885L0.977,2.885z"/>
		<path fill="#CCCCCC" d="M-1.945,3.633v0.338h0.338V3.633H-1.945 M-2.693,2.885h1.835V4.72h-1.835V2.885L-2.693,2.885z"/>
		<path fill="#CCCCCC" d="M99.011,1.797v0.338h0.339V1.797H99.011 M98.263,1.049h1.835v1.836h-1.835V1.049L98.263,1.049z"/>
		<path fill="#CCCCCC" d="M95.34,1.797v0.338h0.339V1.797H95.34 M94.591,1.049h1.836v1.836h-1.836V1.049L94.591,1.049z"/>
		<path fill="#CCCCCC" d="M91.669,1.797v0.338h0.339V1.797H91.669 M90.92,1.049h1.836v1.836H90.92V1.049L90.92,1.049z"/>
		<path fill="#CCCCCC" d="M87.999,1.797v0.338h0.337V1.797H87.999 M87.249,1.049h1.836v1.836h-1.836V1.049L87.249,1.049z"/>
		<path fill="#CCCCCC" d="M84.328,1.797v0.338h0.337V1.797H84.328 M83.579,1.049h1.835v1.836h-1.835V1.049L83.579,1.049z"/>
		<path fill="#CCCCCC" d="M80.657,1.797v0.338h0.336V1.797H80.657 M79.907,1.049h1.836v1.836h-1.836V1.049L79.907,1.049z"/>
		<path fill="#CCCCCC" d="M76.984,1.797v0.338h0.339V1.797H76.984 M76.235,1.049h1.837v1.836h-1.837V1.049L76.235,1.049z"/>
		<path fill="#CCCCCC" d="M73.315,1.797v0.338h0.336V1.797H73.315 M72.565,1.049H74.4v1.836h-1.835V1.049L72.565,1.049z"/>
		<path fill="#CCCCCC" d="M69.642,1.797v0.338h0.338V1.797H69.642 M68.894,1.049h1.835v1.836h-1.835V1.049L68.894,1.049z"/>
		<path fill="#CCCCCC" d="M65.971,1.797v0.338h0.338V1.797H65.971 M65.222,1.049h1.836v1.836h-1.836V1.049L65.222,1.049z"/>
		<path fill="#CCCCCC" d="M62.3,1.797v0.338h0.337V1.797H62.3 M61.551,1.049h1.836v1.836h-1.836V1.049L61.551,1.049z"/>
		<path fill="#CCCCCC" d="M58.629,1.797v0.338h0.338V1.797H58.629 M57.881,1.049h1.834v1.836h-1.834V1.049L57.881,1.049z"/>
		<path fill="#CCCCCC" d="M54.958,1.797v0.338h0.339V1.797H54.958 M54.209,1.049h1.836v1.836h-1.836V1.049L54.209,1.049z"/>
		<path fill="#CCCCCC" d="M51.287,1.797v0.338h0.339V1.797H51.287 M50.539,1.049h1.835v1.836h-1.835V1.049L50.539,1.049z"/>
		<path fill="#CCCCCC" d="M47.616,1.797v0.338h0.338V1.797H47.616 M46.867,1.049h1.836v1.836h-1.836V1.049L46.867,1.049z"/>
		<path fill="#CCCCCC" d="M43.945,1.797v0.338h0.337V1.797H43.945 M43.196,1.049h1.836v1.836h-1.836V1.049L43.196,1.049z"/>
		<path fill="#CCCCCC" d="M40.274,1.797v0.338h0.337V1.797H40.274 M39.525,1.049h1.835v1.836h-1.835V1.049L39.525,1.049z"/>
		<path fill="#CCCCCC" d="M36.602,1.797v0.338h0.338V1.797H36.602 M35.854,1.049h1.835v1.836h-1.835V1.049L35.854,1.049z"/>
		<path fill="#CCCCCC" d="M32.931,1.797v0.338h0.338V1.797H32.931 M32.182,1.049h1.836v1.836h-1.836V1.049L32.182,1.049z"/>
		<path fill="#CCCCCC" d="M29.259,1.797v0.338h0.339V1.797H29.259 M28.511,1.049h1.835v1.836h-1.835V1.049L28.511,1.049z"/>
		<path fill="#CCCCCC" d="M25.588,1.797v0.338h0.339V1.797H25.588 M24.839,1.049h1.837v1.836h-1.837V1.049L24.839,1.049z"/>
		<path fill="#CCCCCC" d="M21.918,1.797v0.338h0.338V1.797H21.918 M21.169,1.049h1.835v1.836h-1.835V1.049L21.169,1.049z"/>
		<path fill="#CCCCCC" d="M18.247,1.797v0.338h0.338V1.797H18.247 M17.498,1.049h1.835v1.836h-1.835V1.049L17.498,1.049z"/>
		<path fill="#CCCCCC" d="M14.576,1.797v0.338h0.338V1.797H14.576 M13.827,1.049h1.835v1.836h-1.835V1.049L13.827,1.049z"/>
		<path fill="#CCCCCC" d="M10.904,1.797v0.338h0.338V1.797H10.904 M10.156,1.049h1.835v1.836h-1.835V1.049L10.156,1.049z"/>
		<path fill="#CCCCCC" d="M7.233,1.797v0.338h0.339V1.797H7.233 M6.485,1.049H8.32v1.836H6.485V1.049L6.485,1.049z"/>
		<path fill="#CCCCCC" d="M3.562,1.797v0.338h0.339V1.797H3.562 M2.812,1.049H4.65v1.836H2.812V1.049L2.812,1.049z"/>
		<path fill="#CCCCCC" d="M-0.109,1.797v0.338h0.337V1.797H-0.109 M-0.858,1.049h1.835v1.836h-1.835V1.049L-0.858,1.049z"/>
		<path fill="#CCCCCC" d="M-3.78,1.797v0.338h0.337V1.797H-3.78 M-4.529,1.049h1.836v1.836h-1.836V1.049L-4.529,1.049z"/>
		<path fill="#CCCCCC" d="M-44.163-0.038v0.337h185.729v-0.337H-44.163 M-44.913-0.788h187.229v1.836H-44.913V-0.788L-44.913-0.788z
			"/>
	</g>
	<g>
		<g>
			<path fill="#CCCCCC" d="M68.195,35.62l2.894-2.895l2.894,2.895l-2.894,2.894L68.195,35.62z M68.908,35.62l2.181,2.181
				l2.182-2.181l-2.182-2.181L68.908,35.62z"/>
		</g>
		<g>
			
				<rect x="70.45" y="22.118" transform="matrix(-0.7075 0.7067 -0.7067 -0.7075 137.5311 -11.3571)" fill="#CCCCCC" width="1.333" height="1.332"/>
		</g>
		<g>
			
				<rect x="70.45" y="8.749" transform="matrix(-0.7069 0.7073 -0.7073 -0.7069 128.0499 -34.2284)" fill="#CCCCCC" width="1.332" height="1.333"/>
		</g>
		<g>
			
				<rect x="83.869" y="22.169" transform="matrix(-0.7075 0.7067 -0.7067 -0.7075 160.4791 -20.755)" fill="#CCCCCC" width="1.333" height="1.332"/>
		</g>
		<g>
			
				<rect x="70.424" y="35.018" transform="matrix(-0.7069 0.7073 -0.7073 -0.7069 146.5854 10.6288)" fill="#CCCCCC" width="1.334" height="1.333"/>
		</g>
		<g>
			
				<rect x="56.99" y="22.178" transform="matrix(-0.7071 0.7071 -0.7071 -0.7071 114.5784 -1.771)" fill="#CCCCCC" width="1.333" height="1.332"/>
		</g>
		<g>
			<polygon fill="#CCCCCC" points="70.588,23.896 70.589,23.897 70.589,23.896 			"/>
		</g>
		<polygon fill="none" stroke="#CCCCCC" stroke-width="0.75" stroke-miterlimit="10" points="71.774,28.824 71.774,24.586 
			76.527,29.08 76.527,33.319 		"/>
		<path fill="#CCCCCC" d="M81.618,22.856l2.895-2.894l2.894,2.894l-2.894,2.894L81.618,22.856z M82.332,22.857l2.181,2.181
			l2.18-2.181l-2.18-2.181L82.332,22.857z"/>
		<polygon fill="none" stroke="#CCCCCC" stroke-width="0.75" stroke-miterlimit="10" points="66.13,29.07 70.289,24.646 
			70.289,28.834 66.13,33.259 		"/>
		<path fill="none" stroke="#CCCCCC" stroke-width="0.75" stroke-miterlimit="10" d="M77.458,27.778l-4.287-4.159h4.049l4.425,4.159
			H77.458z M60.551,27.778l4.424-4.159h4.045l-4.283,4.159H60.551z M70.888,23.777l0-0.029l-0.861-0.893l1.081-1.124l1.083,1.126
			l-1.089,1.13L70.888,23.777z"/>
		<polygon fill="none" stroke="#CCCCCC" stroke-width="0.75" stroke-miterlimit="10" points="71.774,16.809 76.527,12.313 
			76.527,16.552 71.774,21.047 		"/>
		<path fill="#CCCCCC" d="M68.195,9.501l2.894-2.894l2.894,2.894l-2.894,2.894L68.195,9.501z M68.908,9.501l2.181,2.181l2.182-2.181
			l-2.182-2.182L68.908,9.501z"/>
		<polygon fill="none" stroke="#CCCCCC" stroke-width="0.75" stroke-miterlimit="10" points="66.13,16.562 66.13,12.373 
			70.289,16.798 70.289,20.986 		"/>
		<polygon fill="none" stroke="#CCCCCC" stroke-width="0.75" stroke-miterlimit="10" points="72.97,22.133 77.465,17.379 
			81.704,17.379 77.209,22.133 		"/>
		<polygon fill="none" stroke="#CCCCCC" stroke-width="0.75" stroke-miterlimit="10" points="64.985,22.133 60.491,17.379 
			64.73,17.379 69.224,22.133 		"/>
		<path fill="#CCCCCC" d="M54.773,22.857l2.894-2.894l2.894,2.894l-2.894,2.894L54.773,22.857z M55.485,22.857l2.183,2.181
			l2.181-2.181l-2.181-2.181L55.485,22.857z"/>
	</g>
	<g>
		<g>
			<path fill="#CCCCCC" d="M17.195,60.62l2.894-2.895l2.894,2.895l-2.894,2.894L17.195,60.62z M17.908,60.62l2.181,2.181
				l2.182-2.181l-2.182-2.181L17.908,60.62z"/>
		</g>
		<g>
			
				<rect x="19.45" y="47.118" transform="matrix(-0.7075 0.7067 -0.7067 -0.7075 68.1185 67.3734)" fill="#CCCCCC" width="1.333" height="1.332"/>
		</g>
		<g>
			
				<rect x="19.45" y="33.749" transform="matrix(-0.7069 0.7073 -0.7073 -0.7069 58.679 44.5165)" fill="#CCCCCC" width="1.332" height="1.333"/>
		</g>
		<g>
			
				<rect x="32.869" y="47.169" transform="matrix(-0.7075 0.7067 -0.7067 -0.7075 91.0665 57.9756)" fill="#CCCCCC" width="1.333" height="1.332"/>
		</g>
		<g>
			
				<rect x="19.424" y="60.018" transform="matrix(-0.7069 0.7073 -0.7073 -0.7069 77.2145 89.3736)" fill="#CCCCCC" width="1.334" height="1.333"/>
		</g>
		<g>
			
				<rect x="5.99" y="47.178" transform="matrix(-0.7071 0.7071 -0.7071 -0.7071 45.1937 76.9691)" fill="#CCCCCC" width="1.333" height="1.332"/>
		</g>
		<g>
			<polygon fill="#CCCCCC" points="19.588,48.896 19.589,48.897 19.589,48.896 			"/>
		</g>
		<polygon fill="none" stroke="#CCCCCC" stroke-width="0.75" stroke-miterlimit="10" points="20.774,53.824 20.774,49.586 
			25.527,54.08 25.527,58.319 		"/>
		<path fill="#CCCCCC" d="M30.618,47.856l2.895-2.894l2.894,2.894l-2.894,2.894L30.618,47.856z M31.332,47.857l2.181,2.181
			l2.18-2.181l-2.18-2.181L31.332,47.857z"/>
		<polygon fill="none" stroke="#CCCCCC" stroke-width="0.75" stroke-miterlimit="10" points="15.13,54.07 19.289,49.646 
			19.289,53.834 15.13,58.259 		"/>
		<path fill="none" stroke="#CCCCCC" stroke-width="0.75" stroke-miterlimit="10" d="M26.458,52.778l-4.287-4.159h4.049l4.425,4.159
			H26.458z M9.551,52.778l4.424-4.159h4.045l-4.283,4.159H9.551z M19.888,48.777l0-0.029l-0.861-0.893l1.081-1.124l1.083,1.126
			l-1.089,1.13L19.888,48.777z"/>
		<polygon fill="none" stroke="#CCCCCC" stroke-width="0.75" stroke-miterlimit="10" points="20.774,41.809 25.527,37.313 
			25.527,41.552 20.774,46.047 		"/>
		<path fill="#CCCCCC" d="M17.195,34.501l2.894-2.894l2.894,2.894l-2.894,2.894L17.195,34.501z M17.908,34.501l2.181,2.181
			l2.182-2.181l-2.182-2.182L17.908,34.501z"/>
		<polygon fill="none" stroke="#CCCCCC" stroke-width="0.75" stroke-miterlimit="10" points="15.13,41.562 15.13,37.373 
			19.289,41.798 19.289,45.986 		"/>
		<polygon fill="none" stroke="#CCCCCC" stroke-width="0.75" stroke-miterlimit="10" points="21.97,47.133 26.465,42.379 
			30.704,42.379 26.209,47.133 		"/>
		<polygon fill="none" stroke="#CCCCCC" stroke-width="0.75" stroke-miterlimit="10" points="13.985,47.133 9.491,42.379 
			13.73,42.379 18.224,47.133 		"/>
		<path fill="#CCCCCC" d="M3.773,47.857l2.894-2.894l2.894,2.894l-2.894,2.894L3.773,47.857z M4.485,47.857l2.183,2.181l2.181-2.181
			l-2.181-2.181L4.485,47.857z"/>
	</g>
	<g>
		<path fill="#CCCCCC" d="M20.089,7.383l2.894,2.894l-2.894,2.895l-2.894-2.895L20.089,7.383z M20.089,12.458l2.182-2.181
			l-2.182-2.181l-2.181,2.181L20.089,12.458z"/>
		
			<rect x="19.424" y="9.545" transform="matrix(-0.7069 -0.7073 0.7073 -0.7069 27.0707 31.641)" fill="#CCCCCC" width="1.333" height="1.333"/>
	</g>
</g>
<g id="Layer_2_copy_2">
	<rect x="-1" y="100" fill="#334151" width="101.75" height="93.891"/>
	<g>
		
			<rect x="19.256" y="108.936" transform="matrix(0.7068 0.7074 -0.7074 0.7068 83.8063 17.8677)" fill="#E96655" width="2.186" height="2.187"/>
		
			<rect x="19.256" y="183.37" transform="matrix(-0.7073 -0.7069 0.7069 -0.7073 -95.6507 329.3237)" fill="#E96655" width="2.186" height="2.185"/>
		<polygon fill="#E96655" points="72.072,109.199 70.527,107.653 69.277,108.902 69.277,108.903 68.981,109.199 69.277,109.496 
			70.527,110.744 		"/>
		<polygon fill="#E96655" points="69.277,184.996 69.277,184.997 68.981,185.293 69.277,185.589 69.277,185.59 70.527,186.839 
			72.072,185.293 70.527,183.747 		"/>
	</g>
	<g>
		<g>
			<path display="none" fill="#FF0000" d="M19.102,78.67l0.351,0.351l0.917,0.919l3.243,3.243l0.918,0.918l0.351,0.351l-0.351,0.351
				l-0.918,0.918l-3.243,3.243l-0.917,0.918l-0.351,0.351l-0.353-0.351l-0.917-0.918l-3.246-3.243l-0.918-0.918l-0.352-0.351
				l0.352-0.351l0.918-0.918l3.246-3.243l0.917-0.919L19.102,78.67L19.102,78.67z M19.102,89.532l0.917-0.918l3.243-3.244
				l0.917-0.918l-0.917-0.918l-3.243-3.243l-0.917-0.918l-0.918,0.918l-3.246,3.243l-0.917,0.918l0.917,0.918l3.246,3.244
				L19.102,89.532L19.102,89.532z"/>
			<path display="none" fill="#FF0000" d="M27.087,64.919l1.484,1.482l-7.989,7.987l8.582,8.581l7.987-7.988l1.483,1.483
				l-7.988,7.988l8.582,8.581l7.986-7.988l1.483,1.483l-7.988,7.988l7.988,7.988l-1.483,1.482l-7.986-7.988l-8.582,8.581
				l8.617,8.617l-1.483,1.483l-8.616-8.617l-8.582,8.58l7.989,7.988l-1.484,1.482l-7.985-7.987l-7.989,7.987l-1.482-1.482
				l7.988-7.988l-8.582-8.58l-7.988,7.989l-1.483-1.484l7.988-7.988l-8.581-8.581l-7.988,7.988l-1.483-1.482l7.99-7.988l-7.99-7.988
				l1.483-1.483l7.988,7.988l8.581-8.581l-7.988-7.988l1.483-1.483l7.988,7.988l8.582-8.581l-7.988-7.987l1.482-1.482l7.989,7.987
				L27.087,64.919L27.087,64.919z M19.102,73.608l-0.353-0.351l-7.637-7.635l-0.78,0.78l7.637,7.636l0.351,0.351L17.97,74.74
				l-8.582,8.58l-0.351,0.352L8.685,83.32l-7.635-7.636l-0.781,0.78l7.639,7.637l0.351,0.351l-0.351,0.351l-8.582,8.581
				l-0.351,0.352l-0.351-0.352l-7.637-7.637l-0.78,0.78l7.637,7.636l0.351,0.352l-0.351,0.351l-7.637,7.637l0.78,0.779l7.637-7.636
				l0.351-0.352l0.351,0.352l8.582,8.581l0.351,0.351l-0.351,0.351l-7.639,7.637l0.781,0.781l7.635-7.638l0.353-0.351l0.351,0.351
				l8.582,8.581l0.351,0.351l-0.351,0.352l-7.637,7.636l0.78,0.779l7.637-7.635l0.353-0.351l0.351,0.351l7.634,7.635l0.781-0.779
				l-7.637-7.636l-0.351-0.352l0.351-0.351l8.582-8.581l0.351-0.351l0.351,0.351l8.265,8.266l0.781-0.78l-8.266-8.266l-0.351-0.351
				l0.351-0.351l8.581-8.581l0.353-0.352l0.351,0.352l7.636,7.636l0.781-0.779l-7.637-7.637l-0.353-0.351l0.353-0.352l7.637-7.636
				l-0.781-0.78l-7.636,7.637l-0.351,0.352l-0.353-0.352l-8.581-8.581l-0.351-0.351l0.351-0.351l7.637-7.637l-0.781-0.78
				l-7.636,7.636l-0.351,0.352l-0.351-0.352l-8.582-8.58l-0.351-0.352l0.351-0.351l7.637-7.636l-0.781-0.78l-7.634,7.635
				L19.102,73.608L19.102,73.608z"/>
			<path display="none" fill="#FF0000" d="M27.087,61.417l4.986,4.984l-7.072,7.07l-0.917,0.917l0.917,0.917l3.244,3.244
				l0.918,0.918l0.919-0.918l7.068-7.07l4.985,4.985l-7.069,7.069l-0.918,0.918l0.918,0.918l3.243,3.244l0.919,0.918l0.917-0.918
				l7.069-7.07l4.985,4.984l-7.071,7.07l-0.917,0.918l0.917,0.918l7.071,7.07l-4.985,4.983l-7.069-7.07l-0.917-0.918l-0.919,0.918
				l-3.243,3.244l-0.918,0.917l0.918,0.919l7.698,7.698l-4.985,4.984l-7.697-7.7l-0.919-0.917l-0.918,0.917l-3.244,3.245
				l-0.917,0.917l0.917,0.917l7.072,7.071l-4.986,4.983l-7.068-7.069l-0.917-0.917l-0.918,0.917l-7.071,7.069l-4.983-4.983
				l7.069-7.071l0.918-0.917l-0.918-0.917l-3.244-3.245l-0.917-0.917l-0.917,0.917l-7.071,7.07l-4.985-4.983l7.072-7.069
				l0.917-0.919l-0.917-0.917l-3.245-3.244l-0.918-0.918l-0.918,0.918l-7.069,7.07l-4.985-4.983l7.072-7.07l0.917-0.918
				l-0.917-0.918l-7.072-7.07l4.985-4.984l7.069,7.07l0.918,0.918l0.918-0.918l3.245-3.244l0.917-0.918l-0.917-0.918l-7.072-7.069
				l4.985-4.985l7.071,7.07l0.917,0.918l0.917-0.918l3.244-3.244l0.918-0.917l-0.918-0.917l-7.069-7.07l4.983-4.984l7.071,7.069
				l0.918,0.918l0.917-0.918L27.087,61.417L27.087,61.417z M19.102,70.107l-0.353-0.352l-0.917-0.918l-6.72-6.718l-4.281,4.282
				l6.718,6.719l0.918,0.917l0.351,0.351l-0.351,0.352l-0.918,0.918l-3.245,3.244l-0.917,0.917L9.037,80.17l-0.353-0.351
				l-0.917-0.917l-6.718-6.719l-4.283,4.282l6.721,6.718l0.917,0.918l0.351,0.351l-0.351,0.351l-0.917,0.918l-3.245,3.243
				l-0.918,0.918l-0.351,0.351l-0.351-0.351l-0.918-0.918l-6.718-6.718l-4.281,4.281l6.72,6.718l0.917,0.917l0.351,0.352
				l-0.351,0.351l-0.917,0.917l-6.72,6.719l4.281,4.281l6.718-6.718l0.918-0.919l0.351-0.351l0.351,0.351l0.918,0.919l3.245,3.243
				l0.917,0.918l0.351,0.351l-0.351,0.351l-0.917,0.919l-6.721,6.718l4.283,4.281l6.718-6.719l0.917-0.918l0.353-0.352l0.351,0.352
				l0.917,0.918l3.245,3.245l0.918,0.917l0.351,0.351l-0.351,0.352l-0.918,0.917l-6.718,6.719l4.281,4.281l6.72-6.718l0.917-0.917
				l0.353-0.352l0.351,0.352l0.917,0.917l6.717,6.718l4.283-4.281l-6.72-6.719l-0.917-0.917l-0.353-0.352l0.353-0.351l0.917-0.917
				l3.244-3.245l0.918-0.918l0.351-0.352l0.351,0.352l0.919,0.918l7.346,7.348l4.283-4.281l-7.347-7.347l-0.918-0.919l-0.351-0.351
				l0.351-0.351l0.918-0.918l3.243-3.243l0.917-0.919l0.353-0.351l0.351,0.351l0.917,0.919l6.718,6.718l4.281-4.281l-6.718-6.719
				l-0.918-0.917l-0.351-0.351l0.351-0.352l0.918-0.917l6.718-6.718l-4.281-4.281l-6.718,6.718l-0.917,0.918l-0.351,0.351
				l-0.353-0.351l-0.917-0.918l-3.243-3.243l-0.918-0.918l-0.351-0.351l0.351-0.351l0.918-0.918l6.718-6.718l-4.283-4.282
				l-6.717,6.719l-0.919,0.917l-0.351,0.351l-0.351-0.351l-0.918-0.917l-3.244-3.244l-0.917-0.918l-0.353-0.352l0.353-0.351
				l0.917-0.917l6.72-6.719l-4.283-4.282l-6.717,6.718l-0.917,0.918L19.102,70.107L19.102,70.107z"/>
			<path fill="#FBE39B" d="M20.35,106.65l3.378,3.379l-3.378,3.378l-3.379-3.378L20.35,106.65z M21.895,110.029l-1.545-1.546
				l-1.546,1.546l1.546,1.546L21.895,110.029z"/>
		</g>
	</g>
	<g>
		<path fill="#FBE39B" d="M20.35,181.084l3.378,3.379l-3.378,3.378l-3.379-3.378L20.35,181.084z M21.895,184.463l-1.545-1.546
			l-1.546,1.546l1.546,1.545L21.895,184.463z"/>
	</g>
	<g>
		<path fill="#FEB25C" d="M43.816,189.174v-0.343h-0.342v0.343H43.816 M44.575,189.931h-1.858v-1.857h1.858V189.931L44.575,189.931z
			"/>
		<path fill="#FEB25C" d="M47.536,189.174v-0.343h-0.344v0.343H47.536 M48.293,189.931h-1.859v-1.857h1.859V189.931L48.293,189.931z
			"/>
		<path fill="#FEB25C" d="M51.253,189.174v-0.343h-0.343v0.343H51.253 M52.011,189.931h-1.858v-1.857h1.858V189.931L52.011,189.931z
			"/>
		<path fill="#FEB25C" d="M54.971,189.174v-0.343h-0.343v0.343H54.971 M55.729,189.931H53.87v-1.857h1.859V189.931L55.729,189.931z"
			/>
		<path fill="#FEB25C" d="M58.689,189.174v-0.343h-0.343v0.343H58.689 M59.446,189.931h-1.858v-1.857h1.858V189.931L59.446,189.931z
			"/>
		<path fill="#FEB25C" d="M62.407,189.174v-0.343h-0.341v0.343H62.407 M63.166,189.931h-1.86v-1.857h1.86V189.931L63.166,189.931z"
			/>
		<path fill="#FEB25C" d="M66.125,189.174v-0.343h-0.342v0.343H66.125 M66.883,189.931h-1.859v-1.857h1.859V189.931L66.883,189.931z
			"/>
		<path fill="#FEB25C" d="M69.842,189.174v-0.343h-0.34v0.343H69.842 M70.602,189.931h-1.859v-1.857h1.859V189.931L70.602,189.931z"
			/>
		<path fill="#FEB25C" d="M73.562,189.174v-0.343H73.22v0.343H73.562 M74.32,189.931H72.46v-1.857h1.859V189.931L74.32,189.931z"/>
		<path fill="#FEB25C" d="M77.279,189.174v-0.343h-0.342v0.343H77.279 M78.039,189.931h-1.86v-1.857h1.86V189.931L78.039,189.931z"
			/>
		<path fill="#FEB25C" d="M80.999,189.174v-0.343h-0.343v0.343H80.999 M81.755,189.931h-1.858v-1.857h1.858V189.931L81.755,189.931z
			"/>
		<path fill="#FEB25C" d="M84.716,189.174v-0.343h-0.343v0.343H84.716 M85.475,189.931h-1.86v-1.857h1.86V189.931L85.475,189.931z"
			/>
		<path fill="#FEB25C" d="M88.432,189.174v-0.343h-0.341v0.343H88.432 M89.191,189.931h-1.859v-1.857h1.859V189.931L89.191,189.931z
			"/>
		<path fill="#FEB25C" d="M92.148,189.174v-0.343H91.81v0.343H92.148 M92.911,189.931h-1.859v-1.857h1.859V189.931L92.911,189.931z"
			/>
		<path fill="#FEB25C" d="M95.871,189.174v-0.343h-0.345v0.343H95.871 M96.626,189.931h-1.858v-1.857h1.858V189.931L96.626,189.931z
			"/>
		<path fill="#FEB25C" d="M99.586,189.174v-0.343h-0.342v0.343H99.586 M100.343,189.931h-1.859v-1.857h1.859V189.931
			L100.343,189.931z"/>
		<path fill="#FEB25C" d="M103.305,189.174v-0.343h-0.342v0.343H103.305 M104.064,189.931h-1.859v-1.857h1.859V189.931
			L104.064,189.931z"/>
		<path fill="#FEB25C" d="M107.024,189.174v-0.343h-0.343v0.343H107.024 M107.783,189.931h-1.859v-1.857h1.859V189.931
			L107.783,189.931z"/>
		<path fill="#FBE39B" d="M110.741,189.174v-0.343H110.4v0.343H110.741"/>
		<path fill="#FBE39B" d="M45.676,191.033v-0.343h-0.343v0.343H45.676 M46.434,191.791h-1.859v-1.86h1.859V191.791L46.434,191.791z"
			/>
		<path fill="#FBE39B" d="M49.394,191.033v-0.343h-0.342v0.343H49.394 M50.152,191.791h-1.859v-1.86h1.859V191.791L50.152,191.791z"
			/>
		<path fill="#FBE39B" d="M53.111,191.033v-0.343H52.77v0.343H53.111 M53.87,191.791h-1.859v-1.86h1.859V191.791L53.87,191.791z"/>
		<path fill="#FBE39B" d="M56.83,191.033v-0.343h-0.341v0.343H56.83 M57.588,191.791h-1.859v-1.86h1.859V191.791L57.588,191.791z"/>
		<path fill="#FBE39B" d="M60.548,191.033v-0.343h-0.342v0.343H60.548 M61.306,191.791h-1.86v-1.86h1.86V191.791L61.306,191.791z"/>
		<path fill="#FBE39B" d="M64.265,191.033v-0.343h-0.341v0.343H64.265 M65.024,191.791h-1.858v-1.86h1.858V191.791L65.024,191.791z"
			/>
		<path fill="#FBE39B" d="M67.985,191.033v-0.343h-0.343v0.343H67.985 M68.743,191.791h-1.859v-1.86h1.859V191.791L68.743,191.791z"
			/>
		<path fill="#FBE39B" d="M71.703,191.033v-0.343h-0.344v0.343H71.703 M72.46,191.791h-1.859v-1.86h1.859V191.791L72.46,191.791z"/>
		<path fill="#FBE39B" d="M75.419,191.033v-0.343h-0.341v0.343H75.419 M76.179,191.791H74.32v-1.86h1.859V191.791L76.179,191.791z"
			/>
		<path fill="#FBE39B" d="M79.139,191.033v-0.343h-0.343v0.343H79.139 M79.897,191.791h-1.858v-1.86h1.858V191.791L79.897,191.791z"
			/>
		<path fill="#FBE39B" d="M82.856,191.033v-0.343h-0.342v0.343H82.856 M83.615,191.791h-1.86v-1.86h1.86V191.791L83.615,191.791z"/>
		<path fill="#FBE39B" d="M86.574,191.033v-0.343h-0.342v0.343H86.574 M87.333,191.791h-1.857v-1.86h1.857V191.791L87.333,191.791z"
			/>
		<path fill="#FBE39B" d="M90.292,191.033v-0.343h-0.344v0.343H90.292 M91.051,191.791h-1.86v-1.86h1.86V191.791L91.051,191.791z"/>
		<path fill="#FBE39B" d="M94.009,191.033v-0.343h-0.343v0.343H94.009 M94.768,191.791h-1.857v-1.86h1.857V191.791L94.768,191.791z"
			/>
		<path fill="#FBE39B" d="M97.73,191.033v-0.343h-0.345v0.343H97.73 M98.484,191.791h-1.857v-1.86h1.857V191.791L98.484,191.791z"/>
		<path fill="#FBE39B" d="M101.444,191.033v-0.343h-0.34v0.343H101.444 M102.205,191.791h-1.861v-1.86h1.861V191.791
			L102.205,191.791z"/>
		<path fill="#FBE39B" d="M105.165,191.033v-0.343h-0.342v0.343H105.165 M105.923,191.791h-1.859v-1.86h1.859V191.791
			L105.923,191.791z"/>
		<path fill="#FBE39B" d="M108.881,191.033v-0.343h-0.343v0.343H108.881 M109.641,191.791h-1.858v-1.86h1.858V191.791
			L109.641,191.791z"/>
		<path fill="#FBE39B" d="M131.582,192.891v-0.34H-6.526v0.34H131.582 M132.335,193.651H-7.283v-1.86h139.619V193.651
			L132.335,193.651z"/>
	</g>
	<g>
		<path fill="#FBE39B" d="M-8.239,189.174v-0.343H-8.58v0.343H-8.239"/>
		<path fill="#FEB25C" d="M-4.519,189.174v-0.343H-4.86v0.343H-4.519 M-3.76,189.931h-1.859v-1.857h1.859V189.931L-3.76,189.931z"/>
		<path fill="#FEB25C" d="M-0.8,189.174v-0.343h-0.343v0.343H-0.8 M-0.043,189.931h-1.858v-1.857h1.858V189.931L-0.043,189.931z"/>
		<path fill="#FEB25C" d="M2.916,189.174v-0.343H2.575v0.343H2.916 M3.675,189.931H1.816v-1.857h1.859V189.931L3.675,189.931z"/>
		<path fill="#FEB25C" d="M6.636,189.174v-0.343H6.292v0.343H6.636 M7.394,189.931H5.535v-1.857h1.859V189.931L7.394,189.931z"/>
		<path fill="#FEB25C" d="M10.354,189.174v-0.343H10.01v0.343H10.354 M11.112,189.931H9.253v-1.857h1.859V189.931L11.112,189.931z"
			/>
		<path fill="#FEB25C" d="M14.071,189.174v-0.343h-0.342v0.343H14.071 M14.829,189.931h-1.858v-1.857h1.858V189.931L14.829,189.931z
			"/>
		<path fill="#FEB25C" d="M17.789,189.174v-0.343h-0.343v0.343H17.789 M18.549,189.931h-1.86v-1.857h1.86V189.931L18.549,189.931z"
			/>
		<path fill="#FEB25C" d="M21.507,189.174v-0.343h-0.341v0.343H21.507 M22.266,189.931h-1.859v-1.857h1.859V189.931L22.266,189.931z
			"/>
		<path fill="#FEB25C" d="M25.226,189.174v-0.343h-0.341v0.343H25.226 M25.984,189.931h-1.858v-1.857h1.858V189.931L25.984,189.931z
			"/>
		<path fill="#FEB25C" d="M28.943,189.174v-0.343h-0.343v0.343H28.943 M29.703,189.931h-1.861v-1.857h1.861V189.931L29.703,189.931z
			"/>
		<path fill="#FEB25C" d="M32.661,189.174v-0.343H32.32v0.343H32.661 M33.419,189.931h-1.858v-1.857h1.858V189.931L33.419,189.931z"
			/>
		<path fill="#FEB25C" d="M36.379,189.174v-0.343h-0.341v0.343H36.379 M37.139,189.931h-1.858v-1.857h1.858V189.931L37.139,189.931z
			"/>
		<path fill="#FEB25C" d="M40.096,189.174v-0.343h-0.34v0.343H40.096 M40.856,189.931h-1.859v-1.857h1.859V189.931L40.856,189.931z"
			/>
		<path fill="#FBE39B" d="M-6.377,191.033v-0.343h-0.344v0.343H-6.377 M-5.619,191.791h-1.862v-1.86h1.862V191.791L-5.619,191.791z"
			/>
		<path fill="#FBE39B" d="M-2.66,191.033v-0.343h-0.341v0.343H-2.66 M-1.901,191.791H-3.76v-1.86h1.859V191.791L-1.901,191.791z"/>
		<path fill="#FBE39B" d="M1.058,191.033v-0.343H0.716v0.343H1.058 M1.816,191.791h-1.859v-1.86h1.859V191.791L1.816,191.791z"/>
		<path fill="#FBE39B" d="M4.775,191.033v-0.343H4.433v0.343H4.775 M5.535,191.791H3.675v-1.86h1.859V191.791L5.535,191.791z"/>
		<path fill="#FBE39B" d="M8.493,191.033v-0.343h-0.34v0.343H8.493 M9.253,191.791H7.394v-1.86h1.859V191.791L9.253,191.791z"/>
		<path fill="#FBE39B" d="M12.213,191.033v-0.343h-0.343v0.343H12.213 M12.971,191.791h-1.859v-1.86h1.859V191.791L12.971,191.791z"
			/>
		<path fill="#FBE39B" d="M15.929,191.033v-0.343h-0.341v0.343H15.929 M16.689,191.791h-1.86v-1.86h1.86V191.791L16.689,191.791z"/>
		<path fill="#FBE39B" d="M19.649,191.033v-0.343h-0.342v0.343H19.649 M20.407,191.791h-1.857v-1.86h1.857V191.791L20.407,191.791z"
			/>
		<path fill="#FBE39B" d="M23.366,191.033v-0.343h-0.342v0.343H23.366 M24.126,191.791h-1.86v-1.86h1.86V191.791L24.126,191.791z"/>
		<path fill="#FBE39B" d="M27.083,191.033v-0.343h-0.341v0.343H27.083 M27.842,191.791h-1.858v-1.86h1.858V191.791L27.842,191.791z"
			/>
		<path fill="#FBE39B" d="M30.803,191.033v-0.343H30.46v0.343H30.803 M31.562,191.791h-1.858v-1.86h1.858V191.791L31.562,191.791z"
			/>
		<path fill="#FBE39B" d="M34.521,191.033v-0.343h-0.342v0.343H34.521 M35.281,191.791h-1.861v-1.86h1.861V191.791L35.281,191.791z"
			/>
		<path fill="#FBE39B" d="M38.238,191.033v-0.343h-0.341v0.343H38.238 M38.997,191.791h-1.858v-1.86h1.858V191.791L38.997,191.791z"
			/>
		<path fill="#FBE39B" d="M41.957,191.033v-0.343h-0.342v0.343H41.957 M42.717,191.791h-1.861v-1.86h1.861V191.791L42.717,191.791z"
			/>
	</g>
	<g>
		<path fill="#FEB25C" d="M-4.519,104.437H-4.86v0.343h0.342V104.437 M-3.76,103.679v1.857h-1.859v-1.857H-3.76L-3.76,103.679z"/>
		<path fill="#FEB25C" d="M-0.8,104.437h-0.343v0.343H-0.8V104.437 M-0.043,103.679v1.857h-1.858v-1.857H-0.043L-0.043,103.679z"/>
		<path fill="#FEB25C" d="M2.916,104.437H2.575v0.343h0.341V104.437 M3.675,103.679v1.857H1.816v-1.857H3.675L3.675,103.679z"/>
		<path fill="#FEB25C" d="M6.636,104.437H6.292v0.343h0.344V104.437 M7.394,103.679v1.857H5.535v-1.857H7.394L7.394,103.679z"/>
		<path fill="#FEB25C" d="M10.354,104.437H10.01v0.343h0.344V104.437 M11.112,103.679v1.857H9.253v-1.857H11.112L11.112,103.679z"/>
		<path fill="#FEB25C" d="M14.071,104.437h-0.342v0.343h0.342V104.437 M14.829,103.679v1.857h-1.858v-1.857H14.829L14.829,103.679z"
			/>
		<path fill="#FEB25C" d="M17.789,104.437h-0.343v0.343h0.343V104.437 M18.549,103.679v1.857h-1.86v-1.857H18.549L18.549,103.679z"
			/>
		<path fill="#FEB25C" d="M21.507,104.437h-0.341v0.343h0.341V104.437 M22.266,103.679v1.857h-1.859v-1.857H22.266L22.266,103.679z"
			/>
		<path fill="#FEB25C" d="M25.226,104.437h-0.341v0.343h0.341V104.437 M25.984,103.679v1.857h-1.858v-1.857H25.984L25.984,103.679z"
			/>
		<path fill="#FEB25C" d="M28.943,104.437h-0.343v0.343h0.343V104.437 M29.703,103.679v1.857h-1.861v-1.857H29.703L29.703,103.679z"
			/>
		<path fill="#FEB25C" d="M32.661,104.437H32.32v0.343h0.341V104.437 M33.419,103.679v1.857h-1.858v-1.857H33.419L33.419,103.679z"
			/>
		<path fill="#FEB25C" d="M36.379,104.437h-0.341v0.343h0.341V104.437 M37.139,103.679v1.857h-1.858v-1.857H37.139L37.139,103.679z"
			/>
		<path fill="#FEB25C" d="M40.096,104.437h-0.34v0.343h0.34V104.437 M40.856,103.679v1.857h-1.859v-1.857H40.856L40.856,103.679z"/>
		<path fill="#FBE39B" d="M-2.66,102.577h-0.341v0.343h0.341V102.577 M-1.901,101.819v1.86H-3.76v-1.86H-1.901L-1.901,101.819z"/>
		<path fill="#FBE39B" d="M1.058,102.577H0.716v0.343h0.342V102.577 M1.816,101.819v1.86h-1.859v-1.86H1.816L1.816,101.819z"/>
		<path fill="#FBE39B" d="M4.775,102.577H4.433v0.343h0.342V102.577 M5.535,101.819v1.86H3.675v-1.86H5.535L5.535,101.819z"/>
		<path fill="#FBE39B" d="M8.493,102.577h-0.34v0.343h0.34V102.577 M9.253,101.819v1.86H7.394v-1.86H9.253L9.253,101.819z"/>
		<path fill="#FBE39B" d="M12.213,102.577h-0.343v0.343h0.343V102.577 M12.971,101.819v1.86h-1.859v-1.86H12.971L12.971,101.819z"/>
		<path fill="#FBE39B" d="M15.929,102.577h-0.341v0.343h0.341V102.577 M16.689,101.819v1.86h-1.86v-1.86H16.689L16.689,101.819z"/>
		<path fill="#FBE39B" d="M19.649,102.577h-0.342v0.343h0.342V102.577 M20.407,101.819v1.86h-1.857v-1.86H20.407L20.407,101.819z"/>
		<path fill="#FBE39B" d="M23.366,102.577h-0.342v0.343h0.342V102.577 M24.126,101.819v1.86h-1.86v-1.86H24.126L24.126,101.819z"/>
		<path fill="#FBE39B" d="M27.083,102.577h-0.341v0.343h0.341V102.577 M27.842,101.819v1.86h-1.858v-1.86H27.842L27.842,101.819z"/>
		<path fill="#FBE39B" d="M30.803,102.577H30.46v0.343h0.342V102.577 M31.562,101.819v1.86h-1.858v-1.86H31.562L31.562,101.819z"/>
		<path fill="#FBE39B" d="M34.521,102.577h-0.342v0.343h0.342V102.577 M35.281,101.819v1.86h-1.861v-1.86H35.281L35.281,101.819z"/>
		<path fill="#FBE39B" d="M38.238,102.577h-0.341v0.343h0.341V102.577 M38.997,101.819v1.86h-1.858v-1.86H38.997L38.997,101.819z"/>
		<path fill="#FBE39B" d="M41.957,102.577h-0.342v0.343h0.342V102.577 M42.717,101.819v1.86h-1.861v-1.86H42.717L42.717,101.819z"/>
		<path fill="#FBE39B" d="M41.957,101.061v-0.341 M-146.148,100.72v0.341 M41.957,100.72"/>
	</g>
	<g>
		<path fill="#FEB25C" d="M43.816,104.437h-0.342v0.343h0.342V104.437 M44.575,103.679v1.857h-1.858v-1.857H44.575L44.575,103.679z"
			/>
		<path fill="#FEB25C" d="M47.536,104.437h-0.344v0.343h0.344V104.437 M48.293,103.679v1.857h-1.859v-1.857H48.293L48.293,103.679z"
			/>
		<path fill="#FEB25C" d="M51.253,104.437h-0.343v0.343h0.343V104.437 M52.011,103.679v1.857h-1.858v-1.857H52.011L52.011,103.679z"
			/>
		<path fill="#FEB25C" d="M54.971,104.437h-0.343v0.343h0.343V104.437 M55.729,103.679v1.857H53.87v-1.857H55.729L55.729,103.679z"
			/>
		<path fill="#FEB25C" d="M58.689,104.437h-0.343v0.343h0.343V104.437 M59.446,103.679v1.857h-1.858v-1.857H59.446L59.446,103.679z"
			/>
		<path fill="#FEB25C" d="M62.407,104.437h-0.341v0.343h0.341V104.437 M63.166,103.679v1.857h-1.86v-1.857H63.166L63.166,103.679z"
			/>
		<path fill="#FEB25C" d="M66.125,104.437h-0.342v0.343h0.342V104.437 M66.883,103.679v1.857h-1.859v-1.857H66.883L66.883,103.679z"
			/>
		<path fill="#FEB25C" d="M69.842,104.437h-0.34v0.343h0.34V104.437 M70.602,103.679v1.857h-1.859v-1.857H70.602L70.602,103.679z"/>
		<path fill="#FEB25C" d="M73.562,104.437H73.22v0.343h0.342V104.437 M74.32,103.679v1.857H72.46v-1.857H74.32L74.32,103.679z"/>
		<path fill="#FEB25C" d="M77.279,104.437h-0.342v0.343h0.342V104.437 M78.039,103.679v1.857h-1.86v-1.857H78.039L78.039,103.679z"
			/>
		<path fill="#FEB25C" d="M80.999,104.437h-0.343v0.343h0.343V104.437 M81.755,103.679v1.857h-1.858v-1.857H81.755L81.755,103.679z"
			/>
		<path fill="#FEB25C" d="M84.716,104.437h-0.343v0.343h0.343V104.437 M85.475,103.679v1.857h-1.86v-1.857H85.475L85.475,103.679z"
			/>
		<path fill="#FEB25C" d="M88.432,104.437h-0.341v0.343h0.341V104.437 M89.191,103.679v1.857h-1.859v-1.857H89.191L89.191,103.679z"
			/>
		<path fill="#FEB25C" d="M92.148,104.437H91.81v0.343h0.338V104.437 M92.911,103.679v1.857h-1.859v-1.857H92.911L92.911,103.679z"
			/>
		<path fill="#FEB25C" d="M95.871,104.437h-0.345v0.343h0.345V104.437 M96.626,103.679v1.857h-1.858v-1.857H96.626L96.626,103.679z"
			/>
		<path fill="#FEB25C" d="M99.586,104.437h-0.342v0.343h0.342V104.437 M100.343,103.679v1.857h-1.859v-1.857H100.343
			L100.343,103.679z"/>
		<path fill="#FEB25C" d="M103.305,104.437h-0.342v0.343h0.342V104.437 M104.064,103.679v1.857h-1.859v-1.857H104.064
			L104.064,103.679z"/>
		<path fill="#FEB25C" d="M107.024,104.437h-0.343v0.343h0.343V104.437"/>
		<path fill="#FBE39B" d="M45.676,102.577h-0.343v0.343h0.343V102.577 M46.434,101.819v1.86h-1.859v-1.86H46.434L46.434,101.819z"/>
		<path fill="#FBE39B" d="M49.394,102.577h-0.342v0.343h0.342V102.577 M50.152,101.819v1.86h-1.859v-1.86H50.152L50.152,101.819z"/>
		<path fill="#FBE39B" d="M53.111,102.577H52.77v0.343h0.342V102.577 M53.87,101.819v1.86h-1.859v-1.86H53.87L53.87,101.819z"/>
		<path fill="#FBE39B" d="M56.83,102.577h-0.341v0.343h0.341V102.577 M57.588,101.819v1.86h-1.859v-1.86H57.588L57.588,101.819z"/>
		<path fill="#FBE39B" d="M60.548,102.577h-0.342v0.343h0.342V102.577 M61.306,101.819v1.86h-1.86v-1.86H61.306L61.306,101.819z"/>
		<path fill="#FBE39B" d="M64.265,102.577h-0.341v0.343h0.341V102.577 M65.024,101.819v1.86h-1.858v-1.86H65.024L65.024,101.819z"/>
		<path fill="#FBE39B" d="M67.985,102.577h-0.343v0.343h0.343V102.577 M68.743,101.819v1.86h-1.859v-1.86H68.743L68.743,101.819z"/>
		<path fill="#FBE39B" d="M71.703,102.577h-0.344v0.343h0.344V102.577 M72.46,101.819v1.86h-1.859v-1.86H72.46L72.46,101.819z"/>
		<path fill="#FBE39B" d="M75.419,102.577h-0.341v0.343h0.341V102.577 M76.179,101.819v1.86H74.32v-1.86H76.179L76.179,101.819z"/>
		<path fill="#FBE39B" d="M79.139,102.577h-0.343v0.343h0.343V102.577 M79.897,101.819v1.86h-1.858v-1.86H79.897L79.897,101.819z"/>
		<path fill="#FBE39B" d="M82.856,102.577h-0.342v0.343h0.342V102.577 M83.615,101.819v1.86h-1.86v-1.86H83.615L83.615,101.819z"/>
		<path fill="#FBE39B" d="M86.574,102.577h-0.342v0.343h0.342V102.577 M87.333,101.819v1.86h-1.857v-1.86H87.333L87.333,101.819z"/>
		<path fill="#FBE39B" d="M90.292,102.577h-0.344v0.343h0.344V102.577 M91.051,101.819v1.86h-1.86v-1.86H91.051L91.051,101.819z"/>
		<path fill="#FBE39B" d="M94.009,102.577h-0.343v0.343h0.343V102.577 M94.768,101.819v1.86h-1.857v-1.86H94.768L94.768,101.819z"/>
		<path fill="#FBE39B" d="M97.73,102.577h-0.345v0.343h0.345V102.577 M98.484,101.819v1.86h-1.857v-1.86H98.484L98.484,101.819z"/>
		<path fill="#FBE39B" d="M101.444,102.577h-0.34v0.343h0.34V102.577 M102.205,101.819v1.86h-1.861v-1.86H102.205L102.205,101.819z"
			/>
		<path fill="#FBE39B" d="M105.165,102.577h-0.342v0.343h0.342V102.577 M105.923,101.819v1.86h-1.859v-1.86H105.923L105.923,101.819
			z"/>
	</g>
	<g>
		<path fill="#FBE39B" d="M111.582,100.72H-6.526v0.341h118.107V100.72 M112.335,99.959v1.86H-7.283v-1.86H112.335L112.335,99.959z"
			/>
	</g>
	<g>
		
			<rect x="44.655" y="121.232" transform="matrix(-0.7072 -0.707 0.707 -0.7072 -8.608 240.621)" fill="#FBE39B" width="1.722" height="1.722"/>
		
			<rect x="19.554" y="121.155" transform="matrix(-0.7071 -0.7071 0.7071 -0.7071 -51.4286 222.7298)" fill="#FBE39B" width="1.721" height="1.722"/>
		
			<rect x="69.796" y="146.267" transform="matrix(0.7074 0.7068 -0.7068 0.7074 124.6679 -6.8909)" fill="#FBE39B" width="1.722" height="1.721"/>
		
			<rect x="94.742" y="171.408" transform="matrix(0.7074 0.7068 -0.7068 0.7074 149.7376 -17.1666)" fill="#FBE39B" width="1.722" height="1.721"/>
		
			<rect x="44.655" y="171.408" transform="matrix(-0.7072 -0.707 0.707 -0.7072 -44.0805 326.2835)" fill="#FBE39B" width="1.722" height="1.722"/>
		
			<rect x="19.554" y="171.331" transform="matrix(-0.7071 -0.7071 0.7071 -0.7071 -86.9082 308.3852)" fill="#FBE39B" width="1.721" height="1.722"/>
		
			<rect x="44.565" y="146.32" transform="matrix(0.7074 0.7068 -0.7068 0.7074 117.3227 10.9585)" fill="#FBE39B" width="1.722" height="1.721"/>
		
			<rect x="94.832" y="146.32" transform="matrix(-0.7072 -0.707 0.707 -0.7072 59.3199 318.9255)" fill="#FBE39B" width="1.722" height="1.722"/>
		
			<rect x="94.742" y="121.232" transform="matrix(0.7074 0.7068 -0.7068 0.7074 114.2722 -31.8486)" fill="#FBE39B" width="1.722" height="1.721"/>
	</g>
	<g>
		
			<rect x="19.256" y="159.112" transform="matrix(-0.7072 -0.707 0.707 -0.7072 -78.5234 287.892)" fill="#E96655" width="2.187" height="2.186"/>
		
			<rect x="19.257" y="133.193" transform="matrix(0.7069 0.7073 -0.7073 0.7069 100.9494 24.9678)" fill="#E96655" width="2.186" height="2.187"/>
		
			<rect x="6.233" y="146.152" transform="matrix(0.7071 -0.7071 0.7071 0.7071 -101.9725 48.3072)" fill="#E96655" width="2.186" height="2.187"/>
		<polygon fill="#E96655" points="16.25,153.465 16.25,156.228 19.25,152.854 19.25,150.413 19.248,150.33 		"/>
		<polygon fill="#E96655" points="11.217,151.413 13.997,151.413 17.237,148.415 17.25,148.413 14.611,148.413 		"/>
		<polygon fill="#E96655" points="25.25,153.465 21.377,150.331 21.25,150.413 21.25,152.854 25.25,156.227 		"/>
		<polygon fill="#E96655" points="16.25,138.413 16.25,140.946 19.25,144.319 19.25,141.557 19.25,141.556 16.251,138.414 		"/>
		<polygon fill="#E96655" points="25.25,138.413 25.122,138.414 21.25,141.556 21.25,141.557 21.25,144.319 25.25,140.946 		"/>
		<polygon fill="#E96655" points="26.25,148.413 23.298,148.413 26.718,151.413 29.498,151.413 26.308,148.415 		"/>
		<polygon fill="#E96655" points="29.33,142.541 29.25,142.413 26.719,142.413 23.326,146.413 26.104,146.413 		"/>
		<polygon fill="#E96655" points="14.25,142.413 11.217,142.413 14.611,146.413 17.389,146.413 14.191,142.541 		"/>
		
			<rect x="20.06" y="146.925" transform="matrix(-0.7091 -0.7051 0.7051 -0.7091 -69.0068 265.9965)" fill="#514E7E" width="0.616" height="0.617"/>
		
			<rect x="32.28" y="146.152" transform="matrix(-0.7071 -0.7071 0.7071 -0.7071 -47.1458 274.9618)" fill="#E96655" width="2.187" height="2.186"/>
		<path fill="#FBE39B" d="M14.25,142.413h-3.032l3.394,4h2.778l-3.198-3.872 M14.303,141.413l4.906,6h-4.906l-4.906-6H14.303
			L14.303,141.413z"/>
		<path fill="#FBE39B" d="M10.705,147.244l-3.379,3.379l-3.378-3.379l3.378-3.378L10.705,147.244z M7.326,148.791l1.546-1.546
			l-1.546-1.546l-1.546,1.546L7.326,148.791z"/>
		<path fill="#FBE39B" d="M16.25,138.413v2.533l3,3.373v-2.763l-2.998-3.142 M15.25,136.344l5,4.907v4.906l-5-4.906V136.344
			L15.25,136.344z"/>
		<path fill="#FBE39B" d="M29.25,142.413h-2.53l-3.394,4h2.778l3.226-3.872 M31.318,141.413l-4.906,6h-4.906l4.906-6H31.318
			L31.318,141.413z"/>
		<path fill="#FBE39B" d="M20.35,130.907l3.378,3.379l-3.378,3.378l-3.379-3.378L20.35,130.907z M21.895,134.286l-1.545-1.546
			l-1.546,1.546l1.546,1.545L21.895,134.286z"/>
		<path fill="#FBE39B" d="M25.122,138.414l-3.872,3.142v2.763l4-3.373v-2.533 M26.25,136.344v4.907l-6,4.906v-4.906L26.25,136.344
			L26.25,136.344z"/>
		<path fill="#FBE39B" d="M29.995,147.244l3.379-3.378l3.378,3.378l-3.378,3.379L29.995,147.244z M33.374,145.698l-1.546,1.546
			l1.546,1.546l1.545-1.546L33.374,145.698z"/>
		<path fill="#FBE39B" d="M20.35,156.826l3.378,3.379l-3.378,3.378l-3.379-3.378L20.35,156.826z M21.895,160.205l-1.545-1.546
			l-1.546,1.546l1.546,1.546L21.895,160.205z"/>
		<path fill="#FBE39B" d="M14.25,142.413h-3.032l3.394,4h2.778l-3.198-3.872 M14.303,141.413l4.906,6h-4.906l-4.906-6H14.303
			L14.303,141.413z"/>
		<path fill="#FBE39B" d="M10.705,147.245l-3.379,3.379l-3.378-3.379l3.378-3.378L10.705,147.245z M7.326,148.792l1.546-1.546
			l-1.546-1.546l-1.546,1.546L7.326,148.792z"/>
		<path fill="#FBE39B" d="M16.25,138.413v2.534l3,3.373v-2.763l-2.998-3.143 M15.25,136.345l5,4.907v4.906l-5-4.906V136.345
			L15.25,136.345z"/>
		<path fill="#FBE39B" d="M29.25,142.413h-2.53l-3.394,4h2.778l3.226-3.872 M31.318,141.413l-4.906,6h-4.906l4.906-6H31.318
			L31.318,141.413z"/>
		<path fill="#FBE39B" d="M25.122,138.414l-3.872,3.143v2.763l4-3.373v-2.534 M26.25,136.345v4.907l-6,4.906v-4.906L26.25,136.345
			L26.25,136.345z"/>
		<path fill="#FBE39B" d="M21.25,150.413v2.44l4,3.374v-2.762l-3.872-3.134 M20.25,148.253l6,4.906v4.906l-6-4.906V148.253
			L20.25,148.253z"/>
		<path fill="#FBE39B" d="M29.995,147.245l3.379-3.378l3.378,3.378l-3.378,3.379L29.995,147.245z M33.374,145.699l-1.546,1.546
			l1.546,1.546l1.545-1.546L33.374,145.699z"/>
		<polygon fill="#FBE39B" points="19.864,148.253 19.864,148.254 19.864,148.253 		"/>
		<path fill="#FBE39B" d="M19.248,150.33l-2.998,3.135v2.763l3-3.375v-2.44 M20.25,148.253v0.001v4.905l-5,4.906v-4.906
			L20.25,148.253L20.25,148.253z"/>
		<path fill="#FBE39B" d="M20.368,146.797l-0.438,0.437l0.437,0.434l0.439-0.434L20.368,146.797 M26.25,148.413h-2.952l3.42,3h2.78
			l-3.189-2.998 M17.25,148.413h-2.639l-3.394,3h2.779l3.241-2.998 M20.368,145.739l1.5,1.42l-0.337,0.254h4.88l4.906,5h-4.906
			l-4.897-4.801l-0.953,1.199l-0.312-0.556v-0.001l-0.193-0.062l-0.749-0.594l-5.004,4.816H9.397l4.906-5h4.903l-0.338-0.257
			L20.368,145.739L20.368,145.739z"/>
	</g>
	<g>
		
			<rect x="69.256" y="184.112" transform="matrix(-0.7072 -0.707 0.707 -0.7072 -10.8374 365.9222)" fill="#E96655" width="2.187" height="2.186"/>
		
			<rect x="69.257" y="158.193" transform="matrix(0.7069 0.7073 -0.7073 0.7069 133.2885 -3.0708)" fill="#E96655" width="2.186" height="2.187"/>
		
			<rect x="56.233" y="171.152" transform="matrix(0.7071 -0.7071 0.7071 0.7071 -105.0056 90.9849)" fill="#E96655" width="2.186" height="2.187"/>
		<polygon fill="#E96655" points="66.25,178.465 66.25,181.228 69.25,177.854 69.25,175.413 69.248,175.33 		"/>
		<polygon fill="#E96655" points="61.217,176.413 63.997,176.413 67.237,173.415 67.25,173.413 64.611,173.413 		"/>
		<polygon fill="#E96655" points="75.25,178.465 71.377,175.331 71.25,175.413 71.25,177.854 75.25,181.227 		"/>
		<polygon fill="#E96655" points="66.25,163.413 66.25,165.946 69.25,169.319 69.25,166.557 69.25,166.556 66.251,163.414 		"/>
		<polygon fill="#E96655" points="75.25,163.413 75.122,163.414 71.25,166.556 71.25,166.557 71.25,169.319 75.25,165.946 		"/>
		<polygon fill="#E96655" points="76.25,173.413 73.298,173.413 76.718,176.413 79.498,176.413 76.308,173.415 		"/>
		<polygon fill="#E96655" points="79.33,167.541 79.25,167.413 76.719,167.413 73.326,171.413 76.104,171.413 		"/>
		<polygon fill="#E96655" points="64.25,167.413 61.217,167.413 64.611,171.413 67.389,171.413 64.191,167.541 		"/>
		
			<rect x="70.06" y="171.925" transform="matrix(-0.7091 -0.7051 0.7051 -0.7091 -1.1805 343.9798)" fill="#514E7E" width="0.616" height="0.617"/>
		
			<rect x="82.28" y="171.152" transform="matrix(-0.7071 -0.7071 0.7071 -0.7071 20.5318 352.9948)" fill="#E96655" width="2.187" height="2.186"/>
		<path fill="#FBE39B" d="M64.25,167.413h-3.032l3.394,4h2.778l-3.198-3.872 M64.303,166.413l4.906,6h-4.906l-4.906-6H64.303
			L64.303,166.413z"/>
		<path fill="#FBE39B" d="M60.705,172.244l-3.379,3.379l-3.378-3.379l3.378-3.378L60.705,172.244z M57.326,173.791l1.546-1.546
			l-1.546-1.546l-1.546,1.546L57.326,173.791z"/>
		<path fill="#FBE39B" d="M66.25,163.413v2.533l3,3.373v-2.763l-2.998-3.142 M65.25,161.344l5,4.907v4.906l-5-4.906V161.344
			L65.25,161.344z"/>
		<path fill="#FBE39B" d="M79.25,167.413h-2.53l-3.394,4h2.778l3.226-3.872 M81.318,166.413l-4.906,6h-4.906l4.906-6H81.318
			L81.318,166.413z"/>
		<path fill="#FBE39B" d="M70.35,155.907l3.378,3.379l-3.378,3.378l-3.379-3.378L70.35,155.907z M71.895,159.286l-1.545-1.546
			l-1.546,1.546l1.546,1.545L71.895,159.286z"/>
		<path fill="#FBE39B" d="M75.122,163.414l-3.872,3.142v2.763l4-3.373v-2.533 M76.25,161.344v4.907l-6,4.906v-4.906L76.25,161.344
			L76.25,161.344z"/>
		<path fill="#FBE39B" d="M79.995,172.244l3.379-3.378l3.378,3.378l-3.378,3.379L79.995,172.244z M83.374,170.698l-1.546,1.546
			l1.546,1.546l1.545-1.546L83.374,170.698z"/>
		<path fill="#FBE39B" d="M70.35,181.826l3.378,3.379l-3.378,3.378l-3.379-3.378L70.35,181.826z M71.895,185.205l-1.545-1.546
			l-1.546,1.546l1.546,1.546L71.895,185.205z"/>
		<path fill="#FBE39B" d="M64.25,167.413h-3.032l3.394,4h2.778l-3.198-3.872 M64.303,166.413l4.906,6h-4.906l-4.906-6H64.303
			L64.303,166.413z"/>
		<path fill="#FBE39B" d="M60.705,172.245l-3.379,3.379l-3.378-3.379l3.378-3.378L60.705,172.245z M57.326,173.792l1.546-1.546
			l-1.546-1.546l-1.546,1.546L57.326,173.792z"/>
		<path fill="#FBE39B" d="M66.25,163.413v2.534l3,3.373v-2.763l-2.998-3.143 M65.25,161.345l5,4.907v4.906l-5-4.906V161.345
			L65.25,161.345z"/>
		<path fill="#FBE39B" d="M79.25,167.413h-2.53l-3.394,4h2.778l3.226-3.872 M81.318,166.413l-4.906,6h-4.906l4.906-6H81.318
			L81.318,166.413z"/>
		<path fill="#FBE39B" d="M75.122,163.414l-3.872,3.143v2.763l4-3.373v-2.534 M76.25,161.345v4.907l-6,4.906v-4.906L76.25,161.345
			L76.25,161.345z"/>
		<path fill="#FBE39B" d="M71.25,175.413v2.44l4,3.374v-2.762l-3.872-3.134 M70.25,173.253l6,4.906v4.906l-6-4.906V173.253
			L70.25,173.253z"/>
		<path fill="#FBE39B" d="M79.995,172.245l3.379-3.378l3.378,3.378l-3.378,3.379L79.995,172.245z M83.374,170.699l-1.546,1.546
			l1.546,1.546l1.545-1.546L83.374,170.699z"/>
		<polygon fill="#FBE39B" points="69.864,173.253 69.864,173.254 69.864,173.253 		"/>
		<path fill="#FBE39B" d="M69.248,175.33l-2.998,3.135v2.763l3-3.375v-2.44 M70.25,173.253v0.001v4.905l-5,4.906v-4.906
			L70.25,173.253L70.25,173.253z"/>
		<path fill="#FBE39B" d="M70.368,171.797l-0.438,0.437l0.437,0.434l0.439-0.434L70.368,171.797 M76.25,173.413h-2.952l3.42,3h2.78
			l-3.189-2.998 M67.25,173.413h-2.639l-3.394,3h2.779l3.241-2.998 M70.368,170.739l1.5,1.42l-0.337,0.254h4.88l4.906,5h-4.906
			l-4.897-4.801l-0.953,1.199l-0.312-0.556v-0.001l-0.193-0.062l-0.749-0.594l-5.004,4.816h-4.906l4.906-5h4.903l-0.338-0.257
			L70.368,170.739L70.368,170.739z"/>
	</g>
	<g>
		
			<rect x="69.256" y="134.112" transform="matrix(-0.7072 -0.707 0.707 -0.7072 24.5124 280.5613)" fill="#E96655" width="2.187" height="2.186"/>
		
			<rect x="69.257" y="108.193" transform="matrix(0.7069 0.7073 -0.7073 0.7069 97.9219 -17.7266)" fill="#E96655" width="2.186" height="2.187"/>
		
			<rect x="56.233" y="121.152" transform="matrix(0.7071 -0.7071 0.7071 0.7071 -69.6502 76.3402)" fill="#E96655" width="2.186" height="2.187"/>
		<polygon fill="#E96655" points="66.25,128.465 66.25,131.228 69.25,127.854 69.25,125.413 69.248,125.33 		"/>
		<polygon fill="#E96655" points="61.217,126.413 63.997,126.413 67.237,123.415 67.25,123.413 64.611,123.413 		"/>
		<polygon fill="#E96655" points="75.25,128.465 71.377,125.331 71.25,125.413 71.25,127.854 75.25,131.227 		"/>
		<polygon fill="#E96655" points="66.25,113.413 66.25,115.946 69.25,119.319 69.25,116.557 69.25,116.556 66.251,113.414 		"/>
		<polygon fill="#E96655" points="75.25,113.413 75.122,113.414 71.25,116.556 71.25,116.557 71.25,119.319 75.25,115.946 		"/>
		<polygon fill="#E96655" points="76.25,123.413 73.298,123.413 76.718,126.413 79.498,126.413 76.308,123.415 		"/>
		<polygon fill="#E96655" points="79.33,117.541 79.25,117.413 76.719,117.413 73.326,121.413 76.104,121.413 		"/>
		<polygon fill="#E96655" points="64.25,117.413 61.217,117.413 64.611,121.413 67.389,121.413 64.191,117.541 		"/>
		
			<rect x="70.06" y="121.925" transform="matrix(-0.7091 -0.7051 0.7051 -0.7091 34.0755 258.5254)" fill="#514E7E" width="0.616" height="0.617"/>
		
			<rect x="82.28" y="121.152" transform="matrix(-0.7071 -0.7071 0.7071 -0.7071 55.8872 267.6395)" fill="#E96655" width="2.187" height="2.186"/>
		<path fill="#FBE39B" d="M64.25,117.413h-3.032l3.394,4h2.778l-3.198-3.872 M64.303,116.413l4.906,6h-4.906l-4.906-6H64.303
			L64.303,116.413z"/>
		<path fill="#FBE39B" d="M60.705,122.244l-3.379,3.379l-3.378-3.379l3.378-3.378L60.705,122.244z M57.326,123.791l1.546-1.546
			l-1.546-1.546l-1.546,1.546L57.326,123.791z"/>
		<path fill="#FBE39B" d="M66.25,113.413v2.533l3,3.373v-2.763l-2.998-3.142 M65.25,111.344l5,4.907v4.906l-5-4.906V111.344
			L65.25,111.344z"/>
		<path fill="#FBE39B" d="M79.25,117.413h-2.53l-3.394,4h2.778l3.226-3.872 M81.318,116.413l-4.906,6h-4.906l4.906-6H81.318
			L81.318,116.413z"/>
		<path fill="#FBE39B" d="M70.35,105.907l3.378,3.379l-3.378,3.378l-3.379-3.378L70.35,105.907z M71.895,109.286l-1.545-1.546
			l-1.546,1.546l1.546,1.545L71.895,109.286z"/>
		<path fill="#FBE39B" d="M75.122,113.414l-3.872,3.142v2.763l4-3.373v-2.533 M76.25,111.344v4.907l-6,4.906v-4.906L76.25,111.344
			L76.25,111.344z"/>
		<path fill="#FBE39B" d="M79.995,122.244l3.379-3.378l3.378,3.378l-3.378,3.379L79.995,122.244z M83.374,120.698l-1.546,1.546
			l1.546,1.546l1.545-1.546L83.374,120.698z"/>
		<path fill="#FBE39B" d="M70.35,131.826l3.378,3.379l-3.378,3.378l-3.379-3.378L70.35,131.826z M71.895,135.205l-1.545-1.546
			l-1.546,1.546l1.546,1.546L71.895,135.205z"/>
		<path fill="#FBE39B" d="M64.25,117.413h-3.032l3.394,4h2.778l-3.198-3.872 M64.303,116.413l4.906,6h-4.906l-4.906-6H64.303
			L64.303,116.413z"/>
		<path fill="#FBE39B" d="M60.705,122.245l-3.379,3.379l-3.378-3.379l3.378-3.378L60.705,122.245z M57.326,123.792l1.546-1.546
			l-1.546-1.546l-1.546,1.546L57.326,123.792z"/>
		<path fill="#FBE39B" d="M66.25,113.413v2.534l3,3.373v-2.763l-2.998-3.143 M65.25,111.345l5,4.907v4.906l-5-4.906V111.345
			L65.25,111.345z"/>
		<path fill="#FBE39B" d="M79.25,117.413h-2.53l-3.394,4h2.778l3.226-3.872 M81.318,116.413l-4.906,6h-4.906l4.906-6H81.318
			L81.318,116.413z"/>
		<path fill="#FBE39B" d="M75.122,113.414l-3.872,3.143v2.763l4-3.373v-2.534 M76.25,111.345v4.907l-6,4.906v-4.906L76.25,111.345
			L76.25,111.345z"/>
		<path fill="#FBE39B" d="M71.25,125.413v2.44l4,3.374v-2.762l-3.872-3.134 M70.25,123.253l6,4.906v4.906l-6-4.906V123.253
			L70.25,123.253z"/>
		<path fill="#FBE39B" d="M79.995,122.245l3.379-3.378l3.378,3.378l-3.378,3.379L79.995,122.245z M83.374,120.699l-1.546,1.546
			l1.546,1.546l1.545-1.546L83.374,120.699z"/>
		<polygon fill="#FBE39B" points="69.864,123.253 69.864,123.254 69.864,123.253 		"/>
		<path fill="#FBE39B" d="M69.248,125.33l-2.998,3.135v2.763l3-3.375v-2.44 M70.25,123.253v0.001v4.905l-5,4.906v-4.906
			L70.25,123.253L70.25,123.253z"/>
		<path fill="#FBE39B" d="M70.368,121.797l-0.438,0.437l0.437,0.434l0.439-0.434L70.368,121.797 M76.25,123.413h-2.952l3.42,3h2.78
			l-3.189-2.998 M67.25,123.413h-2.639l-3.394,3h2.779l3.241-2.998 M70.368,120.739l1.5,1.42l-0.337,0.254h4.88l4.906,5h-4.906
			l-4.897-4.801l-0.953,1.199l-0.312-0.556v-0.001l-0.193-0.062l-0.749-0.594l-5.004,4.816h-4.906l4.906-5h4.903l-0.338-0.257
			L70.368,120.739L70.368,120.739z"/>
	</g>
</g>
</svg>
