<?xml version="1.0" encoding="utf-8"?>
<!-- Generator: Adobe Illustrator 16.0.0, SVG Export Plug-In . SVG Version: 6.00 Build 0)  -->
<!DOCTYPE svg PUBLIC "-//W3C//DTD SVG 1.1//EN" "http://www.w3.org/Graphics/SVG/1.1/DTD/svg11.dtd">
<svg version="1.1" id="Layer_1" xmlns="http://www.w3.org/2000/svg" xmlns:xlink="http://www.w3.org/1999/xlink" x="0px" y="0px"
	 width="234px" height="234px" viewBox="0 0 234 234" enable-background="new 0 0 234 234" xml:space="preserve">
<g>
	<g>
		<g>
			<path fill="#FF3100" d="M2.66,116.202L117.394,1.461l45.674,45.675l0.08-0.072l3.141,3.142l-0.076,0.074l16.46,16.459
				l0.073-0.072l3.115,3.112l-0.076,0.077l46.355,46.346L117.394,230.939L2.66,116.202z M117.393,224.564l22.21-22.209
				l-22.21-22.205l-22.198,22.205L117.393,224.564z M142.791,199.336l17.43-17.429l-20.969-21.09l0.01-3.025l3.033,0.008
				l21.018,21.017l16.458-16.458l-20.958-21.098l0.005-3.016l3.035,0.006l21.016,21.015l17.754-17.757l-25.39-25.393l25.31-25.308
				L182.68,72.947l-20.829,20.835l-3.038,0.008l-0.002-3.02l20.778-20.912l-16.461-16.461l-20.832,20.833l-3.035,0.008l-0.006-3.023
				l20.781-20.908l-17.243-17.241l-25.397,25.392l-25.39-25.392L74.904,50.166l20.92,21.051l-0.006,3.023l-3.034-0.008
				L71.812,53.259l-16.46,16.458l20.923,21.054l-0.004,3.02l-3.038-0.008L52.259,72.808L34.417,90.651l25.465,25.466l-25.55,25.545
				l17.745,17.751l21.156-21.161l3.038-0.006l0.004,3.017l-21.108,21.239l16.461,16.464l21.157-21.167l3.034-0.008l0.006,3.024
				l-21.106,21.236l17.286,17.284l25.39-25.393L142.791,199.336z M31.311,138.479l22.36-22.361l-22.36-22.36l-22.359,22.36
				L31.311,138.479z M203.639,138.318l22.209-22.201l-22.207-22.209l-22.205,22.209L203.639,138.318z M117.394,52.251l22.3-22.293
				l-4.268-4.255L117.394,7.671L95.105,29.959L117.394,52.251z M137.907,179.305l-20.52-20.918l-21.01,20.883l-3.025-0.005
				l0.008-3.031l20.859-20.862l0.057-0.099l-1.005-1.073l-15.246-15.242l-20.981,20.97l-3.052,0.006l-0.021-3.022l20.867-21.048
				l-16.836-16.721l-21.083,20.874l-3.458,0.007v-3.017l19.401-19.127l-0.309-3.367l-0.873-0.013L50.46,94.997v-2.984l4.991,0.008
				l22.757,20.795l16.69-16.692L74.006,75.114l-0.005-3.016l3.003,0.008l20.89,20.937l14.81-14.93l2.455-0.389L93.334,55.804
				l-0.023-3.037l2.966-0.005l20.907,20.889l20.72-20.911l2.634-0.01v3.027l-20.455,20.988l16.872,16.42l20.88-20.878l3.034-0.004
				l0.004,3.022l-20.837,20.967l15.478,15.477l0.89,1.415l1.305-1.284l19.857-19.857l3.037-0.008l0.005,3.023l-20.851,20.98
				L180.607,137l-0.005,3.024l-3.037-0.008l-20.977-20.977l-0.637,0.743l-0.377,0.358l-15.594,15.58l20.863,21.015l-0.017,3.022
				l-3.092-0.008l-21.029-20.921l-16.656,16.43l20.484,21.016v3.032L137.907,179.305z M81.442,116.144l0.917,0.937l35.036,35.031
				l36.146-36.135l-16.514-16.514l-0.341-0.305l-2.247-2.25l-1.627-1.667l-15.417-15.405l-35.21,35.214l-1.094,0.746L81.442,116.144
				z"/>
		</g>
	</g>
</g>
</svg>
