<?xml version="1.0" encoding="utf-8"?>
<!-- Generator: Adobe Illustrator 16.0.0, SVG Export Plug-In . SVG Version: 6.00 Build 0)  -->
<!DOCTYPE svg PUBLIC "-//W3C//DTD SVG 1.1//EN" "http://www.w3.org/Graphics/SVG/1.1/DTD/svg11.dtd">
<svg version="1.1" id="Layer_1" xmlns="http://www.w3.org/2000/svg" xmlns:xlink="http://www.w3.org/1999/xlink" x="0px" y="0px"
	 width="77.576px" height="77.572px" viewBox="0 0 77.576 77.572" enable-background="new 0 0 77.576 77.572" xml:space="preserve">
<g>
	<g>
		<g>
			<path fill="#FF0000" d="M1.414,38.786L38.789,1.414l37.373,37.372L38.789,76.158L1.414,38.786z M3.446,38.786l35.347,35.341
				l35.341-35.341L38.793,3.444L3.446,38.786z M13.713,38.786l25.076-25.08l25.084,25.08L38.789,63.862L13.713,38.786z
				 M15.744,38.786l23.047,23.045l23.054-23.045L38.791,15.737L15.744,38.786z"/>
		</g>
	</g>
</g>
<polyline fill="#FF0000" points="40.362,38.433 50.384,34.687 50.374,38.434 50.382,42.181 40.362,38.433 "/>
<polyline fill="#FF0000" points="37.636,38.435 27.614,42.181 27.624,38.434 27.615,34.687 37.636,38.435 "/>
<polyline fill="#FF0000" points="38.998,37.071 35.252,27.05 38.999,27.059 42.746,27.052 38.998,37.071 "/>
<polyline fill="#FF0000" points="39,39.798 42.746,49.819 38.999,49.809 35.252,49.818 39,39.798 "/>
</svg>
