<?xml version="1.0" encoding="utf-8"?>
<!-- Generator: Adobe Illustrator 16.0.0, SVG Export Plug-In . SVG Version: 6.00 Build 0)  -->
<!DOCTYPE svg PUBLIC "-//W3C//DTD SVG 1.1//EN" "http://www.w3.org/Graphics/SVG/1.1/DTD/svg11.dtd">
<svg version="1.1" id="Layer_1" xmlns="http://www.w3.org/2000/svg" xmlns:xlink="http://www.w3.org/1999/xlink" x="0px" y="0px"
	 width="77.576px" height="77.572px" viewBox="106.567 101.067 77.576 77.572"
	 enable-background="new 106.567 101.067 77.576 77.572" xml:space="preserve">
<g>
	<path fill="#FF0000" d="M145.355,159.501l-19.65-19.648l19.65-19.648l19.651,19.648L145.355,159.501z M130.564,139.853
		l14.792,14.79l14.793-14.79l-14.793-14.789L130.564,139.853z M145.355,147.139l-7.285-7.286l7.285-7.285l7.283,7.285
		L145.355,147.139z M142.932,139.853l2.426,2.427l2.422-2.427l-2.422-2.426L142.932,139.853z"/>
</g>
<g>
	<path fill="#FF0000" d="M145.355,178.639l-38.789-38.786l38.789-38.786l38.787,38.786L145.355,178.639z M111.427,139.853
		l33.931,33.927l33.927-33.927l-33.927-33.927L111.427,139.853z M145.355,166.344l-26.491-26.491l26.491-26.494l26.498,26.494
		L145.355,166.344z M123.724,139.853l21.633,21.631l21.639-21.631l-21.639-21.634L123.724,139.853z"/>
</g>
</svg>
