<?xml version="1.0" encoding="utf-8"?>
<!-- Generator: Adobe Illustrator 16.0.0, SVG Export Plug-In . SVG Version: 6.00 Build 0)  -->
<!DOCTYPE svg PUBLIC "-//W3C//DTD SVG 1.1//EN" "http://www.w3.org/Graphics/SVG/1.1/DTD/svg11.dtd">
<svg version="1.1" id="Layer_1" xmlns="http://www.w3.org/2000/svg" xmlns:xlink="http://www.w3.org/1999/xlink" x="0px" y="0px"
	 width="41.261px" height="41.266px" viewBox="120.125 120.749 41.261 41.266"
	 enable-background="new 120.125 120.749 41.261 41.266" xml:space="preserve">
<g>
	<path fill="#FF0000" d="M142.111,162.014l-0.004-19.281l19.279,0.006L142.111,162.014z M145.232,145.855v8.615l8.608-8.611
		L145.232,145.855z"/>
</g>
<g>
	<path fill="#FF0000" d="M139.406,162.014l-19.281-19.273l19.281-0.008V162.014z M127.667,145.859l8.614,8.611v-8.615
		L127.667,145.859z"/>
</g>
<g>
	<path fill="#FF0000" d="M142.093,140.033v-19.284l19.277,19.276L142.093,140.033z M145.218,128.293v8.615l8.608-0.005
		L145.218,128.293z"/>
</g>
<g>
	<path fill="#FF0000" d="M139.406,140.033l-19.279-0.008l19.274-19.276L139.406,140.033z M127.667,136.903l8.614,0.005v-8.615
		L127.667,136.903z"/>
</g>
<g>
	<rect x="137.281" y="137.908" fill="#FF0000" width="6.964" height="6.964"/>
</g>
</svg>
