<?xml version="1.0" encoding="utf-8"?>
<!-- Generator: Adobe Illustrator 16.0.0, SVG Export Plug-In . SVG Version: 6.00 Build 0)  -->
<!DOCTYPE svg PUBLIC "-//W3C//DTD SVG 1.1//EN" "http://www.w3.org/Graphics/SVG/1.1/DTD/svg11.dtd">
<svg version="1.1" id="Layer_1" xmlns="http://www.w3.org/2000/svg" xmlns:xlink="http://www.w3.org/1999/xlink" x="0px" y="0px"
	 width="41.262px" height="41.266px" viewBox="0 0 41.262 41.266" enable-background="new 0 0 41.262 41.266" xml:space="preserve">
<g>
	<g>
		<g>
			<path fill="#FF0000" d="M22.981,22.984l15.866,0.006L22.985,38.852L22.981,22.984z M24.106,36.137l12.021-12.025l-12.021-0.005
				V36.137z"/>
		</g>
	</g>
</g>
<g>
	<g>
		<g>
			<path fill="#FF0000" d="M2.414,22.991l15.867-0.008v15.868L2.414,22.991z M5.128,24.111l12.028,12.024V24.106L5.128,24.111z"/>
		</g>
	</g>
</g>
<g>
	<g>
		<g>
			<path fill="#FF0000" d="M22.968,2.414l15.864,15.862l-15.864,0.007V2.414z M24.093,17.16l12.021-0.008L24.093,5.129V17.16z"/>
		</g>
	</g>
</g>
<g>
	<g>
		<g>
			<path fill="#FF0000" d="M2.415,18.277L18.277,2.414l0.004,15.87L2.415,18.277z M5.128,17.153l12.028,0.008V5.13L5.128,17.153z"/>
		</g>
	</g>
</g>
</svg>
