<?xml version="1.0" encoding="utf-8"?>
<!-- Generator: Adobe Illustrator 16.0.0, SVG Export Plug-In . SVG Version: 6.00 Build 0)  -->
<!DOCTYPE svg PUBLIC "-//W3C//DTD SVG 1.1//EN" "http://www.w3.org/Graphics/SVG/1.1/DTD/svg11.dtd">
<svg version="1.1" id="Layer_1" xmlns="http://www.w3.org/2000/svg" xmlns:xlink="http://www.w3.org/1999/xlink" x="0px" y="0px"
	 width="77.576px" height="77.572px" viewBox="0 0 77.576 77.572" enable-background="new 0 0 77.576 77.572" xml:space="preserve">
<g>
	<g>
		<g>
			<g>
				<g>
					<path fill="#FF0000" d="M0,38.786L38.789,0l38.787,38.786L38.789,77.572L0,38.786z M38.793,72.713L72.72,38.786L38.793,4.858
						L4.86,38.786L38.793,72.713z M12.299,38.786l26.49-26.494l26.498,26.494l-26.498,26.49L12.299,38.786z M38.791,60.417
						l21.64-21.631l-21.64-21.635L17.158,38.786L38.791,60.417z"/>
				</g>
			</g>
		</g>
	</g>
</g>
<g>
	<path fill="#FF0000" d="M51.385,43.625l-13.877-5.192l13.88-5.188l-0.014,5.192L51.385,43.625z M43.218,38.434l6.161,2.304
		l-0.005-2.302l0.006-2.306L43.218,38.434z"/>
</g>
<g>
	<path fill="#FF0000" d="M26.61,43.624l0.014-5.192l-0.012-5.188l13.879,5.191L26.61,43.624z M28.619,36.13l0.005,2.302
		l-0.006,2.307l6.163-2.304L28.619,36.13z"/>
</g>
<g>
	<path fill="#FF0000" d="M38.998,39.927l-5.188-13.881l5.192,0.014l5.188-0.011L38.998,39.927z M36.695,28.053l2.304,6.163
		l2.304-6.162l-2.302,0.005L36.695,28.053z"/>
</g>
<g>
	<path fill="#FF0000" d="M44.188,50.823l-5.192-0.014l-5.188,0.012L39,36.943L44.188,50.823z M38.997,48.809l2.307,0.006L39,42.653
		l-2.305,6.162L38.997,48.809z"/>
</g>
</svg>
