<?xml version="1.0" encoding="utf-8"?>
<!-- Generator: Adobe Illustrator 16.0.0, SVG Export Plug-In . SVG Version: 6.00 Build 0)  -->
<!DOCTYPE svg PUBLIC "-//W3C//DTD SVG 1.1//EN" "http://www.w3.org/Graphics/SVG/1.1/DTD/svg11.dtd">
<svg version="1.1" id="Layer_1" xmlns="http://www.w3.org/2000/svg" xmlns:xlink="http://www.w3.org/1999/xlink" x="0px" y="0px"
	 width="231px" height="231px" viewBox="0 0 231 231" enable-background="new 0 0 231 231" xml:space="preserve">
<path fill="#4C0A03" d="M115.371,4.477L5.678,113.702L115.415,222.96l109.517-109.075L115.371,4.477 M115.385,207.011
	l-93.614-93.269l93.614-93.266l93.634,93.271L115.385,207.011 M115.382,22.951l-7.503,7.476l0.023,0.015l-76.119,75.824
	l-0.076-0.074l-7.506,7.47l85.748,85.415l0.018-0.021l5.448,5.431l90.991-90.636l-4.421-4.427l0.103-0.1L115.382,22.951
	 M115.4,189.562l-76.116-75.82L115.4,37.914l76.122,75.828L115.4,189.562 M115.622,39.869l-0.105,0.098l-0.103-0.098l-73.771,73.772
	l0.105,0.101l-0.105,0.103l73.756,73.745l0.105-0.1l0.117,0.117l73.753-73.752l-0.1-0.098l0.115-0.116L115.622,39.869
	 M115.523,171.756L57.5,113.742l58.023-58.02l58.014,58.02L115.523,171.756 M115.456,60.784l-8.479,8.487l8.312,8.315l8.475-8.489
	L115.456,60.784 M124.242,69.715l-9.673,11.83L105,71.679v9.695l8.906,10.797L123,81.374V67 M136.883,81.652l-10.057,0.342
	l-11.371,11.25l-11.365-11.25l-9.746-0.033l21.111,21.112L136.883,81.652 M90,82v8.732l24.023,22.266L138,90.906v-7.95
	l-22.822,21.789L91.142,82.16 M137.86,91.105l-22.405,22.401L93.056,91.105l-7.972,0.056l22.396,22.396l-22.396,22.4l7.972,0.055
	l22.399-22.411l22.405,22.411l7.976-0.055l-22.399-22.4l22.399-22.396L137.86,91.105 M83.948,92.295l-0.059,10.137l11.371,11.362
	L83.89,124.928l0.059,10.133l21.506-21.503L83.948,92.295 M146.723,92.537l-21.018,21.021l21.264,21.263l0.056-10.375
	l-11.025-10.888l10.779-10.646L146.723,92.537 M81,103h-7.55l10.967,9.047L73.689,121h9.694l11.04-8.637l-11.645-9.821 M159,103
	h-11.639l-10.563,8.736L147.604,121h10.174l-10.724-9.044l10.694-9.415 M159.751,105.073l-8.32,8.315l8.483,8.487l8.318-8.318
	L159.751,105.073 M71.002,105.241l-8.314,8.316l8.481,8.488l8.312-8.313L71.002,105.241 M114.023,114.183L90,136.448v7.987
	l23.977-21.993L138,144.23v-7.955L114.023,114.183 M115.456,124.281l-21.138,21.138l9.772-0.053l11.365-11.271l11.371,11.271
	l9.966,0.252L115.456,124.281 M114.103,134.788L105,145.826v9.938l9.05-10.967l8.95,10.724v-9.695L114.103,134.788 M115.628,149.532
	l-8.484,8.487l8.312,8.314l8.487-8.487L115.628,149.532 M115.371,2.68l0.905,0.896L225.83,112.983l0.905,0.905l-0.905,0.902
	L116.316,223.865l-0.902,0.893l-0.899-0.893L4.776,114.603l-0.906-0.9l0.906-0.902L114.472,3.576L115.371,2.68L115.371,2.68z
	 M103.827,69.215l1.569,1.559l9.972,9.832l10.074-10.074l1.546-1.544l-11.464-11.468L103.827,69.215L103.827,69.215z M129,80.7
	l8.633-0.32l1.623-0.05L129,69.618v1.817V80.7L129,80.7z M92.04,79.552L92.702,79h1.517L102,80.725v-9.046v-1.865L92.04,79.552
	L92.04,79.552z M138,81.445v1.511v6.883l7.356,0.048l2.07,0.015l0.108-0.17l-8.824-8.56L138,81.445L138,81.445z M83.24,89.804
	l0.205,0.098l0.652-0.015L90,89.839v-7.091v-1.38l0.839-0.137L83.24,89.804L83.24,89.804z M147.987,90.807l0.006,0.776l0.053,8.417
	h9.488h2.352l-11.491-10.541L147.987,90.807L147.987,90.807z M71.632,100h1.818h9.175l0.047-8.472l0.012-1.32l-0.1-0.576L71.632,100
	L71.632,100z M59.297,113.742l11.696,11.693l1.789-1.81l9.837-9.97L72.548,103.58l-1.546-1.54L59.297,113.742L59.297,113.742z
	 M148.863,113.425l9.818,9.959l1.698,1.716l11.356-11.359l-11.465-11.468l-1.847,1.799L148.863,113.425L148.863,113.425z
	 M148.292,124l-0.05,10.165l-0.012,1.999l0.349-0.345L159.926,124h-2.148H148.292L148.292,124z M71.348,124l11.055,12.027
	l0.281,0.082l-0.012-2.24L82.625,124h-8.936H71.348L71.348,124z M138,137.28v6.95v1.686l0.74,0.337l9.032-8.687l-0.399-0.345
	l-1.987,0.009L138,137.28L138,137.28z M82.413,137.625L90,146.191v-0.205v-1.551v-7.155l-5.903-0.05l-1.493-0.009L82.413,137.625
	L82.413,137.625z M103.815,158.254l11.708,11.704l11.743-11.739l-1.815-1.789l-9.971-9.834l-10.077,10.065L103.815,158.254
	L103.815,158.254z M92.743,146.704l-0.852,0.237L102,157.671v-1.906v-9.122l-8.288,0.05L92.743,146.704L92.743,146.704z
	 M129,157.867l10.331-10.932l-1.642-0.044L129,146.657v8.864V157.867L129,157.867z M115.456,58.984l0.908,0.9l8.306,8.314
	l0.898,0.897l-0.898,0.901l-8.481,8.486l-0.899,0.901l-0.899-0.901l-8.314-8.313l-0.901-0.9l0.901-0.9l8.481-8.486L115.456,58.984
	L115.456,58.984z M159.751,103.274l0.898,0.897l8.484,8.484l0.898,0.902l-0.898,0.899l-8.314,8.32l-0.905,0.898l-0.898-0.898
	l-8.484-8.49l-0.898-0.898l0.898-0.9l8.317-8.316L159.751,103.274L159.751,103.274z M71.002,103.441l0.902,0.901l8.479,8.487
	l0.899,0.902l-0.899,0.897l-8.314,8.317l-0.899,0.901l-0.898-0.901l-8.481-8.49l-0.899-0.899l0.899-0.902l8.314-8.313
	L71.002,103.441L71.002,103.441z M115.628,147.731l0.902,0.901l8.312,8.312l0.898,0.901l-0.898,0.898l-8.479,8.487l-0.908,0.898
	l-0.899-0.898l-8.312-8.314l-0.902-0.898l0.902-0.902l8.481-8.484L115.628,147.731L115.628,147.731z"/>
</svg>
