<?xml version="1.0" encoding="utf-8"?>
<!-- Generator: Adobe Illustrator 16.0.0, SVG Export Plug-In . SVG Version: 6.00 Build 0)  -->
<!DOCTYPE svg PUBLIC "-//W3C//DTD SVG 1.1//EN" "http://www.w3.org/Graphics/SVG/1.1/DTD/svg11.dtd">
<svg version="1.1" id="Layer_1" xmlns:svg="http://www.w3.org/2000/svg"
	 xmlns="http://www.w3.org/2000/svg" xmlns:xlink="http://www.w3.org/1999/xlink" x="0px" y="0px" width="674px" height="673.997px"
	 viewBox="2.242 3.848 674 673.997" enable-background="new 2.242 3.848 674 673.997" xml:space="preserve">
<g>
	<title>Layer 1</title>
	<path fill="#FFFFFF" d="M2.242,340.848l337-337l337,337l-337,336.997L2.242,340.848z"/>
</g>
<g>
	<polygon fill="#BCBCBC" points="628.459,358.555 368.143,618.548 368.143,619.25 629.161,358.555 	"/>
	<polygon fill="#BCBCBC" points="400.663,93.478 399.961,93.478 628.809,322.375 629.512,322.375 	"/>
	<polygon fill="#BCBCBC" points="628.684,323.176 629.385,323.176 601.303,351.518 600.604,351.518 	"/>
	<polygon fill="#BCBCBC" points="600.481,331 601.182,331 591.184,341.039 590.483,341.039 	"/>
	<polygon fill="#BCBCBC" points="601.038,330.845 600.336,330.845 628.459,358.555 629.161,358.555 	"/>
	<polygon fill="#BCBCBC" points="591.049,340.977 590.346,340.977 600.831,351.412 601.534,351.412 	"/>
	<polygon fill="#BCBCBC" points="632.793,361.145 363.774,629.832 363.774,630.558 633.518,361.145 	"/>
	<polygon fill="#BCBCBC" points="397.381,83.275 396.655,83.275 633.157,319.827 633.881,319.827 	"/>
</g>
<g display="none">
	<polygon display="inline" fill="#CCCCCC" points="633.682,356.583 368.651,621.287 368.651,622.001 634.396,356.583 	"/>
	<polygon display="inline" fill="#CCCCCC" points="401.76,86.706 401.045,86.706 634.04,319.75 634.754,319.75 	"/>
	<polygon display="inline" fill="#CCCCCC" points="641.938,318.423 642.653,318.423 614.062,347.277 613.348,347.277 	"/>
	<polygon display="inline" fill="#CCCCCC" points="613.159,330.292 613.874,330.292 606.09,338.042 605.377,338.042 	"/>
	<polygon display="inline" fill="#CCCCCC" points="614.043,329.523 613.329,329.523 641.959,357.732 642.674,357.732 	"/>
	<polygon display="inline" fill="#CCCCCC" points="606.188,337.875 605.471,337.875 613.516,345.875 614.231,345.875 	"/>
	<polygon display="inline" fill="#CCCCCC" points="662.002,331.861 661.288,331.861 669.168,339.611 669.883,339.611 	"/>
	<polygon display="inline" fill="#CCCCCC" points="669.073,339.445 669.788,339.445 661.901,347.277 661.186,347.277 	"/>
</g>
<g>
	<polygon fill="#BCBCBC" points="51.73,358.555 312.046,618.548 312.046,619.25 51.029,358.555 	"/>
	<polygon fill="#BCBCBC" points="279.527,93.478 280.229,93.478 51.38,322.375 50.678,322.375 	"/>
	<polygon fill="#BCBCBC" points="51.506,323.176 50.804,323.176 78.886,351.518 79.587,351.518 	"/>
	<polygon fill="#BCBCBC" points="79.71,331 79.008,331 89.006,341.039 89.708,341.039 	"/>
	<polygon fill="#BCBCBC" points="79.152,330.845 79.854,330.845 51.731,358.555 51.029,358.555 	"/>
	<polygon fill="#BCBCBC" points="89.141,340.977 89.843,340.977 79.359,351.412 78.657,351.412 	"/>
	<polygon fill="#BCBCBC" points="47.396,361.145 316.417,629.832 316.417,630.558 46.672,361.145 	"/>
	<polygon fill="#BCBCBC" points="282.81,83.275 283.535,83.275 47.033,319.827 46.308,319.827 	"/>
</g>
</svg>
