<?xml version="1.0" encoding="utf-8"?>
<!-- Generator: Adobe Illustrator 16.0.0, SVG Export Plug-In . SVG Version: 6.00 Build 0)  -->
<!DOCTYPE svg PUBLIC "-//W3C//DTD SVG 1.1//EN" "http://www.w3.org/Graphics/SVG/1.1/DTD/svg11.dtd">
<svg version="1.1" id="Layer_1" xmlns:svg="http://www.w3.org/2000/svg"
	 xmlns="http://www.w3.org/2000/svg" xmlns:xlink="http://www.w3.org/1999/xlink" x="0px" y="0px" width="344px" height="344px"
	 viewBox="0 0 344 344" enable-background="new 0 0 344 344" xml:space="preserve">
<g>
	<title>Layer 1</title>
	<path fill="#FFFFFF" d="M1.225,171.743l170.5-170.5l170.5,170.5l-170.5,170.5L1.225,171.743z"/>
</g>
<rect x="166.712" y="48.019" transform="matrix(-0.7071 -0.7072 0.7072 -0.7071 255.6657 212.0208)" fill="none" stroke="#BCBCBC" stroke-width="0.75" stroke-miterlimit="10" width="10.073" height="10.071"/>
<rect x="166.707" y="285.837" transform="matrix(-0.707 0.7072 -0.7072 -0.707 498.8698 375.0755)" fill="none" stroke="#BCBCBC" stroke-width="0.75" stroke-miterlimit="10" width="10.071" height="10.071"/>
<polygon fill="none" stroke="#BCBCBC" stroke-width="0.75" stroke-miterlimit="10" points="322.999,171.491 322.76,171.253 
	322.902,171.112 322.62,171.112 184.16,32.65 171.743,45.068 159.386,32.711 21.776,171.271 21.617,171.271 159.29,309.893 
	171.646,297.535 184.062,309.951 322.523,171.491 "/>
</svg>
