<?xml version="1.0" encoding="utf-8"?>
<!-- Generator: Adobe Illustrator 16.0.0, SVG Export Plug-In . SVG Version: 6.00 Build 0)  -->
<!DOCTYPE svg PUBLIC "-//W3C//DTD SVG 1.1//EN" "http://www.w3.org/Graphics/SVG/1.1/DTD/svg11.dtd">
<svg version="1.1" id="Layer_1" xmlns:svg="http://www.w3.org/2000/svg"
	 xmlns="http://www.w3.org/2000/svg" xmlns:xlink="http://www.w3.org/1999/xlink" x="0px" y="0px" width="674px" height="673.998px"
	 viewBox="2.242 3.847 674 673.998" enable-background="new 2.242 3.847 674 673.998" xml:space="preserve">
<g>
	<title>Layer 1</title>
	<path fill="#FFFFFF" d="M2.242,340.847l337-337l337,337l-337,336.998L2.242,340.847z"/>
</g>
<g>
	<polygon fill="#BCBCBC" points="628.459,358.554 359.125,627.591 359.125,628.292 629.161,358.554 	"/>
	<polygon fill="#BCBCBC" points="340.005,32.667 339.304,32.667 628.809,322.375 629.512,322.375 	"/>
	<polygon fill="#BCBCBC" points="628.684,323.176 629.385,323.176 601.303,351.519 600.604,351.519 	"/>
	<polygon fill="#BCBCBC" points="600.481,331 601.182,331 591.184,341.039 590.483,341.039 	"/>
	<polygon fill="#BCBCBC" points="601.038,330.845 600.336,330.845 628.459,358.554 629.161,358.554 	"/>
	<polygon fill="#BCBCBC" points="591.049,340.978 590.346,340.978 600.831,351.412 601.534,351.412 	"/>
	<polygon fill="#BCBCBC" points="632.793,361.146 363.774,629.832 363.774,630.558 633.518,361.146 	"/>
	<polygon fill="#BCBCBC" points="372.227,58.5 371.5,58.5 633.157,319.827 633.881,319.827 	"/>
</g>
<g display="none">
	<polygon display="inline" fill="#CCCCCC" points="633.682,356.583 368.651,621.287 368.651,622.001 634.396,356.583 	"/>
	<polygon display="inline" fill="#CCCCCC" points="401.76,86.706 401.045,86.706 634.04,319.75 634.754,319.75 	"/>
	<polygon display="inline" fill="#CCCCCC" points="641.938,318.423 642.653,318.423 614.062,347.278 613.348,347.278 	"/>
	<polygon display="inline" fill="#CCCCCC" points="613.159,330.292 613.874,330.292 606.09,338.042 605.377,338.042 	"/>
	<polygon display="inline" fill="#CCCCCC" points="614.043,329.523 613.329,329.523 641.959,357.733 642.674,357.733 	"/>
	<polygon display="inline" fill="#CCCCCC" points="606.188,337.875 605.471,337.875 613.516,345.875 614.231,345.875 	"/>
	<polygon display="inline" fill="#CCCCCC" points="662.002,331.861 661.288,331.861 669.168,339.61 669.883,339.61 	"/>
	<polygon display="inline" fill="#CCCCCC" points="669.073,339.444 669.788,339.444 661.901,347.278 661.186,347.278 	"/>
</g>
<g>
	<polygon fill="#BCBCBC" points="51.73,358.554 321.625,628.125 321.625,628.826 51.029,358.554 	"/>
	<polygon fill="#BCBCBC" points="339.655,33.167 340.357,33.167 51.38,322.375 50.678,322.375 	"/>
	<polygon fill="#BCBCBC" points="51.506,323.176 50.804,323.176 78.886,351.519 79.587,351.519 	"/>
	<polygon fill="#BCBCBC" points="79.71,331 79.008,331 89.006,341.039 89.708,341.039 	"/>
	<polygon fill="#BCBCBC" points="79.152,330.845 79.854,330.845 51.731,358.554 51.029,358.554 	"/>
	<polygon fill="#BCBCBC" points="89.141,340.978 89.843,340.978 79.359,351.412 78.657,351.412 	"/>
	<polygon fill="#BCBCBC" points="47.396,361.146 316.417,629.832 316.417,630.558 46.672,361.146 	"/>
	<polygon fill="#BCBCBC" points="307.31,58.833 308.035,58.833 47.033,319.827 46.308,319.827 	"/>
</g>
<rect x="326.555" y="96.053" transform="matrix(-0.7071 -0.7071 0.7071 -0.7071 502.6862 426.5828)" fill="none" stroke="#BCBCBC" stroke-width="0.75" stroke-miterlimit="10" width="26.266" height="26.265"/>
<polyline fill="none" stroke="#BCBCBC" stroke-width="0.75" stroke-miterlimit="10" points="371.966,58.62 339.721,90.865 
	308.035,59.179 "/>
<polyline fill="none" stroke="#BCBCBC" stroke-width="0.75" stroke-miterlimit="10" points="383.647,83.853 340.078,40.284 
	299.431,80.93 "/>
<rect x="333.018" y="591.325" transform="matrix(-0.7071 0.7071 -0.7071 -0.7071 1004.6921 781.4572)" fill="none" stroke="#BCBCBC" stroke-width="0.75" stroke-miterlimit="10" width="14.965" height="14.965"/>
<polyline fill="none" stroke="#BCBCBC" stroke-width="0.75" stroke-miterlimit="10" points="359.367,628.051 340.536,609.219 
	321.628,628.126 "/>
<rect x="320.099" y="57.068" transform="matrix(-0.7071 -0.7071 0.7071 -0.7071 525.6758 371.0629)" fill="none" stroke="#BCBCBC" stroke-width="0.75" stroke-miterlimit="10" width="39.18" height="39.18"/>
</svg>
