<?xml version="1.0" encoding="utf-8"?>
<!-- Generator: Adobe Illustrator 16.0.0, SVG Export Plug-In . SVG Version: 6.00 Build 0)  -->
<!DOCTYPE svg PUBLIC "-//W3C//DTD SVG 1.1//EN" "http://www.w3.org/Graphics/SVG/1.1/DTD/svg11.dtd">
<svg version="1.1" id="Layer_1" xmlns="http://www.w3.org/2000/svg" xmlns:xlink="http://www.w3.org/1999/xlink" x="0px" y="0px"
	 width="283px" height="283px" viewBox="0 0 283 283" enable-background="new 0 0 283 283" xml:space="preserve">
<path fill="#FF0000" d="M129.974,182.396l11.722,11.72l11.72-11.72l-11.72-11.722L129.974,182.396z M141.695,187.759l-5.363-5.363
	l5.363-5.363l5.361,5.363L141.695,187.759z"/>
<path fill="#FF0000" d="M119.563,121.005L131.422,134h-9.636l-11.772-13H119 M120.718,118h-17.02l17.02,18h17.02L120.718,118
	L120.718,118z"/>
<path fill="#FF0000" d="M96.513,125.718l-11.719,11.719l11.719,11.722l11.722-11.722L96.513,125.718z M91.149,137.437l5.364-5.363
	l5.364,5.363l-5.364,5.364L91.149,137.437z"/>
<path fill="#FF0000" d="M126.804,105.901L137,117.703v9.585l-10-11.702V105 M124,99.623v17.022l16,17.02v-17.02L124,99.623
	L124,99.623z"/>
<path fill="#FF0000" d="M173.564,121.005L161.655,134h-9.636l11.772-13H174 M179.745,118h-17.021l-17.02,18h17.02L179.745,118
	L179.745,118z"/>
<path fill="#FF0000" d="M129.974,92.483l11.722,11.719l11.72-11.719l-11.72-11.722L129.974,92.483z M141.695,97.844l-5.363-5.361
	l5.363-5.364l5.361,5.364L141.695,97.844z"/>
<path fill="#FF0000" d="M158,105v10.586l-13,11.702v-9.585l12.995-11.802 M161,99.623l-18,17.022v17.02l18-17.02V99.623L161,99.623z
	"/>
<path fill="#FF0000" d="M145.005,147.428L158,159.013v9.583l-13-11.704V147 M143,140.934v17.019l18,17.02v-17.02L143,140.934
	L143,140.934z"/>
<path fill="#FF0000" d="M186.878,149.158l11.719-11.722l-11.719-11.719l-11.723,11.719L186.878,149.158z M192.238,137.437
	l-5.36,5.364l-5.364-5.364l5.364-5.363L192.238,137.437z"/>
<polygon fill="#FF0000" points="140.008,140.934 140.011,140.938 140.011,140.934 "/>
<path fill="#FF0000" d="M137,147v9.892l-10,11.707v-9.586l10.196-11.589 M140,140.934l-16,17.019v17.02l16-17.02v-17.015V140.934
	L140,140.934z"/>
<path fill="#FF0000" d="M141.756,135.881l1.521,1.516l-1.522,1.504l-1.515-1.504L141.756,135.881 M161.785,141.804L173.431,152
	h-9.645l-11.863-10H161 M131.427,141.804L119.655,152h-9.641l11.772-10H132 M141.759,132.21l-5.204,5.407l1.172,1.383h-17.009
	l-17.02,16h17.02l17.015-16.525l2.271,2.354L140,140.934v0.004l1.754,1.729l3.991-4.141L162.724,155h17.021l-17.021-16h-16.931
	l1.17-1.373L141.759,132.21L141.759,132.21z"/>
</svg>
