<?xml version="1.0" encoding="utf-8"?>
<!-- Generator: Adobe Illustrator 16.0.0, SVG Export Plug-In . SVG Version: 6.00 Build 0)  -->
<!DOCTYPE svg PUBLIC "-//W3C//DTD SVG 1.1//EN" "http://www.w3.org/Graphics/SVG/1.1/DTD/svg11.dtd">
<svg version="1.1" id="Layer_1" xmlns="http://www.w3.org/2000/svg" xmlns:xlink="http://www.w3.org/1999/xlink" x="0px" y="0px"
	 width="109.847px" height="109.395px" viewBox="86.773 82.741 109.847 109.395"
	 enable-background="new 86.773 82.741 109.847 109.395" xml:space="preserve">
<g>
	<path fill="#FF0000" d="M131.954,180.396l9.741-9.744l9.74,9.744l-9.74,9.74L131.954,180.396z M134.352,180.397l7.343,7.341
		l7.343-7.341l-7.343-7.343L134.352,180.397z"/>
</g>
<g>
	<polygon fill="none" stroke="#F40808" stroke-width="1.5" stroke-miterlimit="10" points="121.148,135 106.019,119 120.287,119 
		135.416,135 	"/>
</g>
<g>
	<path fill="#FF0000" d="M86.773,137.437l9.74-9.74l9.742,9.74l-9.742,9.742L86.773,137.437z M89.17,137.437l7.344,7.343
		l7.343-7.343l-7.343-7.343L89.17,137.437z"/>
</g>
<g>
	<polygon fill="none" stroke="#F40808" stroke-width="1.5" stroke-miterlimit="10" points="125,116.249 125,102.147 139,117.042 
		139,131.141 	"/>
</g>
<g>
	<polygon fill="none" stroke="#F40808" stroke-width="1.5" stroke-miterlimit="10" points="148.025,135 163.155,119 177.423,119 
		162.294,135 	"/>
</g>
<g>
	<path fill="#FF0000" d="M131.954,92.483l9.741-9.741l9.74,9.741l-9.74,9.739L131.954,92.483z M134.352,92.483l7.343,7.341
		l7.343-7.341l-7.343-7.344L134.352,92.483z"/>
</g>
<g>
	<polygon fill="none" stroke="#F40808" stroke-width="1.5" stroke-miterlimit="10" points="144,117.076 160,101.945 160,116.215 
		144,131.344 	"/>
</g>
<g>
	<polygon fill="none" stroke="#F40808" stroke-width="1.5" stroke-miterlimit="10" points="144,157.522 144,143.256 160,158.384 
		160,172.651 	"/>
</g>
<g>
	<path fill="#FF0000" d="M177.134,137.436l9.744-9.74l9.741,9.74l-9.741,9.742L177.134,137.436z M179.535,137.437l7.343,7.343
		l7.34-7.343l-7.34-7.343L179.535,137.437z"/>
</g>
<g>
	
		<rect x="139.543" y="134.95" transform="matrix(0.7071 -0.7071 0.7071 0.7071 -55.4815 140.4401)" fill="#FF0000" width="4.486" height="4.485"/>
</g>
<g>
	
		<rect x="139.543" y="89.95" transform="matrix(0.7071 -0.7071 0.7071 0.7071 -23.6617 127.2599)" fill="#FF0000" width="4.486" height="4.485"/>
</g>
<g>
	
		<rect x="184.711" y="135.118" transform="matrix(0.7071 -0.7071 0.7071 0.7071 -42.3706 172.4285)" fill="#FF0000" width="4.486" height="4.485"/>
</g>
<g>
	
		<rect x="139.458" y="178.372" transform="matrix(0.7071 -0.7071 0.7071 0.7071 -86.2103 153.098)" fill="#FF0000" width="4.486" height="4.485"/>
</g>
<g>
	
		<rect x="94.237" y="135.152" transform="matrix(0.7071 -0.7071 0.7071 0.7071 -68.8942 108.4633)" fill="#FF0000" width="4.486" height="4.485"/>
</g>
<g>
	<polygon fill="#FF0000" points="140.008,140.934 140.011,140.938 140.011,140.934 	"/>
</g>
<g>
	<polygon fill="none" stroke="#F40808" stroke-width="1.5" stroke-miterlimit="10" points="125,158.349 139,143.458 139,157.556 
		125,172.45 	"/>
</g>
<g>
	<path fill="none" stroke="#F40808" stroke-width="1.5" stroke-miterlimit="10" d="M163.131,154L148.7,140h13.629l14.894,14H163.131
		z M106.221,154l14.893-14h13.614l-14.416,14H106.221z M141.015,140.535l0.003-0.095l-2.898-3.007l3.639-3.782l3.643,3.791
		l-3.665,3.803L141.015,140.535z"/>
</g>
</svg>
