<?xml version="1.0" encoding="utf-8"?>
<!-- Generator: Adobe Illustrator 16.0.0, SVG Export Plug-In . SVG Version: 6.00 Build 0)  -->
<!DOCTYPE svg PUBLIC "-//W3C//DTD SVG 1.1//EN" "http://www.w3.org/Graphics/SVG/1.1/DTD/svg11.dtd">
<svg version="1.1" id="Layer_1" xmlns="http://www.w3.org/2000/svg" xmlns:xlink="http://www.w3.org/1999/xlink" x="0px" y="0px"
	 width="283px" height="283px" viewBox="0 0 283 283" enable-background="new 0 0 283 283" xml:space="preserve">
<path fill="#3300CC" d="M200,137v-6h-6v-6h-6v-6h-6v-6h-7v-6h-5v-7h-7v-6h-6v-5h-5v-7h-7v-7h-7v7h-7v7h-4v5h-7v6h-7v7h-5v6h-6v6h-7
	v6h-6v6h-6v6h-7v7h7v6h6v6h6v6h7v7h6v6h5v5h7v7h7v6h4v7h7v5h7v-5h7v-7h5v-6h6v-7h7v-5h5v-6h7v-7h6v-6h6v-6h6v-6h7v-7H200z M188,144
	v6h-6v6h-7v6h-5v7h-7v6h-6v5h-5v7h-7v6h-7v-6h-7v-7h-4v-5h-7v-6h-7v-7h-5v-6h-6v-6h-7v-6h-6v-7h6v-6h7v-6h6v-6h5v-6h7v-6h7v-7h4v-6
	h7v-5h7v5h7v6h5v7h6v6h7v6h5v6h7v6h6v6h6v7H188z"/>
<path fill="#CC0000" d="M145,243v-7h7v-6h5v-5h6v-7h7v-7h5v-6h7v-5h6v-7h6v-6h6v-7h7v-5h5v-6h7v-7h6v-6h6v-6h7v-6h5v-7h-5v-6h-7v-6
	h-6v-6h-6v-6h-7v-6h-5v-7h-7v-6h-6v-5h-6v-7h-6v-7h-7v-6h-5v-5h-7v-7h-6v-6h-5v-6h-7v-6h-7v6h-7v6h-4v6h-7v7h-7v5h-5v6h-6v7h-7v7h-6
	v5h-6v6h-7v7h-5v6h-7v6h-6v6h-6v6h-6v6h-6v7h6v6h6v6h6v6h6v7h7v6h5v5h7v7h6v6h6v7h7v5h6v6h5v7h7v7h7v5h4v6h7v7H145z M131,225v-7h-4
	v-7h-7v-6h-7v-5h-5v-7h-6v-6h-7v-7h-6v-5h-6v-6h-7v-7h-5v-6h-7v-6h-6v-6h-6v-7h6v-6h6v-6h7v-6h5v-6h7v-6h6v-7h6v-6h7v-5h6v-7h5v-7h7
	v-6h7v-5h4v-7h7v-6h7v6h7v7h5v5h6v6h7v7h5v7h7v5h6v6h6v7h6v6h7v6h5v6h7v6h6v6h6v7h-6v6h-6v6h-7v6h-5v7h-7v6h-6v5h-6v7h-6v6h-7v7h-5
	v5h-7v6h-6v7h-5v7h-7v5h-7v-5H131z"/>
</svg>
