<?xml version="1.0" encoding="utf-8"?>
<!-- Generator: Adobe Illustrator 16.0.0, SVG Export Plug-In . SVG Version: 6.00 Build 0)  -->
<!DOCTYPE svg PUBLIC "-//W3C//DTD SVG 1.1//EN" "http://www.w3.org/Graphics/SVG/1.1/DTD/svg11.dtd">
<svg version="1.1" id="Layer_1" xmlns="http://www.w3.org/2000/svg" xmlns:xlink="http://www.w3.org/1999/xlink" x="0px" y="0px"
	 width="829.961px" height="830.355px" viewBox="0 0 829.961 830.355" enable-background="new 0 0 829.961 830.355"
	 xml:space="preserve">
<g>
	<path fill="#FF0000" d="M309.1,795l92.765-92.766l-59.688-59.688l-91.765,91.769L239.1,723l91.765-91.766l-58.688-58.688
		l-91.765,91.769L169.1,653l91.765-91.766l-64.688-64.688l-89.765,89.769L95.1,575l89.765-89.766l-58.688-58.688l-86.765,86.769
		L28.1,502l86.764-86.765l-90.822-90.822l11.314-11.315l90.822,90.822l61.743-61.743L96.1,250.355l11.313-11.313l91.822,91.822
		l60.687-60.688L169.1,179.354l11.313-11.313l90.822,90.822l61.687-61.688L242.1,106.353l11.313-11.313l90.822,90.822l59.687-59.688
		L313.1,35.352l11.313-11.313l90.823,90.822l90.818-90.822l11.314,11.314l-90.821,90.821l58.688,58.688l90.818-90.822l11.315,11.313
		l-90.822,90.822l64.688,64.688l90.818-90.822l11.315,11.313l-90.822,90.822l58.688,58.688l90.818-90.822l11.314,11.313
		l-90.821,90.822l59.688,59.688l90.818-90.822l11.313,11.314l-90.821,90.819l92.37,92.37l-11.312,11.313l-92.368-92.369
		l-59.688,59.686L733.372,575l-11.314,11.314l-90.818-90.822l-61.688,61.686l90.588,90.588l-11.312,11.313l-90.588-90.587
		l-60.688,60.686L588.372,720l-11.315,11.314l-90.818-90.822l-61.746,61.743l88.825,88.818l-11.314,11.314l-88.823-88.821
		l-92.764,92.768L309.1,795z M135.167,414.436l279.484,279.483l278.977-278.977L414.146,135.458L135.167,414.436z"/>
</g>
</svg>
