<?xml version="1.0" encoding="utf-8"?>
<!-- Generator: Adobe Illustrator 16.0.0, SVG Export Plug-In . SVG Version: 6.00 Build 0)  -->
<!DOCTYPE svg PUBLIC "-//W3C//DTD SVG 1.1//EN" "http://www.w3.org/Graphics/SVG/1.1/DTD/svg11.dtd">
<svg version="1.1" id="Layer_1" xmlns="http://www.w3.org/2000/svg" xmlns:xlink="http://www.w3.org/1999/xlink" x="0px" y="0px"
	 width="107.602px" height="52.656px" viewBox="0 0 107.602 52.656" enable-background="new 0 0 107.602 52.656"
	 xml:space="preserve">
<path fill="#FF0000" d="M18.004,50.885l5.859-5.859l-3.055-3.055l-5.796,5.795l-1.429-1.428l5.796-5.797l-2.992-2.992l-5.796,5.797
	l-1.429-1.43l5.796-5.797l-3.371-3.371l-5.67,5.67L4.488,36.99l5.669-5.67l-2.992-2.992l-5.48,5.48l-1.429-1.43l5.48-5.48L0,21.162
	l1.429-1.43l5.736,5.737l3.186-3.186l-5.8-5.799l1.429-1.429l5.799,5.799l3.119-3.118L9.162,12l1.429-1.429l5.736,5.736l3.182-3.182
	l-5.736-5.736l1.429-1.429l5.736,5.736l3.055-3.056l-5.736-5.736l1.429-1.429l5.736,5.737l5.736-5.737l1.429,1.429l-5.736,5.736
	l2.992,2.993l5.736-5.737l1.429,1.429l-5.736,5.736l3.371,3.372l5.736-5.737l1.429,1.429l-5.736,5.736l2.992,2.992l5.736-5.736
	l1.429,1.429l-5.736,5.736l3.055,3.056l5.736-5.736l1.429,1.429l-5.736,5.735l5.834,5.836l-1.429,1.428l-5.834-5.834l-3.055,3.055
	l5.736,5.738l-1.429,1.428l-5.736-5.736l-3.182,3.182l5.722,5.723l-1.429,1.428l-5.722-5.721l-3.119,3.119l5.736,5.736l-1.429,1.428
	l-5.736-5.736l-3.185,3.186l5.61,5.609l-1.429,1.43l-5.61-5.609l-5.859,5.859L18.004,50.885z M8.448,26.848l16.938,16.938
	l16.906-16.906L25.354,9.942L8.448,26.848z"/>
<path fill="#FF0000" d="M97.151,15.88l0.018-0.017l-1.165-1.165l-0.017,0.016l-3.243-3.243l0.018-0.017l-1.164-1.164l-0.018,0.016
	L81.272,0l-6.889,6.889l0,0L61.869,19.405l-6.904,6.904l0,0l-0.02,0.019l26.327,26.328l26.329-26.328L97.151,15.88z M101.437,22.495
	l3.815,3.814l-4.54,4.539l-4.539-4.539l4.539-4.541L101.437,22.495z M85.833,6.889l-4.561,4.56l-4.559-4.56l4.559-4.558l3.832,3.832
	L85.833,6.889z M66.591,17.013l4.591,4.591l1.15,0.003l0.001-1.146l-4.58-4.609l3.245-3.245l4.591,4.591l1.148,0.003l0.003-1.146
	l-4.581-4.609l3.391-3.39l5.723,5.724l5.725-5.724l3.422,3.422l-4.549,4.577l0.003,1.146l1.148-0.003l4.559-4.559l3.246,3.246
	l-4.548,4.577l0.001,1.146l1.15-0.003l4.558-4.56l3.561,3.561l-5.704,5.704l5.723,5.725L96.03,35.57l-4.601-4.602l-1.149-0.002
	l-0.002,1.145l4.589,4.619l-3.245,3.246l-4.601-4.602l-1.148-0.002L85.87,36.52l4.591,4.617l-3.464,3.465l-5.725-5.725l-5.724,5.725
	l-3.432-3.432l4.623-4.65l-0.003-1.146l-1.149,0.002l-4.632,4.635l-3.245-3.246l4.622-4.652l-0.001-1.145l-1.15,0.002l-4.632,4.633
	l-3.534-3.535l5.759-5.757l-5.74-5.74L66.591,17.013z M76.733,45.748l4.539-4.541l4.54,4.541l-4.54,4.539L76.733,45.748z
	 M61.869,21.734l4.574,4.575l-4.574,4.574l-4.574-4.574L61.869,21.734z"/>
</svg>
