<?xml version="1.0" encoding="utf-8"?>
<!-- Generator: Adobe Illustrator 16.0.0, SVG Export Plug-In . SVG Version: 6.00 Build 0)  -->
<!DOCTYPE svg PUBLIC "-//W3C//DTD SVG 1.1//EN" "http://www.w3.org/Graphics/SVG/1.1/DTD/svg11.dtd">
<svg version="1.1" id="Layer_1" xmlns="http://www.w3.org/2000/svg" xmlns:xlink="http://www.w3.org/1999/xlink" x="0px" y="0px"
	 width="283px" height="283px" viewBox="0 0 283 283" enable-background="new 0 0 283 283" xml:space="preserve">
<g>
	<path fill="#CC0000" d="M145,150h7v-6h5v-7h-5v-6h-7v-6h-7v6h-7v6h-4v7h4v6h7v6h7V150z M138,137h7v7h-7V137z"/>
	<polygon fill="#CC0000" points="145,175 139,175 139,180 146,180 146,175 152,175 152,169 145,169 	"/>
	<polygon fill="#CC0000" points="138,162 138,156 131,156 131,162 128,162 128,169 132,169 132,162 	"/>
	<polygon fill="#CC0000" points="139,169 145,169 145,162 138,162 138,169 132,169 132,175 139,175 	"/>
	<rect x="152" y="113" fill="#CC0000" width="5" height="6"/>
	<rect x="145" y="107" fill="#CC0000" width="7" height="6"/>
	<rect x="138" y="100" fill="#CC0000" width="7" height="7"/>
	<rect x="145" y="119" fill="#CC0000" width="7" height="6"/>
	<rect x="138" y="113" fill="#CC0000" width="7" height="6"/>
	<rect x="131" y="107" fill="#CC0000" width="7" height="6"/>
	<rect x="131" y="119" fill="#CC0000" width="7" height="6"/>
	<rect x="127" y="113" fill="#CC0000" width="4" height="6"/>
	<rect x="175" y="137" fill="#CC0000" width="7" height="7"/>
	<rect x="170" y="131" fill="#CC0000" width="5" height="6"/>
	<rect x="163" y="125" fill="#CC0000" width="7" height="6"/>
	<rect x="170" y="144" fill="#CC0000" width="5" height="6"/>
	<rect x="163" y="150" fill="#CC0000" width="7" height="6"/>
	<rect x="163" y="137" fill="#CC0000" width="7" height="7"/>
	<rect x="157" y="131" fill="#CC0000" width="6" height="6"/>
	<rect x="157" y="144" fill="#CC0000" width="6" height="6"/>
	<rect x="120" y="131" fill="#CC0000" width="7" height="6"/>
	<rect x="113" y="125" fill="#CC0000" width="7" height="6"/>
	<rect x="120" y="144" fill="#CC0000" width="7" height="6"/>
	<rect x="113" y="150" fill="#CC0000" width="7" height="6"/>
	<rect x="113" y="137" fill="#CC0000" width="7" height="7"/>
	<rect x="108" y="131" fill="#CC0000" width="5" height="6"/>
	<rect x="108" y="144" fill="#CC0000" width="5" height="6"/>
	<rect x="102" y="137" fill="#CC0000" width="6" height="7"/>
	<rect x="152" y="162" fill="#CC0000" width="5" height="7"/>
	<rect x="145" y="156" fill="#CC0000" width="7" height="6"/>
</g>
</svg>
