<?xml version="1.0" encoding="utf-8"?>
<!-- Generator: Adobe Illustrator 16.0.0, SVG Export Plug-In . SVG Version: 6.00 Build 0)  -->
<!DOCTYPE svg PUBLIC "-//W3C//DTD SVG 1.1//EN" "http://www.w3.org/Graphics/SVG/1.1/DTD/svg11.dtd">
<svg version="1.1" id="Layer_1" xmlns="http://www.w3.org/2000/svg" xmlns:xlink="http://www.w3.org/1999/xlink" x="0px" y="0px"
	 width="283px" height="283px" viewBox="0 0 283 283" enable-background="new 0 0 283 283" xml:space="preserve">
<g>
	<path fill="#CC0000" d="M221.579,137.604v-8.657h-7.791v-8.658h-8.657v-8.657h-8.656v-7.792h-8.658v-8.657h-8.656v-8.657h-7.792
		v-8.657h-8.657v-8.657h-8.656V61.42h-8.658v-8.657h-7.791v8.657h-8.657v7.792h-8.657v8.657h-8.658v8.657h-7.792v8.657h-8.657v8.657
		h-8.657v7.792h-8.657v8.657h-8.657v8.658H61.42v8.657h-8.657v7.791h8.657v8.657h7.792v8.657h8.657v8.657h8.657v7.792h8.657v8.656
		h8.657v8.658h7.792v8.656h8.658v8.657h8.657v7.791h8.657v8.657h7.791v-8.657h8.657v-7.791h8.657v-8.657h8.657v-8.656h7.792v-8.658
		h8.656v-8.656h8.658v-7.792h8.656v-8.657h8.657v-8.657h7.791v-8.657h8.657v-7.791H221.579z M205.131,145.396v8.656h-8.656v8.657
		h-8.658v8.657h-8.656v7.792h-7.792v8.657h-8.657v8.656h-8.656v8.657h-8.658v8.657h-7.791v-8.657h-8.657v-8.657h-8.657v-8.656
		h-8.658v-8.657h-7.792v-7.792h-8.657v-8.657h-8.657v-8.657h-8.657v-8.656h-8.657v-7.792h8.657v-8.657h8.657v-8.658h8.657v-8.657
		h8.657v-7.792h7.792v-8.657h8.658v-8.657h8.657V77.87h8.657v-8.657h7.791v8.657h8.658v8.657h8.656v8.657h8.657v8.657h7.792v7.792
		h8.656v8.657h8.658v8.658h8.656v8.657h8.657v7.792H205.131z"/>
	<path fill="#3300CC" d="M196.475,137.604v-8.657h-8.658v-8.658h-8.656v8.658h-7.792v8.657h-8.657h-8.656v-8.657h-8.658h-7.791
		h-8.657v8.657h-8.657h-8.658v-8.657h-7.792v-8.658h-8.657v8.658h-8.657v8.657h-8.657v7.791h8.657v8.657h8.657v8.657h8.657v-8.657
		h7.792v-8.657h8.658h8.657v8.657h8.657h7.791h8.658v-8.657h8.656h8.657v8.657h7.792v8.657h8.656v-8.657h8.658v-8.657h8.656v-7.791
		H196.475z M95.184,145.396v-7.792h8.657v7.792H95.184z M179.159,145.396v-7.792h8.657v7.792H179.159z"/>
	<rect x="120.29" y="120.29" fill="#3300CC" width="8.657" height="8.658"/>
	<rect x="111.632" y="111.632" fill="#3300CC" width="8.658" height="8.657"/>
	<polygon fill="#3300CC" points="145.396,171.367 137.604,171.367 137.604,179.159 128.947,179.159 128.947,187.816 
		137.604,187.816 137.604,196.475 145.396,196.475 145.396,187.816 154.053,187.816 154.053,179.159 145.396,179.159 	"/>
	<rect x="154.053" y="120.29" fill="#3300CC" width="8.657" height="8.658"/>
	<rect x="162.71" y="111.632" fill="#3300CC" width="8.657" height="8.657"/>
	<rect x="120.29" y="154.053" fill="#3300CC" width="8.657" height="8.657"/>
	<rect x="111.632" y="162.71" fill="#3300CC" width="8.658" height="8.657"/>
	<rect x="154.053" y="154.053" fill="#3300CC" width="8.657" height="8.657"/>
	<rect x="162.71" y="162.71" fill="#3300CC" width="8.657" height="8.657"/>
	<polygon fill="#3300CC" points="137.604,111.632 145.396,111.632 145.396,103.841 154.053,103.841 154.053,95.184 145.396,95.184 
		145.396,86.526 137.604,86.526 137.604,95.184 128.947,95.184 128.947,103.841 137.604,103.841 	"/>
</g>
<g>
	<path fill="#FFE000" d="M255.343,103.841v7.792h-7.792v8.657h-8.656h-8.658v-8.657h8.658v-7.792h8.656v-8.657v-8.657h-8.656v8.657
		h-8.658v8.657h-8.656h-7.791v-8.657h7.791v-8.657h8.656V77.87v-8.657h-8.656v8.657h-7.791v8.657h-8.657h-8.657V77.87h8.657v-8.657
		h8.657V61.42v-8.657h-8.657v8.657h-8.657v7.792h-8.656h-8.657V61.42h8.657v-8.657h8.656v-8.657v-8.657h-8.656v8.657h-8.657v8.657
		h-7.792h-8.657v-8.657h8.657v-8.657h7.792v-7.792V19h-7.792v8.657h-8.657v7.792h-8.657h-8.656v-7.792h-7.792v7.792h-8.657h-8.657
		v-7.792h-8.658V19h-7.792v8.657v7.792h7.792v8.657h8.658v8.657h-8.658h-7.792v-8.657h-8.657v-8.657h-8.657v8.657v8.657h8.657v8.657
		h8.657v7.792h-8.657h-8.657V61.42h-8.657v-8.657h-8.657v8.657v7.792h8.657v8.657h8.657v8.657h-8.657h-8.657v-8.657H61.42v-8.657
		h-8.657v8.657v8.657h8.657v8.657h7.792v8.657H61.42h-8.657v-8.657h-8.657v-8.657h-8.657v8.657v8.657h8.657v7.792h8.657v8.657
		h-8.657h-8.657v-8.657h-7.792v-7.792H19v7.792v8.657h8.657v8.658h7.792v8.657h-7.792v7.791h7.792v8.657h-7.792v8.657H19v8.657
		v7.792h8.657v-7.792h7.792v-8.657h8.657h8.657v8.657h-8.657v7.792h-8.657v8.656v8.658h8.657v-8.658h8.657v-8.656h8.657h7.792v8.656
		H61.42v8.658h-8.657v8.656v8.657h8.657v-8.657h7.792v-8.656h8.657h8.657v8.656h-8.657v8.657h-8.657v7.791v8.657h8.657v-8.657h8.657
		v-7.791h8.657h8.657v7.791h-8.657v8.657h-8.657v8.656v8.657h8.657v-8.657h8.657v-8.656h7.792h8.658v8.656h-8.658v8.657h-7.792
		v7.792V264h7.792v-8.657h8.658v-7.792h8.657h8.657v7.792h7.791v-7.792h8.657h8.657v7.792h8.657V264h7.792v-8.657v-7.792h-7.792
		v-8.656h-8.657v-8.658h8.657h7.792v8.658h8.656v8.656h8.658v-8.656v-8.658h-8.658v-8.656h-8.656v-7.791h8.656h8.658v7.791h8.656
		v8.656h8.657v-8.656v-7.791h-8.657v-8.657h-8.656v-8.657h8.656h8.657v8.657h7.791v8.657h8.657v-8.657v-8.657h-8.657v-8.656h-7.791
		v-8.657h7.791h8.657v8.657h8.656v8.656h8.657v-8.656v-8.657h-8.657v-7.792h-8.656v-8.657h8.656h8.657v8.657h7.792v7.792H264v-7.792
		v-8.657h-8.657v-8.657h-7.792v-8.656h7.792v-7.792h-7.792v-8.657h7.792v-8.658H264v-8.657v-7.792h-8.657V103.841z M238.895,145.396
		h-8.658v8.656h-8.656v8.657h-7.791v8.657h-8.657v7.792h-8.657v8.657h-8.656v8.656h-8.657v8.657h-7.792v8.657h-8.657v7.791h-8.657
		v8.656h-8.656v8.658h-7.792v-8.658h-8.657v-8.656h-8.657v-7.791h-8.658v-8.657h-7.792v-8.657h-8.657v-8.656h-8.657v-8.657h-8.657
		v-7.792h-8.657v-8.657H61.42v-8.657h-8.657v-8.656h-8.657v-7.792h8.657v-8.657h8.657v-8.658h7.792v-8.657h8.657v-7.792h8.657
		v-8.657h8.657v-8.657h8.657V77.87h7.792v-8.657h8.658V61.42h8.657v-8.657h8.657v-8.657h7.791v8.657h8.657v8.657h8.657v7.792h8.657
		v8.657h7.792v8.657h8.656v8.657h8.658v8.657h8.656v7.792h8.657v8.657h7.791v8.658h8.657v8.657h8.656v7.792H238.895z"/>
</g>
<path fill="#00CC33" d="M196.475,137.604v-8.657h-8.658v-8.658h-8.656v8.658h-7.792v8.657h-8.657h-8.656v-8.657h-8.658h-7.791
	h-8.657v8.657h-8.657h-8.658v-8.657h-7.792v-8.658h-8.657v8.658h-8.657v8.657h-8.657v7.791h8.657v8.657h8.657v8.657h8.657v-8.657
	h7.792v-8.657h8.658h8.657v8.657h8.657h7.791h8.658v-8.657h8.656h8.657v8.657h7.792v8.657h8.656v-8.657h8.658v-8.657h8.656v-7.791
	H196.475z M95.184,145.396v-7.792h8.657v7.792H95.184z M179.159,145.396v-7.792h8.657v7.792H179.159z"/>
<rect x="120.29" y="120.29" fill="#00CC33" width="8.657" height="8.658"/>
<rect x="111.632" y="111.632" fill="#00CC33" width="8.658" height="8.657"/>
<polygon fill="#00CC33" points="145.396,171.367 137.604,171.367 137.604,179.159 128.947,179.159 128.947,187.816 137.604,187.816 
	137.604,196.475 145.396,196.475 145.396,187.816 154.053,187.816 154.053,179.159 145.396,179.159 "/>
<rect x="154.053" y="120.29" fill="#00CC33" width="8.657" height="8.658"/>
<rect x="162.71" y="111.632" fill="#00CC33" width="8.657" height="8.657"/>
<rect x="120.29" y="154.053" fill="#00CC33" width="8.657" height="8.657"/>
<rect x="111.632" y="162.71" fill="#00CC33" width="8.658" height="8.657"/>
<rect x="154.053" y="154.053" fill="#00CC33" width="8.657" height="8.657"/>
<rect x="162.71" y="162.71" fill="#00CC33" width="8.657" height="8.657"/>
<polygon fill="#00CC33" points="137.604,111.632 145.396,111.632 145.396,103.841 154.053,103.841 154.053,95.184 145.396,95.184 
	145.396,86.526 137.604,86.526 137.604,95.184 128.947,95.184 128.947,103.841 137.604,103.841 "/>
</svg>
