<?xml version="1.0" encoding="utf-8"?>
<!-- Generator: Adobe Illustrator 16.0.0, SVG Export Plug-In . SVG Version: 6.00 Build 0)  -->
<!DOCTYPE svg PUBLIC "-//W3C//DTD SVG 1.1//EN" "http://www.w3.org/Graphics/SVG/1.1/DTD/svg11.dtd">
<svg version="1.1" id="Layer_1" xmlns="http://www.w3.org/2000/svg" xmlns:xlink="http://www.w3.org/1999/xlink" x="0px" y="0px"
	 width="17.78px" height="17.959px" viewBox="10.711 9.132 17.78 17.959" enable-background="new 10.711 9.132 17.78 17.959"
	 xml:space="preserve">
<path fill="#FF0000" d="M14.924,27.091v-3.869l3.646-3.986v3.871L14.924,27.091z M15.268,23.354v2.854l2.961-3.235V20.12
	L15.268,23.354z"/>
<path fill="#FF0000" d="M14.559,22.966h-3.848l3.957-3.92h3.73l-0.168,0.316L14.559,22.966z M11.543,22.625h2.876l3.297-3.235
	h-2.907L11.543,22.625z"/>
<path fill="#FF0000" d="M24.484,17.289h-3.852l3.958-3.92h3.851L24.484,17.289z M21.467,16.946h2.876l3.267-3.235h-2.877
	L21.467,16.946z"/>
<path fill="#FF0000" d="M18.57,16.987l-3.646-3.983V9.132l3.646,3.986V16.987z M15.268,12.871l2.961,3.235v-2.854l-2.961-3.237
	V12.871z"/>
<path fill="#FF0000" d="M20.365,17.052v-3.848l3.921-3.957v3.85L20.365,17.052z M20.706,13.347v2.875l3.235-3.266V10.08
	L20.706,13.347z"/>
<path fill="#FF0000" d="M18.518,17.199h-3.85l-3.957-3.921h3.85L18.518,17.199z M14.809,16.856h2.877l-3.267-3.235h-2.876
	L14.809,16.856z"/>
<path fill="#FF0000" d="M24.285,27.067l-3.92-3.957V19.26l3.92,3.957V27.067z M20.707,22.968l3.236,3.268V23.36l-3.236-3.271V22.968
	z"/>
<path fill="#FF0000" d="M28.491,22.966h-3.849l-3.703-3.631l-0.062-0.258l0.21-0.031h3.444L28.491,22.966z M24.782,22.625h2.877
	l-3.267-3.235h-2.91L24.782,22.625z"/>
<path fill="#FF0000" d="M19.378,19.453l-1.271-1.271l1.119,0.004l0.19,0.189l0.188-0.188l1.026,0.006L19.378,19.453z M18.939,18.526
	l0.438,0.438l0.436-0.436H19.75l-0.33,0.33l-0.334-0.334h-0.146V18.526z"/>
<path fill="#FF0000" d="M20.305,18.524H18.45l-0.419-0.42l1.348-1.349l1.346,1.349L20.305,18.524z M19.171,18.128l0.248,0.25
	l0.208-0.209l-0.249-0.248L19.171,18.128z M20.098,18.183h0.062l0.078-0.078l-0.86-0.862l-0.862,0.862l0.077,0.078h0.146
	l-0.053-0.055l0.692-0.691l0.731,0.732L20.098,18.183z"/>
</svg>
