<?xml version="1.0" encoding="utf-8"?>
<!-- Generator: Adobe Illustrator 16.0.0, SVG Export Plug-In . SVG Version: 6.00 Build 0)  -->
<!DOCTYPE svg PUBLIC "-//W3C//DTD SVG 1.1//EN" "http://www.w3.org/Graphics/SVG/1.1/DTD/svg11.dtd">
<svg version="1.1" id="Layer_1" xmlns="http://www.w3.org/2000/svg" xmlns:xlink="http://www.w3.org/1999/xlink" x="0px" y="0px"
	 width="38.789px" height="38.79px" viewBox="0 0 38.789 38.79" enable-background="new 0 0 38.789 38.79" xml:space="preserve">
<g>
	<path fill="#FF0000" d="M2.961,15.539l2.572,2.616H3.582L1.01,15.539H2.961 M3.152,15.083h-3.23l3.469,3.528H6.62L3.152,15.083
		L3.152,15.083z"/>
	<path fill="#FF0000" d="M13.959,4.549l2.546,2.517h-1.933l-2.546-2.517H13.959 M14.146,4.094h-3.23l3.468,3.428h3.23L14.146,4.094
		L14.146,4.094z"/>
	<path fill="#FF0000" d="M15.057,1.432l2.618,2.572v1.952l-2.618-2.572V1.432 M14.602,0.343v3.23l3.528,3.468V3.812L14.602,0.343
		L14.602,0.343z"/>
	<path fill="#FF0000" d="M6.685,21.295v1.935l-2.516,2.545v-1.932L6.685,21.295 M7.141,20.188l-3.428,3.468v3.23l3.428-3.47V20.188
		L7.141,20.188z"/>
	<path fill="#FF0000" d="M5.533,20.176l-2.572,2.616H1.01l2.572-2.616H5.533 M6.62,19.719H3.391l-3.469,3.528h3.23L6.62,19.719
		L6.62,19.719z"/>
	<path fill="#FF0000" d="M36.325,15.539l-2.52,2.415h-1.913l2.52-2.415H36.325 M37.458,15.083h-3.23L30.76,18.41h3.229
		L37.458,15.083L37.458,15.083z"/>
	<path fill="#FF0000" d="M22.312,1.432v1.952l-2.618,2.572V4.003L22.312,1.432 M22.768,0.343l-3.528,3.469v3.229l3.528-3.468V0.343
		L22.768,0.343z"/>
	<path fill="#FF0000" d="M33.3,12.447v1.937l-2.517,2.59v-1.979L33.3,12.447 M33.756,11.337l-3.428,3.47v3.3l0.025-0.034
		l3.402-3.504V11.337L33.756,11.337z"/>
	<path fill="#FF0000" d="M25.307,4.549L22.76,7.066h-1.934l2.546-2.517H25.307 M26.416,4.094h-3.229l-3.47,3.428h3.23L26.416,4.094
		L26.416,4.094z"/>
	<path fill="#FF0000" d="M33.798,20.176l2.573,2.616H34.42l-2.573-2.616H33.798 M33.988,19.719H30.76l3.468,3.528h3.23
		L33.988,19.719L33.988,19.719z"/>
	<path fill="#FF0000" d="M22.808,31.165l2.546,2.516h-1.935l-2.571-2.516H22.808 M22.995,30.708h-3.252l0.011,0.023l3.48,3.404
		h3.229L22.995,30.708L22.995,30.708z"/>
	<path fill="#FF0000" d="M18.757,16.713l2.301,2.302l-2.301,2.301l-2.302-2.301L18.757,16.713 M18.757,20.735l0.322-0.322
		l1.076-1.076l0.322-0.322l-0.322-0.322l-1.075-1.076l-0.323-0.323l-0.323,0.323l-1.075,1.076l-0.322,0.322l0.322,0.322l1.075,1.076
		L18.757,20.735 M18.757,16.068l-2.947,2.946l2.947,2.947l2.947-2.947L18.757,16.068L18.757,16.068z M18.757,20.09l-1.075-1.076
		l1.075-1.076l1.076,1.076L18.757,20.09L18.757,20.09z"/>
	<path fill="#FF0000" d="M4.169,12.495l2.516,2.546v1.934l-2.516-2.547V12.495 M3.713,11.387v3.229l3.428,3.469v-3.23L3.713,11.387
		L3.713,11.387z"/>
	<path fill="#FF0000" d="M30.783,21.298l2.517,2.545v1.932l-2.517-2.547V21.298 M30.345,20.207l-0.017,0.019v3.191l3.428,3.47v-3.23
		L30.345,20.207L30.345,20.207z"/>
	<path fill="#FF0000" d="M19.896,32.314l2.416,2.52v1.913l-2.416-2.52V32.314 M19.441,31.18v3.23l3.327,3.469v-3.23L19.441,31.18
		L19.441,31.18z"/>
	<path fill="#FF0000" d="M16.522,31.165l-2.563,2.516h-1.933l2.546-2.516H16.522 M17.626,30.708h-3.242l-3.468,3.428h3.23
		l3.474-3.41L17.626,30.708L17.626,30.708z"/>
	<path fill="#FF0000" d="M17.675,32.268v1.951l-2.618,2.573v-1.951L17.675,32.268 M18.13,31.18l-3.528,3.469v3.23l3.528-3.469V31.18
		L18.13,31.18z"/>
	<polygon fill="#FF0000" points="18.685,13.475 18.236,13.923 18.685,14.372 19.132,13.923 18.685,13.475 	"/>
	<polygon fill="#FF0000" points="18.685,9.508 18.236,9.957 18.685,10.405 19.132,9.957 18.685,9.508 	"/>
	<polygon fill="#FF0000" points="18.685,7.275 18.236,7.724 18.685,8.171 19.132,7.724 18.685,7.275 	"/>
	<polygon fill="#FF0000" points="17.475,14.686 17.027,15.134 17.475,15.581 17.922,15.134 17.475,14.686 	"/>
	<polygon fill="#FF0000" points="16.265,15.895 15.817,16.344 16.265,16.791 16.713,16.344 16.265,15.895 	"/>
	<polygon fill="#FF0000" points="14.954,17.205 14.506,17.653 14.954,18.102 15.403,17.653 14.954,17.205 	"/>
	<polygon fill="#FF0000" points="13.745,18.416 13.297,18.864 13.745,19.311 14.192,18.864 13.745,18.416 	"/>
	<polygon fill="#FF0000" points="23.624,18.416 23.177,18.864 23.624,19.311 24.072,18.864 23.624,18.416 	"/>
	<polygon fill="#FF0000" points="22.415,17.205 21.967,17.653 22.415,18.102 22.862,17.653 22.415,17.205 	"/>
	<polygon fill="#FF0000" points="21.205,15.995 20.756,16.443 21.205,16.892 21.652,16.443 21.205,15.995 	"/>
	<polygon fill="#FF0000" points="19.895,14.686 19.446,15.133 19.895,15.581 20.343,15.133 19.895,14.686 	"/>
	<polygon fill="#FF0000" points="18.685,23.354 18.236,23.803 18.685,24.25 19.132,23.803 18.685,23.354 	"/>
	<polygon fill="#FF0000" points="17.475,22.145 17.027,22.593 17.475,23.042 17.922,22.593 17.475,22.145 	"/>
	<polygon fill="#FF0000" points="16.265,20.936 15.817,21.383 16.265,21.832 16.713,21.383 16.265,20.936 	"/>
	<polygon fill="#FF0000" points="14.954,19.624 14.506,20.073 14.954,20.52 15.403,20.073 14.954,19.624 	"/>
	<polygon fill="#FF0000" points="22.415,19.624 21.967,20.073 22.415,20.52 22.862,20.073 22.415,19.624 	"/>
	<polygon fill="#FF0000" points="21.205,20.833 20.756,21.283 21.205,21.731 21.652,21.283 21.205,20.833 	"/>
	<polygon fill="#FF0000" points="19.895,22.145 19.446,22.593 19.895,23.042 20.343,22.593 19.895,22.145 	"/>
	<path fill="#FF0000" d="M26.656,14.112v0.61v0.457h0.456h0.609v1.258h-0.609h-0.456v0.456v0.61h-1.258v-0.61v-0.456h-0.456h-0.61
		v-1.258h0.61h0.456v-0.457v-0.61H26.656 M27.112,13.657h-2.17v1.065h-1.065v2.17h1.065v1.067h2.17v-1.067h1.065v-2.17h-1.065
		V13.657L27.112,13.657z"/>
	<path fill="#FF0000" d="M22.508,10.065v0.61v0.456h0.454h0.612v1.257h-0.612h-0.454v0.456v0.611h-1.259v-0.611v-0.456h-0.455h-0.61
		v-1.257h0.61h0.455v-0.456v-0.61H22.508 M22.962,9.61h-2.168v1.065h-1.066v2.169h1.066v1.067h2.168v-1.067h1.067v-2.169h-1.067
		V9.61L22.962,9.61z"/>
	<path fill="#FF0000" d="M16.094,10.065v0.61v0.456h0.456h0.61v1.257h-0.61h-0.456v0.456v0.611h-1.258v-0.611v-0.456H14.38h-0.61
		v-1.257h0.61h0.456v-0.456v-0.61H16.094 M16.549,9.61H14.38v1.065h-1.066v2.169h1.066v1.067h2.169v-1.067h1.066v-2.169h-1.066V9.61
		L16.549,9.61z"/>
	<path fill="#FF0000" d="M11.945,14.112v0.61v0.457h0.456h0.61v1.258h-0.61h-0.456v0.456v0.61h-1.257v-0.61v-0.456h-0.456H9.621
		v-1.258h0.611h0.456v-0.457v-0.61H11.945 M12.401,13.657h-2.169v1.065H9.165v2.17h1.067v1.067h2.169v-1.067h1.065v-2.17h-1.065
		V13.657L12.401,13.657z"/>
	<path fill="#FF0000" d="M26.656,20.348v0.61v0.456h0.456h0.609v1.257h-0.609h-0.456v0.456v0.611h-1.258v-0.611v-0.456h-0.456h-0.61
		v-1.257h0.61h0.456v-0.456v-0.61H26.656 M27.112,19.891h-2.17v1.067h-1.065v2.169h1.065v1.067h2.17v-1.067h1.065v-2.169h-1.065
		V19.891L27.112,19.891z"/>
	<path fill="#FF0000" d="M22.508,24.394v0.611v0.456h0.454h0.612v1.258h-0.612h-0.454v0.456v0.61h-1.259v-0.61v-0.456h-0.455h-0.61
		v-1.258h0.61h0.455v-0.456v-0.611H22.508 M22.962,23.939h-2.168v1.066h-1.066v2.17h1.066v1.066h2.168v-1.066h1.067v-2.17h-1.067
		V23.939L22.962,23.939z"/>
	<path fill="#FF0000" d="M16.094,24.394v0.611v0.456h0.456h0.61v1.257h-0.61h-0.456v0.456v0.611h-1.258v-0.611v-0.456H14.38h-0.61
		v-1.257h0.61h0.456v-0.456v-0.611H16.094 M16.549,23.939H14.38v1.066h-1.066v2.169h1.066v1.067h2.169v-1.067h1.066v-2.169h-1.066
		V23.939L16.549,23.939z"/>
	<path fill="#FF0000" d="M11.945,20.348v0.61v0.456h0.456h0.61v1.257h-0.61h-0.456v0.456v0.611h-1.257v-0.611v-0.456h-0.456H9.621
		v-1.257h0.611h0.456v-0.456v-0.61H11.945 M12.401,19.891h-2.169v1.067H9.165v2.169h1.067v1.067h2.169v-1.067h1.065v-2.169h-1.065
		V19.891L12.401,19.891z"/>
	<polygon fill="#FF0000" points="19.793,8.399 19.346,8.847 19.793,9.294 20.24,8.847 19.793,8.399 	"/>
	<polygon fill="#FF0000" points="17.576,8.399 17.128,8.847 17.576,9.294 18.023,8.847 17.576,8.399 	"/>
	<polygon fill="#FF0000" points="8.514,19.678 8.066,20.126 8.514,20.574 8.962,20.126 8.514,19.678 	"/>
	<polygon fill="#FF0000" points="8.514,17.445 8.066,17.893 8.514,18.341 8.962,17.893 8.514,17.445 	"/>
	<polygon fill="#FF0000" points="9.623,18.57 9.176,19.018 9.623,19.465 10.072,19.018 9.623,18.57 	"/>
	<polygon fill="#FF0000" points="7.405,18.57 6.958,19.018 7.405,19.465 7.854,19.018 7.405,18.57 	"/>
	<polygon fill="#FF0000" points="18.667,29.831 18.218,30.278 18.667,30.726 19.115,30.278 18.667,29.831 	"/>
	<polygon fill="#FF0000" points="18.667,27.598 18.218,28.047 18.667,28.495 19.115,28.047 18.667,27.598 	"/>
	<polygon fill="#FF0000" points="19.775,28.722 19.328,29.169 19.775,29.618 20.225,29.169 19.775,28.722 	"/>
	<polygon fill="#FF0000" points="17.558,28.722 17.11,29.169 17.558,29.618 18.006,29.169 17.558,28.722 	"/>
	<polygon fill="#FF0000" points="28.995,19.704 28.547,20.153 28.995,20.6 29.442,20.153 28.995,19.704 	"/>
	<polygon fill="#FF0000" points="28.995,17.472 28.547,17.919 28.995,18.367 29.442,17.919 28.995,17.472 	"/>
	<polygon fill="#FF0000" points="30.104,18.596 29.656,19.044 30.104,19.492 30.551,19.044 30.104,18.596 	"/>
	<polygon fill="#FF0000" points="27.886,18.596 27.437,19.044 27.886,19.492 28.333,19.044 27.886,18.596 	"/>
</g>
</svg>
