<?xml version="1.0" encoding="utf-8"?>
<!-- Generator: Adobe Illustrator 16.0.0, SVG Export Plug-In . SVG Version: 6.00 Build 0)  -->
<!DOCTYPE svg PUBLIC "-//W3C//DTD SVG 1.1//EN" "http://www.w3.org/Graphics/SVG/1.1/DTD/svg11.dtd">
<svg version="1.1" id="Layer_1" xmlns="http://www.w3.org/2000/svg" xmlns:xlink="http://www.w3.org/1999/xlink" x="0px" y="0px"
	 width="38.789px" height="38.79px" viewBox="0 0 38.789 38.79" enable-background="new 0 0 38.789 38.79" xml:space="preserve">
<path fill="#FF0000" d="M14.526,27.86v-3.869l3.646-3.986v3.871L14.526,27.86z M14.87,24.124v2.855l2.961-3.236v-2.854L14.87,24.124
	z"/>
<path fill="#FF0000" d="M14.161,23.735h-3.848l3.957-3.92H18l-0.168,0.316L14.161,23.735z M11.146,23.395h2.876l3.297-3.236h-2.907
	L11.146,23.395z"/>
<path fill="#FF0000" d="M24.087,18.059h-3.851l3.957-3.92h3.851L24.087,18.059z M21.068,17.715h2.877l3.267-3.235h-2.877
	L21.068,17.715z"/>
<path fill="#FF0000" d="M18.173,17.756l-3.646-3.983V9.901l3.646,3.986V17.756z M14.87,13.641l2.961,3.235v-2.854l-2.961-3.237
	V13.641z"/>
<path fill="#FF0000" d="M19.968,17.821v-3.847l3.921-3.957v3.85L19.968,17.821z M20.309,14.116v2.875l3.235-3.266V10.85
	L20.309,14.116z"/>
<path fill="#FF0000" d="M18.12,17.969h-3.85l-3.957-3.921h3.85L18.12,17.969z M14.411,17.626h2.877l-3.267-3.235h-2.876
	L14.411,17.626z"/>
<path fill="#FF0000" d="M23.889,27.836l-3.921-3.957v-3.851l3.921,3.957V27.836z M20.311,23.737l3.235,3.268v-2.875l-3.235-3.27
	V23.737z"/>
<path fill="#FF0000" d="M28.094,23.735h-3.849l-3.703-3.631l-0.062-0.258l0.209-0.031h3.444L28.094,23.735z M24.385,23.395h2.877
	l-3.267-3.236h-2.91L24.385,23.395z"/>
<path fill="#FF0000" d="M18.98,20.223l-1.271-1.271l1.119,0.004l0.191,0.191l0.188-0.189l1.027,0.006L18.98,20.223z M18.542,19.295
	l0.438,0.439l0.435-0.436h-0.062l-0.33,0.33l-0.334-0.334L18.542,19.295L18.542,19.295z"/>
<path fill="#FF0000" d="M19.907,19.293h-1.854l-0.419-0.42l1.348-1.347l1.346,1.347L19.907,19.293z M18.773,18.897l0.248,0.25
	l0.208-0.209L18.98,18.69L18.773,18.897z M19.7,18.952h0.062l0.078-0.078l-0.86-0.863l-0.862,0.863l0.077,0.078h0.146l-0.053-0.055
	l0.692-0.691l0.731,0.732L19.7,18.952z"/>
</svg>
