<?xml version="1.0" encoding="utf-8"?>
<!-- Generator: Adobe Illustrator 16.0.0, SVG Export Plug-In . SVG Version: 6.00 Build 0)  -->
<!DOCTYPE svg PUBLIC "-//W3C//DTD SVG 1.1//EN" "http://www.w3.org/Graphics/SVG/1.1/DTD/svg11.dtd">
<svg version="1.1" id="Layer_1" xmlns="http://www.w3.org/2000/svg" xmlns:xlink="http://www.w3.org/1999/xlink" x="0px" y="0px"
	 width="283px" height="283px" viewBox="0 0 283 283" enable-background="new 0 0 283 283" xml:space="preserve">
<path fill="#CC0000" d="M261,135v-8h-8v-8h-7v-8h-8v-8h-8v-7h-8v-8h-8v-8h-7v-8h-8v-7h-8v-8h-8v-8h-7v-8h-8v-8h-8v-7h-8v-8h-8v-8h-7
	v8h-8v8h-8v7h-8v8h-8v8h-7v8h-8v8h-8v7h-8v8h-7v8h-8v8h-8v7h-8v8h-8v8h-7v8h-8v8h-8v7h8v8h8v8h7v8h8v8h8v7h8v8h8v8h7v8h8v7h8v8h8v8
	h7v8h8v8h8v7h8v8h8v8h7v-8h8v-8h8v-7h8v-8h8v-8h7v-8h8v-8h8v-7h8v-8h7v-8h8v-8h8v-7h8v-8h8v-8h7v-8h8v-8h8v-7H261z M253,142h-7v8h-8
	v8h-8v8h-8v8h-8v7h-7v8h-8v8h-8v8h-8v7h-7v8h-8v8h-8v8h-8v8h-8v7h-7v-7h-8v-8h-8v-8h-8v-8h-8v-8h-7v-7h-8v-8h-8v-8h-8v-8h-7v-7h-8
	v-8h-8v-8h-8v-8h-8v-8h-7v-7h7v-8h8v-8h8v-8h8v-8h8v-7h7v-8h8v-8h8v-8h8v-7h7v-8h8v-8h8v-8h8v-8h8v-7h7v7h8v8h8v8h8v8h8v8h7v7h8v8h8
	v8h8v8h7v7h8v8h8v8h8v8h8v8h7V142z"/>
<g>
	<rect x="253" y="80" fill="#CC0000" width="8" height="8"/>
	<rect x="230" y="57" fill="#CC0000" width="8" height="8"/>
	<rect x="207" y="33" fill="#CC0000" width="7" height="8"/>
	<rect x="183" y="10" fill="#CC0000" width="8" height="8"/>
	<rect x="90" y="10" fill="#CC0000" width="8" height="8"/>
	<rect x="67" y="33" fill="#CC0000" width="7" height="8"/>
	<rect x="43" y="57" fill="#CC0000" width="8" height="8"/>
	<rect x="20" y="80" fill="#CC0000" width="8" height="8"/>
	<rect x="20" y="189" fill="#CC0000" width="8" height="8"/>
	<rect x="43" y="212" fill="#CC0000" width="8" height="8"/>
	<rect x="67" y="236" fill="#CC0000" width="7" height="8"/>
	<rect x="90" y="259" fill="#CC0000" width="8" height="8"/>
	<rect x="183" y="259" fill="#CC0000" width="8" height="8"/>
	<rect x="207" y="236" fill="#CC0000" width="7" height="8"/>
	<rect x="230" y="212" fill="#CC0000" width="8" height="8"/>
	<rect x="253" y="189" fill="#CC0000" width="8" height="8"/>
	<rect x="246" y="88" fill="#CC0000" width="7" height="8"/>
	<rect x="222" y="65" fill="#CC0000" width="8" height="7"/>
	<rect x="199" y="41" fill="#CC0000" width="8" height="8"/>
	<rect x="176" y="18" fill="#CC0000" width="7" height="8"/>
	<rect x="98" y="18" fill="#CC0000" width="7" height="8"/>
	<rect x="74" y="41" fill="#CC0000" width="8" height="8"/>
	<rect x="51" y="65" fill="#CC0000" width="8" height="7"/>
	<rect x="28" y="88" fill="#CC0000" width="7" height="8"/>
	<rect x="28" y="181" fill="#CC0000" width="7" height="8"/>
	<rect x="51" y="205" fill="#CC0000" width="8" height="7"/>
	<rect x="74" y="228" fill="#CC0000" width="8" height="8"/>
	<rect x="98" y="251" fill="#CC0000" width="7" height="8"/>
	<rect x="176" y="251" fill="#CC0000" width="7" height="8"/>
	<rect x="199" y="228" fill="#CC0000" width="8" height="8"/>
	<rect x="222" y="205" fill="#CC0000" width="8" height="7"/>
	<rect x="246" y="181" fill="#CC0000" width="7" height="8"/>
	<rect x="238" y="96" fill="#CC0000" width="8" height="7"/>
	<rect x="214" y="72" fill="#CC0000" width="8" height="8"/>
	<rect x="191" y="49" fill="#CC0000" width="8" height="8"/>
	<rect x="168" y="26" fill="#CC0000" width="8" height="7"/>
	<rect x="105" y="26" fill="#CC0000" width="8" height="7"/>
	<rect x="82" y="49" fill="#CC0000" width="8" height="8"/>
	<rect x="59" y="72" fill="#CC0000" width="8" height="8"/>
	<rect x="35" y="96" fill="#CC0000" width="8" height="7"/>
	<rect x="35" y="174" fill="#CC0000" width="8" height="7"/>
	<rect x="59" y="197" fill="#CC0000" width="8" height="8"/>
	<rect x="82" y="220" fill="#CC0000" width="8" height="8"/>
	<rect x="105" y="244" fill="#CC0000" width="8" height="7"/>
	<rect x="168" y="244" fill="#CC0000" width="8" height="7"/>
	<rect x="191" y="220" fill="#CC0000" width="8" height="8"/>
	<rect x="214" y="197" fill="#CC0000" width="8" height="8"/>
	<rect x="238" y="174" fill="#CC0000" width="8" height="7"/>
</g>
</svg>
